# vtk DataFile Version 5.1
vtk output
ASCII
DATASET POLYDATA
POINTS 1000 float
-5.36159 -3.50049 -3.23428 -5.65203 -3.19646 -3.11781 -5.03231 -3.78475 -3.32191 
-4.70462 -4.04584 -3.30681 -4.36494 -4.28207 -3.26443 -5.11531 -3.76777 -2.84588 
-5.45468 -3.42398 -2.70264 -4.73664 -4.05318 -2.80445 -7.4944 -1.87475 -2.1344 
-7.21693 -2.07021 -2.33402 -7.7196 -1.60735 -1.9338 -6.57489 -2.4577 -2.63748 
-6.87927 -2.2732 -2.45209 -5.94775 -2.89486 -3.02142 -6.24888 -2.66991 -2.82434 
-7.0248 -2.14379 -1.98874 -7.34358 -1.87805 -1.71639 -6.22616 -2.7043 -2.35823 
-6.58712 -2.3713 -2.07794 -5.82777 -3.04419 -2.60154 -5.79118 -2.88323 -2.14217 
-5.04244 -3.67136 -2.38337 -5.43893 -3.23845 -2.25924 -4.03911 -4.50257 -3.11858 
-5.0521 -3.27835 -2.03935 -4.34698 -4.30392 -2.70343 -4.58149 -3.96568 -2.33137 
-3.72335 -4.76669 -3.00001 -3.97957 -4.56667 -2.55652 -4.14199 -4.23411 -2.21081 
-4.66915 -3.54164 -2.04055 -3.41508 -5.05509 -2.91683 -3.08312 -5.33884 -2.75986 
-3.65807 -4.862 -2.45622 -3.72383 -4.52953 -2.06182 -3.33367 -5.15372 -2.44367 
-2.72699 -5.53171 -2.58912 -2.99297 -5.31239 -2.2045 -7.88446 -1.29437 -1.72306 
-8.0605 -0.989613 -1.51954 -7.59406 -1.57167 -1.45454 -7.82906 -1.21508 -1.20002 
-6.84009 -1.99028 -1.64444 -7.11598 -1.67417 -1.34206 -6.14988 -2.49967 -1.91972 
-6.37283 -2.08998 -1.66474 -7.40359 -1.38157 -1.04554 -5.67575 -2.55835 -1.83555 
-5.26822 -2.82798 -1.89973 -4.24472 -3.76367 -1.98642 -3.35542 -4.93058 -2.04296 
-3.25479 -4.58611 -1.77965 -2.9235 -5.02492 -1.80194 -2.36041 -5.64741 -2.35403 
-2.60447 -5.41756 -1.97065 -8.25555 -0.732953 -1.28115 -8.4312 -0.533024 -0.948519 
-8.58671 -0.275855 -0.643152 -8.0744 -0.885901 -0.899926 -7.6414 -1.08016 -0.753746 
-8.27323 -0.566578 -0.454928 -7.88284 -0.806157 -0.481043 -6.58564 -1.67294 -1.37044 
-6.91439 -1.32718 -1.0572 -5.8745 -2.14069 -1.6436 -4.73924 -2.97389 -1.86241 
-4.30501 -3.24265 -1.85151 -3.841 -3.99977 -1.89671 -3.45467 -4.19293 -1.77073 
-2.84801 -4.56038 -1.62097 -1.99357 -5.76484 -2.16958 -2.48223 -5.07315 -1.57962 
-2.21139 -5.52666 -1.72014 -1.58681 -5.9213 -2.02541 -1.79118 -5.78616 -1.68125 
-8.62452 -0.0562323 -0.269768 -8.29354 -0.290624 -0.0245821 -7.86992 -0.52904 -0.106845 
-6.45202 -1.27431 -1.14488 -7.16366 -1.01046 -0.72019 -7.41747 -0.709562 -0.369209 
-6.06441 -1.6908 -1.4266 -5.33358 -2.28221 -1.69675 -4.86171 -2.48887 -1.75767 
-3.86286 -3.46588 -1.78427 -3.45668 -3.70864 -1.69238 -3.03001 -4.04356 -1.60667 
-2.44071 -4.5945 -1.47997 -1.78847 -5.61153 -1.29944 -2.06305 -5.22368 -1.32569 
-1.23423 -6.08084 -1.78097 -1.40224 -5.96761 -1.38456 -0.89538 -6.24271 -1.50072 
-1.02363 -6.1479 -1.07639 -1.40502 -5.79149 -0.971055 -8.62005 0.250455 0.0721858 
-8.28553 0.087216 0.303885 -6.67711 -0.914422 -0.841064 -7.88808 -0.139826 0.252044 
-5.51795 -1.83009 -1.52729 -4.35217 -2.70747 -1.76386 -3.90698 -2.95325 -1.72072 
-2.55699 -4.12672 -1.49606 -2.07165 -4.75309 -1.29581 -1.64793 -5.34751 -0.969039 
-1.71433 -4.90133 -1.03017 -1.28689 -5.50673 -0.627781 -0.549616 -6.41219 -1.19874 
-1.03395 -5.97227 -0.655132 -0.22248 -6.56981 -0.863964 -0.667489 -6.31296 -0.738143 
-8.43101 0.563907 0.416694 -6.20531 -0.849567 -0.965901 -6.88842 -0.608273 -0.516612 
-7.08967 -0.36138 -0.210324 -7.46673 -0.286547 0.0319025 -5.606 -1.38416 -1.34234 
-6.00641 -1.22796 -1.20988 -4.95618 -1.99318 -1.63537 -5.11129 -1.55169 -1.4874 
-4.43767 -2.20746 -1.69771 -3.44004 -3.17502 -1.62592 -3.07208 -3.49342 -1.55989 
-2.62959 -3.66177 -1.48382 -2.09015 -4.24379 -1.34862 -1.34923 -5.06512 -0.702798 
-0.951051 -5.67147 -0.335091 -0.679753 -6.07465 -0.279336 -0.623075 -5.59737 -0.0452305 
-0.34484 -6.42591 -0.377668 -0.37832 -6.08618 0.0945757 0.0815986 -6.6871 -0.497894 
-0.0875943 -6.47291 0.00816054 -8.38241 0.969642 0.61044 -7.94233 0.317355 0.558885 
-6.45112 -0.478925 -0.641049 -7.04404 0.0259501 0.0737011 -7.47428 0.113976 0.354259 
-5.22204 -1.09594 -1.29561 -5.67694 -0.850009 -1.08866 -4.5402 -1.7312 -1.60925 
-3.95221 -2.41446 -1.67306 -3.53306 -2.67038 -1.60508 -3.05143 -2.83739 -1.4986 
-2.74747 -3.17165 -1.4654 -2.14922 -3.76138 -1.39821 -1.69916 -4.41154 -1.1252 
-1.34711 -4.61072 -0.847752 -0.955899 -5.22264 -0.343579 0.351237 -6.75882 -0.135682 
-0.00692032 -6.15741 0.479573 0.613076 -6.76208 0.256149 0.209767 -6.55378 0.319797 
-7.97927 0.770608 0.770196 -5.97838 -0.465526 -0.80657 -6.67045 -0.116743 -0.261213 
-7.4963 0.506615 0.637429 -4.70257 -1.31392 -1.48024 -4.0197 -1.89367 -1.62796 
-3.58889 -2.07524 -1.57438 -3.21621 -2.36108 -1.50518 -2.30105 -3.23177 -1.41061 
-1.6803 -3.91417 -1.22971 -1.00628 -4.80516 -0.548558 -0.572558 -5.01332 -0.201095 
-0.323891 -5.29615 0.0917911 -0.240355 -5.70858 0.297555 0.399729 -6.42187 0.7065 
0.354416 -5.97175 0.865919 0.846402 -6.65034 0.605231 -8.15687 1.29216 0.891762 
-5.8392 -0.0564131 -0.592676 -6.24712 -0.0767374 -0.45012 -6.67019 0.342225 0.0947094 
-7.06517 0.413797 0.385058 -7.55425 0.888954 0.886123 -4.75404 -0.880674 -1.30957 
-5.18391 -0.65038 -1.0989 -5.49693 -0.37014 -0.877203 -4.11932 -1.44086 -1.56269 
-4.30705 -1.01429 -1.4451 -2.51661 -2.73761 -1.40381 -2.78466 -2.32374 -1.41812 
-1.87044 -3.35057 -1.35688 -1.288 -4.13862 -0.976615 -0.944041 -4.33712 -0.724056 
-0.638676 -4.62517 -0.431869 0.0690757 -5.2813 0.381104 0.0977754 -5.71927 0.587177 
1.14835 -6.47758 0.834211 0.712984 -6.25498 0.976563 -7.74811 1.26785 1.0817 
-5.43781 0.0901924 -0.622077 -6.30674 0.301789 -0.139841 -5.88212 0.362703 -0.290019 
-6.67462 0.752856 0.415014 -7.08868 0.811647 0.68932 -4.71168 -0.472897 -1.12938 
-3.82375 -1.03548 -1.47729 -3.56831 -1.52384 -1.52492 -3.15098 -1.87384 -1.4688 
-2.02123 -2.77923 -1.37338 -1.4537 -3.49506 -1.2263 -1.11735 -3.71115 -1.02692 
-0.728589 -3.88717 -0.790645 -0.490468 -4.24543 -0.534949 -0.225539 -4.59426 -0.229413 
-0.109508 -4.91722 0.0301451 0.410564 -5.46181 0.741925 0.710491 -5.71651 1.03725 
1.07208 -6.00187 1.13929 -8.0258 1.74433 1.137 -6.24193 0.723015 0.148148 
-7.25963 1.19224 1.01833 -4.21623 -0.577001 -1.29808 -5.00934 -0.159544 -0.882728 
-3.33067 -1.02908 -1.4524 -3.00597 -1.42064 -1.43701 -2.65089 -1.83932 -1.39561 
-2.30499 -2.27809 -1.37674 -1.51882 -3.01476 -1.31443 -1.58199 -2.57813 -1.35948 
-0.723901 -3.37873 -0.948759 0.253514 -4.86971 0.244781 0.518112 -5.0438 0.551955 
1.47591 -6.2741 1.01958 -7.54525 1.62577 1.29802 -5.03499 0.300354 -0.614549 
-5.42092 0.529382 -0.355103 -5.78625 0.798984 -0.027182 -6.39219 1.13172 0.541493 
-6.80373 1.15986 0.793768 -7.04191 1.52359 1.16298 -3.92288 -0.15394 -1.184 
-4.41698 -0.140649 -1.0409 -3.67775 -0.578769 -1.37625 -2.47 -1.37222 -1.40595 
-1.8476 -2.2176 -1.38045 -2.14507 -1.79105 -1.39046 -1.07919 -3.16572 -1.15761 
-1.11105 -2.65653 -1.28053 -0.257944 -3.86452 -0.579224 -0.0415669 -4.18345 -0.341838 
0.229496 -4.48161 -0.0243815 0.80581 -5.24354 0.906593 1.13576 -5.47131 1.21453 
1.46697 -5.82955 1.36009 1.89793 -6.11472 1.26078 -7.79787 2.14928 1.41732 
-7.25861 1.91118 1.46042 -4.87274 0.705673 -0.435697 -5.29494 0.942133 -0.152245 
-5.98526 1.16425 0.334558 -6.58774 1.52722 0.949006 -4.63006 0.20836 -0.787216 
-3.1324 -0.569037 -1.40094 -2.79513 -0.966198 -1.4175 -1.9293 -1.35642 -1.42636 
-1.3021 -2.18474 -1.37747 -1.61475 -1.78217 -1.41769 -0.720926 -2.81275 -1.11125 
-0.357336 -3.00604 -0.907212 -0.302483 -3.47096 -0.737308 0.15368 -3.64974 -0.477701 
0.34215 -4.04978 -0.198693 0.604225 -4.58798 0.289084 0.890905 -4.78958 0.648162 
1.15859 -4.96338 0.998274 -7.60954 2.59011 1.66376 -7.27784 2.26576 1.65485 
-5.54752 1.26051 0.15695 -6.17899 1.56064 0.739546 -6.80123 1.87057 1.30879 
-3.63577 0.284387 -1.06665 -4.13467 0.256699 -0.920756 -4.40046 0.619341 -0.637473 
-3.41234 -0.14424 -1.28731 -2.5739 -0.537201 -1.40844 -2.24128 -0.940052 -1.42403 
-0.802916 -2.24122 -1.28665 0.0819006 -3.14865 -0.695429 0.602365 -3.69159 -0.233823 
0.690044 -4.14997 0.0646096 0.993927 -4.38048 0.419558 1.40698 -5.05776 1.32773 
1.578 -5.36201 1.56145 2.33487 -6.02165 1.50648 1.90214 -5.71632 1.64786 
-4.45997 1.07457 -0.378997 -4.86101 1.1462 -0.203705 -5.7697 1.60776 0.519904 
-6.37757 1.93685 1.14551 -6.73902 2.24715 1.55757 -3.16792 0.277539 -1.19222 
-3.85465 0.647098 -0.813725 -2.87963 -0.138161 -1.35063 -2.02348 -0.515449 -1.42985 
-1.69833 -0.92255 -1.45344 -1.39112 -1.35447 -1.45468 -1.06434 -1.77053 -1.41291 
-0.373201 -2.48847 -1.07848 0.0325564 -2.66037 -0.88675 0.500399 -3.26732 -0.479546 
1.11154 -3.99218 0.237148 1.01011 -3.68298 -0.00890538 1.28108 -4.52857 0.769084 
1.52403 -4.61488 1.13597 1.73529 -4.76267 1.5474 1.93915 -5.16278 1.81963 
2.77005 -5.863 1.70202 2.33079 -5.55385 1.88199 -7.35209 2.96661 1.9032 
-5.34894 1.73805 0.338149 -5.53081 2.04696 0.686707 -7.02378 2.60293 1.83893 
-4.05957 0.985849 -0.564374 -5.09219 1.43556 0.0384852 -5.96017 1.98853 0.931094 
-6.23318 2.32792 1.3801 -3.35825 0.76588 -0.92605 -2.63838 0.273837 -1.28834 
-2.32271 -0.115067 -1.38656 -0.862354 -1.29695 -1.45145 -1.18474 -0.897529 -1.4737 
-0.577956 -1.68416 -1.36271 -0.373423 -2.05279 -1.2171 0.0689047 -2.15922 -1.05952 
0.467353 -2.79463 -0.694349 0.92363 -3.32032 -0.24855 1.41056 -4.10942 0.532764 
1.6625 -4.18989 0.852632 2.12366 -4.65044 1.85558 3.20851 -5.60768 1.81735 
2.83104 -5.35599 2.02817 -4.87431 1.84847 0.166824 -5.07666 2.17025 0.483912 
-4.07811 1.42845 -0.336112 -4.5358 1.53953 -0.121365 -5.69547 2.35655 1.05585 
-6.5152 2.63564 1.77875 -6.79462 2.99304 2.04986 -2.92355 0.641785 -1.11107 
-3.64077 1.10595 -0.655109 -1.80865 -0.0611409 -1.40777 -1.49784 -0.469195 -1.45316 
-0.0596987 -1.71834 -1.24236 0.469543 -2.32069 -0.893981 0.880545 -2.90727 -0.476828 
1.40844 -3.34145 0.0236562 1.46641 -3.70059 0.275749 1.84572 -4.26384 1.20749 
2.0184 -4.32654 1.55586 2.41381 -5.01989 2.03116 -7.12632 3.36943 2.1041 
-3.62232 1.5511 -0.440035 -4.00144 1.88499 -0.146364 -4.42198 1.97174 0.0502159 
-5.23411 2.46393 0.840325 -5.85968 2.60967 1.38186 -6.08328 2.81609 1.71858 
-6.28996 3.07517 2.06247 -2.87351 1.06339 -0.943456 -3.22375 1.30741 -0.706068 
-2.13979 0.349534 -1.32702 -2.46746 0.744003 -1.17714 -0.996406 -0.438219 -1.47055 
-0.659359 -0.852376 -1.46888 -0.298785 -1.24456 -1.40128 0.197304 -1.3971 -1.2936 
0.477477 -1.79469 -1.10562 0.888391 -2.4667 -0.691659 1.28911 -2.5695 -0.458725 
1.28535 -3.01096 -0.222811 1.83295 -3.40891 0.31092 1.79467 -3.79389 0.588642 
2.04766 -3.85857 0.952344 2.35636 -4.1221 1.76678 2.56148 -4.50246 2.05969 
3.5204 -5.29465 1.98958 -6.91382 3.78033 2.30038 -4.62059 2.30399 0.329928 
-4.76979 2.60889 0.661124 -6.58765 3.40273 2.26148 -3.5168 1.98091 -0.275648 
-5.39441 2.75484 1.19793 -2.38732 1.2079 -1.01857 -1.99944 0.846213 -1.21736 
-1.6547 0.4166 -1.34993 -1.3126 0.000618423 -1.42856 -0.173842 -0.737256 -1.4558 
0.899253 -2.00795 -0.908683 1.30657 -2.15414 -0.672467 1.63009 -2.70388 -0.227379 
1.81377 -3.01048 0.0427686 2.16172 -3.51071 0.671945 2.43449 -3.52194 1.0662 
2.22242 -3.91061 1.33064 2.7287 -3.97245 1.98414 2.96184 -4.90128 2.16629 
3.0356 -4.37707 2.21392 3.94666 -5.01805 2.0282 3.45187 -4.8072 2.25289 
-6.71549 4.19603 2.47449 -4.1327 2.3468 0.127801 -4.30174 2.70573 0.438855 
-3.15016 1.77824 -0.502598 -4.92256 2.88417 1.01204 -5.62584 3.00528 1.56168 
-5.83001 3.25734 1.93005 -6.38377 3.81751 2.44007 -2.76368 1.51625 -0.766516 
-6.05991 3.51648 2.26164 -1.15646 0.485511 -1.38026 -0.825682 0.0598773 -1.45453 
-0.522852 -0.353992 -1.47915 -0.0554533 -0.250497 -1.48835 0.228737 -0.964688 -1.39477 
0.639505 -1.26388 -1.26227 0.971396 -1.53355 -1.09193 1.34997 -1.69258 -0.889915 
1.7629 -2.25311 -0.432465 2.01381 -2.51837 -0.166947 2.23546 -2.76274 0.118239 
2.18946 -3.14514 0.368054 2.47829 -3.19174 0.677591 2.55055 -3.68305 1.54606 
-3.83319 2.738 0.208369 -4.436 3.01497 0.797187 -3.11246 2.29299 -0.279457 
-3.66601 2.33137 -0.063954 -5.14048 3.1491 1.37006 -5.37143 3.40928 1.72425 
-1.89356 1.31262 -1.0832 -2.29058 1.65643 -0.851319 -2.71802 1.96657 -0.567258 
-1.51347 0.875422 -1.26644 -0.666887 0.543237 -1.42578 -0.319902 0.141504 -1.48528 
0.330453 -0.481048 -1.4611 0.720349 -0.761653 -1.38098 1.09987 -1.0236 -1.23939 
1.695 -1.87716 -0.6669 2.74419 -3.14719 0.97851 2.79137 -3.30516 1.34587 
2.8942 -3.50867 1.81215 3.15956 -3.85465 2.1789 3.52226 -4.23929 2.34436 
4.33635 -4.66304 2.14001 3.8912 -4.5907 2.31609 -6.52654 4.60424 2.63154 
-3.99035 3.10678 0.556193 -6.18166 4.21489 2.59942 -2.61324 2.4019 -0.403394 
-3.35679 2.7122 -0.00524059 -4.62637 3.27351 1.16199 -4.8695 3.52918 1.51648 
-5.5704 3.69369 2.09425 -5.82282 3.94128 2.41813 -1.80791 1.77188 -0.932597 
-1.40366 1.32673 -1.1634 -1.0154 0.98511 -1.30695 0.260813 0.112706 -1.50843 
1.15498 -0.50602 -1.361 1.46166 -1.22383 -1.06087 1.82194 -1.42989 -0.855298 
2.10902 -1.75364 -0.607608 2.25249 -2.07264 -0.363298 2.39396 -2.36488 -0.0846546 
2.68347 -2.39875 0.125551 2.55115 -2.79597 0.370354 2.80762 -2.85184 0.668653 
3.284 -3.38623 2.04761 3.65328 -3.77882 2.35631 -6.34826 5.01952 2.78618 
-3.5415 3.1323 0.305435 -4.12756 3.42663 0.953608 -6.0202 4.61048 2.78659 
-2.88579 2.75937 -0.152971 -5.12125 3.80629 1.88713 -5.63756 4.3357 2.63364 
-2.25945 2.08788 -0.666685 -1.31086 1.74391 -1.06065 -0.531057 1.01247 -1.37876 
-0.137697 0.563485 -1.48072 0.719494 -0.206087 -1.46709 1.5666 -0.723239 -1.21369 
1.94144 -0.961183 -1.03542 2.57054 -1.65424 -0.541972 2.69872 -2.02564 -0.196436 
2.9408 -2.47538 0.396889 3.09312 -2.8761 1.06181 3.11355 -3.11071 1.5566 
4.68175 -4.36689 2.24899 4.13425 -4.19006 2.44618 -3.08465 3.15857 0.111029 
-3.69474 3.49901 0.691299 -2.12812 2.54121 -0.506969 -2.41509 2.83587 -0.275689 
-4.3496 3.66683 1.32146 -4.64094 3.90439 1.68274 -5.3116 4.12573 2.29095 
-5.20246 4.54856 2.64498 -1.43441 2.17118 -0.890248 -1.84168 2.2407 -0.735246 
-0.866112 1.48815 -1.22296 -0.0342797 1.02258 -1.45196 0.370315 0.603426 -1.51524 
0.763527 0.306083 -1.51033 1.19608 -0.0241204 -1.43937 1.63887 -0.225999 -1.33316 
2.05893 -0.454232 -1.19968 2.28055 -1.32677 -0.797718 2.40682 -0.898015 -0.983927 
2.95288 -1.66803 -0.390376 3.05789 -2.13063 0.136948 3.15274 -2.57756 0.697638 
3.39819 -2.78777 1.33928 3.72614 -3.29639 2.24178 3.4783 -2.99899 1.82466 
4.12371 -3.67115 2.50708 4.61932 -3.97131 2.55095 -5.90276 5.02539 2.97955 
-6.12873 5.41749 2.95873 -2.75916 3.58775 0.223874 -3.24756 3.5394 0.428747 
-3.85181 3.83828 1.13334 -3.406 3.87666 0.822684 -1.90166 2.94957 -0.404294 
-2.62411 3.21794 -0.0284914 -4.19736 4.06613 1.55758 -4.86217 4.16544 2.02949 
-4.8775 4.46487 2.32466 -5.54158 4.74615 2.92908 -0.957315 2.05276 -1.06324 
-0.344755 1.46022 -1.33512 -0.53472 1.92195 -1.20414 0.199972 1.43904 -1.43766 
0.477031 1.03836 -1.50556 0.942121 0.83249 -1.52693 1.22534 0.446434 -1.49206 
2.75496 -1.20069 -0.784465 3.11403 -1.33787 -0.59575 3.38592 -1.55137 -0.273421 
3.11187 -1.86476 -0.112799 3.35841 -2.19556 0.422742 3.4632 -2.487 0.881129 
3.76523 -2.66378 1.59259 3.88607 -2.86157 2.03877 4.14516 -3.1654 2.42059 
5.07609 -4.0896 2.33009 -1.59512 2.65373 -0.652047 -2.18251 3.22885 -0.170503 
-3.44953 4.21858 1.17701 -3.81172 4.24066 1.46103 -4.43986 4.33198 1.91221 
-4.7852 4.82115 2.6427 -0.642249 2.46172 -1.05859 -1.12319 2.51448 -0.879755 
-5.13617 4.95759 2.99956 -0.0395278 1.85281 -1.33382 1.66584 0.281447 -1.42829 
2.0776 0.0900825 -1.35004 2.50499 -0.0569218 -1.28339 2.52714 -0.491635 -1.13597 
2.91544 -0.74715 -0.99692 3.27027 -0.93756 -0.814007 3.54865 -1.17423 -0.52694 
3.47035 -1.8293 0.0848805 3.71817 -2.16641 0.65536 3.71152 -2.49369 1.17131 
4.56838 -3.47796 2.64562 5.06941 -3.71144 2.69964 -5.90297 5.73736 3.12444 
-2.24044 3.63679 0.0591348 -2.4884 3.98254 0.362658 -2.95261 3.93021 0.556886 
-5.56044 5.23647 3.16616 -1.21806 2.95898 -0.690545 -1.50644 3.20703 -0.453358 
-1.8051 3.48119 -0.187432 -4.01931 4.54765 1.83838 -4.45462 4.68527 2.23827 
-0.218928 2.32064 -1.2133 0.526246 1.77064 -1.45467 0.805338 1.34355 -1.51667 
1.32401 1.20293 -1.54169 1.54362 0.785281 -1.5063 2.0385 0.649157 -1.47375 
2.96961 -0.275213 -1.19012 3.76528 -1.37393 -0.218908 3.78757 -1.89176 0.365213 
3.9791 -2.20965 0.951913 4.07622 -2.35062 1.3635 4.15444 -2.50009 1.82187 
4.29611 -2.7168 2.26695 4.56802 -2.98632 2.571 5.44247 -3.78698 2.38536 
4.9733 -3.17557 2.75889 -5.70875 6.12641 3.25868 -2.0478 4.05124 0.22424 
-2.60474 4.34242 0.673964 -3.04148 4.27443 0.902702 -3.12548 4.62344 1.27053 
-5.47024 5.6486 3.32813 -0.802725 2.89658 -0.891369 -1.01029 3.40403 -0.625103 
-3.52648 4.60108 1.56026 -4.06788 4.94394 2.2019 -4.3781 5.07439 2.58389 
-0.305709 2.89384 -1.0846 -4.70065 5.18673 2.98308 -5.07678 5.3618 3.27893 
0.284722 2.20972 -1.35805 1.08048 1.68831 -1.53464 2.46535 0.453665 -1.42884 
2.91462 0.226055 -1.364 3.40125 -0.478234 -1.03737 3.33819 0.0293192 -1.27431 
3.71886 -0.771455 -0.76039 3.98704 -1.01187 -0.433591 3.8666 -1.58163 0.0649316 
4.19124 -1.91479 0.680325 4.37975 -2.05566 1.11458 4.43544 -2.19646 1.56363 
5.8051 -3.47721 2.42111 4.83063 -2.60722 2.54737 5.42602 -3.3915 2.71118 
-5.4487 6.50213 3.39158 -1.69805 3.90715 -0.0151413 -2.14636 4.40924 0.494435 
-2.7187 4.69521 1.01287 -5.32809 6.04474 3.45911 -0.594519 3.27247 -0.878135 
-1.34885 3.65341 -0.328193 -3.67678 4.91081 1.90029 -4.01349 5.37484 2.56608 
0.0834746 2.66668 -1.24757 -4.30487 5.45915 2.94262 -4.62323 5.58372 3.28857 
0.807277 2.15651 -1.47287 0.54515 2.62623 -1.37677 1.33307 2.05053 -1.56991 
1.61618 1.58641 -1.58693 1.89778 1.12628 -1.55375 2.43788 1.00828 -1.57131 
2.8898 0.715712 -1.51678 3.93563 -0.385355 -0.946101 4.19008 -0.653204 -0.644433 
4.19433 -1.23393 -0.0968303 4.18149 -1.62461 0.312314 4.54535 -1.62117 0.548693 
4.54862 -2.38852 2.10403 5.29095 -2.83108 2.76226 5.76379 -3.03487 2.69893 
-0.55375 3.69967 -0.761716 -0.92016 3.88373 -0.478265 -1.27651 4.10313 -0.14981 
-1.65492 4.3769 0.226864 -2.28006 4.77275 0.809088 -2.85107 5.0541 1.37678 
0.226035 3.10832 -1.22921 -0.157693 3.406 -1.03102 -3.23489 4.99739 1.64334 
-3.38119 5.33046 1.97842 -3.72511 5.29237 2.23078 -4.98733 5.78736 3.47371 
-5.03082 6.31435 3.57244 1.06136 2.54642 -1.50269 2.14271 1.5113 -1.64513 
3.35356 0.503304 -1.44552 3.73194 -0.0959295 -1.1602 4.45772 -0.870221 -0.309797 
4.48708 -1.31158 0.158002 4.67561 -1.80683 0.938511 4.80197 -1.90907 1.36781 
4.75061 -2.08538 1.82101 4.95797 -2.17956 2.28412 5.29064 -2.33497 2.62198 
6.18847 -3.21422 2.46657 -5.16958 6.84818 3.45677 -0.107498 3.90972 -0.906422 
-0.472092 4.14586 -0.629598 -0.835517 4.33476 -0.325574 -1.19375 4.52298 0.0123424 
-1.83679 4.77884 0.574788 -2.43876 5.11639 1.13736 -2.99195 5.43909 1.73398 
0.779678 3.01385 -1.40419 0.609891 3.4209 -1.30766 0.253277 3.66078 -1.13338 
-3.62558 5.70373 2.46378 -3.93504 5.76975 2.88285 -4.63071 6.05533 3.5386 
-4.25264 5.87636 3.27656 1.55535 2.43429 -1.61531 1.86033 2.00989 -1.6649 
2.33288 1.96102 -1.76726 2.62635 1.48989 -1.72872 2.96779 1.17429 -1.67643 
3.38295 0.941409 -1.60654 3.78377 0.35248 -1.3496 4.16594 0.131449 -1.18409 
4.36677 -0.248792 -0.892823 4.64058 -0.467711 -0.598915 4.79436 -0.984027 -0.00878769 
4.86371 -1.29776 0.370011 4.95248 -1.53526 0.734655 5.15401 -1.62116 1.09232 
5.10251 -1.89247 1.89019 6.61982 -3.00335 2.49058 5.73715 -2.50958 2.73801 
6.19328 -2.76028 2.70486 -1.42595 4.83237 0.344328 -1.98514 5.1669 0.906945 
-2.59743 5.48484 1.47348 -3.23561 5.75932 2.11705 -4.74945 6.61262 3.61647 
1.25791 2.97101 -1.52994 1.08746 3.47597 -1.45452 1.72998 2.80799 -1.65664 
2.11256 2.46231 -1.75925 2.81118 1.91658 -1.88377 3.16194 1.65247 -1.86836 
3.45669 1.37224 -1.77747 3.81427 0.820287 -1.53371 3.84856 1.28993 -1.72462 
4.21178 0.633511 -1.41066 4.58423 0.136178 -1.08656 4.85711 -0.0745567 -0.84796 
4.91978 -0.617902 -0.315921 5.20962 -1.02905 0.27933 5.2449 -0.698067 -0.0582896 
5.29901 -1.28551 0.649224 5.19947 -1.72475 1.5012 5.38227 -1.92366 2.31341 
6.66 -2.57676 2.73048 -0.377487 4.58671 -0.494031 -0.731286 4.77341 -0.18923 
-4.8093 7.1097 3.44217 0.740474 3.87169 -1.28158 0.366544 4.13886 -1.05351 
-0.0094041 4.37092 -0.787221 -1.02504 4.95046 0.106781 -1.56595 5.20413 0.653802 
-2.17055 5.5168 1.23122 -2.79592 5.86888 1.81209 -3.00279 6.19652 2.11288 
-3.36579 6.11382 2.44791 -3.66228 6.12766 2.82595 -3.94185 6.20403 3.21504 
-4.32287 6.3626 3.53741 -4.40414 6.87879 3.56243 1.59045 3.29025 -1.61059 
2.04987 3.08799 -1.75301 2.64136 2.33994 -1.91241 3.22767 2.16836 -2.03736 
3.67931 1.81042 -1.95552 4.24082 1.13718 -1.61895 4.61709 0.53953 -1.30855 
5.13371 -0.240066 -0.582226 5.55554 -1.35925 0.993902 5.57074 -1.50135 1.40907 
5.49634 -1.65427 1.88417 5.81586 -1.64046 2.26684 5.76891 -2.01475 2.60119 
6.20424 -2.22885 2.74515 7.1008 -2.82151 2.5325 0.0446935 4.82294 -0.661813 
-0.343211 5.03929 -0.334594 -1.14362 5.29814 0.363847 -1.34512 5.62404 0.670038 
1.18086 4.03845 -1.44589 0.831443 4.35451 -1.24382 -1.73193 5.58816 0.978252 
-2.36872 5.90394 1.54445 -3.15468 6.57324 2.37919 -3.42796 6.52565 2.71206 
1.48862 3.75365 -1.57656 -3.67718 6.60496 3.05055 -3.99879 6.65328 3.37285 
2.43594 2.80448 -1.88287 2.95665 2.66258 -2.06506 4.16985 1.63068 -1.84578 
4.63657 0.99587 -1.52365 5.00628 0.376554 -1.12874 5.30806 0.177134 -0.880113 
5.44673 -0.342604 -0.326579 5.74525 -0.452343 -0.0476231 5.58378 -0.779383 0.226082 
5.68919 -1.01795 0.582096 5.94558 -1.10954 0.936323 5.96761 -1.26525 1.31966 
5.87755 -1.42424 1.77495 6.24137 -1.71065 2.58893 7.59283 -2.64646 2.5237 
7.15323 -2.38911 2.79485 6.68245 -2.08674 2.80979 -4.42464 7.33357 3.28555 
0.440126 4.60342 -0.972106 -0.709759 5.27597 0.00788894 -1.53802 6.05959 0.958288 
-1.94461 5.92738 1.28097 -2.19039 6.3452 1.5228 -2.57536 6.30621 1.79924 
-2.8195 6.61388 2.02989 -3.09927 7.00273 2.26237 1.27552 4.51193 -1.50743 
-3.68996 7.05251 3.00731 -4.04238 7.07787 3.32352 1.90842 3.64313 -1.7322 
2.3229 3.42143 -1.88587 3.37485 2.73961 -2.25471 2.70303 3.1388 -2.03257 
3.67721 2.31605 -2.16578 4.13434 2.04937 -2.06319 4.62237 1.49248 -1.75993 
5.04932 0.836095 -1.39727 5.05116 1.30388 -1.65681 5.42232 0.642636 -1.19485 
5.7494 0.439984 -0.935842 5.62726 0.0278914 -0.616546 6.0109 -0.627171 0.316959 
6.16469 -0.815329 0.678329 6.26232 -1.17534 1.63894 6.19575 -1.36451 2.13642 
6.74885 -1.63905 2.74821 7.67064 -2.23714 2.75276 -2.44972 6.77145 1.63135 
-2.80178 6.98387 1.88166 -4.00001 7.43882 3.01608 0.850622 4.82014 -1.23974 
0.448379 5.06078 -0.919902 0.0708227 5.27359 -0.595031 -0.280927 5.48435 -0.28666 
-0.58128 5.70556 -0.00208733 -0.924493 5.74252 0.318395 -1.18946 6.0262 0.613538 
-1.8216 6.34303 1.22432 -3.38172 6.99491 2.64927 -3.6447 7.44446 2.68531 
1.69834 4.18824 -1.70941 2.63562 3.6564 -2.12369 2.18224 3.95411 -1.93921 
3.4026 3.22045 -2.54477 3.05806 3.21952 -2.26093 3.80519 2.78423 -2.48698 
4.13957 2.41141 -2.29901 4.60908 1.94255 -2.02617 5.4745 1.1001 -1.50534 
6.10847 0.271524 -0.652308 5.96252 -0.0961387 -0.332788 6.19249 -0.279945 0.00542151 
6.36086 -0.962504 1.15306 6.63986 -0.907301 1.48851 6.57991 -1.07038 1.97455 
6.57873 -1.30075 2.44088 8.08744 -2.40129 2.46485 7.23026 -1.87774 2.87951 
-2.37286 7.0901 1.21098 -1.97269 7.01681 0.903582 -2.73692 7.19341 1.51893 
-3.08429 7.3196 1.90912 1.17025 4.99507 -1.58809 1.35763 5.13679 -2.02265 
0.948619 5.41112 -1.72696 -2.06869 6.7485 1.29604 -3.36245 7.4008 2.31206 
1.59614 4.70583 -1.83978 0.763776 5.27914 -1.28126 0.378171 5.51467 -0.956727 
0.0172839 5.73192 -0.637402 -0.316019 5.97872 -0.329209 -0.666283 6.14501 0.0441704 
-0.981126 6.32395 0.352259 -1.33499 6.46903 0.701521 -1.66781 6.64473 0.978675 
2.02062 4.43324 -2.04855 3.46145 3.42171 -2.91669 2.94502 3.72002 -2.43365 
2.70098 4.19191 -2.67472 2.47763 4.13231 -2.27498 4.30205 2.78754 -2.99877 
3.84811 3.02072 -2.90815 3.11605 3.81036 -2.80732 4.30878 2.64378 -2.60775 
4.66035 2.31037 -2.37937 5.10355 2.07526 -2.315 5.06623 1.73906 -1.94605 
5.51023 1.50488 -1.82843 5.85473 0.881409 -1.2646 6.20833 0.682766 -0.996921 
6.46981 0.129492 -0.342745 6.59519 -0.124293 0.0436381 6.48097 -0.449249 0.407933 
6.56271 -0.682374 0.83119 7.10831 -1.32168 2.72249 8.55535 -2.14252 2.35322 
8.22219 -1.95096 2.67549 7.57472 -1.44703 2.85738 7.79353 -1.8206 2.84835 
0.573484 5.67841 -1.41533 0.224295 5.91521 -1.11563 -1.57632 6.91648 0.605121 
-0.0692507 6.12638 -0.829236 -0.324114 6.35315 -0.583902 -0.595712 6.48494 -0.281381 
-0.896704 6.65029 0.00778663 2.23883 4.54419 -2.48636 1.79294 4.85431 -2.27319 
-1.22228 6.79038 0.318643 4.75782 2.51561 -2.87555 5.17047 2.25525 -2.7832 
5.60787 2.02292 -2.67362 5.54803 1.82796 -2.20749 5.98911 1.56083 -2.03875 
5.92946 1.26752 -1.62099 6.31791 1.08963 -1.38058 6.68006 0.92448 -1.13031 
6.57262 0.521715 -0.728446 6.95255 0.41062 -0.467992 6.95638 -0.148798 0.304071 
6.92701 -0.398021 0.679003 6.90308 -0.629149 1.11581 7.05939 -0.676954 1.51008 
6.97813 -0.823125 1.898 6.97534 -1.02052 2.36706 8.9844 -1.87084 2.24014 
6.02281 1.74357 -2.51147 6.45143 1.47789 -2.32011 6.89223 1.33452 -2.08382 
6.40301 1.37328 -1.82173 6.81105 1.23797 -1.57869 7.04613 0.761986 -0.876025 
6.96949 0.136131 -0.0991014 7.34185 -0.325154 0.929964 7.41388 -0.446656 1.3409 
9.37004 -1.60636 2.14356 7.58554 -1.02348 2.68149 8.64434 -1.67251 2.56765 
8.12993 -1.4334 2.80636 7.32753 1.21936 -1.84116 7.18883 1.07188 -1.33162 
7.43867 0.623446 -0.626387 7.42874 0.364457 -0.226518 7.41258 0.129198 0.148515 
7.39152 -0.105802 0.535381 7.46201 -0.570712 1.82044 7.35315 -0.773946 2.25237 
9.07229 -1.33837 2.45591 8.57473 -1.24858 2.65554 8.17099 -0.94295 2.68857 
7.72822 1.04086 -1.5779 7.5517 0.889729 -1.07657 8.11576 0.861317 -1.31534 
7.95174 0.732951 -0.848194 7.89003 0.532429 -0.405081 7.9552 0.359767 -0.023049 
7.8802 0.151988 0.368139 7.8295 -0.0532892 0.772804 7.83204 -0.203112 1.17052 
7.88218 -0.325612 1.59726 7.93255 -0.470925 2.03792 7.82796 -0.68477 2.41253 
9.71034 -1.33584 2.0155 8.80001 -0.888776 2.53309 8.50955 0.690942 -1.02879 
8.35323 0.597242 -0.577494 8.32059 0.159558 0.627646 8.4017 -0.291118 1.94689 
8.38331 -0.580503 2.39678 9.51024 -1.10362 2.30075 8.87727 0.563559 -0.700785 
8.5457 0.483044 -0.219448 8.43062 0.336726 0.200927 8.76819 0.182733 0.937609 
8.30256 0.00948624 1.06087 8.35514 -0.119557 1.49157 8.89775 -0.138101 1.84062 
8.88501 -0.44022 2.28175 9.96365 -0.997802 1.93715 9.74381 -0.67882 2.12599 
9.28179 -0.765128 2.38973 9.20073 0.4734 -0.392189 9.01055 0.427457 0.0418221 
9.5888 0.383767 -0.083723 8.83891 0.314437 0.47862 8.85012 0.0601618 1.38227 
10.1743 -0.641549 1.77368 9.38783 -0.347041 2.11483 9.428 0.35196 0.390823 
9.24294 0.277638 0.796599 9.35811 0.151471 1.22826 9.40065 -0.0350143 1.69168 
9.86103 -0.291735 1.82971 9.93221 0.235812 0.259229 10.1874 0.0827922 0.633132 
9.77158 0.179586 0.86691 10.3314 -0.0522963 1.08524 9.88239 -0.0120533 1.39817 
10.3449 -0.312345 1.49533 
POLYGONS 1880 5637
OFFSETS vtktypeint64
0 3 6 9 12 15 18 21 24 
27 30 33 36 39 42 45 48 51 
54 57 60 63 66 69 72 75 78 
81 84 87 90 93 96 99 102 105 
108 111 114 117 120 123 126 129 132 
135 138 141 144 147 150 153 156 159 
162 165 168 171 174 177 180 183 186 
189 192 195 198 201 204 207 210 213 
216 219 222 225 228 231 234 237 240 
243 246 249 252 255 258 261 264 267 
270 273 276 279 282 285 288 291 294 
297 300 303 306 309 312 315 318 321 
324 327 330 333 336 339 342 345 348 
351 354 357 360 363 366 369 372 375 
378 381 384 387 390 393 396 399 402 
405 408 411 414 417 420 423 426 429 
432 435 438 441 444 447 450 453 456 
459 462 465 468 471 474 477 480 483 
486 489 492 495 498 501 504 507 510 
513 516 519 522 525 528 531 534 537 
540 543 546 549 552 555 558 561 564 
567 570 573 576 579 582 585 588 591 
594 597 600 603 606 609 612 615 618 
621 624 627 630 633 636 639 642 645 
648 651 654 657 660 663 666 669 672 
675 678 681 684 687 690 693 696 699 
702 705 708 711 714 717 720 723 726 
729 732 735 738 741 744 747 750 753 
756 759 762 765 768 771 774 777 780 
783 786 789 792 795 798 801 804 807 
810 813 816 819 822 825 828 831 834 
837 840 843 846 849 852 855 858 861 
864 867 870 873 876 879 882 885 888 
891 894 897 900 903 906 909 912 915 
918 921 924 927 930 933 936 939 942 
945 948 951 954 957 960 963 966 969 
972 975 978 981 984 987 990 993 996 
999 1002 1005 1008 1011 1014 1017 1020 1023 
1026 1029 1032 1035 1038 1041 1044 1047 1050 
1053 1056 1059 1062 1065 1068 1071 1074 1077 
1080 1083 1086 1089 1092 1095 1098 1101 1104 
1107 1110 1113 1116 1119 1122 1125 1128 1131 
1134 1137 1140 1143 1146 1149 1152 1155 1158 
1161 1164 1167 1170 1173 1176 1179 1182 1185 
1188 1191 1194 1197 1200 1203 1206 1209 1212 
1215 1218 1221 1224 1227 1230 1233 1236 1239 
1242 1245 1248 1251 1254 1257 1260 1263 1266 
1269 1272 1275 1278 1281 1284 1287 1290 1293 
1296 1299 1302 1305 1308 1311 1314 1317 1320 
1323 1326 1329 1332 1335 1338 1341 1344 1347 
1350 1353 1356 1359 1362 1365 1368 1371 1374 
1377 1380 1383 1386 1389 1392 1395 1398 1401 
1404 1407 1410 1413 1416 1419 1422 1425 1428 
1431 1434 1437 1440 1443 1446 1449 1452 1455 
1458 1461 1464 1467 1470 1473 1476 1479 1482 
1485 1488 1491 1494 1497 1500 1503 1506 1509 
1512 1515 1518 1521 1524 1527 1530 1533 1536 
1539 1542 1545 1548 1551 1554 1557 1560 1563 
1566 1569 1572 1575 1578 1581 1584 1587 1590 
1593 1596 1599 1602 1605 1608 1611 1614 1617 
1620 1623 1626 1629 1632 1635 1638 1641 1644 
1647 1650 1653 1656 1659 1662 1665 1668 1671 
1674 1677 1680 1683 1686 1689 1692 1695 1698 
1701 1704 1707 1710 1713 1716 1719 1722 1725 
1728 1731 1734 1737 1740 1743 1746 1749 1752 
1755 1758 1761 1764 1767 1770 1773 1776 1779 
1782 1785 1788 1791 1794 1797 1800 1803 1806 
1809 1812 1815 1818 1821 1824 1827 1830 1833 
1836 1839 1842 1845 1848 1851 1854 1857 1860 
1863 1866 1869 1872 1875 1878 1881 1884 1887 
1890 1893 1896 1899 1902 1905 1908 1911 1914 
1917 1920 1923 1926 1929 1932 1935 1938 1941 
1944 1947 1950 1953 1956 1959 1962 1965 1968 
1971 1974 1977 1980 1983 1986 1989 1992 1995 
1998 2001 2004 2007 2010 2013 2016 2019 2022 
2025 2028 2031 2034 2037 2040 2043 2046 2049 
2052 2055 2058 2061 2064 2067 2070 2073 2076 
2079 2082 2085 2088 2091 2094 2097 2100 2103 
2106 2109 2112 2115 2118 2121 2124 2127 2130 
2133 2136 2139 2142 2145 2148 2151 2154 2157 
2160 2163 2166 2169 2172 2175 2178 2181 2184 
2187 2190 2193 2196 2199 2202 2205 2208 2211 
2214 2217 2220 2223 2226 2229 2232 2235 2238 
2241 2244 2247 2250 2253 2256 2259 2262 2265 
2268 2271 2274 2277 2280 2283 2286 2289 2292 
2295 2298 2301 2304 2307 2310 2313 2316 2319 
2322 2325 2328 2331 2334 2337 2340 2343 2346 
2349 2352 2355 2358 2361 2364 2367 2370 2373 
2376 2379 2382 2385 2388 2391 2394 2397 2400 
2403 2406 2409 2412 2415 2418 2421 2424 2427 
2430 2433 2436 2439 2442 2445 2448 2451 2454 
2457 2460 2463 2466 2469 2472 2475 2478 2481 
2484 2487 2490 2493 2496 2499 2502 2505 2508 
2511 2514 2517 2520 2523 2526 2529 2532 2535 
2538 2541 2544 2547 2550 2553 2556 2559 2562 
2565 2568 2571 2574 2577 2580 2583 2586 2589 
2592 2595 2598 2601 2604 2607 2610 2613 2616 
2619 2622 2625 2628 2631 2634 2637 2640 2643 
2646 2649 2652 2655 2658 2661 2664 2667 2670 
2673 2676 2679 2682 2685 2688 2691 2694 2697 
2700 2703 2706 2709 2712 2715 2718 2721 2724 
2727 2730 2733 2736 2739 2742 2745 2748 2751 
2754 2757 2760 2763 2766 2769 2772 2775 2778 
2781 2784 2787 2790 2793 2796 2799 2802 2805 
2808 2811 2814 2817 2820 2823 2826 2829 2832 
2835 2838 2841 2844 2847 2850 2853 2856 2859 
2862 2865 2868 2871 2874 2877 2880 2883 2886 
2889 2892 2895 2898 2901 2904 2907 2910 2913 
2916 2919 2922 2925 2928 2931 2934 2937 2940 
2943 2946 2949 2952 2955 2958 2961 2964 2967 
2970 2973 2976 2979 2982 2985 2988 2991 2994 
2997 3000 3003 3006 3009 3012 3015 3018 3021 
3024 3027 3030 3033 3036 3039 3042 3045 3048 
3051 3054 3057 3060 3063 3066 3069 3072 3075 
3078 3081 3084 3087 3090 3093 3096 3099 3102 
3105 3108 3111 3114 3117 3120 3123 3126 3129 
3132 3135 3138 3141 3144 3147 3150 3153 3156 
3159 3162 3165 3168 3171 3174 3177 3180 3183 
3186 3189 3192 3195 3198 3201 3204 3207 3210 
3213 3216 3219 3222 3225 3228 3231 3234 3237 
3240 3243 3246 3249 3252 3255 3258 3261 3264 
3267 3270 3273 3276 3279 3282 3285 3288 3291 
3294 3297 3300 3303 3306 3309 3312 3315 3318 
3321 3324 3327 3330 3333 3336 3339 3342 3345 
3348 3351 3354 3357 3360 3363 3366 3369 3372 
3375 3378 3381 3384 3387 3390 3393 3396 3399 
3402 3405 3408 3411 3414 3417 3420 3423 3426 
3429 3432 3435 3438 3441 3444 3447 3450 3453 
3456 3459 3462 3465 3468 3471 3474 3477 3480 
3483 3486 3489 3492 3495 3498 3501 3504 3507 
3510 3513 3516 3519 3522 3525 3528 3531 3534 
3537 3540 3543 3546 3549 3552 3555 3558 3561 
3564 3567 3570 3573 3576 3579 3582 3585 3588 
3591 3594 3597 3600 3603 3606 3609 3612 3615 
3618 3621 3624 3627 3630 3633 3636 3639 3642 
3645 3648 3651 3654 3657 3660 3663 3666 3669 
3672 3675 3678 3681 3684 3687 3690 3693 3696 
3699 3702 3705 3708 3711 3714 3717 3720 3723 
3726 3729 3732 3735 3738 3741 3744 3747 3750 
3753 3756 3759 3762 3765 3768 3771 3774 3777 
3780 3783 3786 3789 3792 3795 3798 3801 3804 
3807 3810 3813 3816 3819 3822 3825 3828 3831 
3834 3837 3840 3843 3846 3849 3852 3855 3858 
3861 3864 3867 3870 3873 3876 3879 3882 3885 
3888 3891 3894 3897 3900 3903 3906 3909 3912 
3915 3918 3921 3924 3927 3930 3933 3936 3939 
3942 3945 3948 3951 3954 3957 3960 3963 3966 
3969 3972 3975 3978 3981 3984 3987 3990 3993 
3996 3999 4002 4005 4008 4011 4014 4017 4020 
4023 4026 4029 4032 4035 4038 4041 4044 4047 
4050 4053 4056 4059 4062 4065 4068 4071 4074 
4077 4080 4083 4086 4089 4092 4095 4098 4101 
4104 4107 4110 4113 4116 4119 4122 4125 4128 
4131 4134 4137 4140 4143 4146 4149 4152 4155 
4158 4161 4164 4167 4170 4173 4176 4179 4182 
4185 4188 4191 4194 4197 4200 4203 4206 4209 
4212 4215 4218 4221 4224 4227 4230 4233 4236 
4239 4242 4245 4248 4251 4254 4257 4260 4263 
4266 4269 4272 4275 4278 4281 4284 4287 4290 
4293 4296 4299 4302 4305 4308 4311 4314 4317 
4320 4323 4326 4329 4332 4335 4338 4341 4344 
4347 4350 4353 4356 4359 4362 4365 4368 4371 
4374 4377 4380 4383 4386 4389 4392 4395 4398 
4401 4404 4407 4410 4413 4416 4419 4422 4425 
4428 4431 4434 4437 4440 4443 4446 4449 4452 
4455 4458 4461 4464 4467 4470 4473 4476 4479 
4482 4485 4488 4491 4494 4497 4500 4503 4506 
4509 4512 4515 4518 4521 4524 4527 4530 4533 
4536 4539 4542 4545 4548 4551 4554 4557 4560 
4563 4566 4569 4572 4575 4578 4581 4584 4587 
4590 4593 4596 4599 4602 4605 4608 4611 4614 
4617 4620 4623 4626 4629 4632 4635 4638 4641 
4644 4647 4650 4653 4656 4659 4662 4665 4668 
4671 4674 4677 4680 4683 4686 4689 4692 4695 
4698 4701 4704 4707 4710 4713 4716 4719 4722 
4725 4728 4731 4734 4737 4740 4743 4746 4749 
4752 4755 4758 4761 4764 4767 4770 4773 4776 
4779 4782 4785 4788 4791 4794 4797 4800 4803 
4806 4809 4812 4815 4818 4821 4824 4827 4830 
4833 4836 4839 4842 4845 4848 4851 4854 4857 
4860 4863 4866 4869 4872 4875 4878 4881 4884 
4887 4890 4893 4896 4899 4902 4905 4908 4911 
4914 4917 4920 4923 4926 4929 4932 4935 4938 
4941 4944 4947 4950 4953 4956 4959 4962 4965 
4968 4971 4974 4977 4980 4983 4986 4989 4992 
4995 4998 5001 5004 5007 5010 5013 5016 5019 
5022 5025 5028 5031 5034 5037 5040 5043 5046 
5049 5052 5055 5058 5061 5064 5067 5070 5073 
5076 5079 5082 5085 5088 5091 5094 5097 5100 
5103 5106 5109 5112 5115 5118 5121 5124 5127 
5130 5133 5136 5139 5142 5145 5148 5151 5154 
5157 5160 5163 5166 5169 5172 5175 5178 5181 
5184 5187 5190 5193 5196 5199 5202 5205 5208 
5211 5214 5217 5220 5223 5226 5229 5232 5235 
5238 5241 5244 5247 5250 5253 5256 5259 5262 
5265 5268 5271 5274 5277 5280 5283 5286 5289 
5292 5295 5298 5301 5304 5307 5310 5313 5316 
5319 5322 5325 5328 5331 5334 5337 5340 5343 
5346 5349 5352 5355 5358 5361 5364 5367 5370 
5373 5376 5379 5382 5385 5388 5391 5394 5397 
5400 5403 5406 5409 5412 5415 5418 5421 5424 
5427 5430 5433 5436 5439 5442 5445 5448 5451 
5454 5457 5460 5463 5466 5469 5472 5475 5478 
5481 5484 5487 5490 5493 5496 5499 5502 5505 
5508 5511 5514 5517 5520 5523 5526 5529 5532 
5535 5538 5541 5544 5547 5550 5553 5556 5559 
5562 5565 5568 5571 5574 5577 5580 5583 5586 
5589 5592 5595 5598 5601 5604 5607 5610 5613 
5616 5619 5622 5625 5628 5631 5634 5637 
CONNECTIVITY vtktypeint64
6 1 0 0 2 5 0 5 6 
278 277 256 512 540 564 564 563 512 
833 799 768 768 832 833 1 6 19 
19 13 1 257 259 298 297 278 257 
298 297 257 542 541 513 543 542 513 
835 770 769 769 799 835 2 3 7 
7 5 2 299 259 258 258 279 299 
567 543 514 514 544 567 800 773 770 
836 800 770 770 835 836 3 4 7 
299 298 259 545 544 515 806 772 771 
771 777 840 840 806 771 25 7 4 
4 23 25 260 261 300 300 279 260 
516 518 546 569 545 516 516 546 569 
830 798 772 772 806 830 21 6 5 
5 7 21 261 262 280 261 280 301 
301 300 261 547 518 517 517 519 548 
548 547 517 773 800 801 22 19 6 
6 21 22 262 263 280 547 546 518 
774 801 802 774 802 803 26 21 7 
7 25 26 263 264 281 302 280 263 
263 281 302 519 520 570 570 548 519 
838 776 775 775 804 805 775 805 838 
8 9 15 16 10 8 8 15 16 
282 281 264 520 549 571 571 570 520 
838 778 776 9 12 15 265 266 283 
283 282 265 576 522 521 521 532 576 
777 809 840 10 16 40 40 38 10 
266 267 305 305 283 266 576 572 522 
807 779 778 838 807 778 18 12 11 
11 14 17 11 17 18 267 284 306 
306 305 267 575 524 523 523 528 573 
523 573 574 523 574 575 779 807 808 
18 15 12 268 269 314 314 311 268 
575 526 524 780 781 812 812 810 780 
19 14 13 269 292 314 525 526 552 
553 529 525 525 552 553 781 811 844 
844 812 781 19 17 14 312 290 270 
316 312 270 601 552 526 526 575 601 
847 814 782 782 815 847 42 16 15 
15 18 42 271 290 317 317 291 271 
527 550 578 579 551 527 527 578 579 
817 815 783 783 816 817 43 40 16 
16 42 43 272 291 292 528 551 573 
784 785 818 818 816 784 44 18 17 
17 19 20 17 20 44 294 274 273 
273 276 293 273 293 319 319 294 273 
529 553 580 580 554 529 819 818 785 
820 819 785 45 42 18 18 44 45 
294 275 274 554 531 530 786 787 850 
850 820 786 22 20 19 315 288 275 
275 294 315 531 554 581 581 555 531 
787 788 821 787 821 851 851 850 787 
20 22 48 47 44 20 48 47 20 
295 293 276 532 558 576 788 789 821 
24 22 21 30 24 21 21 26 30 
277 278 296 321 295 277 277 296 321 
533 535 556 533 556 557 789 790 822 
822 821 789 22 24 48 297 296 278 
559 535 534 534 536 559 790 791 852 
852 822 790 28 25 23 23 27 28 
324 299 279 279 300 325 325 324 279 
582 556 535 535 559 582 791 792 823 
791 823 852 24 30 65 65 48 24 
327 301 280 280 302 327 536 537 584 
583 559 536 584 583 536 824 823 792 
29 26 25 25 28 29 281 282 304 
328 302 281 281 304 328 537 538 584 
793 796 825 855 824 793 793 825 855 
26 29 49 49 30 26 282 283 303 
282 303 304 538 539 586 585 584 538 
586 585 538 826 795 794 856 826 794 
33 28 27 27 31 33 329 303 283 
283 305 329 539 560 586 857 796 795 
795 826 857 34 29 28 28 33 34 
284 285 307 307 306 284 540 541 565 
565 564 540 857 825 796 29 34 67 
67 49 29 285 287 308 308 307 285 
541 542 566 566 565 541 797 808 829 
30 49 66 66 65 30 310 287 286 
286 309 310 542 543 567 589 566 542 
542 567 589 798 830 831 31 32 35 
35 33 31 310 308 287 799 833 834 
799 834 835 37 35 32 32 36 37 
337 289 288 288 315 336 288 336 337 
544 545 568 590 567 544 544 568 590 
837 801 800 800 836 874 875 837 800 
800 874 875 50 34 33 33 35 50 
337 316 289 591 568 545 545 569 591 
837 802 801 34 50 51 34 51 68 
68 67 34 290 312 313 290 313 317 
546 547 593 592 569 546 593 592 546 
827 803 802 865 827 802 802 837 865 
35 37 50 318 292 291 291 317 318 
547 548 594 594 593 547 827 804 803 
54 37 36 36 53 54 339 314 292 
292 318 339 548 570 595 595 594 548 
828 805 804 804 827 828 52 50 37 
54 52 37 293 295 320 341 319 293 
293 320 341 596 571 549 805 828 861 
866 838 805 805 861 866 41 39 38 
38 40 41 342 315 294 294 319 342 
550 557 577 550 577 578 862 830 806 
806 840 867 867 862 806 39 41 58 
58 55 39 321 320 295 579 573 551 
829 808 807 839 829 807 807 838 839 
46 41 40 40 43 46 296 297 344 
343 321 296 344 343 296 606 553 552 
552 601 602 552 602 606 41 46 59 
59 58 41 297 298 323 297 323 344 
606 580 553 809 810 842 842 840 809 
62 43 42 42 45 62 298 299 322 
298 322 323 554 580 581 810 812 841 
810 841 842 63 46 43 43 62 63 
324 322 299 610 558 555 555 581 608 
555 608 610 811 813 845 811 843 844 
845 843 811 64 45 44 44 47 64 
300 301 326 326 325 300 604 557 556 
556 582 609 609 604 556 844 841 812 
81 62 45 45 64 81 346 326 301 
301 327 346 604 577 557 813 814 846 
846 845 813 79 59 46 46 63 79 
347 327 302 302 328 347 611 576 558 
558 610 611 885 846 814 814 847 885 
47 48 82 82 64 47 349 304 303 
303 329 349 612 582 559 559 583 612 
815 817 887 887 847 815 48 65 83 
83 82 48 348 328 304 349 348 304 
560 561 587 587 586 560 848 817 816 
816 818 848 84 66 49 49 67 84 
305 306 330 330 329 305 561 562 614 
614 587 561 817 848 888 888 887 817 
52 51 50 306 307 350 350 330 306 
562 563 588 562 588 615 615 614 562 
818 819 889 889 848 818 51 52 69 
86 68 51 51 69 86 307 308 331 
307 331 351 351 350 307 563 564 588 
819 820 849 819 849 890 890 889 819 
52 54 71 71 69 52 308 310 352 
352 331 308 564 565 616 616 588 564 
850 849 820 72 54 53 53 70 72 
333 310 309 309 332 333 565 566 618 
618 616 565 821 822 893 893 851 821 
72 71 54 310 333 352 566 589 619 
619 618 566 822 852 894 894 893 822 
58 56 55 311 314 340 311 340 353 
620 589 567 567 590 620 823 824 854 
853 852 823 854 853 823 60 57 56 
56 58 60 335 313 312 312 316 334 
312 334 335 621 590 568 568 591 621 
855 854 824 57 60 75 338 317 313 
313 335 357 357 338 313 592 591 569 
895 855 825 825 857 895 58 59 61 
61 60 58 314 339 340 570 571 597 
597 595 570 826 856 897 899 857 826 
826 897 899 80 61 59 59 79 80 
342 336 315 571 596 626 626 597 571 
860 828 827 827 858 860 865 858 827 
60 61 77 76 75 60 77 76 60 
337 334 316 572 576 603 603 598 572 
828 860 861 80 77 61 338 318 317 
599 574 573 573 579 628 628 599 573 
78 63 62 81 78 62 318 338 358 
359 339 318 318 358 359 600 575 574 
574 599 629 629 600 574 868 831 830 
830 862 868 63 78 97 97 79 63 
319 341 361 362 342 319 319 361 362 
575 600 601 869 832 831 831 868 869 
99 81 64 64 82 99 320 321 363 
364 341 320 320 363 364 611 603 576 
870 833 832 832 869 870 65 66 100 
100 83 65 321 343 363 605 578 577 
577 604 605 871 834 833 833 870 871 
66 84 101 101 100 66 366 323 322 
322 324 367 367 366 322 633 579 578 
578 605 633 872 835 834 834 871 872 
67 68 85 85 84 67 365 344 323 
366 365 323 633 628 579 873 836 835 
835 872 873 86 85 68 324 325 345 
324 345 367 607 581 580 580 606 634 
634 607 580 836 873 874 69 71 87 
102 86 69 69 87 102 325 326 345 
581 607 608 875 865 837 74 72 70 
70 73 74 369 345 326 326 346 369 
636 609 582 582 612 636 866 839 838 
71 72 89 103 87 71 71 89 103 
370 346 327 327 347 370 583 584 613 
639 612 583 583 613 639 72 74 88 
72 88 89 372 347 328 328 348 372 
584 585 613 840 842 876 876 867 840 
90 74 73 329 330 374 374 349 329 
585 586 643 642 613 585 643 642 585 
880 842 841 841 844 878 841 878 880 
91 88 74 74 90 91 330 350 375 
375 374 330 586 587 643 880 876 842 
75 76 95 376 351 331 331 352 377 
377 376 331 587 614 644 644 643 587 
878 844 843 843 845 882 882 877 843 
843 877 883 883 878 843 76 77 98 
96 95 76 98 96 76 378 333 332 
617 615 588 588 616 617 77 80 115 
115 98 77 398 352 333 333 378 398 
648 619 589 589 620 648 845 846 884 
884 882 845 78 81 117 112 97 78 
117 112 78 380 335 334 334 337 356 
334 356 380 649 620 590 590 621 649 
885 884 846 113 80 79 79 97 113 
381 357 335 335 380 381 591 592 622 
622 621 591 886 885 847 887 886 847 
80 113 114 80 114 115 355 337 336 
336 342 354 336 354 355 592 593 623 
623 622 592 915 888 848 848 889 915 
81 99 116 81 116 117 337 355 356 
593 594 651 651 623 593 849 850 891 
918 890 849 849 891 918 82 83 118 
118 99 82 338 357 384 384 358 338 
594 595 625 594 625 651 850 851 891 
83 100 120 120 118 83 360 340 339 
339 359 360 595 597 625 892 891 851 
893 892 851 84 85 121 121 101 84 
382 353 340 340 360 382 596 624 626 
852 853 922 922 894 852 85 86 122 
122 121 85 364 361 341 652 625 597 
597 626 652 853 854 924 923 922 853 
924 923 853 86 102 123 123 122 86 
362 354 342 598 603 631 631 627 598 
854 855 925 925 924 854 124 102 87 
87 103 124 343 344 388 387 363 343 
388 387 343 599 628 657 657 629 599 
855 895 925 104 89 88 88 91 94 
88 94 104 344 365 388 630 601 600 
600 629 658 658 630 600 856 896 897 
105 103 89 89 104 105 368 367 345 
369 368 345 630 602 601 898 895 857 
899 898 857 92 91 90 390 369 346 
346 370 390 662 606 602 602 630 659 
602 659 662 865 859 858 91 92 93 
91 93 94 371 370 347 372 371 347 
603 611 665 665 631 603 859 865 875 
859 875 902 107 93 92 348 349 373 
393 372 348 348 373 393 632 605 604 
604 609 632 108 94 93 93 107 110 
110 108 93 374 373 349 605 632 654 
655 633 605 605 654 655 106 104 94 
108 106 94 350 351 396 396 375 350 
662 634 606 862 863 864 867 863 862 
862 864 868 95 96 111 351 376 396 
635 608 607 607 634 664 664 635 607 
863 867 908 96 98 134 134 111 96 
398 377 352 637 610 608 608 635 637 
900 868 864 97 112 135 135 113 97 
382 379 353 661 632 609 609 636 660 
609 660 661 98 115 137 137 134 98 
383 355 354 354 362 405 405 383 354 
638 611 610 610 637 638 119 116 99 
99 118 119 403 356 355 355 383 429 
429 403 355 611 638 665 867 876 908 
100 101 141 141 120 100 403 380 356 
640 636 612 612 639 640 900 869 868 
101 121 142 142 141 101 357 381 406 
406 384 357 641 639 613 642 641 613 
901 870 869 869 900 901 145 123 102 
102 124 145 407 359 358 358 384 407 
614 615 645 645 644 614 903 871 870 
870 901 903 103 105 146 146 124 103 
408 360 359 359 407 408 615 617 669 
669 645 615 905 872 871 871 903 904 
871 904 905 125 105 104 104 106 125 
411 382 360 360 408 411 670 617 616 
616 618 646 616 646 670 906 873 872 
872 905 906 105 125 147 147 146 105 
410 362 361 361 364 385 361 385 410 
700 669 617 617 670 700 909 874 873 
873 906 909 106 108 126 148 125 106 
106 126 148 410 405 362 618 619 647 
647 646 618 902 875 874 909 902 874 
107 109 110 386 364 363 387 386 363 
671 647 619 619 648 671 108 110 127 
127 126 108 386 385 364 649 648 620 
876 880 907 876 907 908 129 110 109 
131 129 109 365 366 414 413 388 365 
414 413 365 621 622 673 650 649 621 
673 650 621 129 127 110 366 367 389 
366 389 414 622 623 674 674 673 622 
878 879 880 883 879 878 153 133 111 
111 134 153 367 368 416 416 389 367 
623 651 675 675 674 623 907 880 879 
112 117 139 154 135 112 112 139 154 
368 369 417 417 416 368 653 626 624 
678 653 624 155 114 113 113 135 155 
369 390 418 418 417 369 676 651 625 
625 652 677 677 676 625 881 882 884 
881 884 910 136 115 114 155 136 114 
370 371 391 391 390 370 653 652 626 
115 136 137 371 372 392 420 391 371 
371 392 420 627 631 666 627 666 679 
139 117 116 116 119 138 116 138 139 
393 392 372 628 633 656 628 656 657 
884 885 910 373 374 394 423 393 373 
373 394 423 629 657 684 684 658 629 
885 886 911 911 910 885 140 119 118 
118 120 140 374 375 394 630 658 685 
685 659 630 886 887 913 912 911 886 
913 912 886 157 138 119 119 140 157 
395 394 375 396 395 375 631 665 666 
887 888 913 158 140 120 120 141 158 
376 377 397 425 396 376 376 397 425 
661 654 632 914 913 888 915 914 888 
121 122 143 143 142 121 399 397 377 
377 398 399 633 655 656 889 890 916 
916 915 889 122 123 144 144 143 122 
401 398 378 378 400 401 634 662 663 
634 663 664 917 916 890 918 917 890 
161 144 123 123 145 161 379 382 409 
409 402 379 691 637 635 635 664 690 
635 690 691 891 892 933 919 918 891 
933 919 891 162 145 124 124 146 162 
404 381 380 380 403 404 636 640 660 
892 893 920 892 920 933 163 147 125 
125 148 163 381 404 427 427 406 381 
693 638 637 637 691 693 893 894 921 
921 920 893 126 127 128 126 128 148 
411 409 382 692 665 638 693 692 638 
922 921 894 130 128 127 127 129 130 
383 405 428 383 428 429 667 640 639 
639 641 667 895 898 937 937 925 895 
128 130 166 164 148 128 165 164 128 
166 165 128 384 406 430 430 407 384 
687 660 640 640 667 687 938 897 896 
896 926 938 132 130 129 129 131 132 
385 386 432 433 410 385 385 432 433 
641 642 695 694 667 641 695 694 641 
939 899 897 897 938 939 130 132 150 
130 150 166 386 387 435 435 432 386 
642 643 668 642 668 695 898 899 939 
939 937 898 149 132 131 387 388 412 
387 412 435 643 644 668 132 149 152 
152 150 132 413 412 388 644 645 698 
697 668 644 698 697 644 133 153 170 
415 414 389 438 415 389 389 416 438 
645 669 699 699 698 645 134 137 156 
156 153 134 390 391 419 419 418 390 
646 647 702 701 670 646 702 701 646 
135 154 172 172 155 135 441 419 391 
391 420 441 647 671 703 703 702 647 
174 137 136 136 155 173 136 173 174 
392 393 421 421 420 392 648 649 672 
704 671 648 648 672 704 174 156 137 
422 421 393 423 422 393 649 650 672 
177 139 138 138 157 176 138 176 177 
394 395 424 424 423 394 705 672 650 
650 673 706 706 705 650 178 154 139 
139 177 178 395 396 425 442 424 395 
395 425 443 443 442 395 676 675 651 
179 157 140 140 158 179 652 653 710 
710 677 652 141 142 159 159 158 141 
397 399 445 444 425 397 445 444 397 
653 678 711 711 710 653 142 143 160 
160 159 142 401 399 398 681 655 654 
654 661 680 654 680 681 143 144 181 
182 160 143 143 181 182 399 401 446 
446 445 399 682 656 655 655 681 682 
144 161 181 448 401 400 400 447 448 
683 657 656 656 682 683 912 913 927 
183 161 145 145 162 183 448 446 401 
657 683 712 712 684 657 913 914 927 
146 147 184 184 162 146 402 409 451 
451 449 402 658 684 713 713 685 658 
914 915 930 928 927 914 930 928 914 
147 163 185 185 184 147 426 404 403 
429 426 403 686 662 659 659 685 714 
714 686 659 915 916 930 164 163 148 
404 426 450 450 427 404 689 661 660 
660 687 688 660 688 689 916 917 931 
931 930 916 149 151 152 405 410 434 
434 428 405 689 680 661 917 918 932 
941 931 917 917 932 941 150 152 167 
188 166 150 150 167 168 150 168 188 
406 427 454 454 430 406 686 663 662 
918 919 932 167 152 151 169 167 151 
431 408 407 407 430 431 690 664 663 
663 686 715 715 690 663 942 932 919 
919 933 943 943 942 919 456 411 408 
408 431 456 920 921 945 944 933 920 
945 944 920 153 156 175 191 170 153 
153 175 191 409 411 457 457 451 409 
692 666 665 921 922 934 921 934 945 
154 171 172 178 171 154 410 433 434 
716 679 666 666 692 716 922 923 935 
935 934 922 155 172 193 193 173 155 
411 456 457 717 687 667 667 694 717 
923 924 946 946 935 923 156 174 196 
196 175 156 412 413 436 460 435 412 
412 436 460 696 695 668 697 696 668 
924 925 947 947 946 924 180 176 157 
157 179 180 413 414 437 437 436 413 
724 699 669 669 700 724 925 937 947 
158 159 199 199 179 158 414 415 437 
701 700 670 926 936 948 948 938 926 
159 160 200 200 199 159 461 437 415 
415 438 461 729 703 671 671 704 729 
160 182 200 416 417 439 439 438 416 
705 704 672 930 929 928 201 181 161 
161 183 201 417 418 440 440 439 417 
673 674 707 707 706 673 929 930 931 
929 931 940 202 183 162 162 184 203 
203 202 162 418 419 463 463 440 418 
674 675 708 733 707 674 674 708 733 
163 164 186 186 185 163 419 441 464 
464 463 419 675 676 708 941 940 931 
164 165 207 206 186 164 207 206 164 
420 421 466 465 441 420 466 465 420 
676 677 734 734 708 676 952 941 932 
932 942 952 165 166 187 165 187 207 
421 422 467 467 466 421 677 710 764 
764 734 677 944 943 933 188 187 166 
422 423 469 468 467 422 469 468 422 
678 709 711 934 935 959 958 945 934 
959 958 934 190 168 167 167 169 190 
423 424 469 679 716 738 935 946 960 
960 959 935 208 188 168 168 190 209 
209 208 168 424 442 470 470 469 424 
741 681 680 680 689 740 680 740 741 
970 948 936 936 963 970 169 189 190 
444 443 425 736 682 681 741 736 681 
937 939 950 962 947 937 937 950 962 
170 191 211 426 429 453 474 450 426 
426 453 474 737 683 682 682 736 737 
949 939 938 938 948 949 194 172 171 
171 178 192 171 192 194 427 450 475 
475 454 427 742 712 683 683 737 742 
939 949 950 194 193 172 453 429 428 
428 434 452 428 452 477 477 453 428 
684 712 743 743 713 684 940 941 951 
195 174 173 173 193 212 212 195 173 
685 713 744 744 714 685 952 951 941 
174 195 196 455 431 430 430 454 455 
686 714 745 745 715 686 942 943 955 
954 952 942 955 954 942 213 191 175 
175 196 213 431 455 478 478 456 431 
718 688 687 687 717 718 943 944 956 
956 955 943 197 177 176 176 180 214 
214 197 176 458 433 432 432 435 459 
459 458 432 739 689 688 688 718 739 
944 945 957 957 956 944 215 178 177 
177 197 215 480 434 433 433 458 480 
689 739 740 958 957 945 215 192 178 
480 452 434 748 691 690 690 715 747 
690 747 748 946 947 962 961 960 946 
962 961 946 198 180 179 199 198 179 
460 459 435 749 693 691 691 748 749 
180 198 214 436 437 483 482 460 436 
483 482 436 692 693 750 750 716 692 
964 949 948 981 964 948 948 970 981 
219 182 181 181 201 219 437 461 483 
693 749 750 964 950 949 218 200 182 
219 218 182 438 439 484 484 461 438 
694 695 720 719 717 694 720 719 694 
969 962 950 950 964 969 220 201 183 
183 202 220 439 440 462 439 462 484 
695 696 720 951 952 953 184 185 204 
204 203 184 485 462 440 440 463 485 
696 697 721 754 720 696 696 721 754 
954 953 952 185 186 205 205 204 185 
465 464 441 697 698 722 722 721 697 
953 954 965 206 205 186 442 443 490 
490 470 442 698 699 723 723 722 698 
954 955 966 966 965 954 187 188 208 
223 207 187 187 208 224 224 223 187 
443 444 491 491 490 443 725 723 699 
699 724 725 955 956 972 972 966 955 
444 445 471 444 471 491 700 701 726 
726 724 700 956 957 973 973 972 956 
210 190 189 225 210 189 445 446 472 
472 471 445 701 702 727 758 726 701 
701 727 758 957 958 967 957 967 973 
210 209 190 446 448 493 493 472 446 
702 703 728 728 727 702 958 959 975 
975 967 958 226 211 191 191 213 226 
493 448 447 447 492 493 759 728 703 
703 729 759 959 960 976 976 975 959 
228 194 192 192 215 227 192 227 228 
704 705 730 731 729 704 704 730 731 
960 961 968 960 968 976 193 194 212 
449 451 476 476 473 449 705 706 732 
732 730 705 961 962 969 969 968 961 
229 212 194 194 228 229 450 474 495 
495 475 450 706 707 732 231 196 195 
195 212 230 195 230 231 451 457 479 
479 476 451 760 732 707 707 733 761 
761 760 707 979 970 963 231 213 196 
497 477 452 452 480 496 452 496 497 
762 733 708 708 734 762 978 969 964 
981 978 964 197 214 234 234 215 197 
494 474 453 453 477 494 735 711 709 
766 735 709 965 966 971 198 199 216 
235 214 198 198 216 235 498 455 454 
454 475 498 710 711 765 765 764 710 
972 971 966 199 200 217 217 216 199 
499 478 455 455 498 499 711 735 765 
985 973 967 975 974 967 967 974 985 
218 217 200 500 457 456 456 478 500 
712 742 769 769 743 712 968 969 978 
977 976 968 978 977 968 237 219 201 
201 220 221 201 221 237 500 479 457 
713 743 773 773 744 713 202 203 239 
239 220 202 458 459 481 503 480 458 
458 481 502 458 502 503 714 744 774 
774 745 714 970 979 980 970 980 981 
203 204 222 203 222 239 459 460 504 
504 481 459 715 745 746 715 746 747 
971 972 982 204 205 241 262 222 204 
204 241 262 460 482 504 751 738 716 
716 750 751 972 973 983 983 982 972 
205 206 242 242 241 205 506 483 461 
461 484 507 507 506 461 752 718 717 
717 719 752 985 983 973 206 207 243 
243 242 206 508 484 462 462 485 509 
509 508 462 777 771 718 771 739 718 
718 752 777 974 975 986 990 985 974 
974 986 991 991 990 974 207 223 243 
463 464 486 486 485 463 719 720 753 
753 752 719 975 976 986 208 209 244 
244 224 208 464 465 511 511 486 464 
780 753 720 720 754 780 976 977 986 
209 210 245 245 244 209 465 466 487 
465 487 511 721 722 755 755 754 721 
977 978 988 992 986 977 977 988 992 
210 225 246 246 245 210 466 467 488 
488 487 466 722 723 756 756 755 722 
978 981 988 211 226 248 467 468 488 
723 725 756 987 980 979 212 229 252 
252 230 212 468 469 489 514 488 468 
468 489 514 757 725 724 724 726 757 
988 981 980 980 987 993 993 988 980 
232 226 213 213 231 232 469 470 489 
782 756 725 725 757 782 214 233 234 
235 233 214 515 489 470 470 490 515 
783 757 726 726 758 783 982 983 984 
254 227 215 215 234 254 471 517 518 
471 472 517 518 491 471 727 728 784 
784 758 727 989 984 983 983 985 989 
216 217 256 255 235 216 256 255 216 
519 517 472 472 493 519 785 784 728 
728 759 785 984 989 994 217 218 236 
217 236 256 473 521 522 473 476 521 
729 731 786 786 759 729 990 989 985 
218 219 238 238 236 218 474 494 524 
524 495 474 789 788 730 788 731 730 
730 732 789 992 991 986 219 237 238 
475 495 525 525 498 475 787 786 731 
788 787 731 999 993 987 240 221 220 
220 239 240 532 521 476 476 479 532 
732 760 789 993 992 988 258 237 221 
221 240 258 528 494 477 477 497 528 
762 761 733 989 990 996 996 994 989 
261 260 222 262 261 222 260 239 222 
478 499 530 530 500 478 763 762 734 
764 763 734 990 991 996 223 224 265 
265 243 223 479 500 501 479 501 532 
735 795 796 796 765 735 735 766 795 
991 992 998 998 996 991 266 265 224 
224 244 266 503 496 480 768 737 736 
736 741 767 736 767 768 992 993 998 
247 246 225 533 502 481 481 504 533 
737 768 799 799 742 737 999 998 993 
226 232 249 249 248 226 482 483 505 
534 504 482 482 505 534 738 751 797 
996 995 994 250 228 227 254 250 227 
506 505 483 739 771 772 772 740 739 
995 996 997 251 229 228 228 250 251 
508 507 484 740 772 798 798 741 740 
998 997 996 229 251 270 270 252 229 
485 486 510 510 509 485 798 767 741 
997 998 999 253 231 230 230 252 271 
271 253 230 512 510 486 486 511 512 
799 769 742 253 232 231 487 513 541 
541 540 487 487 488 513 540 511 487 
743 769 770 743 770 773 272 249 232 
232 253 272 543 513 488 488 514 543 
744 773 801 801 774 744 233 273 274 
276 273 233 274 234 233 233 235 276 
544 514 489 489 515 544 745 774 803 
803 746 745 274 254 234 545 515 490 
490 516 545 490 491 516 804 775 746 
746 803 804 775 747 746 235 255 276 
518 516 491 747 775 776 776 748 747 
278 256 236 236 257 278 236 238 257 
549 520 492 520 493 492 748 776 778 
778 749 748 237 258 259 259 238 237 
520 519 493 749 778 779 779 750 749 
259 257 238 494 523 524 528 523 494 
779 751 750 260 240 239 495 524 526 
526 525 495 751 779 808 808 797 751 
279 258 240 240 260 279 550 527 496 
527 497 496 496 503 550 809 777 752 
752 753 809 263 262 241 241 242 263 
497 527 551 551 528 497 753 780 810 
810 809 753 264 263 242 242 243 264 
498 525 529 529 499 498 781 780 754 
754 755 781 282 264 243 243 265 282 
499 529 554 554 530 499 811 781 755 
813 811 755 755 756 813 267 266 244 
244 245 267 500 530 531 531 501 500 
756 782 814 814 813 756 284 267 245 
285 284 245 245 246 285 501 531 555 
558 532 501 501 555 558 815 782 757 
757 783 815 287 285 246 246 247 287 
502 533 557 557 550 502 550 503 502 
816 783 758 758 784 816 247 286 287 
820 785 759 759 786 820 269 268 248 
248 249 269 535 533 504 504 534 535 
790 789 760 791 790 760 760 761 791 
292 269 249 249 272 292 536 534 505 
537 536 505 505 506 537 792 791 761 
761 762 792 250 275 288 250 288 289 
289 251 250 250 254 275 538 537 506 
506 507 538 762 763 792 316 270 251 
251 289 316 539 538 507 507 508 539 
824 792 763 763 793 824 763 764 793 
252 270 290 290 271 252 560 539 508 
508 509 560 764 765 793 253 271 291 
291 272 253 561 560 509 509 510 561 
796 793 765 254 274 275 510 512 563 
562 561 510 563 562 510 766 794 795 
255 256 277 295 276 255 255 277 295 
540 512 511 832 768 767 767 798 831 
767 831 832 
