# vtk DataFile Version 5.1
vtk output
ASCII
DATASET POLYDATA
POINTS 1000 float
4.26044 6.03447 -1.48887 4.26744 5.94081 -1.06135 4.45552 5.65055 -1.42257 
4.28088 5.64819 -1.83096 5.04522 3.56197 -2.74131 4.83081 3.97934 -2.64888 
3.90863 6.42801 -1.36964 3.76621 6.51843 -0.871193 3.61898 6.77407 -1.15308 
3.58191 6.68198 -1.59918 3.88972 6.13461 -0.719234 4.06563 6.25281 -1.11729 
3.82181 6.34447 -1.71943 4.05815 6.00904 -1.79764 4.30448 5.54065 -1.00085 
3.97892 5.70173 -0.687212 4.3918 5.14963 -1.15183 4.50053 5.23275 -1.57907 
4.37187 5.27058 -1.94491 4.49974 4.76851 -1.3105 4.59792 4.83025 -1.72638 
4.66562 4.38908 -1.57031 4.47589 4.90562 -2.08235 4.72065 4.46757 -1.9642 
4.57336 4.58173 -2.28901 4.58015 3.96852 -1.42559 4.8557 4.02624 -1.90008 
4.7846 3.62702 -1.64636 4.75247 4.24449 -2.36952 5.01107 3.45908 -1.9486 
4.99193 3.79972 -2.27645 5.16513 3.30756 -2.36348 5.17164 2.97975 -2.0017 
5.34858 2.78126 -2.43244 5.39588 2.46897 -2.11713 5.19129 3.06791 -2.79861 
5.34176 2.56065 -2.87242 5.53182 2.1751 -2.52261 5.44216 2.08251 -2.97737 
5.47393 1.62707 -2.99411 3.09177 7.40056 -1.29107 3.33962 7.09096 -0.967279 
3.44772 6.76689 -0.653747 3.33074 7.0274 -1.4561 3.49635 6.32335 -0.48591 
4.02615 5.19584 -0.775033 4.10608 4.73625 -0.924791 4.37289 4.33685 -1.19598 
4.80621 3.09147 -1.61094 5.08101 2.61402 -1.72377 5.29876 2.18574 -1.7713 
5.53342 1.92122 -2.12729 5.38488 1.72434 -1.715 5.55709 1.39261 -2.09069 
5.57295 1.57773 -2.53156 5.54693 1.01828 -2.46745 5.46625 1.14833 -2.96467 
2.7743 7.74535 -1.08032 2.38965 8.01302 -0.845295 3.043 7.40469 -0.795242 
2.7233 7.67392 -0.633374 3.12886 7.05677 -0.496721 3.13579 6.56183 -0.307842 
3.54181 5.85295 -0.448679 3.60821 5.37099 -0.507117 4.00733 4.27655 -0.947343 
4.17608 3.84393 -1.12102 4.46895 3.47985 -1.36093 4.73282 2.56126 -1.4554 
4.97958 2.06556 -1.4581 5.10242 1.55526 -1.39706 5.42767 1.2295 -1.68352 
5.5459 0.852341 -1.98141 5.56902 0.508378 -2.31508 5.45634 0.676265 -2.88347 
2.43039 7.81091 -0.369199 2.7813 7.33728 -0.311979 2.80795 6.84691 -0.150097 
3.10607 6.02819 -0.254327 3.15496 5.55131 -0.295521 3.64662 4.88064 -0.621811 
3.61958 4.45218 -0.706048 3.69269 3.98846 -0.833725 4.09615 3.3083 -1.14005 
4.38689 2.98269 -1.31462 5.22734 1.09697 -1.33715 5.47835 0.743931 -1.52524 
5.51055 0.377995 -1.33245 5.63668 0.339964 -1.84661 5.66713 -0.0577126 -1.50158 
5.73318 -0.121748 -1.93991 5.63868 -0.00486489 -2.38806 5.51059 0.269692 -2.73039 
5.73285 -0.572686 -1.78872 5.70989 -0.475469 -2.30492 2.07951 8.13755 -0.518888 
1.85256 8.18447 -0.150111 2.1582 7.8727 -0.0152551 2.42766 7.51285 -0.0372035 
2.45242 7.11077 0.0706228 2.73772 6.28285 -0.0980034 2.40005 6.60809 0.0829068 
3.21659 5.06201 -0.394082 3.78477 3.57495 -0.947305 4.33736 2.50392 -1.24422 
4.53266 2.07616 -1.25044 4.69714 1.62239 -1.20319 4.82954 1.15181 -1.11853 
5.10706 0.747337 -1.10587 5.18095 0.324703 -1.02111 5.38896 -0.0718613 -1.11633 
5.59321 -0.531596 -1.34657 5.64635 -1.05542 -1.67103 5.68004 -0.958019 -2.20876 
1.81192 8.07004 0.234727 2.10278 7.54374 0.320193 2.29117 6.09472 0.0471303 
2.66839 5.73633 -0.113173 2.81783 5.24564 -0.222406 3.17128 4.62103 -0.474714 
3.24133 4.16452 -0.603586 3.30415 3.73286 -0.711128 3.71789 3.06666 -0.974351 
3.94982 2.69403 -1.08663 4.02296 2.16455 -1.08016 4.23226 1.693 -1.0657 
4.51044 0.791026 -0.949815 4.73356 0.430828 -0.921938 5.26778 -0.487762 -0.985915 
5.4374 -0.942579 -1.16834 5.46819 -1.36662 -1.3432 5.4877 -1.6714 -1.66582 
5.56939 -1.4481 -2.11879 1.5541 8.15832 0.488242 1.37901 8.12426 0.786568 
1.79291 7.72425 0.612202 1.82644 7.21762 0.611786 2.09946 6.97995 0.332525 
2.15117 5.65424 0.0175575 2.41797 5.26745 -0.108523 2.70883 4.79164 -0.281857 
2.79488 4.30982 -0.417881 3.38868 3.3526 -0.804923 3.47903 2.60105 -0.904537 
4.37392 1.22925 -1.00738 4.89297 -0.0561596 -0.893058 4.83681 -0.506763 -0.835966 
5.06795 -0.924851 -0.861086 5.17073 -1.38307 -0.96544 5.42687 -1.99063 -2.05543 
1.14173 8.04124 1.10754 1.4973 7.76434 0.935567 1.53239 7.35812 0.905225 
1.67626 6.73173 0.522061 1.96 6.4439 0.251859 1.78355 5.94456 0.167812 
1.95839 5.25564 -0.00988467 2.18468 4.86823 -0.134908 2.33203 4.46697 -0.259934 
2.86775 3.83918 -0.539022 2.90725 3.37073 -0.632603 3.21647 2.97015 -0.787393 
3.56884 2.16079 -0.932302 3.75836 1.71485 -0.941771 3.92114 1.26221 -0.914552 
3.98183 0.815879 -0.867923 4.16058 0.397115 -0.848673 4.41098 0.068625 -0.841389 
4.75286 -1.30903 -0.765024 5.26269 -1.79767 -1.19029 5.33191 -2.15322 -1.5127 
5.32661 -2.49166 -1.88277 1.1519 7.61217 1.21658 1.14301 7.19046 1.10847 
1.39363 6.91865 0.807462 1.46909 6.29246 0.386498 2.42886 4.03668 -0.38049 
2.74512 2.93109 -0.64725 2.97401 2.55738 -0.747963 3.09914 2.13233 -0.798102 
3.25967 1.71214 -0.821536 3.47854 1.27827 -0.827471 4.40096 -0.356082 -0.806962 
4.54108 -0.852324 -0.774317 4.906 -1.80584 -0.846202 5.08205 -2.23363 -1.06372 
5.19342 -2.6266 -1.31346 5.25396 -2.95308 -1.6369 0.749475 7.92203 1.32212 
0.922715 6.76437 0.946183 1.15831 6.51331 0.645481 1.26479 5.86749 0.27567 
1.56636 5.47798 0.108434 1.62346 4.98005 -0.00985223 1.80956 4.57868 -0.134403 
1.94657 4.17258 -0.255868 2.46977 3.58258 -0.47915 2.06103 3.7706 -0.362363 
2.3881 3.16652 -0.528053 3.45211 0.814227 -0.781044 3.67164 0.353907 -0.785103 
3.90962 -0.112352 -0.791279 4.05483 -0.632047 -0.774005 4.20826 -1.12756 -0.731534 
4.40734 -1.57249 -0.69711 4.75073 -2.35307 -0.789757 4.93767 -2.74311 -0.904849 
0.308944 7.81598 1.48703 0.685037 7.46483 1.4007 0.747631 7.04709 1.22317 
0.908088 6.10856 0.471576 1.07332 5.46593 0.188226 1.18088 5.03564 0.0629445 
1.31986 4.58293 -0.0669872 1.93562 3.3563 -0.417111 2.41962 2.58667 -0.608933 
2.64786 2.19143 -0.689222 2.72674 1.67827 -0.712255 3.02083 1.25864 -0.743489 
3.15869 0.350681 -0.713233 3.36848 -0.0859873 -0.73344 3.58956 -0.540822 -0.751426 
3.74802 -1.01783 -0.732212 4.52145 -2.00305 -0.699951 5.08171 -3.14377 -1.04023 
5.19006 -3.37982 -1.38401 0.363799 7.07256 1.39185 0.401478 6.70237 1.10702 
0.650076 6.42622 0.774926 0.651219 5.64529 0.310601 0.694782 5.13376 0.137286 
1.47636 4.16659 -0.193471 1.60787 3.74059 -0.306682 2.04302 2.85465 -0.505751 
2.27586 1.96256 -0.628981 2.54167 1.15436 -0.667393 2.92242 0.792464 -0.699502 
3.90812 -1.48304 -0.675392 4.05281 -1.92222 -0.620502 4.27158 -2.36332 -0.597357 
4.53148 -2.75503 -0.598773 4.79065 -3.15747 -0.628978 4.99601 -3.58861 -0.68481 
5.15285 -3.75943 -1.07448 5.13357 -4.12689 -0.741048 -0.172856 7.76266 1.64187 
0.153881 7.406 1.57489 0.415642 6.05067 0.559036 0.83959 4.66764 0.00160421 
0.974308 4.22343 -0.129154 1.3374 3.38046 -0.348144 1.59725 3.03993 -0.420881 
1.60847 2.60465 -0.474324 1.98223 2.32534 -0.554876 2.19352 1.49244 -0.629116 
2.6798 0.354454 -0.650616 2.79557 -0.0972734 -0.659034 3.0994 -0.513843 -0.698104 
3.27372 -0.967972 -0.702979 3.43153 -1.41733 -0.663378 3.56866 -1.86664 -0.590231 
3.76578 -2.30699 -0.517807 4.02162 -2.72915 -0.446457 4.34192 -3.12245 -0.375489 
4.67327 -3.53559 -0.320914 4.93943 -3.98159 -0.319272 5.07626 -4.48548 -0.436398 
-0.313038 7.34166 1.7137 -0.0497698 6.9479 1.45725 -0.0661065 6.57552 1.16998 
0.153901 6.34067 0.863194 0.164128 5.65355 0.369453 0.228983 5.21209 0.186469 
0.37446 4.7267 0.0422169 1.11198 3.79527 -0.249137 0.842422 3.3696 -0.318728 
1.10935 2.91715 -0.395898 1.80536 1.80869 -0.568488 1.65584 1.33135 -0.571929 
2.02177 1.00802 -0.606258 2.37225 0.684287 -0.6288 2.26481 0.138787 -0.602332 
2.62846 -0.545664 -0.639355 2.79077 -0.968682 -0.648358 2.94707 -1.40202 -0.622485 
4.57529 -3.86747 0.000294108 4.85167 -4.30774 0.0174183 4.99359 -4.78265 -0.123641 
-0.634762 7.68265 1.82695 -0.489761 6.97308 1.63638 -0.469303 6.60754 1.36513 
-0.423367 6.26992 0.986673 -0.104493 6.0294 0.650153 -0.294861 5.65286 0.404462 
-0.284222 5.22987 0.201158 0.499199 4.25581 -0.0899372 0.631728 3.80632 -0.215134 
1.1913 2.43883 -0.449882 1.4715 2.10569 -0.507173 1.9024 0.468456 -0.582624 
2.2342 -0.327132 -0.595477 3.09508 -1.84766 -0.558618 3.27198 -2.29905 -0.472854 
3.50166 -2.7245 -0.37292 3.80705 -3.10667 -0.250381 4.20205 -3.47208 -0.116898 
4.08703 -3.78839 0.181014 4.43565 -4.13385 0.33546 4.70153 -4.49825 0.370606 
4.80985 -4.88771 0.400527 4.9363 -5.13378 0.0569498 -1.06463 7.66863 2.05092 
-0.818547 7.23108 1.89621 -0.606681 5.94139 0.668916 -0.0901449 4.79445 0.0661794 
0.0438157 4.31595 -0.0605689 0.149828 3.8317 -0.190002 0.326085 3.39481 -0.293981 
0.607321 2.95321 -0.369988 0.769729 2.45775 -0.422498 0.922232 1.99315 -0.467895 
1.27319 1.6495 -0.521304 1.14268 1.17631 -0.535582 1.53467 0.825413 -0.567209 
1.7866 -0.0928008 -0.561766 2.27622 -0.853816 -0.592209 2.42889 -1.3157 -0.57549 
2.59946 -1.77209 -0.525644 2.7747 -2.23901 -0.444723 3.24146 -3.1244 -0.184112 
3.67931 -3.46686 -0.00690881 3.95439 -4.09057 0.519297 4.24521 -4.3903 0.697722 
4.50927 -4.70136 0.755174 4.68592 -5.14259 0.729078 4.83496 -5.41001 0.336362 
4.72204 -5.65931 0.628493 -1.27661 7.28097 2.16058 -0.864984 6.74483 1.66562 
-0.864066 6.36963 1.29919 -0.755413 5.55401 0.372817 -0.786891 5.14578 0.172315 
-0.580664 4.77689 0.0547462 -0.423697 4.36679 -0.0476119 -0.200709 3.36656 -0.294615 
0.0999524 2.96273 -0.362839 0.350527 2.54492 -0.405635 1.03426 0.67147 -0.541456 
1.42671 0.328235 -0.553885 1.82929 -0.637647 -0.555475 1.92319 -1.16929 -0.537529 
2.08227 -1.65066 -0.49388 2.96796 -2.70767 -0.333479 3.60698 -3.82717 0.313359 
4.05204 -4.71095 1.08531 4.39263 -4.96584 1.07456 4.55422 -5.38135 1.05752 
4.5987 -5.87486 0.956551 -1.51129 7.67132 2.32428 -1.2157 6.89174 1.95096 
-1.25226 6.47847 1.61118 -0.956291 6.08112 0.936466 -1.11228 5.75322 0.589453 
-1.2313 5.33842 0.3006 -0.304142 3.88789 -0.169804 0.407683 2.01139 -0.443324 
0.742388 1.54125 -0.488959 0.652436 1.03457 -0.513064 1.30674 -0.111658 -0.539014 
1.36206 -0.554316 -0.528803 1.4584 -1.02429 -0.512115 2.25193 -2.10975 -0.422483 
2.43222 -2.56829 -0.326251 2.58465 -3.02384 -0.1803 2.82981 -3.36469 -0.0235647 
3.22973 -3.57207 0.105948 3.14001 -3.92722 0.42717 3.76386 -4.40975 0.879658 
3.47702 -4.16388 0.663579 4.20118 -5.16456 1.41294 4.41237 -5.55093 1.41644 
4.46194 -6.06488 1.3107 -1.73092 7.28585 2.43329 -1.66044 6.94353 2.2396 
-1.61997 6.58708 1.91845 -1.3384 6.16958 1.21237 -1.47696 5.88341 0.82911 
-1.18241 4.87295 0.08771 -0.992285 4.4865 -0.0308983 -0.778753 4.06486 -0.132376 
-0.66568 3.56096 -0.257534 -0.316648 2.77576 -0.396668 -0.0191921 2.36349 -0.422729 
0.274455 1.48061 -0.47293 0.540214 0.515319 -0.528072 0.906168 0.171743 -0.5364 
1.58005 -1.52022 -0.469456 1.72819 -1.98643 -0.397879 1.89099 -2.43524 -0.304859 
2.04831 -2.85887 -0.190818 2.75457 -3.74999 0.260789 3.18711 -4.47525 0.997863 
3.5494 -4.6976 1.19764 3.816 -4.99515 1.45044 4.0128 -5.42287 1.78186 
4.28317 -5.76723 1.72901 4.2708 -6.2118 1.71129 -1.9961 7.58262 2.61927 
-1.72269 6.25499 1.48138 -1.853 5.97641 1.06446 -1.60982 5.53409 0.497311 
-1.63505 5.04048 0.185396 -1.56556 4.54281 -0.0143518 -1.31047 4.1286 -0.132823 
-1.10543 3.74893 -0.225186 -0.682706 3.08828 -0.364319 -0.438473 2.21687 -0.452801 
-0.0875749 1.84911 -0.452346 0.181819 0.959991 -0.5012 0.444005 -0.0408081 -0.534251 
0.872587 -0.344527 -0.52408 0.955925 -0.851911 -0.502338 1.09221 -1.35246 -0.463609 
1.22721 -1.85485 -0.388791 2.09573 -3.25186 -0.0269305 2.36832 -3.52652 0.108536 
3.00368 -4.22291 0.733126 2.61932 -4.07512 0.567448 3.61411 -5.28486 1.78942 
3.32873 -5.01584 1.54873 4.01835 -5.81754 2.04989 4.06867 -6.3405 2.08028 
-2.16364 7.09874 2.62084 -2.04485 6.70205 2.26258 -2.04481 6.37623 1.81516 
-2.03617 5.67734 0.722833 -2.01459 5.26432 0.359742 -1.14516 3.32904 -0.333923 
-0.772803 2.57751 -0.450871 -1.16647 2.87845 -0.436147 -0.547683 1.67973 -0.48354 
-0.192195 1.32289 -0.480115 0.0834701 0.455853 -0.527812 0.494016 -0.622352 -0.51825 
0.605903 -1.17313 -0.477655 0.76077 -1.69657 -0.406172 1.37918 -2.32299 -0.285066 
1.52864 -2.77567 -0.159068 2.2354 -3.88216 0.382337 2.60642 -4.41394 0.929112 
3.06527 -4.78625 1.32729 2.68055 -4.6864 1.22827 3.16976 -5.33755 1.90098 
3.59588 -5.63023 2.13364 3.82671 -6.01259 2.34543 3.80686 -6.41406 2.45873 
-2.47986 7.43692 2.852 -2.45826 6.71109 2.51589 -2.46538 6.42003 2.12048 
-2.48027 6.20322 1.67641 -2.22238 6.06036 1.3073 -2.50692 5.7601 0.936333 
-2.45872 5.39063 0.541612 -2.37362 4.96088 0.239857 -2.01861 4.72316 0.077078 
-1.78124 4.12801 -0.143229 -2.20709 4.3176 -0.074714 -1.58986 3.67437 -0.266995 
-1.59569 3.1778 -0.399801 -1.23859 2.40241 -0.520325 -0.878925 2.05322 -0.504564 
-0.654991 1.15079 -0.511418 -0.294567 0.79824 -0.513405 -0.412217 0.282732 -0.554328 
-0.0343055 0.00912324 -0.549773 0.0657196 -0.437159 -0.546653 0.163688 -0.985895 -0.51343 
0.883958 -2.19655 -0.294563 1.02368 -2.65775 -0.153601 1.61447 -3.20845 0.00341499 
1.79403 -3.64084 0.219652 2.19903 -4.27596 0.752864 2.80479 -5.08899 1.64952 
3.14336 -5.65749 2.24207 3.4877 -6.00811 2.52658 -2.9983 7.27416 3.02979 
-2.6659 6.9898 2.86158 -2.61379 4.55425 0.0587782 -2.13729 3.83229 -0.243604 
-2.00976 3.42852 -0.358779 -1.64311 2.71986 -0.511698 -1.70827 2.25865 -0.601635 
-1.33451 1.90731 -0.576382 -0.998997 1.52762 -0.535915 -0.765185 0.622389 -0.55119 
-0.471136 -0.258314 -0.589195 -0.25541 -0.780269 -0.563911 0.309393 -1.5371 -0.444281 
0.42265 -2.04117 -0.343044 1.11778 -3.09429 0.00344677 1.82241 -4.06569 0.528536 
2.14702 -4.64727 1.14665 2.38337 -4.921 1.46883 2.70755 -5.45608 2.02293 
3.07092 -5.95023 2.55078 3.24323 -6.28445 2.79411 3.55708 -6.56743 2.67563 
-2.88427 6.59105 2.67321 -2.90621 6.31429 2.27711 -2.93416 6.13805 1.82864 
-2.76592 5.96817 1.33732 -3.08649 5.71406 1.06374 -2.91729 5.41169 0.683959 
-2.81589 4.9948 0.350313 -2.57586 4.00699 -0.192649 -2.07599 3.02029 -0.477993 
-2.12295 2.58319 -0.593997 -1.45775 1.40925 -0.611884 -1.10999 1.01045 -0.563952 
-0.865609 0.0786862 -0.603049 -0.11176 -1.36171 -0.499317 -0.0201125 -1.88092 -0.413742 
0.530055 -2.53024 -0.197854 0.640361 -2.99058 -0.0254515 1.25481 -3.52086 0.183064 
1.34193 -3.91871 0.396731 1.4044 -4.27877 0.651005 1.77612 -4.46927 0.891748 
1.94487 -5.05578 1.5452 1.65848 -4.82506 1.23496 2.3242 -5.27111 1.80434 
2.64954 -5.78291 2.35661 -3.5122 7.12152 3.11067 -3.17405 6.78061 2.97174 
-3.23963 6.29776 2.62905 -3.27651 5.9273 1.54575 -3.27684 5.03163 0.484175 
-3.13014 4.63597 0.162666 -2.99298 4.23308 -0.0894687 -2.49522 3.46499 -0.378696 
-2.53832 2.97228 -0.531523 -2.18523 2.13186 -0.694055 -1.80374 1.78823 -0.665937 
-1.57254 0.916697 -0.639595 -1.21821 0.500705 -0.605234 -1.06147 -0.422841 -0.655963 
-0.694845 -0.695335 -0.619228 -0.530004 -1.20377 -0.564752 -0.448476 -1.7191 -0.490442 
0.0814719 -2.38901 -0.288398 0.757082 -3.45341 0.160515 0.851341 -3.90161 0.359077 
1.30624 -4.63679 0.927184 1.84333 -5.45732 1.87257 2.20933 -5.63676 2.12716 
2.23741 -5.9768 2.46387 2.73755 -6.12048 2.71328 2.88783 -6.4718 2.99806 
3.27674 -6.72317 2.91409 -3.63234 6.71251 3.14004 -3.54569 6.34955 2.9852 
-3.37835 6.0375 2.11946 -3.59902 5.67647 1.25087 -3.42008 5.39243 0.831662 
-3.62383 4.69124 0.251162 -2.94145 3.73056 -0.317262 -2.9597 3.28206 -0.477077 
-2.58393 2.49131 -0.672923 -2.28738 1.66842 -0.773033 -1.92412 1.30648 -0.707664 
-1.70564 0.445044 -0.678482 -1.36413 0.0201098 -0.659078 -0.978519 -1.06364 -0.639345 
-0.879458 -1.57319 -0.570067 -0.344687 -2.22143 -0.394265 0.181363 -2.88717 -0.115072 
0.279755 -3.35056 0.0804129 0.923142 -4.35372 0.602021 1.4929 -5.22303 1.5531 
1.18954 -5.01537 1.22945 2.40306 -6.30549 2.84352 3.00764 -6.91131 3.11399 
-4.05388 6.90466 3.20404 -4.02888 6.45018 3.23012 -3.62864 6.021 2.60137 
-3.72716 5.8175 1.74345 -3.8829 5.80526 2.20856 -3.90095 5.37038 0.995352 
-3.74693 5.04261 0.603308 -3.53059 4.32969 -0.0418259 -3.36973 3.96884 -0.24712 
-3.42217 3.58012 -0.429848 -2.9995 2.82634 -0.627576 -3.02675 2.36239 -0.775452 
-2.64252 1.99436 -0.798712 -2.4119 1.2097 -0.820329 -2.05513 0.831012 -0.737971 
-1.88425 0.00514157 -0.729937 -1.58553 -0.432458 -0.715683 -1.38521 -0.8875 -0.701832 
-1.31217 -1.43074 -0.654772 -0.782126 -2.07817 -0.488698 -0.234718 -2.74483 -0.249399 
-0.634623 -2.57694 -0.383304 -0.157889 -3.24981 -0.051383 0.351129 -3.79088 0.261112 
0.428051 -4.21737 0.430745 0.880069 -4.80274 0.894454 1.40661 -5.63389 1.84034 
1.90086 -6.23181 2.59477 1.74239 -5.88932 2.19777 2.11172 -6.52762 2.9929 
2.56913 -6.68019 3.16893 -3.96624 6.06754 3.03337 -4.06801 5.79897 2.65561 
-4.2101 5.63006 1.89342 -4.08726 5.57654 1.43531 -4.20225 5.07055 0.725155 
-4.08541 4.74683 0.322819 -4.02243 4.4056 -0.018833 -3.86543 3.97143 -0.309023 
-3.87788 3.50778 -0.539267 -3.42856 3.15432 -0.586026 -3.45552 2.70941 -0.742438 
-3.07061 1.87845 -0.904808 -2.78739 1.46194 -0.899219 -2.54303 0.769206 -0.848279 
-2.23556 0.375042 -0.780424 -2.10561 -0.420441 -0.787382 -1.87604 -0.87614 -0.769354 
-1.21753 -1.94266 -0.57595 -1.08121 -2.4412 -0.493629 -0.542859 -3.11012 -0.222915 
-0.11619 -3.71319 0.143895 -0.0794736 -4.15663 0.310948 0.478229 -4.64674 0.628256 
0.761567 -5.25658 1.17577 1.05312 -5.43477 1.49132 1.26268 -6.03174 2.07931 
2.16786 -6.86407 3.24413 2.69267 -7.08857 3.247 -4.51269 6.65087 3.28633 
-4.44828 6.19378 3.27022 -4.59261 5.43353 1.54313 -4.39542 5.31749 1.12195 
-4.50774 4.84516 0.435992 -4.52964 4.5767 0.0778588 -4.35785 4.18021 -0.255613 
-4.30762 3.76883 -0.505602 -3.87317 3.03837 -0.717701 -3.47192 2.2595 -0.892086 
-3.50238 1.81377 -1.01318 -3.2704 1.40059 -1.01667 -2.97166 0.956675 -0.952625 
-2.77747 0.365559 -0.898128 -2.45165 -0.0384052 -0.834336 -1.74408 -1.34574 -0.733489 
-1.64752 -1.84638 -0.664767 -1.52945 -2.34274 -0.587572 -0.917973 -2.91925 -0.384377 
-0.546604 -3.59829 -0.0342725 -0.570007 -4.02307 0.138976 0.0132157 -4.59601 0.462083 
0.480646 -5.05105 0.860619 0.0561279 -5.05374 0.643696 0.950721 -5.80043 1.70872 
1.45413 -6.31795 2.45207 0.534667 -5.66926 1.33234 1.6834 -6.60018 2.87878 
2.49434 -7.35643 3.28731 -4.41048 5.80664 2.99882 -4.40951 5.60606 2.40261 
-4.63587 5.48255 1.99739 -4.68848 5.07094 0.780583 -4.80588 4.36806 -0.212052 
-4.77625 3.99867 -0.493356 -4.30866 3.31204 -0.716526 -3.88608 2.5441 -0.893654 
-3.89379 2.04507 -1.05192 -3.47308 0.978161 -1.08385 -3.21913 0.487509 -1.00597 
-2.64483 -0.452805 -0.888 -2.37518 -0.834052 -0.849427 -2.20768 -1.30534 -0.818615 
-2.08873 -1.79041 -0.762363 -1.96819 -2.27619 -0.690987 -1.38839 -2.8032 -0.511338 
-1.2373 -3.20861 -0.405703 -0.909359 -3.45018 -0.22692 -1.04482 -3.91594 -0.0727858 
-0.497278 -4.46108 0.302754 -0.434389 -4.8695 0.411414 0.278978 -5.43521 0.983473 
0.840021 -6.23534 2.0017 0.578659 -6.01941 1.64154 1.24091 -6.75027 2.7767 
1.03283 -6.50265 2.38243 1.65025 -6.96375 3.16306 2.05656 -7.19164 3.35647 
2.16691 -7.59652 3.31507 -4.9438 6.37069 3.31811 -4.85947 5.91402 3.22103 
-4.7594 5.59668 2.78255 -4.95684 5.46739 2.38188 -5.06007 5.34268 1.50215 
-4.89845 5.2473 1.13588 -5.1505 5.09301 0.75582 -4.95275 4.86022 0.388371 
-5.0825 4.64807 0.020267 -5.21427 4.31276 -0.410734 -4.74184 3.57578 -0.71682 
-4.72213 3.11122 -0.903259 -4.28977 2.83525 -0.889843 -4.29981 2.35012 -1.06156 
-3.79057 1.48398 -1.14112 -2.99768 -0.0943764 -0.954382 -2.98117 -0.73931 -0.973316 
-2.67508 -1.18396 -0.915947 -2.53203 -1.70325 -0.872527 -1.83169 -2.76411 -0.61629 
-1.6701 -3.2516 -0.512954 -1.38721 -3.62668 -0.32446 -0.950551 -4.36761 0.149087 
-0.367371 -5.26796 0.535211 -0.163616 -5.55792 0.781398 0.18397 -6.08782 1.42126 
0.0150169 -5.83576 1.09424 0.583326 -6.6301 2.21 0.380475 -6.38502 1.83009 
1.18708 -7.11526 3.05015 1.61472 -7.39988 3.34397 -5.34165 6.09652 3.22437 
-5.17159 5.71324 2.96178 -5.06694 5.39519 1.92101 -5.44113 4.95667 0.310342 
-5.5114 4.72342 -0.104241 -5.62661 4.51264 -0.471173 -5.18022 3.87635 -0.722143 
-5.16288 3.42526 -0.941253 -4.71101 2.63441 -1.07174 -4.27343 1.85391 -1.20671 
-4.2452 1.41679 -1.29303 -3.93682 1.00852 -1.22603 -3.69833 0.528052 -1.14422 
-3.48135 0.0435382 -1.07796 -3.37364 -0.46116 -1.066 -3.11484 -1.23132 -1.02222 
-2.41938 -2.20764 -0.813684 -2.27984 -2.69149 -0.746246 -2.096 -3.173 -0.646433 
-1.59483 -4.00988 -0.235145 -1.37265 -4.34049 -0.00553815 -0.956859 -4.81139 0.270623 
-0.822089 -5.24938 0.389666 -0.476289 -6.0053 0.881097 -0.647162 -5.6716 0.586535 
0.760334 -6.91657 2.61874 -0.0461913 -6.46914 1.60521 -0.274513 -6.23175 1.2114 
1.89492 -7.86552 3.31147 -5.37256 5.61214 2.58601 -5.44518 5.51741 2.14248 
-5.47142 5.44869 1.65245 -5.41001 5.32468 1.16152 -5.54317 5.21471 0.709502 
-5.81052 5.52473 0.922755 -5.84154 5.32455 0.429259 -5.86256 5.09986 0.0171125 
-5.92797 4.89971 -0.401835 -5.57485 4.168 -0.769359 -5.58207 3.76911 -1.04817 
-5.14047 2.95915 -1.10202 -5.57743 3.33323 -1.23381 -4.68826 2.12291 -1.24741 
-4.6938 1.5947 -1.4113 -4.40752 1.01161 -1.40505 -4.16971 0.568353 -1.32094 
-3.97411 0.104473 -1.23959 -3.83162 -0.36943 -1.21115 -3.44684 -0.965683 -1.10859 
-2.95854 -1.68231 -0.984475 -2.85558 -2.16991 -0.942741 -2.72539 -2.66579 -0.889093 
-1.91814 -3.6762 -0.482547 -1.46797 -4.78859 0.118105 -1.28932 -5.22893 0.265027 
0.282339 -6.96715 2.32759 0.0840302 -6.75257 1.97621 0.694335 -7.27254 2.88545 
1.04994 -7.47493 3.1968 1.37454 -7.78369 3.37427 1.60178 -8.18498 3.30871 
-5.63104 5.91573 2.89725 -5.78228 5.81197 2.4079 -5.80699 5.72184 1.89149 
-5.79458 5.63757 1.39221 -5.94255 4.61694 -0.816918 -5.92511 4.2692 -1.14876 
-5.93874 3.90438 -1.42477 -5.48375 2.7732 -1.34865 -5.09575 2.4535 -1.26647 
-5.09709 1.97399 -1.44615 -5.14295 1.52106 -1.61766 -4.82217 1.10771 -1.56825 
-4.64173 0.603207 -1.53981 -3.84344 -0.843493 -1.24754 -3.76398 -1.35946 -1.22946 
-3.40477 -1.59796 -1.11038 -3.30204 -2.10375 -1.08098 -3.16422 -2.59928 -1.03327 
-2.54368 -3.13594 -0.80265 -2.36328 -3.55703 -0.672411 -2.04963 -4.14353 -0.353537 
-1.84393 -4.50006 -0.121681 -1.1025 -5.69213 0.414425 -0.925323 -6.10776 0.669301 
-0.347609 -6.86719 1.76821 -0.464468 -6.58318 1.40408 -0.777724 -6.45177 1.04121 
0.246327 -7.28127 2.58427 -0.195663 -7.17842 2.16554 0.383887 -7.60767 2.91933 
0.795995 -7.80979 3.25045 -5.98355 3.53455 -1.67101 -5.79955 3.08489 -1.52021 
-6.05823 3.07496 -1.93351 -5.49776 2.29948 -1.53188 -5.51872 1.83617 -1.72272 
-5.22889 1.0686 -1.77941 -5.06545 0.628312 -1.76435 -4.44388 0.162303 -1.45392 
-4.28985 -0.289794 -1.40148 -4.26193 -0.744728 -1.43034 -4.18442 -1.20948 -1.41991 
-3.73264 -1.94026 -1.22108 -2.96095 -3.13784 -0.950375 -2.80647 -3.65474 -0.823709 
-2.42579 -3.99207 -0.569334 -2.40697 -4.51979 -0.356165 -2.06472 -4.88205 -0.0743487 
-1.76209 -5.21542 0.123059 -1.56017 -5.67599 0.265553 -1.39457 -6.13373 0.449284 
-1.23933 -6.49856 0.748784 -0.792442 -6.8781 1.43745 1.03509 -8.14003 3.39526 
0.321373 -7.96984 3.12315 0.46913 -8.26817 3.35177 1.28597 -8.52186 3.31614 
-5.84197 2.64306 -1.71268 -6.11629 2.58554 -2.15055 -5.86713 2.18184 -1.90074 
-5.87244 1.70376 -2.07836 -5.5478 1.34964 -1.90786 -4.90313 0.181205 -1.71128 
-4.74015 -0.21244 -1.64409 -4.68302 -0.620328 -1.64846 -4.62843 -1.0715 -1.65926 
-4.10075 -1.70416 -1.37583 -3.63528 -2.48603 -1.19215 -3.38328 -3.01103 -1.10098 
-3.79169 -2.92641 -1.24864 -3.27613 -3.50599 -1.02965 -2.79764 -4.23884 -0.648289 
-3.16492 -3.96979 -0.900954 -2.53774 -5.01186 -0.241793 -2.255 -5.32815 -0.0365262 
-2.03757 -5.67905 0.113546 -1.85766 -6.10161 0.254411 -1.15351 -6.83216 1.10493 
-0.145015 -7.55896 2.50391 -0.576196 -7.53777 2.15212 -0.674043 -7.20301 1.82323 
-0.0845641 -7.90607 2.80973 0.737303 -8.53825 3.43778 0.957661 -8.89966 3.30969 
-6.14763 2.07725 -2.33344 -6.12476 1.54989 -2.48115 -5.82562 1.19174 -2.21885 
-5.46826 0.735877 -2.0203 -5.78125 0.750274 -2.33649 -5.29629 0.193515 -1.97581 
-5.63525 0.301437 -2.29241 -5.14811 -0.31607 -1.9182 -5.04938 -0.820308 -1.89872 
-4.51395 -1.52211 -1.60683 -4.0547 -2.28085 -1.35039 -4.40593 -2.01511 -1.53655 
-4.1446 -2.76212 -1.40282 -3.73248 -3.3793 -1.21207 -2.8971 -4.74828 -0.512603 
-2.35194 -6.06038 0.0515337 -1.7317 -6.55033 0.475306 -1.57432 -6.86286 0.79218 
-1.02306 -7.56486 1.81319 -1.11587 -7.21567 1.48525 -1.49528 -7.22109 1.16307 
-0.515861 -7.91468 2.45965 -0.0527157 -8.29412 3.14769 0.0520018 -8.66366 3.3987 
0.406663 -8.89645 3.41432 -6.04787 1.03536 -2.61637 -5.92198 0.502103 -2.67737 
-5.53628 -0.177907 -2.24538 -5.82764 0.0343968 -2.64765 -5.79272 -0.421066 -2.60957 
-5.47042 -0.647642 -2.2119 -4.96404 -1.34879 -1.88727 -4.79425 -1.81789 -1.78887 
-5.11531 -1.85876 -2.05515 -4.72805 -2.26382 -1.76241 -4.45129 -2.52127 -1.57216 
-4.15889 -3.24202 -1.42227 -3.65599 -3.82263 -1.14087 -3.5629 -4.22065 -1.03383 
-3.21658 -4.47711 -0.785381 -2.91579 -5.25279 -0.383602 -2.59684 -5.63372 -0.138509 
-2.14545 -6.50565 0.235885 -1.44021 -7.59793 1.47103 -1.83764 -7.23352 0.844773 
-2.05128 -7.00256 0.505047 -0.925587 -7.92226 2.09811 -0.45965 -8.26924 2.80022 
0.543554 -9.28579 3.23729 -5.76642 -0.849878 -2.57081 -5.35285 -1.08631 -2.1556 
-5.65182 -1.24296 -2.4989 -5.31638 -1.52089 -2.19051 -5.01196 -2.30427 -2.04127 
-5.33091 -2.03368 -2.40152 -4.77155 -2.73004 -1.88517 -4.51604 -3.01963 -1.68053 
-4.07946 -3.71674 -1.37305 -3.33666 -4.97654 -0.733885 -3.62794 -4.64096 -1.01924 
-2.99745 -5.76508 -0.390376 -2.76928 -6.157 -0.191165 -2.55561 -6.55593 0.00114271 
-2.3688 -6.94638 0.21575 -2.10173 -7.54484 0.694954 -1.32573 -7.96348 1.74218 
-1.81337 -7.65686 1.10135 -0.847467 -8.28956 2.39712 -0.425765 -8.64349 3.1236 
-0.802136 -8.63598 2.68645 -1.19735 -8.34417 2.00765 -0.405466 -9.05975 3.28025 
-0.00098247 -9.22027 3.36219 0.138722 -9.66038 3.19187 -5.53606 -1.65475 -2.51913 
-5.154 -2.45311 -2.35162 -4.94977 -2.84195 -2.22511 -4.75843 -3.25724 -2.09053 
-4.46383 -3.49121 -1.68258 -4.33254 -3.99801 -1.59334 -4.64153 -3.70648 -2.00723 
-3.99407 -4.22143 -1.3082 -3.97755 -4.65894 -1.34841 -4.23929 -4.53114 -1.74833 
-3.71734 -5.05341 -1.13907 -3.26002 -5.42782 -0.632855 -3.54016 -5.45072 -0.992539 
-3.31848 -5.87772 -0.779907 -2.37684 -7.44081 0.266646 -1.68789 -8.02728 1.3448 
-1.50915 -8.38707 1.60026 -1.97865 -8.10042 0.882222 -1.10979 -8.7271 2.26018 
-1.75886 -8.47373 1.14981 -0.759958 -8.97461 2.92313 -1.34515 -8.80032 1.825 
-0.251236 -10.001 3.03958 -4.46857 -4.14311 -1.9245 -3.98813 -4.99299 -1.63576 
-3.75901 -5.42399 -1.46468 -3.08075 -6.25518 -0.553202 -3.53509 -5.86696 -1.25911 
-2.86011 -6.68195 -0.32698 -3.29287 -6.29854 -1.0346 -3.0617 -6.72986 -0.782304 
-2.64837 -7.10871 -0.0801069 -2.86858 -7.18938 -0.511148 -2.20563 -7.89886 0.481591 
-2.59928 -7.56756 -0.241119 -2.35119 -7.92931 0.0254546 -1.87494 -8.61765 0.680255 
-2.09978 -8.31678 0.351455 -1.04674 -9.09757 2.50127 -1.23562 -9.20605 1.99724 
-1.52876 -8.82181 1.41163 -1.61409 -8.96043 0.988438 -0.422553 -9.55279 3.20823 
-0.823795 -9.37337 2.93693 -1.35363 -9.27104 1.43061 -1.08124 -9.53292 2.43679 
-1.16818 -9.64505 1.84249 -0.780615 -9.77569 2.85702 -0.614469 -10.121 2.67351 
-0.943042 -9.93339 2.27996 
POLYGONS 1880 5637
OFFSETS vtktypeint64
0 3 6 9 12 15 18 21 24 
27 30 33 36 39 42 45 48 51 
54 57 60 63 66 69 72 75 78 
81 84 87 90 93 96 99 102 105 
108 111 114 117 120 123 126 129 132 
135 138 141 144 147 150 153 156 159 
162 165 168 171 174 177 180 183 186 
189 192 195 198 201 204 207 210 213 
216 219 222 225 228 231 234 237 240 
243 246 249 252 255 258 261 264 267 
270 273 276 279 282 285 288 291 294 
297 300 303 306 309 312 315 318 321 
324 327 330 333 336 339 342 345 348 
351 354 357 360 363 366 369 372 375 
378 381 384 387 390 393 396 399 402 
405 408 411 414 417 420 423 426 429 
432 435 438 441 444 447 450 453 456 
459 462 465 468 471 474 477 480 483 
486 489 492 495 498 501 504 507 510 
513 516 519 522 525 528 531 534 537 
540 543 546 549 552 555 558 561 564 
567 570 573 576 579 582 585 588 591 
594 597 600 603 606 609 612 615 618 
621 624 627 630 633 636 639 642 645 
648 651 654 657 660 663 666 669 672 
675 678 681 684 687 690 693 696 699 
702 705 708 711 714 717 720 723 726 
729 732 735 738 741 744 747 750 753 
756 759 762 765 768 771 774 777 780 
783 786 789 792 795 798 801 804 807 
810 813 816 819 822 825 828 831 834 
837 840 843 846 849 852 855 858 861 
864 867 870 873 876 879 882 885 888 
891 894 897 900 903 906 909 912 915 
918 921 924 927 930 933 936 939 942 
945 948 951 954 957 960 963 966 969 
972 975 978 981 984 987 990 993 996 
999 1002 1005 1008 1011 1014 1017 1020 1023 
1026 1029 1032 1035 1038 1041 1044 1047 1050 
1053 1056 1059 1062 1065 1068 1071 1074 1077 
1080 1083 1086 1089 1092 1095 1098 1101 1104 
1107 1110 1113 1116 1119 1122 1125 1128 1131 
1134 1137 1140 1143 1146 1149 1152 1155 1158 
1161 1164 1167 1170 1173 1176 1179 1182 1185 
1188 1191 1194 1197 1200 1203 1206 1209 1212 
1215 1218 1221 1224 1227 1230 1233 1236 1239 
1242 1245 1248 1251 1254 1257 1260 1263 1266 
1269 1272 1275 1278 1281 1284 1287 1290 1293 
1296 1299 1302 1305 1308 1311 1314 1317 1320 
1323 1326 1329 1332 1335 1338 1341 1344 1347 
1350 1353 1356 1359 1362 1365 1368 1371 1374 
1377 1380 1383 1386 1389 1392 1395 1398 1401 
1404 1407 1410 1413 1416 1419 1422 1425 1428 
1431 1434 1437 1440 1443 1446 1449 1452 1455 
1458 1461 1464 1467 1470 1473 1476 1479 1482 
1485 1488 1491 1494 1497 1500 1503 1506 1509 
1512 1515 1518 1521 1524 1527 1530 1533 1536 
1539 1542 1545 1548 1551 1554 1557 1560 1563 
1566 1569 1572 1575 1578 1581 1584 1587 1590 
1593 1596 1599 1602 1605 1608 1611 1614 1617 
1620 1623 1626 1629 1632 1635 1638 1641 1644 
1647 1650 1653 1656 1659 1662 1665 1668 1671 
1674 1677 1680 1683 1686 1689 1692 1695 1698 
1701 1704 1707 1710 1713 1716 1719 1722 1725 
1728 1731 1734 1737 1740 1743 1746 1749 1752 
1755 1758 1761 1764 1767 1770 1773 1776 1779 
1782 1785 1788 1791 1794 1797 1800 1803 1806 
1809 1812 1815 1818 1821 1824 1827 1830 1833 
1836 1839 1842 1845 1848 1851 1854 1857 1860 
1863 1866 1869 1872 1875 1878 1881 1884 1887 
1890 1893 1896 1899 1902 1905 1908 1911 1914 
1917 1920 1923 1926 1929 1932 1935 1938 1941 
1944 1947 1950 1953 1956 1959 1962 1965 1968 
1971 1974 1977 1980 1983 1986 1989 1992 1995 
1998 2001 2004 2007 2010 2013 2016 2019 2022 
2025 2028 2031 2034 2037 2040 2043 2046 2049 
2052 2055 2058 2061 2064 2067 2070 2073 2076 
2079 2082 2085 2088 2091 2094 2097 2100 2103 
2106 2109 2112 2115 2118 2121 2124 2127 2130 
2133 2136 2139 2142 2145 2148 2151 2154 2157 
2160 2163 2166 2169 2172 2175 2178 2181 2184 
2187 2190 2193 2196 2199 2202 2205 2208 2211 
2214 2217 2220 2223 2226 2229 2232 2235 2238 
2241 2244 2247 2250 2253 2256 2259 2262 2265 
2268 2271 2274 2277 2280 2283 2286 2289 2292 
2295 2298 2301 2304 2307 2310 2313 2316 2319 
2322 2325 2328 2331 2334 2337 2340 2343 2346 
2349 2352 2355 2358 2361 2364 2367 2370 2373 
2376 2379 2382 2385 2388 2391 2394 2397 2400 
2403 2406 2409 2412 2415 2418 2421 2424 2427 
2430 2433 2436 2439 2442 2445 2448 2451 2454 
2457 2460 2463 2466 2469 2472 2475 2478 2481 
2484 2487 2490 2493 2496 2499 2502 2505 2508 
2511 2514 2517 2520 2523 2526 2529 2532 2535 
2538 2541 2544 2547 2550 2553 2556 2559 2562 
2565 2568 2571 2574 2577 2580 2583 2586 2589 
2592 2595 2598 2601 2604 2607 2610 2613 2616 
2619 2622 2625 2628 2631 2634 2637 2640 2643 
2646 2649 2652 2655 2658 2661 2664 2667 2670 
2673 2676 2679 2682 2685 2688 2691 2694 2697 
2700 2703 2706 2709 2712 2715 2718 2721 2724 
2727 2730 2733 2736 2739 2742 2745 2748 2751 
2754 2757 2760 2763 2766 2769 2772 2775 2778 
2781 2784 2787 2790 2793 2796 2799 2802 2805 
2808 2811 2814 2817 2820 2823 2826 2829 2832 
2835 2838 2841 2844 2847 2850 2853 2856 2859 
2862 2865 2868 2871 2874 2877 2880 2883 2886 
2889 2892 2895 2898 2901 2904 2907 2910 2913 
2916 2919 2922 2925 2928 2931 2934 2937 2940 
2943 2946 2949 2952 2955 2958 2961 2964 2967 
2970 2973 2976 2979 2982 2985 2988 2991 2994 
2997 3000 3003 3006 3009 3012 3015 3018 3021 
3024 3027 3030 3033 3036 3039 3042 3045 3048 
3051 3054 3057 3060 3063 3066 3069 3072 3075 
3078 3081 3084 3087 3090 3093 3096 3099 3102 
3105 3108 3111 3114 3117 3120 3123 3126 3129 
3132 3135 3138 3141 3144 3147 3150 3153 3156 
3159 3162 3165 3168 3171 3174 3177 3180 3183 
3186 3189 3192 3195 3198 3201 3204 3207 3210 
3213 3216 3219 3222 3225 3228 3231 3234 3237 
3240 3243 3246 3249 3252 3255 3258 3261 3264 
3267 3270 3273 3276 3279 3282 3285 3288 3291 
3294 3297 3300 3303 3306 3309 3312 3315 3318 
3321 3324 3327 3330 3333 3336 3339 3342 3345 
3348 3351 3354 3357 3360 3363 3366 3369 3372 
3375 3378 3381 3384 3387 3390 3393 3396 3399 
3402 3405 3408 3411 3414 3417 3420 3423 3426 
3429 3432 3435 3438 3441 3444 3447 3450 3453 
3456 3459 3462 3465 3468 3471 3474 3477 3480 
3483 3486 3489 3492 3495 3498 3501 3504 3507 
3510 3513 3516 3519 3522 3525 3528 3531 3534 
3537 3540 3543 3546 3549 3552 3555 3558 3561 
3564 3567 3570 3573 3576 3579 3582 3585 3588 
3591 3594 3597 3600 3603 3606 3609 3612 3615 
3618 3621 3624 3627 3630 3633 3636 3639 3642 
3645 3648 3651 3654 3657 3660 3663 3666 3669 
3672 3675 3678 3681 3684 3687 3690 3693 3696 
3699 3702 3705 3708 3711 3714 3717 3720 3723 
3726 3729 3732 3735 3738 3741 3744 3747 3750 
3753 3756 3759 3762 3765 3768 3771 3774 3777 
3780 3783 3786 3789 3792 3795 3798 3801 3804 
3807 3810 3813 3816 3819 3822 3825 3828 3831 
3834 3837 3840 3843 3846 3849 3852 3855 3858 
3861 3864 3867 3870 3873 3876 3879 3882 3885 
3888 3891 3894 3897 3900 3903 3906 3909 3912 
3915 3918 3921 3924 3927 3930 3933 3936 3939 
3942 3945 3948 3951 3954 3957 3960 3963 3966 
3969 3972 3975 3978 3981 3984 3987 3990 3993 
3996 3999 4002 4005 4008 4011 4014 4017 4020 
4023 4026 4029 4032 4035 4038 4041 4044 4047 
4050 4053 4056 4059 4062 4065 4068 4071 4074 
4077 4080 4083 4086 4089 4092 4095 4098 4101 
4104 4107 4110 4113 4116 4119 4122 4125 4128 
4131 4134 4137 4140 4143 4146 4149 4152 4155 
4158 4161 4164 4167 4170 4173 4176 4179 4182 
4185 4188 4191 4194 4197 4200 4203 4206 4209 
4212 4215 4218 4221 4224 4227 4230 4233 4236 
4239 4242 4245 4248 4251 4254 4257 4260 4263 
4266 4269 4272 4275 4278 4281 4284 4287 4290 
4293 4296 4299 4302 4305 4308 4311 4314 4317 
4320 4323 4326 4329 4332 4335 4338 4341 4344 
4347 4350 4353 4356 4359 4362 4365 4368 4371 
4374 4377 4380 4383 4386 4389 4392 4395 4398 
4401 4404 4407 4410 4413 4416 4419 4422 4425 
4428 4431 4434 4437 4440 4443 4446 4449 4452 
4455 4458 4461 4464 4467 4470 4473 4476 4479 
4482 4485 4488 4491 4494 4497 4500 4503 4506 
4509 4512 4515 4518 4521 4524 4527 4530 4533 
4536 4539 4542 4545 4548 4551 4554 4557 4560 
4563 4566 4569 4572 4575 4578 4581 4584 4587 
4590 4593 4596 4599 4602 4605 4608 4611 4614 
4617 4620 4623 4626 4629 4632 4635 4638 4641 
4644 4647 4650 4653 4656 4659 4662 4665 4668 
4671 4674 4677 4680 4683 4686 4689 4692 4695 
4698 4701 4704 4707 4710 4713 4716 4719 4722 
4725 4728 4731 4734 4737 4740 4743 4746 4749 
4752 4755 4758 4761 4764 4767 4770 4773 4776 
4779 4782 4785 4788 4791 4794 4797 4800 4803 
4806 4809 4812 4815 4818 4821 4824 4827 4830 
4833 4836 4839 4842 4845 4848 4851 4854 4857 
4860 4863 4866 4869 4872 4875 4878 4881 4884 
4887 4890 4893 4896 4899 4902 4905 4908 4911 
4914 4917 4920 4923 4926 4929 4932 4935 4938 
4941 4944 4947 4950 4953 4956 4959 4962 4965 
4968 4971 4974 4977 4980 4983 4986 4989 4992 
4995 4998 5001 5004 5007 5010 5013 5016 5019 
5022 5025 5028 5031 5034 5037 5040 5043 5046 
5049 5052 5055 5058 5061 5064 5067 5070 5073 
5076 5079 5082 5085 5088 5091 5094 5097 5100 
5103 5106 5109 5112 5115 5118 5121 5124 5127 
5130 5133 5136 5139 5142 5145 5148 5151 5154 
5157 5160 5163 5166 5169 5172 5175 5178 5181 
5184 5187 5190 5193 5196 5199 5202 5205 5208 
5211 5214 5217 5220 5223 5226 5229 5232 5235 
5238 5241 5244 5247 5250 5253 5256 5259 5262 
5265 5268 5271 5274 5277 5280 5283 5286 5289 
5292 5295 5298 5301 5304 5307 5310 5313 5316 
5319 5322 5325 5328 5331 5334 5337 5340 5343 
5346 5349 5352 5355 5358 5361 5364 5367 5370 
5373 5376 5379 5382 5385 5388 5391 5394 5397 
5400 5403 5406 5409 5412 5415 5418 5421 5424 
5427 5430 5433 5436 5439 5442 5445 5448 5451 
5454 5457 5460 5463 5466 5469 5472 5475 5478 
5481 5484 5487 5490 5493 5496 5499 5502 5505 
5508 5511 5514 5517 5520 5523 5526 5529 5532 
5535 5538 5541 5544 5547 5550 5553 5556 5559 
5562 5565 5568 5571 5574 5577 5580 5583 5586 
5589 5592 5595 5598 5601 5604 5607 5610 5613 
5616 5619 5622 5625 5628 5631 5634 5637 
CONNECTIVITY vtktypeint64
0 1 2 11 1 0 0 2 3 
0 3 13 0 6 11 13 6 0 
282 257 256 256 281 300 300 282 256 
536 513 512 563 536 512 14 2 1 
11 10 1 1 10 15 15 14 1 
283 258 257 257 282 283 513 536 537 
797 770 769 769 796 797 17 3 2 
2 14 16 2 16 17 284 259 258 
258 283 284 514 538 565 565 539 514 
798 772 770 770 797 798 3 17 18 
301 260 259 259 284 301 540 516 515 
515 539 540 771 772 799 771 799 800 
4 5 30 4 30 31 4 31 35 
302 261 260 260 301 302 516 540 567 
567 541 516 772 798 823 824 799 772 
772 823 824 5 28 30 303 262 261 
261 302 303 543 518 517 517 542 569 
569 543 517 801 774 773 773 800 801 
8 7 6 6 7 11 9 8 6 
12 9 6 13 12 6 304 263 262 
262 303 304 518 543 544 803 775 774 
774 801 802 774 802 803 7 8 42 
7 10 11 44 10 7 7 42 44 
305 264 263 263 304 305 519 544 571 
571 545 519 804 776 775 775 803 804 
8 9 43 8 41 42 43 41 8 
285 265 264 305 285 264 548 521 520 
520 547 548 830 777 776 776 804 830 
286 266 265 265 285 286 521 548 574 
574 549 521 831 778 777 777 830 831 
63 15 10 10 44 63 266 286 287 
575 523 522 522 549 575 832 805 778 
778 831 832 289 268 267 267 288 312 
312 289 267 576 550 523 523 575 576 
779 805 806 779 806 807 290 269 268 
268 289 290 551 525 524 524 550 551 
808 781 780 780 807 808 291 270 269 
269 290 291 577 526 525 525 551 577 
809 782 781 781 808 809 14 15 45 
45 16 14 270 291 292 552 527 526 
577 552 526 782 809 835 835 810 782 
64 45 15 15 63 64 294 272 271 
271 292 293 271 293 294 552 529 527 
783 811 837 837 812 783 19 17 16 
46 19 16 16 45 46 314 273 272 
272 294 314 528 529 578 553 530 528 
578 553 528 840 785 784 784 813 839 
784 839 840 20 18 17 17 19 20 
315 295 273 273 314 315 529 552 579 
579 578 529 841 814 785 785 840 841 
18 20 22 296 275 274 530 553 554 
786 787 820 820 819 786 21 20 19 
47 21 19 19 46 47 318 276 275 
275 296 317 275 317 318 531 554 555 
531 555 556 787 816 820 20 21 23 
23 22 20 319 297 276 276 318 319 
559 533 532 582 559 532 821 789 788 
788 819 821 26 23 21 21 25 26 
47 25 21 321 278 277 277 298 321 
560 534 533 533 559 560 822 790 789 
789 821 822 22 23 24 323 279 278 
278 321 322 278 322 323 534 560 584 
584 561 534 845 791 790 790 822 845 
28 24 23 23 26 28 299 280 279 
323 299 279 535 561 585 585 562 535 
791 845 848 299 281 280 564 537 536 
536 563 588 588 564 536 27 26 25 
67 27 25 25 47 66 25 66 67 
281 299 324 324 300 281 589 538 537 
537 564 589 26 27 29 30 28 26 
26 29 30 325 283 282 282 300 325 
590 565 538 538 589 590 48 29 27 
67 48 27 326 284 283 283 325 326 
566 540 539 539 565 566 327 301 284 
284 326 327 540 566 592 592 567 540 
31 30 29 32 31 29 48 32 29 
307 286 285 285 305 306 285 306 307 
568 542 541 541 567 594 594 568 541 
308 287 286 286 307 308 542 568 569 
31 32 33 31 33 35 287 308 309 
287 309 310 570 544 543 543 569 596 
596 570 543 826 800 799 799 824 849 
849 826 799 34 33 32 49 34 32 
32 48 49 288 311 312 544 570 571 
826 801 800 33 34 37 36 35 33 
37 36 33 338 290 289 289 312 338 
572 546 545 545 571 598 599 572 545 
545 598 599 827 802 801 801 826 827 
51 37 34 34 49 50 34 50 51 
339 291 290 290 338 339 572 547 546 
828 803 802 802 827 853 853 828 802 
313 292 291 361 313 291 291 339 361 
573 548 547 547 572 573 829 804 803 
803 828 829 36 37 38 313 293 292 
548 573 601 601 574 548 804 829 854 
854 830 804 39 38 37 54 39 37 
37 51 54 340 294 293 293 313 340 
549 574 602 602 575 549 833 806 805 
805 832 833 342 314 294 294 340 341 
294 341 342 605 551 550 550 576 605 
834 807 806 806 833 858 858 834 806 
39 54 56 316 296 295 295 315 316 
606 577 551 551 605 606 834 808 807 
40 41 43 59 41 40 40 57 59 
296 316 317 552 577 607 607 579 552 
859 809 808 808 834 859 61 42 41 
41 59 61 320 298 297 297 319 320 
610 554 553 553 578 608 553 608 610 
860 835 809 809 859 860 62 44 42 
42 61 62 298 320 321 610 555 554 
836 811 810 810 835 836 299 323 348 
348 324 299 580 556 555 609 580 555 
610 609 555 811 836 837 44 62 78 
78 63 44 300 324 349 349 325 300 
580 557 556 838 813 812 812 837 838 
80 46 45 45 64 80 328 302 301 
301 327 328 581 558 557 557 580 612 
612 581 557 813 838 839 65 47 46 
81 65 46 46 80 81 352 303 302 
302 328 352 842 815 814 814 841 842 
47 65 66 329 304 303 352 329 303 
583 560 559 559 582 583 843 818 815 
815 842 843 68 49 48 48 67 84 
84 68 48 330 305 304 304 329 330 
560 583 613 613 584 560 816 817 844 
872 820 816 816 844 872 69 50 49 
49 68 69 330 306 305 561 584 586 
586 585 561 817 818 844 52 51 50 
69 52 50 331 307 306 306 330 353 
353 331 306 587 563 562 562 585 616 
616 587 562 818 843 869 869 844 818 
51 52 53 51 53 54 332 308 307 
307 331 332 563 587 588 819 820 870 
870 821 819 71 53 52 52 69 70 
52 70 71 333 309 308 308 332 333 
564 588 618 619 589 564 564 618 619 
871 870 820 872 871 820 55 54 53 
72 55 53 53 71 72 335 310 309 
309 333 334 309 334 335 591 566 565 
565 590 591 846 822 821 873 846 821 
821 870 873 54 55 56 566 591 622 
622 592 566 847 845 822 822 846 847 
74 56 55 55 72 73 55 73 74 
337 312 311 358 337 311 567 592 593 
567 593 594 825 824 823 312 337 359 
359 338 312 595 569 568 568 594 625 
625 595 568 824 825 849 57 58 60 
60 59 57 362 340 313 313 361 362 
569 595 596 850 849 825 75 60 58 
95 75 58 343 315 314 314 342 343 
597 571 570 570 596 627 627 597 570 
851 827 826 826 849 851 59 60 76 
76 61 59 364 316 315 315 343 364 
571 597 598 827 851 852 827 852 853 
60 75 76 344 317 316 364 344 316 
600 573 572 572 599 600 879 829 828 
828 853 879 77 62 61 61 76 77 
345 318 317 317 344 345 573 600 630 
630 601 573 881 854 829 829 879 881 
62 77 100 100 78 62 346 319 318 
318 345 346 574 601 603 603 602 574 
855 831 830 830 854 855 79 64 63 
63 78 79 365 320 319 319 346 365 
604 576 575 575 602 604 856 832 831 
831 855 856 64 79 102 102 80 64 
366 321 320 320 365 366 576 604 633 
633 605 576 857 833 832 832 856 857 
82 66 65 65 81 82 366 322 321 
577 606 635 635 607 577 833 857 885 
885 858 833 83 67 66 66 82 103 
103 83 66 347 323 322 367 347 322 
322 366 367 578 579 637 637 608 578 
834 858 886 886 859 834 67 83 84 
323 347 348 579 607 636 579 636 637 
862 836 835 835 860 862 105 69 68 
68 84 104 68 104 105 324 348 368 
369 349 324 324 368 369 580 609 611 
580 611 612 863 837 836 836 862 864 
864 863 836 106 70 69 69 105 106 
350 326 325 325 349 350 581 612 640 
863 838 837 85 71 70 107 85 70 
70 106 107 351 327 326 326 350 351 
641 583 582 865 839 838 838 863 890 
890 865 838 86 72 71 71 85 86 
371 328 327 327 351 371 642 613 583 
583 641 642 866 840 839 839 865 866 
88 73 72 72 86 88 372 352 328 
328 371 372 614 586 584 584 613 614 
867 841 840 840 866 867 92 74 73 
73 88 91 73 91 92 375 330 329 
329 352 373 329 373 374 329 374 375 
585 586 615 585 615 616 868 842 841 
841 867 868 375 353 330 586 614 671 
671 615 586 892 843 842 842 868 892 
98 76 75 75 95 97 75 97 98 
377 332 331 331 353 378 378 377 331 
617 588 587 587 616 644 644 617 587 
893 869 843 843 892 893 99 77 76 
76 98 99 354 333 332 377 354 332 
588 617 618 844 869 895 895 872 844 
77 99 101 101 100 77 355 334 333 
333 354 355 620 590 589 589 619 620 
845 847 874 874 848 845 117 79 78 
78 100 117 336 335 334 356 336 334 
334 355 356 620 591 590 898 847 846 
846 873 898 118 102 79 79 117 118 
591 620 621 591 621 622 899 874 847 
847 898 899 119 81 80 80 102 119 
336 356 357 623 593 592 592 622 623 
848 874 875 120 82 81 81 119 120 
337 358 382 383 359 337 337 382 383 
624 594 593 593 623 650 650 624 593 
849 850 851 121 103 82 82 120 121 
360 339 338 338 359 360 594 624 625 
876 851 850 123 84 83 83 103 122 
83 122 123 339 360 385 385 361 339 
626 596 595 595 625 653 653 626 595 
876 852 851 123 104 84 363 341 340 
340 362 363 596 626 627 878 853 852 
852 876 877 852 877 878 108 86 85 
85 107 108 387 342 341 341 363 387 
628 598 597 597 627 655 655 628 597 
853 878 879 86 87 88 108 87 86 
388 343 342 342 387 388 629 599 598 
598 628 629 883 855 854 854 881 883 
89 88 87 110 89 87 87 108 109 
87 109 110 389 364 343 343 388 389 
656 600 599 599 629 656 883 856 855 
88 89 90 88 90 91 391 345 344 
344 364 390 344 390 415 415 391 344 
657 630 600 600 656 657 884 857 856 
856 883 884 93 90 89 111 93 89 
89 110 111 392 346 345 345 391 392 
631 603 601 601 630 631 857 884 907 
907 885 857 94 91 90 90 93 94 
392 365 346 602 603 632 632 604 602 
858 885 887 887 886 858 395 348 347 
347 367 394 347 394 395 603 631 659 
659 632 603 861 860 859 888 861 859 
859 886 888 395 368 348 604 632 660 
660 633 604 860 861 889 889 862 860 
113 94 93 93 111 112 93 112 113 
370 350 349 349 369 370 634 606 605 
605 633 634 861 888 912 912 889 861 
396 351 350 350 370 396 606 634 662 
662 635 606 913 864 862 862 889 913 
95 96 97 397 371 351 351 396 397 
607 635 663 663 636 607 863 864 915 
915 890 863 114 97 96 352 372 373 
638 610 608 608 637 665 665 638 608 
864 913 914 864 914 915 115 98 97 
97 114 115 353 375 376 353 376 378 
609 610 666 668 611 609 609 666 668 
917 866 865 865 890 916 865 916 917 
115 99 98 379 355 354 354 377 402 
403 379 354 354 402 403 610 638 666 
917 867 866 137 101 99 99 115 137 
379 356 355 639 612 611 668 639 611 
891 868 867 917 891 867 100 101 116 
100 116 117 380 357 356 356 379 380 
612 639 640 868 891 918 918 892 868 
154 116 101 101 137 154 357 380 381 
670 614 613 613 642 670 869 893 896 
896 895 869 102 118 140 140 119 102 
407 382 358 614 670 671 870 871 897 
897 873 870 103 121 142 142 122 103 
384 360 359 359 383 384 643 616 615 
672 643 615 615 671 672 871 872 894 
871 894 922 922 897 871 124 105 104 
104 123 124 360 384 408 408 385 360 
616 643 644 895 894 872 125 106 105 
105 124 125 386 362 361 361 385 386 
645 618 617 617 644 673 673 645 617 
873 897 923 923 898 873 144 107 106 
106 125 144 410 363 362 362 386 410 
646 619 618 618 645 646 900 875 874 
874 899 900 126 108 107 144 126 107 
411 387 363 363 410 411 647 620 619 
619 646 647 875 900 924 127 109 108 
108 126 127 364 389 390 648 621 620 
620 647 648 145 110 109 109 127 145 
393 366 365 365 392 417 417 393 365 
649 622 621 621 648 676 676 649 621 
901 878 877 128 111 110 145 128 110 
393 367 366 649 623 622 880 879 878 
901 880 878 129 112 111 111 128 129 
367 393 418 418 394 367 623 649 677 
677 650 623 879 880 882 882 881 879 
132 113 112 112 129 130 112 130 131 
112 131 132 420 369 368 368 395 420 
652 625 624 624 650 651 624 651 652 
902 882 880 880 901 902 421 370 369 
369 420 421 625 652 653 881 882 903 
903 883 881 135 115 114 114 133 135 
422 396 370 370 421 422 654 627 626 
626 653 654 882 902 904 904 903 882 
115 135 136 115 136 137 398 372 371 
371 397 398 627 654 655 906 884 883 
883 903 906 138 117 116 155 138 116 
116 154 155 399 373 372 372 398 399 
682 629 628 628 655 681 628 681 682 
884 906 926 926 907 884 139 118 117 
117 138 139 425 374 373 373 399 424 
373 424 425 683 656 629 629 682 683 
908 887 885 885 907 908 118 139 140 
400 375 374 425 400 374 658 631 630 
630 657 658 886 887 911 911 888 886 
141 120 119 119 140 141 400 376 375 
631 658 686 686 659 631 887 908 910 
887 910 911 159 121 120 120 141 159 
426 378 376 376 400 427 427 426 376 
632 659 688 688 660 632 888 911 932 
932 912 888 160 142 121 121 159 160 
377 378 401 377 401 402 661 634 633 
633 660 661 889 912 933 933 913 889 
143 123 122 122 142 161 161 143 122 
426 401 378 634 661 690 690 662 634 
890 915 934 934 916 890 162 124 123 
123 143 162 404 380 379 379 403 404 
635 662 664 664 663 635 891 917 937 
938 918 891 891 937 938 163 125 124 
124 162 163 405 381 380 380 404 405 
667 637 636 636 663 692 692 667 636 
921 893 892 892 918 921 164 144 125 
125 163 164 381 405 406 667 665 637 
920 896 893 921 920 893 166 127 126 
126 144 165 126 165 166 432 383 382 
382 407 432 638 665 693 696 666 638 
638 693 696 894 895 919 894 919 941 
941 922 894 167 145 127 127 166 167 
433 384 383 383 432 433 698 640 639 
639 668 697 639 697 698 895 896 919 
147 129 128 128 145 146 128 146 147 
434 408 384 384 433 434 698 669 640 
942 919 896 896 920 942 148 130 129 
129 147 148 409 386 385 385 408 409 
700 642 641 897 922 943 943 923 897 
169 131 130 130 148 169 386 409 435 
435 410 386 701 670 642 642 700 701 
944 899 898 898 923 944 149 132 131 
170 149 131 131 169 170 412 388 387 
387 411 412 705 644 643 643 672 733 
643 704 705 733 704 643 948 900 899 
899 944 947 899 947 948 413 389 388 
388 412 413 705 673 644 948 924 900 
133 134 135 414 390 389 389 413 414 
707 646 645 645 673 707 151 135 134 
134 150 151 390 414 437 437 415 390 
674 647 646 708 674 646 646 707 708 
152 136 135 135 151 152 416 392 391 
391 415 438 438 416 391 675 648 647 
647 674 675 903 904 905 903 905 906 
153 137 136 136 152 174 174 153 136 
392 416 417 648 675 710 710 676 648 
137 153 154 393 417 441 441 418 393 
649 676 712 712 677 649 925 906 905 
156 139 138 138 155 192 192 156 138 
419 395 394 394 418 442 442 419 394 
678 651 650 650 677 678 906 925 927 
927 926 906 157 140 139 139 156 157 
395 419 420 714 652 651 651 678 714 
909 908 907 928 909 907 907 926 928 
158 141 140 140 157 158 423 397 396 
396 422 423 679 653 652 714 679 652 
908 909 929 929 910 908 141 158 176 
176 159 141 446 398 397 397 423 446 
680 654 653 653 679 680 909 928 930 
930 929 909 142 160 161 447 399 398 
398 446 447 715 655 654 654 680 715 
931 911 910 910 929 931 143 161 178 
179 162 143 143 178 179 479 424 399 
399 447 479 715 681 655 911 931 932 
144 164 165 400 425 448 448 427 400 
684 657 656 656 683 684 912 932 954 
954 933 912 182 146 145 145 167 182 
450 402 401 401 426 449 401 449 451 
451 450 401 685 658 657 657 684 685 
957 914 913 913 933 957 183 147 146 
146 182 183 429 403 402 450 429 402 
658 685 719 719 686 658 935 915 914 
957 935 914 168 148 147 183 168 147 
428 404 403 429 428 403 659 686 687 
659 687 688 935 934 915 148 168 184 
184 169 148 430 405 404 404 428 453 
453 430 404 689 661 660 660 688 689 
936 917 916 916 934 961 961 936 916 
149 170 171 430 406 405 661 689 722 
722 690 661 917 936 937 172 151 150 
188 172 150 406 430 431 691 664 662 
662 690 691 939 921 918 918 938 939 
172 152 151 456 432 407 663 664 692 
965 941 919 919 942 965 152 172 173 
152 173 174 460 409 408 408 434 460 
664 691 723 724 692 664 664 723 724 
920 921 940 920 940 942 175 154 153 
153 174 190 190 175 153 461 435 409 
409 460 461 665 667 694 694 693 665 
921 939 964 964 940 921 175 155 154 
436 411 410 410 435 436 695 668 666 
696 695 666 922 941 946 946 943 922 
155 175 191 155 191 192 464 412 411 
411 436 464 667 692 726 725 694 667 
726 725 667 923 943 945 945 944 923 
193 157 156 156 192 193 465 413 412 
412 464 466 466 465 412 668 695 697 
924 948 949 194 158 157 157 193 194 
467 414 413 413 465 467 669 698 699 
195 176 158 158 194 195 467 437 414 
702 671 670 670 701 702 926 927 928 
196 160 159 159 176 196 415 437 439 
439 438 415 703 672 671 671 702 703 
950 928 927 177 161 160 198 177 160 
160 196 198 440 417 416 416 438 470 
470 440 416 672 703 733 950 930 928 
161 177 178 417 440 441 673 705 706 
673 706 707 929 930 951 952 931 929 
929 951 952 180 163 162 162 179 180 
418 441 472 472 442 418 709 675 674 
674 708 709 181 164 163 163 180 181 
443 420 419 419 442 474 475 443 419 
419 474 475 675 709 737 737 710 675 
953 932 931 931 952 953 199 165 164 
164 181 199 443 421 420 676 710 711 
676 711 712 932 953 954 200 166 165 
165 199 200 444 422 421 421 443 444 
713 678 677 677 712 713 933 954 955 
933 955 957 201 167 166 166 200 201 
445 423 422 422 444 445 678 713 740 
740 714 678 934 935 960 934 960 962 
962 961 934 201 182 167 423 445 477 
477 446 423 743 680 679 679 714 742 
679 742 743 935 957 958 935 958 960 
168 183 203 204 184 168 168 203 204 
480 425 424 424 479 480 744 715 680 
680 743 744 976 937 936 936 961 963 
936 963 976 185 170 169 169 184 185 
480 448 425 716 682 681 681 715 716 
978 938 937 937 976 978 186 171 170 
170 185 186 426 427 449 717 683 682 
682 716 717 981 939 938 938 978 981 
171 186 187 427 448 481 481 449 427 
718 684 683 683 717 718 981 964 939 
208 173 172 172 188 208 428 429 452 
428 452 453 747 685 684 684 718 747 
967 942 940 940 964 983 983 967 940 
189 174 173 209 189 173 173 208 209 
429 450 482 482 452 429 748 719 685 
685 747 748 966 946 941 941 965 966 
174 189 190 454 431 430 430 453 454 
720 687 686 686 719 720 967 965 942 
175 190 210 210 191 175 431 454 455 
721 688 687 687 720 721 968 945 943 
943 946 968 176 195 197 197 196 176 
457 433 432 432 456 486 486 457 432 
721 689 688 944 945 970 970 947 944 
215 178 177 177 198 215 458 434 433 
433 457 458 689 721 750 751 722 689 
689 750 751 945 968 988 988 970 945 
216 179 178 178 215 216 434 458 459 
434 459 460 752 691 690 690 722 752 
946 966 971 971 968 946 217 180 179 
179 216 217 462 436 435 435 461 462 
753 723 691 691 752 753 992 948 947 
947 970 993 993 992 947 218 181 180 
180 217 218 436 462 463 436 463 464 
692 724 726 992 949 948 218 199 181 
468 439 437 437 467 468 693 694 728 
727 696 693 728 727 693 992 972 949 
202 183 182 182 201 202 438 439 469 
438 469 470 694 725 728 183 202 203 
439 468 490 490 469 439 695 696 756 
729 697 695 756 729 695 205 185 184 
184 204 223 223 205 184 471 441 440 
440 470 493 493 471 440 696 727 756 
206 186 185 185 205 206 441 471 472 
730 698 697 697 729 730 956 954 953 
224 187 186 186 206 224 442 472 473 
442 473 474 730 699 698 956 955 954 
187 224 225 476 444 443 443 475 476 
699 730 759 955 956 973 959 957 955 
973 959 955 188 207 208 497 445 444 
444 476 497 731 701 700 228 190 189 
189 209 227 189 227 228 498 477 445 
445 497 498 732 702 701 701 731 732 
959 958 957 228 210 190 478 447 446 
446 477 478 732 703 702 958 959 974 
974 960 958 211 192 191 191 210 229 
229 211 191 447 478 499 499 479 447 
703 732 760 761 733 703 703 760 761 
212 193 192 192 211 212 448 480 500 
500 481 448 763 705 704 704 733 762 
704 762 763 975 962 960 960 974 975 
213 194 193 193 212 213 501 451 449 
449 481 501 763 706 705 961 962 963 
231 195 194 194 213 231 450 451 482 
734 707 706 764 734 706 706 763 764 
977 963 962 962 975 977 232 197 195 
195 231 232 502 482 451 451 501 502 
734 708 707 979 976 963 963 977 979 
196 197 214 214 198 196 483 453 452 
452 482 503 503 483 452 735 709 708 
708 734 735 964 981 984 985 983 964 
964 984 985 232 214 197 484 454 453 
453 483 484 709 735 736 709 736 769 
769 737 709 969 966 965 965 967 969 
198 214 233 233 215 198 484 455 454 
738 711 710 710 737 738 966 969 990 
990 971 966 219 200 199 199 218 236 
236 219 199 455 484 506 739 712 711 
711 738 771 771 739 711 986 969 967 
967 983 987 987 986 967 220 201 200 
200 219 220 456 485 486 739 713 712 
968 971 989 989 988 968 221 202 201 
201 220 221 508 458 457 457 486 507 
457 507 508 713 739 773 773 740 713 
969 986 991 991 990 969 222 203 202 
202 221 222 509 459 458 458 508 509 
714 740 741 714 741 742 970 988 993 
237 204 203 203 222 237 510 460 459 
459 509 510 745 716 715 715 744 745 
994 989 971 971 990 994 238 223 204 
204 237 238 510 461 460 746 717 716 
716 745 779 779 746 716 972 992 997 
972 997 998 240 206 205 205 223 239 
205 239 240 512 462 461 461 510 511 
461 511 512 780 718 717 717 746 780 
241 224 206 206 240 241 462 512 513 
513 463 462 718 780 781 781 747 718 
246 208 207 207 245 246 487 464 463 
513 487 463 749 720 719 719 748 749 
226 209 208 246 226 208 487 466 464 
783 721 720 720 749 783 980 978 976 
976 979 980 209 226 227 465 466 488 
488 467 465 783 750 721 210 228 247 
247 229 210 466 487 514 514 488 466 
722 751 784 784 752 722 978 980 982 
982 981 978 230 212 211 211 229 230 
489 468 467 467 488 489 755 724 723 
723 753 755 248 213 212 212 230 248 
468 489 515 515 490 468 754 726 724 
755 754 724 249 231 213 213 248 249 
492 470 469 469 490 491 469 491 492 
725 726 758 757 728 725 758 757 725 
981 982 984 214 232 250 251 233 214 
214 250 251 470 492 493 726 754 758 
234 216 215 215 233 253 253 234 215 
494 472 471 471 493 518 518 494 471 
787 786 727 727 728 787 786 756 727 
983 985 987 234 217 216 494 473 472 
728 757 787 235 218 217 217 234 254 
254 235 217 495 474 473 473 494 519 
519 495 473 729 788 789 789 730 729 
729 756 788 218 235 236 495 475 474 
730 789 790 790 759 730 256 220 219 
219 236 255 219 255 256 496 476 475 
475 495 496 792 732 731 220 256 257 
257 221 220 476 496 520 520 497 476 
792 760 732 988 989 995 995 993 988 
221 257 258 258 222 221 522 478 477 
477 498 522 733 761 762 989 994 996 
996 995 989 222 258 259 259 237 222 
478 522 523 523 499 478 767 735 734 
734 764 766 734 766 767 990 991 994 
223 238 239 524 480 479 479 499 524 
768 736 735 735 767 768 243 225 224 
224 241 242 224 242 243 480 524 525 
525 500 480 736 768 796 796 769 736 
992 993 997 481 500 527 527 501 481 
737 769 770 770 738 737 993 995 997 
268 227 226 226 246 268 482 502 530 
530 503 482 738 770 772 772 771 738 
227 268 269 227 269 270 270 228 227 
504 484 483 483 503 531 531 504 483 
739 771 800 800 773 739 995 996 999 
999 997 995 270 247 228 484 504 505 
484 505 506 740 773 774 774 741 740 
229 271 272 272 230 229 229 247 271 
485 532 533 533 486 485 741 774 775 
775 742 741 999 998 997 230 272 273 
273 248 230 533 507 486 742 775 776 
776 743 742 274 232 231 231 249 274 
487 513 537 538 514 487 487 537 538 
743 776 777 777 744 743 274 250 232 
488 514 539 539 489 488 744 777 778 
778 745 744 233 251 252 233 252 253 
539 515 489 745 778 805 805 779 745 
234 253 277 277 254 234 490 515 516 
516 491 490 746 779 807 807 780 746 
235 279 280 280 236 235 235 254 279 
491 516 541 491 541 542 542 492 491 
747 781 782 782 748 747 280 255 236 
542 517 492 517 493 492 748 782 810 
810 749 748 237 259 260 260 238 237 
493 517 518 811 783 749 749 810 811 
238 260 261 261 239 238 494 518 544 
544 519 494 750 783 812 750 812 813 
813 751 750 239 261 262 262 240 239 
495 519 545 495 545 546 546 496 495 
813 784 751 240 262 263 263 241 240 
547 520 496 496 546 547 752 784 785 
785 753 752 241 263 264 264 242 241 
497 520 521 521 498 497 753 785 814 
814 755 753 242 264 265 244 243 242 
265 244 242 498 521 549 549 522 498 
754 815 818 754 755 815 818 758 754 
499 523 550 550 524 499 755 814 815 
244 265 266 500 525 526 500 526 527 
756 786 819 819 788 756 288 267 245 
267 246 245 501 527 529 529 528 501 
528 502 501 816 787 757 817 816 757 
757 758 817 246 267 268 502 528 530 
818 817 758 247 270 292 292 271 247 
503 530 554 554 531 503 759 790 791 
248 273 295 295 249 248 504 531 556 
556 505 504 760 792 793 793 761 760 
296 274 249 249 295 296 505 556 557 
505 557 558 558 506 505 761 793 794 
794 762 761 250 274 275 250 275 276 
276 251 250 762 794 795 795 763 762 
276 252 251 507 533 534 534 508 507 
765 764 763 795 765 763 252 276 297 
252 297 298 298 253 252 508 534 561 
561 509 508 764 765 766 298 277 253 
561 535 509 535 510 509 254 277 278 
254 278 279 535 511 510 281 256 255 
255 280 281 563 512 511 511 535 562 
511 562 563 
