# vtk DataFile Version 5.1
vtk output
ASCII
DATASET POLYDATA
POINTS 1000 double
6.2564518514 2.4209742441 -2.6523555563 4.6021263584 3.9202115019 -2.6660894536 4.3672818109 4.2738493846 -2.3255954945 
4.7079111788 3.9419551879 -2.043934383 3.9349188158 4.1035875242 -2.7198576516 4.9759345889 3.6807858789 -2.386633496 
4.182269002 3.7291992755 -2.8867591794 5.0097197972 3.397441848 -2.7933473247 5.3373619753 3.2256124714 -2.3744414124 
4.5470236964 3.3863494738 -3.0039424422 5.8441178775 2.7850761483 -2.5715822016 5.6777610406 2.8903135469 -2.1385760144 
6.13022686 2.6060097199 -2.1278241519 5.410135866 2.9399644546 -2.8378102579 4.9242270071 2.9551860816 -3.0930900562 
6.4133057105 2.1894908884 -2.1884074852 5.8051383519 2.4671507094 -2.9569820969 5.2727764168 2.5057953024 -3.1551233548 
6.478394563 1.8084332332 -2.4978309747 6.1847616107 1.9887080343 -2.9377511338 5.6394223521 2.0407567196 -3.1757697891 
5.901220186 1.5690068479 -3.1288067071 6.3226241387 1.4207101543 -2.7732608386 3.1254382012 5.4080019057 -2.2070582961 
2.6095818257 5.5182230808 -2.3545050923 2.9109650535 5.1498564108 -2.5023688875 3.7673218915 4.8029333333 -1.8697957513 
3.529812732 4.9661796506 -2.3282746952 3.4040753531 5.1392216177 -1.8857224201 3.9486207443 4.5998982485 -2.3508901647 
4.1027140867 4.4297256195 -1.8326454588 3.2022726652 4.7901465518 -2.5817794314 3.5465952695 4.4270865085 -2.6457395861 
4.3367662748 4.0081281408 -1.693135049 5.0088713142 3.4229115393 -1.9365011803 5.2808691583 2.9554254386 -1.8379587483 
5.7168687453 2.5779243553 -1.7110950829 6.1622663845 2.2222427907 -1.7224100189 6.3402058885 1.7288647179 -1.9236239239 
6.3634156623 1.3097475204 -2.2261866726 5.9664880965 1.0649806821 -2.9393821453 1.9367532122 7.0243315031 -1.4960816695 
2.2272837754 6.6010303991 -1.6638780258 2.2666981128 6.6875489293 -1.181738358 2.505054798 6.1699398257 -1.7918693609 
1.695552097 6.6624894353 -1.8060638769 2.0025782311 6.2844102877 -2.0008800803 2.7996397746 5.7641640632 -1.9628425332 
2.3058055649 5.8931224983 -2.1687331316 2.7191791231 5.7203943644 -1.4638586605 3.025780486 5.3762618902 -1.6451317223 
4.6016218666 3.5354857749 -1.6138433747 6.2312394606 0.90670758582 -2.5169519372 5.9455687999 0.54028734019 -2.7494355582 
1.6545679557 7.5487761549 -0.78520782332 1.5686233803 7.3795873813 -1.2872147567 1.1868831367 7.7071263583 -1.0876326597 
2.0087239078 7.1557831689 -1.0137288272 1.8871934014 7.1419145892 -0.51560228191 0.99398038879 7.3543526989 -1.4402798884 
2.0923501861 6.7032071015 -0.70535701469 1.3576028719 7.0128848094 -1.613438942 2.4628897026 6.1844170855 -1.2922678497 
3.2420961137 4.9276019738 -1.4690640906 3.5814753286 4.5242470602 -1.4592796902 3.8482496849 4.0766871314 -1.4142363565 
4.8312531244 3.0113022209 -1.5525941005 5.1800000953 2.5515230726 -1.4617863938 5.7151074725 2.1670784715 -1.4091426959 
5.9955944511 1.7107330021 -1.4914649623 6.0584102788 1.2351723419 -1.7299061648 6.0501092963 0.80712242308 -2.0227809471 
6.0665781981 0.35480912947 -2.3101900538 1.2626066734 7.8522554764 -0.57781434096 0.78902150966 7.9796842875 -0.76012772594 
1.5333960585 7.4987437047 -0.22820461882 0.6315473721 7.6824212532 -1.1820232888 2.1994026262 6.2004203955 -0.82973268521 
2.4532290664 5.6501612727 -1.0712232924 2.7559427764 5.1417927388 -1.2009838566 3.0339947871 4.6057106441 -1.146154988 
4.1034103004 3.5930898945 -1.3484901314 4.356185854 3.1085973043 -1.2876503575 4.6282322624 2.6169353383 -1.2151933067 
5.2786788364 2.1214452101 -1.1824356816 5.5933782762 1.6816002499 -1.1238672896 5.9315726263 0.0096027890388 -2.6408333618 
1.1549659602 7.8655999174 -0.095014193616 0.77876158775 8.0935129799 -0.19791729853 0.25206975894 7.925271362 -0.87444895288 
0.36882392826 8.1939024041 -0.44160090453 1.6463374211 6.9712669452 -0.12977085472 2.1184158293 5.6739948435 -0.71189633126 
3.3268436173 4.1345017456 -1.135580047 3.588796621 3.6551827649 -1.1025532966 3.8499994163 3.1768750483 -1.0265346046 
4.8233983385 2.1849367942 -1.017744731 5.7092381642 1.198019334 -1.2744650087 5.7334691914 0.75214830569 -1.558310088 
5.8311319404 0.27939400198 -1.8595930446 5.994887703 -0.20755502905 -2.1431607758 5.8404156699 -0.48027065288 -2.6007549419 
0.75582165949 7.9424583477 0.38272562329 0.39174623341 8.2716944392 0.17200227054 -0.14383076163 8.1495565848 -0.51293157975 
1.1547109432 7.5870357387 0.2384761418 1.2993799194 7.1430021 0.21278255269 1.8099924341 6.5052997931 -0.32419685362 
1.852294257 5.9845973516 -0.42584717494 2.3187198285 5.1748532001 -0.82161636469 2.5707582535 4.6994913388 -0.85296505628 
2.8313508389 4.1978260222 -0.83218739152 3.0793505339 3.718898318 -0.8178100935 4.1151309299 2.7106000071 -0.94668845881 
4.3377781406 2.2573665878 -0.80149644464 5.1358477581 1.7409165512 -0.82446109554 5.3590340446 1.2488824974 -0.82191819771 
6.0115990507 -0.75010403218 -2.2129645333 5.7086777852 -0.98955109142 -2.5103903578 0.0036437921843 8.3797781458 -0.10273503776 
-0.15611181469 8.5349822323 0.35689448805 -0.50620045795 8.39031658 -0.10819316586 0.29685409164 8.2125850404 0.68296584607 
1.383121513 6.6218338066 0.137292605 1.4730762931 6.1511890461 -0.014270781929 1.889655985 5.298759813 -0.44106186125 
2.1178343525 4.7723895464 -0.49484331204 2.3748570329 4.2806539908 -0.50325132828 3.3357399336 3.2532778667 -0.76573312644 
3.5883761876 2.7999294775 -0.67453759639 4.638915276 1.826596379 -0.61142712164 5.3906564805 0.7454734087 -1.050774961 
5.5029512676 0.27555234097 -1.4380274518 5.6810538899 -0.2181227259 -1.660644061 5.8938126432 -0.69268392006 -1.7606797015 
6.0255037047 -1.199960025 -1.9677036587 5.5720575209 -1.4297826911 -2.3811959352 -0.086323050395 8.4532457406 0.90793558744 
-0.53284990826 8.7074138926 0.70486059563 -0.81357454629 8.5858025433 0.25917016765 0.47747434729 7.7425199151 0.86635506201 
0.86517030794 7.4219638344 0.59894100072 0.98146925317 6.8738531549 0.53323668751 1.0540932141 6.3358726138 0.42145211347 
1.5387076917 5.6536052488 -0.1218612866 1.53918843 5.1765234766 -0.071180066396 2.6084582871 3.7914980184 -0.4831457383 
2.8430236893 3.3231879577 -0.45610262059 3.830776179 2.3539300448 -0.57042181385 4.1038740475 1.9069917985 -0.42273432037 
4.9470216474 1.3765643574 -0.44826012879 5.0924731614 0.85243287192 -0.53026629494 5.1924377683 0.26841610126 -1.0267597869 
5.2855200646 -0.21213921329 -1.2513562581 5.8337889873 -1.6428497795 -2.0253662066 -1.162927067 8.7395301738 0.65499198421 
0.02356435302 8.0050443793 1.204923326 0.58018639515 7.1178119327 0.89420879947 1.137598352 5.8253152094 0.29821326663 
1.7323555864 4.7510724607 -0.11960705626 1.9596038983 4.3073553243 -0.1290580967 3.0789867843 2.8693453155 -0.38877005614 
3.3087677065 2.4149907784 -0.31174727681 4.418690521 1.4896854964 -0.23167011817 4.7000977721 1.0329418708 -0.10427000935 
4.9635873837 0.35074374272 -0.60110943961 5.5125180248 -0.68183155391 -1.3736263333 5.8114266951 -1.1439560485 -1.46995478 
5.9069096866 -1.621283305 -1.5623657304 5.3742635031 -1.8730479781 -2.1507952378 -0.87813743439 8.8253815462 1.0482726721 
-0.44032509863 8.5056593575 1.2885019758 0.20351101484 7.4140641563 1.192544005 0.6643827327 6.5362649706 0.80874922612 
0.74636529763 5.9804615676 0.70663447285 1.1827770495 5.3221954324 0.27558567851 1.3132388987 4.8069466849 0.27765881624 
2.1872916126 3.8449506722 -0.11841795897 2.3979260242 3.3748665105 -0.088858238255 2.607767866 2.915205571 -0.058060215186 
3.561885754 1.9734468671 -0.23356439656 3.849230657 1.5410538028 -0.092198156494 4.7603123937 0.51262337451 -0.15773417836 
4.919933876 -0.16042260358 -0.8152818142 5.0658539788 -0.65008423431 -1.0014052207 5.3501697923 -1.1112451342 -1.1037581166 
5.5824605811 -1.5776389996 -1.1479033862 5.6497972112 -2.0614932031 -1.7545344966 -0.89893065619 8.7261876184 1.5059657315 
-1.4295910548 8.9168986397 1.1697491247 -1.2928318646 8.8716937876 1.7515869844 -0.83514675607 8.3716417597 1.8524260793 
-0.43218588755 8.0858751323 1.5924380015 -0.23266266707 7.5883644141 1.5299863894 0.28412246533 6.76703805 1.1595477321 
0.81794867202 5.4535448115 0.65710255192 0.92417769802 4.9268330243 0.63526684398 1.5293794681 4.348950867 0.26919986951 
1.7619761199 3.91534812 0.26423364146 1.9705603511 3.4537984659 0.2823990249 2.8018718063 2.4492414892 -0.028228073807 
3.0014833679 1.9900587328 -0.016398598743 4.1546544465 1.1376358802 0.10743214482 4.4006444561 0.67505635096 0.23784372142 
4.6597784786 -0.06457024764 -0.33868047109 4.6724558641 -0.59034759534 -0.58106521294 5.6656880206 -2.0769999083 -1.2809985247 
5.1862863855 -2.3099732598 -1.8678704248 5.4462821741 -2.5039000785 -1.4857072621 -1.8393896833 9.0186393401 1.5274468594 
-0.082380496872 7.033308288 1.459807795 0.014616715269 6.3749608251 1.4159791356 0.37198514892 6.1540372715 1.0842874728 
0.45453594902 5.5937918305 1.0385634073 1.0896286229 4.417620075 0.63259109982 2.1431012759 2.9791892535 0.30373101259 
2.3087160095 2.4937590736 0.26394839203 3.2661541214 1.5631745502 0.014600130459 3.575649291 1.1495229155 0.17259124522 
3.8857059319 0.74750370561 0.42224461906 4.4742708127 0.14076187456 0.11331346125 4.8760240177 -1.0868768352 -0.75008602211 
5.1428004504 -1.5589265967 -0.81228718977 5.3561466463 -2.0500441467 -0.87135504791 5.0120731288 -2.7892493389 -1.5984518698 
-1.6841149334 8.9722736073 2.0716758088 -2.2103918186 9.0721294362 1.9855869737 -1.2627560947 8.5429338971 2.2335448761 
-0.72034567247 7.7087889592 1.9238852543 -1.0352202239 8.0355850823 2.2006260894 -0.53045650244 7.1988129957 1.8086159408 
-0.34166244615 6.6596876048 1.7100496245 0.53550153803 5.0386549902 0.99100960345 0.64943748426 4.4879859025 0.93028350568 
1.2830427455 3.9549037176 0.64681170031 1.5170817361 3.552642314 0.62019947211 1.6355334261 3.1091363094 0.64127682649 
2.4578391737 1.985129395 0.1756635293 4.1029646322 0.253744323 0.51215757858 4.2003028269 -0.24675848402 0.31424913253 
4.3730791253 -0.49737880213 -0.10851295979 4.4619208377 -1.0343029798 -0.35483141213 4.7040465357 -1.5378169127 -0.47173270619 
5.4530113768 -2.5566080825 -1.0227408621 5.233194517 -2.9767704583 -1.2056529038 -1.6493101775 8.7443155645 2.541962067 
-0.78391738572 6.7734651584 2.069961894 -0.27606213424 6.0113686496 1.6911259741 0.074496496799 5.7588484459 1.4029206705 
0.13011162127 5.2170047988 1.3404998274 0.81499595915 3.9345157727 0.88319348474 1.7539497755 2.6484853451 0.55538934574 
1.8754673653 2.2053880093 0.37461536879 2.6818934103 1.5017358855 0.083399976478 3.0074792214 1.1049541567 0.13630129873 
2.4562778784 0.89568817817 0.0020290062581 3.3436500426 0.71742885812 0.39523990141 4.9532338654 -2.0283782994 -0.51976446926 
5.149830846 -2.534689581 -0.60919289672 4.8329041304 -3.2984110826 -1.3422702824 -2.0770570095 9.0126524469 2.5169413218 
-2.591297493 9.0458381534 2.4756307984 -1.3829836188 8.0792642766 2.6237050426 -1.2260923796 7.6045927693 2.4366182855 
-0.98874149837 7.2388813408 2.1946548587 -0.60124486954 6.3066100967 1.9604529475 0.1651907832 4.641396741 1.1442579465 
1.0450127109 3.3903783768 0.84646929881 1.9830200009 1.7692511936 0.17782891553 2.1928356569 1.3514080686 0.032369929324 
3.5733921351 0.29791346318 0.64868948952 2.8469017803 0.63259617018 0.20199510802 3.7876387111 -0.19816185902 0.6823652205 
3.9174995522 -0.64189300417 0.42800847943 4.1145811148 -0.97529553311 0.065177849092 4.3077674323 -1.5000324934 -0.10631824534 
4.5651734698 -2.0100048523 -0.17154314663 4.7958470998 -2.5228863659 -0.2366787681 5.1820991802 -3.0449454692 -0.72844102673 
5.0560541828 -3.4932227998 -0.94129184725 -2.4009498231 8.9961768494 2.9625855525 -1.9650403548 8.7339214821 3.0502023504 
-1.6202414553 8.3949536721 2.8660937924 -1.4515447263 7.1682336273 2.6513640022 -1.0153569397 6.2674040297 2.2716023159 
-0.72046442329 5.8163412749 1.9591588221 -0.37659225374 5.4414635735 1.6548879847 -0.30285354343 4.9569226998 1.3863553238 
0.29029710292 4.077187738 0.94440112344 -0.20187313264 4.1532456938 0.82443338466 0.46872846383 3.5317441036 0.8047404164 
1.1762533938 2.8505627548 0.71117329613 1.2988393431 2.3608893582 0.45526000508 1.4519528491 1.9235788791 0.15840688644 
0.93710925518 2.0765291968 0.066562714187 1.1471044103 1.6261255867 -0.20128351705 0.6340948366 1.7564727629 -0.3681322141 
1.6378824098 1.4388219687 -0.075123039661 1.3548822244 1.0637515919 -0.35194547266 1.8807667806 0.95668369427 -0.1819533518 
2.1207054748 0.48745354931 -0.18954396194 3.0580632253 0.25452533154 0.45694056439 2.5740024744 0.23184055445 0.084999953653 
3.9295659801 -1.4867428206 0.26678595063 4.941609578 -3.0479607941 -0.30295037574 5.0217183979 -3.5628818346 -0.44881318726 
4.6923858242 -3.8253835731 -1.1255145895 -2.9081335379 8.9083739243 2.991580481 -2.1432348676 8.4609859047 3.4444971993 
-1.7918454331 8.084341104 3.2265557091 -1.5926617004 7.6436296249 2.9352977222 -1.2379459304 6.728894371 2.4299073653 
-0.81757237009 5.1025045906 1.4639389157 -0.32379257374 4.546773392 1.0737151356 -0.79388428668 4.7111588484 1.0847620551 
-0.70909816125 4.3105250451 0.71441884194 -0.046783835996 3.6918627947 0.62664828903 -0.5561438633 3.8834844016 0.43588424294 
-1.0777146505 4.0725730671 0.33238130745 0.1059105331 3.2051205357 0.46692048671 -0.41409608263 3.4283703796 0.23397390858 
-0.94392867797 3.6277271587 0.04807795115 0.62918864029 3.0188962857 0.65742466762 -0.25168146689 2.9555147776 0.083406403071 
-0.78443799248 3.1631364492 -0.13855248597 0.7759556136 2.5284851766 0.4043389985 0.26366982183 2.7212454289 0.27470539167 
0.45427030341 2.2549350139 -0.0079626538585 -0.068497467531 2.4730628435 -0.11064879932 0.16239971957 2.0089371986 -0.37989764551 
-0.17204000744 1.7620920885 -0.6802119526 0.24188352422 1.4603194266 -0.69934453279 0.88619962621 1.2654727448 -0.50016725286 
0.51242889401 1.0529293882 -0.70632505443 1.5638230573 0.54089210858 -0.39487338579 1.0178093516 0.65813866719 -0.56571856152 
3.2704837902 -0.1774004268 0.6666547704 2.8416860371 -0.1929265117 0.37107251156 2.2110297278 -0.016671565001 -0.16364288541 
1.7611921503 0.026771924018 -0.37798137188 3.3913163856 -0.65897870561 0.63125777031 2.4960176445 -0.37925614454 0.063378008289 
3.6669509494 -1.0976370668 0.45359463708 4.1910614773 -1.9724619285 0.18708630714 4.4325417885 -2.4768913823 0.1253826517 
4.6190108394 -3.0005198475 0.071936153812 4.9387742558 -4.0060448924 -0.71643168333 -2.5933861622 8.8057281509 3.3786850556 
-1.7212554401 6.6852451952 2.7784850837 -1.5547937501 6.2201133217 2.4787597403 -1.2737769049 5.8456177196 2.1992030417 
-1.0249884578 5.4783728646 1.816413927 -1.3519667651 5.248308742 1.4989749731 -1.2745035156 4.8894117642 1.0902552905 
-1.7725409087 5.0720716025 1.1106998979 -1.6998136549 4.7073669535 0.72698684582 -1.197427328 4.4935218665 0.69580737085 
-1.5936623847 4.2799020001 0.34864621922 -1.480427984 3.8266969147 -0.00062201140469 -1.9535847865 3.6788568242 -0.18910815195 
-1.3576804964 3.3348688833 -0.28501517763 -1.1449552245 2.8524413783 -0.45610257929 -0.59566305316 2.6802698648 -0.28537192148 
-0.37554468456 2.2028238511 -0.46627956664 -0.87581810753 2.3217324211 -0.60783709584 -0.67779280026 1.8189144578 -0.79034768697 
-0.32263297918 1.3169760968 -0.90293561442 -0.0033496218172 0.85688281904 -0.8942841422 0.50671087873 0.58027335792 -0.74662045414 
1.2447148244 0.086561793 -0.53368571056 0.74418579845 0.10743580644 -0.67443350794 2.8735269592 -0.70854848458 0.40032853697 
2.0285958898 -0.48856239009 -0.25502135046 1.5102442843 -0.46158172436 -0.46161062991 2.4063471216 -0.86236683081 0.020461368499 
3.147543703 -1.165673788 0.53658486605 3.4356187831 -1.6091562624 0.57872476774 3.7792894212 -1.9515577438 0.5330649199 
4.779587852 -3.5435179295 -0.0081799737776 4.9135345354 -4.0644337044 -0.18572270601 4.8567250055 -4.5013239256 -0.52439115082 
4.5738299972 -4.3391807338 -0.95395807796 -2.6088455949 8.3730269233 3.733579635 -3.0847366695 8.5637227455 3.4050671879 
-2.1417369159 7.9988556005 3.715108142 -1.8698632014 7.5823712907 3.4662718473 -1.8028574403 7.1335903511 3.112767424 
-1.6200656437 5.6184609586 1.9295859085 -1.8355938144 5.385635205 1.5094516684 -2.2846046147 5.3192922058 1.2240542262 
-2.2252003902 4.9677469043 0.81419460905 -2.116850294 4.5377717074 0.43915959417 -2.6153045547 4.7648974583 0.52034489547 
-2.0381417757 4.1056287987 0.10298819676 -2.5730035125 4.3312555617 0.1770173358 -1.8695561865 3.2499370074 -0.43111291038 
-1.7266972069 2.8057886427 -0.61737758968 -1.3507439371 2.4135524884 -0.70409516369 -1.7996025779 2.27619318 -0.82434721898 
-1.2101588138 1.8921650429 -0.87250621522 -0.89997746453 1.3714872342 -0.98429829742 -0.59966091372 0.85857797855 -1.030583815 
0.15452441698 0.24831932015 -0.85493928796 -0.348605977 0.36333702857 -0.99007629681 0.97587852392 -0.45038711466 -0.58703107605 
0.37695115522 -0.27434414847 -0.75780647464 2.6854945732 -1.2335439262 0.28922420436 1.9024165361 -0.9583166969 -0.27110440198 
1.380365265 -0.96930910523 -0.4322688546 2.2228533187 -1.3507240319 -0.01623889896 4.0521301435 -2.4259661957 0.48153754249 
4.2525385522 -2.9268566028 0.42962936461 4.4455420484 -3.459988209 0.36252758722 4.6383020358 -4.0316253513 0.26987132883 
4.7942566438 -4.5604813211 0.014971780149 4.4637752117 -4.8491827041 -0.78852993088 -2.1615456654 7.535479539 3.9780970037 
-2.0394494309 7.0901916359 3.6234836216 -2.1557836593 6.6918239442 3.1903213395 -2.0773183391 6.3044850081 2.6916622452 
-1.9944991096 5.925941615 2.2324109233 -2.1923606008 5.64090811 1.7436516311 -2.7003521711 5.5573748598 1.437279108 
-2.7735126318 5.2012845654 0.94519288417 -3.0801376587 4.909537972 0.60283872904 -3.0964284576 4.5158216773 0.2468094627 
-3.0664042637 4.0980069924 -0.059451683102 -2.5173984962 3.8882752225 -0.11995457726 -2.4324338378 3.4355199669 -0.38554390486 
-2.9946222813 3.6367394435 -0.33415036799 -2.3191203361 2.9584856198 -0.61820022735 -2.8794174497 3.1522834204 -0.57825680052 
-2.2698322417 2.4771216536 -0.80771698556 -1.7101530821 1.796542585 -0.96199732337 -1.4469212671 1.3604375534 -1.0452867251 
-1.1701879658 0.88170513404 -1.0930576769 -0.1445465635 -0.2102447432 -0.90038814297 -0.69082528825 -0.095686506143 -1.0215924004 
0.52558054276 -0.73855781957 -0.6502320668 0.89020195274 -1.0801862264 -0.49858040284 2.9124715994 -1.7059738261 0.53286046379 
1.7235351107 -1.4429545452 -0.22785285309 2.4700658893 -1.735314713 0.28248992578 3.5993147916 -2.3543008164 0.76745364859 
3.1589108818 -2.1101055353 0.73807187259 3.816864962 -2.8285656345 0.7687598081 4.7176016456 -4.9845296732 -0.35573960981 
-3.0430175654 8.1316109217 3.9008462714 -3.4044490282 8.1648446851 3.5524243593 -2.5792699227 7.8919983423 4.0734030359 
-2.2599238567 7.0910402588 4.1416424459 -4.8112931948 7.0557806575 1.5119947538 -2.5554510531 6.3601848848 2.9450522904 
-4.9952749125 6.8035039043 1.0318033041 -2.5182956965 6.0968787255 2.4373297434 -5.1735340676 6.5307027494 0.58169462627 
-2.588102853 5.8457715428 1.9592984765 -3.0408468805 6.015274689 2.2298148595 -5.3182156931 6.2121204833 0.16624138723 
-3.1013037354 5.7635149334 1.7245131595 -5.4441762714 5.8680775203 -0.21040006498 -3.2047402622 5.4373420701 1.2313234603 
-3.43287476 5.1191995995 0.85222919936 -5.5554877627 5.4974464076 -0.61010816186 -3.5808577676 4.7226588048 0.43288073813 
-5.6816601402 5.0865637287 -0.98825709225 -3.6338318832 4.3162300584 0.058986228169 -3.551210492 3.8844405978 -0.24463408738 
-3.4416296369 3.3714562664 -0.51640344837 -2.7909183906 2.6425747086 -0.79504221518 -2.2259588403 1.9339986142 -0.97772828776 
-2.7262197414 2.0991190613 -0.97872287487 -2.0435520054 1.4027912913 -1.0927071704 -2.5919317156 1.5336387974 -1.1145367984 
-1.7562068066 0.91386308769 -1.1467801323 -0.92542791946 0.3868447387 -1.0857466794 -1.5098455984 0.42190129832 -1.1521208771 
-1.2827545373 -0.054716587702 -1.1064633188 -0.50496139701 -0.61085483471 -0.91594064448 -0.0042987075553 -0.79568138461 -0.76894761067 
1.2058328304 -1.519462408 -0.33023123178 2.0385438074 -1.84959132 0.06163498615 2.5095014383 -2.1846730657 0.51440168465 
1.5545119498 -1.9542250946 -0.11760628737 3.2824125465 -2.7129096837 0.95561576633 4.0262181917 -3.312550538 0.71719055353 
4.2131405701 -3.8026143008 0.66156530117 4.3507184314 -4.263752713 0.62135741697 4.5343947883 -4.6720536597 0.43865746445 
4.6099152428 -5.1117833538 0.16903084543 4.5210625237 -5.455796768 -0.23857863414 4.3054101463 -5.3582878348 -0.60987750959 
-2.645788339 7.3946936843 4.3517598456 -3.0812017162 7.6651702588 4.2611919852 -3.5143601165 7.7806881129 3.9135688493 
-3.8233250875 7.7897875059 3.4362404197 -4.1725941947 7.6401303659 2.9764235331 -4.4612349036 7.4867942226 2.4855812415 
-4.6338586039 7.2753068972 2.004702528 -2.4083542644 6.7436819422 3.7859778084 -2.6310713769 6.5342714281 3.4471588854 
-3.0576449276 6.3978159297 3.2747929666 -3.0297864845 6.2204964742 2.7260133648 -3.5420666796 5.9252394389 2.0244952309 
-3.5964789813 5.6274651437 1.534211805 -3.8021105232 5.3123736408 1.1423019887 -3.978667828 4.940544159 0.72661343264 
-5.7738581256 5.0017498925 -0.49391326291 -4.1096558847 4.5459566492 0.30957419631 -5.786958059 4.6735904213 -1.2454829699 
-4.1818744942 4.1144965043 -0.076929760334 -5.7968786639 4.2799588871 -1.5839503675 -3.9689061231 3.6401447973 -0.39519844112 
-5.8532276675 3.8472870137 -1.8691905605 -3.3206602581 2.8473907655 -0.74188679697 -3.8643485585 3.0718084767 -0.6604582998 
-5.8771476531 3.4303210391 -2.1673019419 -3.2305379523 2.3029091635 -0.93058090461 -3.1289646791 1.698969762 -1.0957689029 
-2.3306475241 0.97005717068 -1.1952270268 -1.0663739862 -0.51188125778 -1.0246327268 0.36235032653 -1.2444773532 -0.56221955646 
0.67810749467 -1.6503380154 -0.3791643801 1.0382606342 -2.0703235775 -0.21288190969 2.8237254475 -2.5019899136 0.82131271997 
1.9454416708 -2.3076631187 0.22316774746 3.5390621615 -3.2090266702 1.0086327044 3.7717606789 -3.7065777836 0.98704180808 
-4.1332587676 7.3536630022 3.421776533 -2.6950868561 6.8654717866 4.1894740829 -4.7802723418 6.7686218877 1.9811141793 
-4.9897875555 6.5454750867 1.5290298394 -3.5542327297 6.1384399273 2.4830642313 -5.2271907056 6.2967594967 1.0957723743 
-5.4266081836 6.0040426552 0.68902060742 -3.9833454992 5.81433365 1.8211061364 -4.1810265682 5.5253194502 1.4362197733 
-5.566470192 5.66949553 0.30482940704 -4.3582731787 5.187514264 1.0483558833 -5.6809003921 5.3348989043 -0.090464622232 
-4.5308174644 4.8341468831 0.65619034363 -4.6378897441 4.462433685 0.26473243505 -5.8069138335 4.4982468018 -0.62975441076 
-5.8802579726 4.1647817396 -1.0398513622 -4.5448679217 3.7429041666 -0.32192535347 -4.3235099077 3.3038126675 -0.56188755773 
-3.787872265 2.5784656973 -0.83885891836 -5.9336015324 2.9623780238 -2.2224733007 -3.6818054293 2.0566589815 -0.99435709636 
-5.9091382963 2.5465299294 -2.4551126541 -2.8666382445 1.0890523913 -1.2154365011 -3.3877776311 1.1458395773 -1.2123176848 
-2.6255104791 0.51627589152 -1.2730795736 -2.0773779148 0.45066861864 -1.2108342849 -1.8446716857 -0.056723728678 -1.1674954433 
-2.3864939348 -0.025794926563 -1.2394727146 -1.6160584159 -0.5439188354 -1.0873065421 -0.892150037 -0.97853124255 -0.92422877563 
-0.1107289719 -1.3902278818 -0.63929597159 -0.4751164628 -1.1804072979 -0.79236000543 0.49431728776 -2.1842527806 -0.27959256294 
0.12330522933 -1.7973484493 -0.4557953507 2.9755986443 -3.1290419436 1.0760153647 2.196838764 -2.6449043403 0.55263531366 
2.5229290123 -2.8721393242 0.84356593722 1.4052683823 -2.4756407643 0.011842890397 3.9504570169 -4.2157987265 0.9544358337 
4.1603639754 -4.7186439777 0.83521438659 4.3153358472 -5.215938704 0.63020348787 4.42450451 -5.6446197999 0.16966960896 
4.188809312 -5.9097752019 -0.3192663763 -3.5096676735 7.3326330943 4.2069369564 -3.8692577135 7.3314703523 3.8614145744 
-4.4476899724 7.1979603232 2.9241623796 -3.0244107466 6.6140115397 3.8765115093 -4.6292655461 6.9626330211 2.4617443623 
-4.4751328766 6.4546285999 2.3790403522 -3.4980342931 6.327841107 3.0007683034 -3.9968318803 6.3223220149 2.7052201849 
-4.6776646149 6.2650333447 1.9343364597 -4.1205433969 6.1019924347 2.2066625085 -4.485572482 5.8633737266 1.7404470306 
-4.9699619366 6.0076323372 1.5073702396 -5.2095668871 5.7140163349 1.1111591021 -4.7295337813 5.5375947316 1.3465924012 
-5.3762263676 5.3851838212 0.71780914952 -4.9095773092 5.205037065 0.96668544152 -5.0688213501 4.8688601176 0.57629052946 
-5.6365797329 4.7086573349 -0.10174350583 -5.190353536 4.5249238439 0.19071164187 -4.841588526 4.1114948517 -0.069856248843 
-5.1275099739 3.7295603499 -0.41488523585 -4.8301453167 3.2894830026 -0.60229877724 -5.9393494796 3.7439206819 -1.3873157323 
-6.0093660022 3.2998293952 -1.7131781503 -4.4037097515 2.8184803114 -0.76519112126 -4.2114000192 2.2897235017 -0.92661723937 
-3.6377940897 1.5724989342 -1.1157515203 -5.9584840312 2.1125692661 -2.6543490099 -6.0142309986 1.7220763047 -2.8819210826 
-3.166581893 0.62086305321 -1.2923540025 -6.0481823159 1.2814262884 -2.9678945591 -2.9316748484 0.065164209413 -1.3059913491 
-2.1672758293 -0.55267329934 -1.1562050704 -1.3682635835 -1.0266938336 -0.99669799219 -0.48338202188 -1.8199636872 -0.63683088579 
-0.93109941862 -1.5000769039 -0.8416836315 1.7108069587 -2.8179702979 0.31867805499 0.85617333232 -2.6025146928 -0.13900226079 
1.9992120844 -3.1869082749 0.67485427182 1.1692531043 -3.0166723051 0.077744189325 3.2682306027 -3.6299704633 1.1868728023 
3.4909436739 -4.1380810019 1.2141537949 4.2173205909 -5.7608140748 0.58290336524 4.2211581129 -6.1451984174 0.22848527652 
4.0193914831 -6.456604925 -0.1113334574 -3.1162821493 7.0871162426 4.3363748436 -4.2149911922 6.905315625 3.2822999818 
-3.9190873371 6.8425127181 3.7109320568 -3.531168823 6.8225067337 4.0793905754 -3.480934493 6.5292787997 3.5849084202 
-3.9054516434 6.5315803871 3.2209195857 -4.3529999564 6.6730900965 2.842768003 -5.5153189459 5.042110288 0.31331628995 
-5.4061108201 4.2205034535 -0.20935918519 -5.6019449381 3.9381829906 -0.59068732466 -5.7424837092 3.6247074157 -0.93966857295 
-5.3797606228 3.3076634205 -0.77300438138 -5.8327416288 3.1955743808 -1.2048573338 -5.0326395941 2.8522606719 -0.84591536546 
-5.5306237943 2.7891507183 -1.0971681237 -5.954990759 2.8100844449 -1.5810452362 -4.7514021386 2.4228682224 -0.93420120137 
-5.9991029927 2.4415762971 -1.929755802 -4.621734708 1.9365774087 -1.0546536932 -4.1569560977 1.7302603388 -1.0747061049 
-6.0564286344 1.9761094494 -2.1925528422 -4.0230057831 1.2124550855 -1.1982848793 -3.7405310818 0.73711151307 -1.2865848667 
-6.1217800331 1.5235384386 -2.4704376616 -3.4976264678 0.20309348818 -1.3333976864 -3.2714318604 -0.34362522134 -1.3193973335 
-5.9651946189 0.82580721115 -2.9943745471 -2.7044683422 -0.4948992689 -1.2406254471 -1.897017929 -1.0442683681 -1.0669327911 
-1.4662444411 -1.5369239607 -0.960679657 -0.068574277081 -2.2785437899 -0.39731200609 -1.0752095395 -2.0170532459 -0.79774269597 
-0.57685143932 -2.3508628164 -0.54894043504 0.2884420935 -2.7055909601 -0.2556555862 2.4497997522 -3.3004196197 0.96933328889 
1.5000806376 -3.3023385819 0.38204758834 2.7411127785 -3.6558161395 1.1667704764 2.9712587182 -4.1116798699 1.3073955688 
3.7038006458 -4.6465264375 1.1859219044 3.9072309408 -5.1144210578 1.0664653702 3.9686898803 -5.6077275666 0.95223206513 
-5.2377298417 2.2961009342 -1.1173478099 -5.7115407257 2.3450763463 -1.4175205877 -5.0280409611 1.7684661998 -1.1922770872 
-5.857415109 1.8975875751 -1.7286316793 -4.6000657029 1.3436831056 -1.2193448696 -4.3348182517 0.80718969553 -1.3243666934 
-4.0527149669 0.30261662841 -1.3725181127 -3.8159362219 -0.2338760133 -1.36921134 -5.8421916314 0.40229039999 -3.0136305496 
-3.0780692348 -0.86902427141 -1.2600867382 -2.4627764378 -1.0596318278 -1.148559865 -2.022064598 -1.5357100758 -1.0565944714 
-1.6573083979 -2.0187378867 -0.95943284109 -0.26081414163 -2.8160802147 -0.37491630172 0.62496874212 -3.1336400962 -0.1178048751 
0.047256663905 -3.2405310413 -0.26112164284 2.1935355276 -3.7017623612 0.97696284876 1.742706812 -3.6977815423 0.71414287156 
0.91462499237 -3.5538767878 0.10960280603 2.4362137183 -4.1309060725 1.2036407236 1.2867096191 -3.7538431977 0.4238181676 
3.2019993795 -4.5871496942 1.3999818947 3.4094269657 -5.0557718584 1.4262024888 3.5833968942 -5.4836297518 1.3305134222 
3.976036794 -6.1885164113 0.79050607508 4.0609375286 -6.6191232239 0.46195135488 3.9539062583 -6.991270083 0.068810374612 
-5.480814051 1.8128378964 -1.394681252 -5.1531161991 1.294084588 -1.3994876848 -5.6210723221 1.3288372834 -1.6573976551 
-5.9679592628 1.3993330787 -2.012226841 -4.862454676 0.84179621756 -1.4516337443 -5.3592117314 0.83065501729 -1.6955195143 
-6.0364184369 0.99583160776 -2.4691811513 -4.6073336342 0.35185389258 -1.4956002437 -5.8415481564 0.4693370402 -2.4726656283 
-5.7811215949 -0.0050424358799 -2.842841726 -3.6253159737 -0.78944817979 -1.3373371256 -5.7535453536 -0.39237543796 -3.0632180658 
-2.538780945 -1.6748219718 -1.1405285 -2.1961755945 -2.0432569561 -1.070804322 -1.0217676301 -2.5350288604 -0.66852627636 
-1.493090316 -2.5068311077 -0.84037773287 -0.76175438797 -2.9535038155 -0.48241167354 -0.49343663262 -3.399856281 -0.34788641791 
0.33541187806 -3.6351902334 -0.12036194606 1.9042740929 -4.1591311256 0.99088896763 0.94393245966 -4.140831863 0.40175102119 
2.6672280679 -4.5816081015 1.4118732462 0.53517362724 -3.989926541 0.087070059099 4.0552449058 -7.1759213983 0.52613064042 
-5.7798416098 0.87398017278 -2.02319578 -5.1028000854 0.34768813777 -1.7202674555 -5.5282778464 0.36264387852 -2.0383722179 
-4.3624455659 -0.13044942776 -1.4701294944 -4.8866017871 -0.13650838238 -1.6686163164 -5.3147479509 -0.18689710938 -1.9346796454 
-5.6716536336 -0.095333805893 -2.3328948356 -4.1609382382 -0.65040115173 -1.4286222924 -4.650795656 -0.56580863862 -1.5708313083 
-5.7719336455 -0.58252946059 -2.5858648514 -2.9292529909 -1.350468726 -1.2147679504 -3.4497082638 -1.3437597433 -1.3149667377 
-5.7441215468 -0.8816498157 -3.0503918564 -3.0139586201 -1.8837217428 -1.2450359252 -5.6715777276 -1.3337294118 -3.0819592462 
-2.0121596563 -2.5002225003 -0.99153512225 -1.0668780274 -3.4610869239 -0.45167495844 -1.3056164585 -3.0117985156 -0.63940734295 
-1.8211795999 -2.9957786284 -0.82745120386 1.4115285754 -4.1881090341 0.72374107067 -0.19242010358 -3.8237738347 -0.21669288921 
2.12124309 -4.5911284315 1.2610585492 2.9086805851 -5.0442107995 1.6049960964 3.1652896531 -5.5808469311 1.6406758774 
3.6494134496 -5.9314574161 1.2238304602 3.6439889687 -6.4005534398 1.1534415372 3.8006696029 -6.8124325852 0.93223466824 
3.8576717511 -7.3278667582 0.94824824703 3.9266106002 -7.5744408484 0.24999282036 4.0760289992 -7.7512356675 0.72978926633 
-5.084466184 -0.7401254349 -1.7777340812 -5.547413209 -0.63496814174 -2.1361755854 -4.042656712 -1.1463563712 -1.4225575236 
-4.5872980266 -1.0626483261 -1.5755989343 -3.8984041699 -1.6035454977 -1.4524103148 -3.5088201716 -1.931946805 -1.3916955455 
-2.628491404 -2.3415863692 -1.1527709611 -5.5856177548 -1.817754337 -3.1656037418 -3.1814118137 -2.3978386329 -1.3221560607 
-2.3600367122 -2.8887761692 -1.0241026933 -1.6146222896 -3.4988594334 -0.61634955538 -0.80623014686 -3.9011415009 -0.31785278161 
1.5750045792 -4.6107423419 1.0365257232 1.0304142592 -4.5987490121 0.75337821191 0.50218648702 -4.4148902823 0.33880338841 
0.028397895369 -4.2598117654 0.020459994993 2.3439980361 -5.0088311736 1.5531381351 2.6341483256 -5.4421038062 1.8191678358 
3.2832116891 -6.1364139429 1.549486707 3.8841037257 -8.140508586 0.49041123609 -5.3823698466 -1.101176983 -2.0244729646 
-4.4174123331 -1.5695096324 -1.6178636606 -4.9421422071 -1.3842578224 -1.8088412366 -5.696763691 -1.1378150281 -2.5013134311 
-4.0617893376 -2.0509748187 -1.6087244779 -5.5937334777 -1.6949470189 -2.6753817622 -3.7218533648 -2.4332292851 -1.5345599261 
-2.8823091616 -2.8587145244 -1.1992563437 -5.4840699952 -2.2509947812 -3.0092432644 -2.1311217391 -3.4495800662 -0.82910501237 
-1.3838115926 -3.9760797084 -0.44081793171 -0.54076596701 -4.2997432209 -0.14338619796 1.782931515 -5.0172024912 1.3699179961 
1.2388059694 -5.0168848412 1.135011905 0.54262621223 -4.7815302886 0.64107558945 0.070011423733 -4.731758852 0.37118717855 
2.032958783 -5.3914362402 1.7352238961 2.8432840695 -5.9743164364 1.8985962096 2.986954881 -6.5315736376 1.8002773358 
3.3554218704 -6.7212238514 1.4211956933 3.4937762727 -7.2138752694 1.2912913827 3.7450180254 -7.7584895316 1.185119425 
4.0048204935 -8.240246242 0.97266364056 -5.3831654201 -1.5534140809 -2.2118798488 -4.5815565825 -2.0092263612 -1.8205832194 
-5.0091043008 -1.8851978566 -2.0351624041 -5.3326978902 -2.0758055023 -2.4206573914 -4.3246600894 -2.4810823503 -1.7942499562 
-4.8771027578 -2.4316859479 -2.0937155026 -3.4234053105 -2.8794515079 -1.4175154477 -3.9734161713 -2.8826997368 -1.6602952058 
-5.2713557398 -2.5245686037 -2.5186172031 -2.6416719911 -3.3757612014 -1.0483724463 -3.1539593554 -3.3526700256 -1.2711696007 
-5.3478505486 -2.7216466281 -3.0515166214 -1.9031618228 -4.00159818 -0.62734608476 -2.4374647374 -3.9072694258 -0.87993767496 
-1.1603056054 -4.4125028553 -0.27669816371 -5.1925808014 -3.2480841741 -2.9978984355 0.74183511404 -5.0971488088 0.9655343613 
-0.38466073609 -4.7111364098 0.14708553969 -0.88372531763 -4.7336883024 -0.050119644256 2.3172817804 -5.799891283 2.0344057332 
1.4638452268 -5.4146263113 1.5284967907 3.0717986213 -7.1385875753 1.6886927951 3.2862116473 -7.6559378796 1.5500199009 
3.5792251512 -8.1495687208 1.4277779946 3.7492703008 -8.6496199081 0.8074291303 -4.5399236652 -2.9333189427 -1.9251690405 
-4.9611060903 -2.9634712499 -2.2138657022 -3.6789658305 -3.3397477046 -1.5152575251 -5.2284949291 -2.9819107118 -2.6136077664 
-2.9334744091 -3.8691663939 -1.1247518158 -4.2244856267 -3.3312698783 -1.7639284366 -3.4282780839 -3.8311423889 -1.3720018364 
-1.6782503964 -4.5570246459 -0.43217995203 -2.2590740201 -4.4031089655 -0.7204478672 -5.0628055836 -3.7326365994 -2.9270563668 
0.19269336572 -5.1482244043 0.74285578058 0.94365601077 -5.4708464673 1.3192369389 -0.30629170949 -5.1407174518 0.48284706555 
-0.80562459268 -5.1432534234 0.21213280506 -4.9305612997 -4.1922596253 -2.8726989873 1.7298591013 -5.7782050909 1.9199165257 
2.5381530282 -6.3697283633 2.167542829 2.7134265743 -6.9137493666 2.0476333413 3.7352233292 -8.6473347918 1.2987237944 
-3.9350444946 -3.8008556736 -1.6075525395 -4.7498988996 -3.4819790266 -2.0679649077 -5.0876757247 -3.4584299527 -2.4744816473 
-4.411017814 -3.791790025 -1.8468932572 -2.7692227819 -4.4073889351 -0.97168443624 -3.2211270752 -4.3556423694 -1.2161221023 
-3.7322474253 -4.2860684033 -1.4749916717 -1.3373155401 -5.0291021095 -0.1326917738 -2.1442267426 -4.8556526766 -0.58521364897 
0.40975857773 -5.5193110171 1.0869649158 -1.8318948136 -5.1734683625 -0.35830797706 2.0275837429 -6.178170316 2.2342834065 
1.1710685795 -5.8512885643 1.695997561 0.65778486271 -5.9108904946 1.436065171 -4.7742198777 -4.6275115443 -2.8261374501 
2.8368816335 -7.5860413843 1.9510825381 3.1224421654 -8.0975272635 1.8130153414 3.380782404 -8.5497206985 1.7096843815 
3.5925040539 -9.1475409253 1.1398303071 3.504238917 -9.0602447078 1.6416111465 -4.9515215162 -3.9435072871 -2.3827979852 
-4.218561333 -4.2984939373 -1.7170037772 -4.6425324041 -4.1845595862 -2.0148236615 -2.6582649921 -4.8983370815 -0.81842939104 
-0.12409935127 -5.5577854979 0.82140161616 -0.63955380049 -5.5666861726 0.5204191226 -1.1402587889 -5.5437813377 0.18794213873 
-2.3995119078 -5.3402560966 -0.60463788901 -3.1602065478 -4.9658859052 -1.0591163184 -3.5587751425 -4.7427257611 -1.3188563853 
1.4292461728 -6.1945337137 2.0436655226 0.12865911957 -5.9549367407 1.1416828124 -1.6008568845 -5.5894561715 -0.1002011447 
2.2313093786 -6.7894675088 2.3937220734 1.7669273442 -6.5620404492 2.34610018 -4.5809610565 -5.0289000361 -2.7760763399 
2.4613322845 -7.2796438332 2.2575528895 -4.3807545405 -5.4088642198 -2.6378123344 2.7765396687 -8.1951559597 2.1588650625 
-4.0351281326 -4.7891315979 -1.5753729872 -4.4701200801 -4.7720288965 -1.9046315672 -4.8262185992 -4.4690345151 -2.3464232417 
-4.6554994051 -4.9480869935 -2.3292559943 0.88205878962 -6.3378717175 1.7816679593 -0.40862123495 -5.9867038191 0.822027854 
-2.1100883029 -5.7192906601 -0.37313667565 -2.9283923391 -5.4354681922 -0.83703166045 -3.7065131467 -5.2184113832 -1.3264575765 
0.37724989715 -6.3543777987 1.4495059055 -0.15775398222 -6.3812963157 1.1065433036 -0.90942067972 -6.0127947745 0.50035342325 
-1.3786110811 -6.0531183691 0.1859057304 -4.1936910979 -5.7960004881 -2.4988504113 2.4299799097 -7.7794489 2.3388828932 
-3.9549325027 -6.1998094188 -2.3582082364 3.0748795981 -8.7400892703 2.0610143086 3.2289806276 -9.3516800766 1.9702953179 
3.3338947382 -9.5678823845 1.4828316134 -3.4127756369 -5.5675756623 -1.0933082534 -4.1520393801 -5.2970041265 -1.6718919316 
-4.410187328 -5.3431897282 -2.1074164705 1.2925898984 -6.6664309475 2.1804327289 0.86507088183 -6.8322560706 1.9744371801 
-0.65715738365 -6.4503065332 0.80192414222 -1.8460965697 -6.1224700907 -0.11458547116 -2.6458159963 -5.8707632594 -0.62695290529 
1.6662938627 -7.0515547343 2.4649683554 0.45074032484 -6.8390406345 1.675131893 0.047107061369 -6.7710665269 1.3662029589 
-1.1338644604 -6.4995364913 0.48516615898 -2.3491203075 -6.2577582526 -0.40084653225 -4.1770098289 -5.7943080665 -1.955436315 
2.021946465 -7.4379422144 2.5155365741 2.3289986016 -8.2216351612 2.5184999445 -3.7174219349 -6.5905487808 -2.1861127259 
2.6227468708 -8.6645444236 2.4293938959 -3.1425350769 -6.0007135954 -0.90024483108 -3.8744877419 -5.739933678 -1.4542954818 
1.1149735951 -7.1798461666 2.288497992 -0.38686473627 -6.8743606017 1.1171595118 -1.5959668671 -6.5697733805 0.16204657153 
-3.5934167761 -6.1371467836 -1.2518129984 1.4803818123 -7.5570997119 2.5936345333 0.55746292312 -7.2891682356 1.9404180087 
0.011821306746 -7.2490088801 1.5132233882 -0.86509958796 -6.9283293833 0.81671567873 -2.0542878567 -6.6444474565 -0.14986230803 
-2.8459107499 -6.4290781937 -0.71045165943 -3.920982412 -6.2044564817 -1.7737678706 1.8653291278 -7.9878592362 2.6822611871 
-3.6355376505 -6.5869155817 -1.6038451741 -3.4219468752 -6.970901142 -2.0041031342 2.8491263254 -9.1616784322 2.3540214166 
-3.1121736313 -7.3592526549 -1.8511786615 2.9373658731 -9.6918832862 2.2378716357 2.971271965 -9.9197368452 1.8083927935 
-1.3282755912 -6.9947585119 0.47929745148 -2.5357481448 -6.7994705822 -0.47037990159 -3.2704199771 -6.5527793988 -1.093597715 
0.15047804185 -7.6902928441 1.7714711746 -0.55453641983 -7.3284884463 1.1600731281 -1.065170046 -7.3994824861 0.80723012094 
-1.7718356454 -7.0912750991 0.12907070776 -2.9744852774 -6.985293155 -0.8766264779 -2.1986851463 -7.1571189185 -0.20391887107 
-3.3249367835 -6.96516736 -1.4426836728 -3.0847838178 -7.3470879217 -1.2918142586 2.0763681 -8.5892383347 2.7293294171 
2.3563571451 -9.0779528513 2.6857569383 -2.8104702176 -7.7137496897 -1.5805990557 -1.8168053262 -8.4530662884 -0.56494395478 
-2.1440727676 -8.1904505519 -0.87205762751 -2.4903539535 -7.965899269 -1.2404984043 2.5382292266 -10.300671032 2.0254019652 
0.95739244534 -7.6414416878 2.3907659678 1.2709843796 -8.0564391621 2.6649962955 0.54056782086 -7.7586957051 2.118466916 
-0.31195900134 -7.7145779951 1.4306047008 -1.5138980394 -7.4975775661 0.4232596733 1.5553441485 -8.502957703 2.7602336936 
-2.6462354991 -7.3219452588 -0.57972056412 -1.9147887023 -7.6260087052 0.034880257281 -2.2982159076 -7.6294398558 -0.32771586227 
-2.8475108556 -7.6226802462 -0.97837358547 2.5589820212 -9.5797503842 2.6228824527 -2.4961540145 -7.8842131798 -0.69997624438 
2.6277147151 -10.066503063 2.428180675 -1.4558623911 -8.750750469 -0.30868175579 0.78126528105 -8.1648041664 2.4032150244 
-0.80319971275 -7.7872369903 1.0857494076 0.33209904024 -8.2145740212 2.0465951291 -0.08999100242 -8.1715315227 1.6753667079 
-1.2563992411 -7.878118043 0.70158630907 -0.53325121001 -8.2140569603 1.3238151282 -0.95919916311 -8.2724730857 0.96400863917 
-1.667401757 -8.0150644378 0.26835234846 -1.349963365 -8.348956699 0.53640458688 -2.0800538368 -8.0904033025 -0.28514879624 
1.7884017024 -9.0287911762 2.7851684566 -1.7444066425 -8.4077675458 -0.025289890713 2.0411561266 -9.5347951447 2.7929508885 
2.2411696356 -10.008397832 2.7479827047 -1.1233831643 -9.0733502816 -0.034937179361 2.1713568159 -10.44842563 2.5017379928 
2.0000757507 -10.577763715 2.1111950965 1.0495529325 -8.6181743368 2.5599687763 0.61725218798 -8.6812765186 2.259200935 
0.15441647593 -8.6586566498 1.8694204037 1.256156716 -9.0786959468 2.6172960078 0.8378231852 -9.2709985918 2.3147054599 
-0.25515753117 -8.6724110046 1.5167016089 -0.67320558618 -8.7369972735 1.1500419651 1.5424077505 -9.5147763621 2.7036680642 
0.43877539956 -9.0878370808 2.0280843873 -1.0490439103 -8.7405892934 0.77195155709 -1.3839965644 -8.7160314005 0.23353914274 
-1.0639020031 -9.0898081453 0.47690315077 -0.78897279841 -9.4120127056 0.27307641598 -0.48405500226 -9.6424973509 0.58518057223 
-0.12766613972 -9.8774851079 0.86179604801 0.047566147908 -9.1586526573 1.6677494182 -0.34371044837 -9.154336547 1.3118677157 
1.1536293587 -9.722706547 2.465797831 0.45076570001 -9.5798487178 1.9000428106 -0.70894061405 -9.23459966 0.87456613652 
1.6665057662 -10.04243475 2.6679577335 0.79021093115 -9.9029606824 2.1059889949 0.081531598557 -9.65190077 1.5176451484 
-0.3064776753 -9.5913603382 1.1296379208 0.19579974862 -10.01693118 1.2146439366 0.94015626494 -10.346730922 1.8091282512 
0.52653618499 -10.098960042 1.5876695761 1.390201791 -10.546592929 2.0116725087 1.162443966 -10.282300592 2.3433786813 
1.6194424874 -10.501499712 2.4486824029 
POLYGONS 1892 5673
OFFSETS vtktypeint64
0 3 6 9 12 15 18 21 24 
27 30 33 36 39 42 45 48 51 
54 57 60 63 66 69 72 75 78 
81 84 87 90 93 96 99 102 105 
108 111 114 117 120 123 126 129 132 
135 138 141 144 147 150 153 156 159 
162 165 168 171 174 177 180 183 186 
189 192 195 198 201 204 207 210 213 
216 219 222 225 228 231 234 237 240 
243 246 249 252 255 258 261 264 267 
270 273 276 279 282 285 288 291 294 
297 300 303 306 309 312 315 318 321 
324 327 330 333 336 339 342 345 348 
351 354 357 360 363 366 369 372 375 
378 381 384 387 390 393 396 399 402 
405 408 411 414 417 420 423 426 429 
432 435 438 441 444 447 450 453 456 
459 462 465 468 471 474 477 480 483 
486 489 492 495 498 501 504 507 510 
513 516 519 522 525 528 531 534 537 
540 543 546 549 552 555 558 561 564 
567 570 573 576 579 582 585 588 591 
594 597 600 603 606 609 612 615 618 
621 624 627 630 633 636 639 642 645 
648 651 654 657 660 663 666 669 672 
675 678 681 684 687 690 693 696 699 
702 705 708 711 714 717 720 723 726 
729 732 735 738 741 744 747 750 753 
756 759 762 765 768 771 774 777 780 
783 786 789 792 795 798 801 804 807 
810 813 816 819 822 825 828 831 834 
837 840 843 846 849 852 855 858 861 
864 867 870 873 876 879 882 885 888 
891 894 897 900 903 906 909 912 915 
918 921 924 927 930 933 936 939 942 
945 948 951 954 957 960 963 966 969 
972 975 978 981 984 987 990 993 996 
999 1002 1005 1008 1011 1014 1017 1020 1023 
1026 1029 1032 1035 1038 1041 1044 1047 1050 
1053 1056 1059 1062 1065 1068 1071 1074 1077 
1080 1083 1086 1089 1092 1095 1098 1101 1104 
1107 1110 1113 1116 1119 1122 1125 1128 1131 
1134 1137 1140 1143 1146 1149 1152 1155 1158 
1161 1164 1167 1170 1173 1176 1179 1182 1185 
1188 1191 1194 1197 1200 1203 1206 1209 1212 
1215 1218 1221 1224 1227 1230 1233 1236 1239 
1242 1245 1248 1251 1254 1257 1260 1263 1266 
1269 1272 1275 1278 1281 1284 1287 1290 1293 
1296 1299 1302 1305 1308 1311 1314 1317 1320 
1323 1326 1329 1332 1335 1338 1341 1344 1347 
1350 1353 1356 1359 1362 1365 1368 1371 1374 
1377 1380 1383 1386 1389 1392 1395 1398 1401 
1404 1407 1410 1413 1416 1419 1422 1425 1428 
1431 1434 1437 1440 1443 1446 1449 1452 1455 
1458 1461 1464 1467 1470 1473 1476 1479 1482 
1485 1488 1491 1494 1497 1500 1503 1506 1509 
1512 1515 1518 1521 1524 1527 1530 1533 1536 
1539 1542 1545 1548 1551 1554 1557 1560 1563 
1566 1569 1572 1575 1578 1581 1584 1587 1590 
1593 1596 1599 1602 1605 1608 1611 1614 1617 
1620 1623 1626 1629 1632 1635 1638 1641 1644 
1647 1650 1653 1656 1659 1662 1665 1668 1671 
1674 1677 1680 1683 1686 1689 1692 1695 1698 
1701 1704 1707 1710 1713 1716 1719 1722 1725 
1728 1731 1734 1737 1740 1743 1746 1749 1752 
1755 1758 1761 1764 1767 1770 1773 1776 1779 
1782 1785 1788 1791 1794 1797 1800 1803 1806 
1809 1812 1815 1818 1821 1824 1827 1830 1833 
1836 1839 1842 1845 1848 1851 1854 1857 1860 
1863 1866 1869 1872 1875 1878 1881 1884 1887 
1890 1893 1896 1899 1902 1905 1908 1911 1914 
1917 1920 1923 1926 1929 1932 1935 1938 1941 
1944 1947 1950 1953 1956 1959 1962 1965 1968 
1971 1974 1977 1980 1983 1986 1989 1992 1995 
1998 2001 2004 2007 2010 2013 2016 2019 2022 
2025 2028 2031 2034 2037 2040 2043 2046 2049 
2052 2055 2058 2061 2064 2067 2070 2073 2076 
2079 2082 2085 2088 2091 2094 2097 2100 2103 
2106 2109 2112 2115 2118 2121 2124 2127 2130 
2133 2136 2139 2142 2145 2148 2151 2154 2157 
2160 2163 2166 2169 2172 2175 2178 2181 2184 
2187 2190 2193 2196 2199 2202 2205 2208 2211 
2214 2217 2220 2223 2226 2229 2232 2235 2238 
2241 2244 2247 2250 2253 2256 2259 2262 2265 
2268 2271 2274 2277 2280 2283 2286 2289 2292 
2295 2298 2301 2304 2307 2310 2313 2316 2319 
2322 2325 2328 2331 2334 2337 2340 2343 2346 
2349 2352 2355 2358 2361 2364 2367 2370 2373 
2376 2379 2382 2385 2388 2391 2394 2397 2400 
2403 2406 2409 2412 2415 2418 2421 2424 2427 
2430 2433 2436 2439 2442 2445 2448 2451 2454 
2457 2460 2463 2466 2469 2472 2475 2478 2481 
2484 2487 2490 2493 2496 2499 2502 2505 2508 
2511 2514 2517 2520 2523 2526 2529 2532 2535 
2538 2541 2544 2547 2550 2553 2556 2559 2562 
2565 2568 2571 2574 2577 2580 2583 2586 2589 
2592 2595 2598 2601 2604 2607 2610 2613 2616 
2619 2622 2625 2628 2631 2634 2637 2640 2643 
2646 2649 2652 2655 2658 2661 2664 2667 2670 
2673 2676 2679 2682 2685 2688 2691 2694 2697 
2700 2703 2706 2709 2712 2715 2718 2721 2724 
2727 2730 2733 2736 2739 2742 2745 2748 2751 
2754 2757 2760 2763 2766 2769 2772 2775 2778 
2781 2784 2787 2790 2793 2796 2799 2802 2805 
2808 2811 2814 2817 2820 2823 2826 2829 2832 
2835 2838 2841 2844 2847 2850 2853 2856 2859 
2862 2865 2868 2871 2874 2877 2880 2883 2886 
2889 2892 2895 2898 2901 2904 2907 2910 2913 
2916 2919 2922 2925 2928 2931 2934 2937 2940 
2943 2946 2949 2952 2955 2958 2961 2964 2967 
2970 2973 2976 2979 2982 2985 2988 2991 2994 
2997 3000 3003 3006 3009 3012 3015 3018 3021 
3024 3027 3030 3033 3036 3039 3042 3045 3048 
3051 3054 3057 3060 3063 3066 3069 3072 3075 
3078 3081 3084 3087 3090 3093 3096 3099 3102 
3105 3108 3111 3114 3117 3120 3123 3126 3129 
3132 3135 3138 3141 3144 3147 3150 3153 3156 
3159 3162 3165 3168 3171 3174 3177 3180 3183 
3186 3189 3192 3195 3198 3201 3204 3207 3210 
3213 3216 3219 3222 3225 3228 3231 3234 3237 
3240 3243 3246 3249 3252 3255 3258 3261 3264 
3267 3270 3273 3276 3279 3282 3285 3288 3291 
3294 3297 3300 3303 3306 3309 3312 3315 3318 
3321 3324 3327 3330 3333 3336 3339 3342 3345 
3348 3351 3354 3357 3360 3363 3366 3369 3372 
3375 3378 3381 3384 3387 3390 3393 3396 3399 
3402 3405 3408 3411 3414 3417 3420 3423 3426 
3429 3432 3435 3438 3441 3444 3447 3450 3453 
3456 3459 3462 3465 3468 3471 3474 3477 3480 
3483 3486 3489 3492 3495 3498 3501 3504 3507 
3510 3513 3516 3519 3522 3525 3528 3531 3534 
3537 3540 3543 3546 3549 3552 3555 3558 3561 
3564 3567 3570 3573 3576 3579 3582 3585 3588 
3591 3594 3597 3600 3603 3606 3609 3612 3615 
3618 3621 3624 3627 3630 3633 3636 3639 3642 
3645 3648 3651 3654 3657 3660 3663 3666 3669 
3672 3675 3678 3681 3684 3687 3690 3693 3696 
3699 3702 3705 3708 3711 3714 3717 3720 3723 
3726 3729 3732 3735 3738 3741 3744 3747 3750 
3753 3756 3759 3762 3765 3768 3771 3774 3777 
3780 3783 3786 3789 3792 3795 3798 3801 3804 
3807 3810 3813 3816 3819 3822 3825 3828 3831 
3834 3837 3840 3843 3846 3849 3852 3855 3858 
3861 3864 3867 3870 3873 3876 3879 3882 3885 
3888 3891 3894 3897 3900 3903 3906 3909 3912 
3915 3918 3921 3924 3927 3930 3933 3936 3939 
3942 3945 3948 3951 3954 3957 3960 3963 3966 
3969 3972 3975 3978 3981 3984 3987 3990 3993 
3996 3999 4002 4005 4008 4011 4014 4017 4020 
4023 4026 4029 4032 4035 4038 4041 4044 4047 
4050 4053 4056 4059 4062 4065 4068 4071 4074 
4077 4080 4083 4086 4089 4092 4095 4098 4101 
4104 4107 4110 4113 4116 4119 4122 4125 4128 
4131 4134 4137 4140 4143 4146 4149 4152 4155 
4158 4161 4164 4167 4170 4173 4176 4179 4182 
4185 4188 4191 4194 4197 4200 4203 4206 4209 
4212 4215 4218 4221 4224 4227 4230 4233 4236 
4239 4242 4245 4248 4251 4254 4257 4260 4263 
4266 4269 4272 4275 4278 4281 4284 4287 4290 
4293 4296 4299 4302 4305 4308 4311 4314 4317 
4320 4323 4326 4329 4332 4335 4338 4341 4344 
4347 4350 4353 4356 4359 4362 4365 4368 4371 
4374 4377 4380 4383 4386 4389 4392 4395 4398 
4401 4404 4407 4410 4413 4416 4419 4422 4425 
4428 4431 4434 4437 4440 4443 4446 4449 4452 
4455 4458 4461 4464 4467 4470 4473 4476 4479 
4482 4485 4488 4491 4494 4497 4500 4503 4506 
4509 4512 4515 4518 4521 4524 4527 4530 4533 
4536 4539 4542 4545 4548 4551 4554 4557 4560 
4563 4566 4569 4572 4575 4578 4581 4584 4587 
4590 4593 4596 4599 4602 4605 4608 4611 4614 
4617 4620 4623 4626 4629 4632 4635 4638 4641 
4644 4647 4650 4653 4656 4659 4662 4665 4668 
4671 4674 4677 4680 4683 4686 4689 4692 4695 
4698 4701 4704 4707 4710 4713 4716 4719 4722 
4725 4728 4731 4734 4737 4740 4743 4746 4749 
4752 4755 4758 4761 4764 4767 4770 4773 4776 
4779 4782 4785 4788 4791 4794 4797 4800 4803 
4806 4809 4812 4815 4818 4821 4824 4827 4830 
4833 4836 4839 4842 4845 4848 4851 4854 4857 
4860 4863 4866 4869 4872 4875 4878 4881 4884 
4887 4890 4893 4896 4899 4902 4905 4908 4911 
4914 4917 4920 4923 4926 4929 4932 4935 4938 
4941 4944 4947 4950 4953 4956 4959 4962 4965 
4968 4971 4974 4977 4980 4983 4986 4989 4992 
4995 4998 5001 5004 5007 5010 5013 5016 5019 
5022 5025 5028 5031 5034 5037 5040 5043 5046 
5049 5052 5055 5058 5061 5064 5067 5070 5073 
5076 5079 5082 5085 5088 5091 5094 5097 5100 
5103 5106 5109 5112 5115 5118 5121 5124 5127 
5130 5133 5136 5139 5142 5145 5148 5151 5154 
5157 5160 5163 5166 5169 5172 5175 5178 5181 
5184 5187 5190 5193 5196 5199 5202 5205 5208 
5211 5214 5217 5220 5223 5226 5229 5232 5235 
5238 5241 5244 5247 5250 5253 5256 5259 5262 
5265 5268 5271 5274 5277 5280 5283 5286 5289 
5292 5295 5298 5301 5304 5307 5310 5313 5316 
5319 5322 5325 5328 5331 5334 5337 5340 5343 
5346 5349 5352 5355 5358 5361 5364 5367 5370 
5373 5376 5379 5382 5385 5388 5391 5394 5397 
5400 5403 5406 5409 5412 5415 5418 5421 5424 
5427 5430 5433 5436 5439 5442 5445 5448 5451 
5454 5457 5460 5463 5466 5469 5472 5475 5478 
5481 5484 5487 5490 5493 5496 5499 5502 5505 
5508 5511 5514 5517 5520 5523 5526 5529 5532 
5535 5538 5541 5544 5547 5550 5553 5556 5559 
5562 5565 5568 5571 5574 5577 5580 5583 5586 
5589 5592 5595 5598 5601 5604 5607 5610 5613 
5616 5619 5622 5625 5628 5631 5634 5637 5640 
5643 5646 5649 5652 5655 5658 5661 5664 5667 
5670 5673 
CONNECTIVITY vtktypeint64
0 10 12 16 10 0 0 12 15 
0 15 18 19 16 0 0 18 19 
301 270 256 256 271 301 545 515 512 
512 544 545 768 793 813 813 795 768 
1 2 3 4 2 1 1 3 5 
6 4 1 1 5 7 9 6 1 
1 7 9 277 258 257 257 276 277 
513 516 594 594 593 513 769 795 799 
799 798 769 33 3 2 2 4 29 
2 29 30 2 30 33 258 277 304 
304 278 258 514 515 546 546 517 514 
770 771 801 801 774 770 34 5 3 
3 33 51 51 34 3 259 279 306 
515 545 595 595 546 515 771 797 817 
817 801 771 32 29 4 260 261 280 
260 280 281 516 547 594 772 773 816 
816 797 772 8 7 5 34 8 5 
307 280 261 548 518 517 517 546 548 
773 798 818 818 816 773 310 263 262 
262 282 309 262 309 310 518 548 597 
551 550 518 597 551 518 821 800 774 
774 801 821 7 8 13 14 9 7 
7 13 14 283 264 263 310 283 263 
519 550 552 519 552 553 822 776 775 
775 800 822 11 10 8 8 10 13 
35 11 8 8 34 35 264 283 311 
520 556 604 604 557 520 802 777 776 
823 802 776 776 822 823 265 284 285 
561 522 521 521 558 561 802 778 777 
10 11 12 16 13 10 266 287 313 
289 288 266 313 289 266 560 523 522 
561 560 522 803 779 778 778 802 803 
36 12 11 11 35 36 267 290 322 
322 291 267 523 560 608 608 565 523 
804 780 779 779 803 804 37 15 12 
12 36 37 297 269 268 268 293 297 
564 562 524 524 563 564 780 804 824 
824 805 780 17 14 13 13 16 17 
269 297 299 607 563 525 525 565 607 
784 783 781 336 272 270 270 301 336 
611 527 526 526 562 611 782 783 786 
786 785 782 38 18 15 15 37 38 
302 301 271 612 566 527 527 611 612 
783 784 786 20 17 16 16 19 20 
340 273 272 272 336 340 618 572 528 
528 573 617 528 617 618 789 786 784 
342 274 273 273 340 342 616 574 529 
785 786 806 806 788 785 22 19 18 
39 22 18 18 38 39 303 275 274 
342 303 274 530 531 579 576 575 530 
579 576 530 786 789 807 807 806 786 
21 20 19 22 21 19 343 276 275 
275 303 343 531 533 582 582 579 531 
787 788 808 808 791 787 344 277 276 
276 343 344 532 577 578 532 578 580 
788 806 811 811 808 788 21 22 40 
345 304 277 277 344 345 533 534 583 
583 582 533 789 792 809 809 807 789 
22 39 52 52 40 22 305 279 278 
278 304 305 534 537 585 585 583 534 
790 791 810 810 794 790 25 24 23 
23 24 47 27 25 23 28 27 23 
50 28 23 23 47 50 279 305 346 
346 306 279 581 536 535 535 580 581 
791 808 812 812 810 791 48 47 24 
347 281 280 280 307 347 584 538 536 
536 581 584 792 796 809 25 27 31 
309 282 281 281 308 309 347 308 281 
537 539 623 623 585 537 793 794 814 
814 813 793 26 27 28 29 27 26 
26 28 63 30 29 26 64 30 26 
26 63 64 586 540 538 538 584 586 
794 810 829 829 814 794 27 29 32 
32 31 27 283 310 386 348 311 283 
386 348 283 539 588 623 832 799 795 
795 813 832 28 50 63 350 285 284 
284 311 349 284 349 350 587 541 540 
540 586 587 827 809 796 796 815 827 
351 286 285 285 350 351 541 587 589 
541 589 590 797 816 834 834 817 797 
65 33 30 30 64 65 312 287 286 
351 312 286 542 543 625 624 588 542 
625 624 542 798 799 819 819 818 798 
287 312 314 314 313 287 543 593 626 
626 625 543 832 819 799 288 289 316 
316 290 288 592 545 544 544 590 591 
544 591 592 800 821 836 836 822 800 
81 51 33 33 65 81 289 313 315 
289 315 317 317 316 289 545 592 595 
801 817 837 837 821 801 66 35 34 
34 51 66 290 316 319 290 319 322 
596 548 546 546 595 596 840 803 802 
802 823 840 67 36 35 35 66 67 
325 292 291 291 322 325 547 549 633 
631 594 547 633 631 547 841 804 803 
803 840 841 68 37 36 36 67 68 
294 293 292 325 294 292 548 596 635 
635 597 548 842 824 804 804 841 842 
69 38 37 37 68 69 293 294 295 
293 295 297 549 598 636 636 633 549 
805 824 843 70 39 38 38 69 70 
296 295 294 327 296 294 294 325 327 
550 551 600 600 552 550 806 807 826 
826 811 806 71 52 39 39 70 71 
295 296 332 298 297 295 332 298 295 
551 597 637 638 600 551 551 637 638 
807 809 827 827 826 807 40 52 53 
296 327 329 296 329 331 296 331 332 
555 553 552 602 555 552 552 600 602 
808 811 825 825 812 808 43 42 41 
41 42 45 57 43 41 41 45 61 
41 55 57 61 55 41 297 298 299 
555 554 553 42 43 62 42 44 46 
62 44 42 46 45 42 334 299 298 
298 332 335 335 334 298 554 555 603 
603 556 554 810 812 830 830 829 810 
43 57 60 43 60 77 77 62 43 
334 300 299 555 602 643 643 603 555 
828 825 811 811 826 828 48 46 44 
44 47 48 49 47 44 62 49 44 
338 302 300 300 334 339 339 338 300 
556 603 644 644 604 556 812 825 831 
831 830 812 301 302 337 337 336 301 
606 559 557 557 604 606 813 814 833 
835 832 813 813 833 835 341 337 302 
302 338 341 558 559 605 605 561 558 
814 829 848 848 833 814 47 49 50 
303 342 376 377 343 303 303 376 377 
606 605 559 815 820 845 845 827 815 
378 305 304 304 345 378 560 561 646 
649 608 560 560 646 649 816 818 849 
849 834 816 79 50 49 49 62 78 
49 78 79 379 346 305 305 378 379 
561 605 646 817 834 838 838 837 817 
79 63 50 306 346 381 562 564 650 
652 611 562 562 650 652 818 819 850 
850 849 818 82 66 51 51 81 82 
383 347 307 609 564 563 563 607 609 
819 832 851 851 850 819 72 53 52 
52 71 72 384 309 308 308 347 382 
308 382 384 564 609 650 820 839 866 
866 845 820 53 72 86 385 310 309 
309 384 385 610 607 565 565 608 610 
855 836 821 821 837 855 54 55 56 
57 55 54 54 56 73 58 57 54 
75 58 54 54 73 75 310 385 386 
654 567 566 566 612 654 858 823 822 
822 836 858 59 56 55 61 59 55 
311 348 349 655 568 567 567 654 655 
861 840 823 823 858 861 56 59 76 
74 73 56 76 74 56 353 314 312 
312 351 352 312 352 353 613 569 568 
656 613 568 568 655 656 824 842 844 
844 843 824 57 58 60 313 314 315 
614 570 569 569 613 614 825 828 846 
846 831 825 107 60 58 58 75 91 
58 91 107 356 315 314 314 353 356 
570 614 615 826 827 845 847 828 826 
826 845 847 318 317 315 356 318 315 
571 572 619 619 616 571 107 77 60 
316 317 320 320 319 316 572 618 619 
847 846 828 317 318 321 321 320 317 
573 575 622 622 617 573 829 830 853 
853 848 829 62 77 78 358 321 318 
318 356 357 318 357 358 574 616 619 
574 619 620 830 831 854 854 853 830 
80 64 63 63 79 80 319 320 323 
326 322 319 319 323 326 575 576 622 
831 846 864 864 854 831 93 65 64 
64 80 93 320 321 324 324 323 320 
580 578 576 576 578 622 576 579 580 
832 835 857 857 851 832 94 81 65 
65 93 94 360 324 321 321 358 360 
621 578 577 577 620 621 852 835 833 
833 848 852 83 67 66 66 82 83 
326 325 322 578 621 622 856 838 834 
834 849 856 84 68 67 67 83 96 
96 84 67 323 324 362 328 326 323 
362 328 323 581 580 579 582 581 579 
835 852 870 870 857 835 85 69 68 
68 84 85 324 360 361 324 361 362 
836 855 859 859 858 836 97 70 69 
69 85 97 325 326 327 581 582 584 
837 838 868 868 855 837 98 71 70 
70 97 98 328 327 326 582 583 584 
838 856 873 873 868 838 99 72 71 
71 98 99 327 328 329 586 584 583 
583 585 586 839 860 867 867 866 839 
100 86 72 72 99 100 363 329 328 
328 362 363 863 841 840 840 861 878 
878 863 840 73 74 88 87 75 73 
88 87 73 329 330 331 363 330 329 
587 586 585 623 587 585 880 842 841 
841 863 880 74 76 89 90 88 74 
74 89 90 366 331 330 330 363 365 
330 365 366 880 844 842 75 87 105 
106 91 75 75 105 106 333 332 331 
367 333 331 331 366 367 623 589 587 
843 844 882 332 333 335 588 589 623 
624 589 588 844 880 881 844 881 882 
92 78 77 108 92 77 77 107 108 
368 335 333 333 367 368 624 590 589 
866 847 845 109 79 78 78 92 109 
334 335 369 369 339 334 624 591 590 
846 847 865 865 864 846 110 80 79 
79 109 110 335 368 370 370 369 335 
627 592 591 591 624 625 591 625 627 
866 865 847 111 93 80 80 110 111 
336 337 371 371 340 336 629 595 592 
592 627 629 871 852 848 848 853 871 
95 82 81 81 94 95 337 341 371 
593 594 628 628 626 593 849 850 869 
869 856 849 113 83 82 82 95 113 
338 339 372 372 341 338 631 628 594 
850 851 875 875 869 850 114 96 83 
83 113 114 339 369 373 373 372 339 
632 596 595 595 629 632 851 857 876 
876 875 851 115 85 84 84 96 115 
375 342 340 340 371 375 596 632 634 
596 634 635 890 870 852 852 871 890 
116 97 85 85 115 116 374 371 341 
341 372 374 597 635 637 853 854 872 
883 871 853 853 872 883 86 100 101 
342 375 376 598 599 639 639 636 598 
854 864 872 87 88 102 87 102 105 
410 344 343 343 377 410 599 601 639 
886 859 855 855 868 886 88 90 103 
103 102 88 411 345 344 344 410 411 
640 602 600 600 638 640 856 869 874 
874 873 856 104 90 89 412 378 345 
345 411 412 690 639 601 601 642 690 
857 870 889 889 876 857 119 103 90 
90 104 119 346 379 380 346 380 381 
602 640 641 602 641 643 858 859 891 
897 861 858 858 891 897 91 106 123 
123 107 91 383 382 347 603 643 667 
667 644 603 859 886 891 92 108 125 
125 109 92 419 349 348 348 386 418 
348 418 419 645 606 604 604 644 645 
860 862 867 112 94 93 93 111 112 
420 350 349 349 419 420 605 606 647 
648 646 605 605 647 648 897 878 861 
128 95 94 94 112 128 387 351 350 
420 387 350 606 645 647 885 867 862 
862 877 885 129 113 95 95 128 129 
387 352 351 651 609 607 607 610 651 
863 878 898 900 880 863 863 898 900 
96 114 130 130 115 96 354 353 352 
388 354 352 352 387 388 671 610 608 
608 649 671 864 865 884 884 872 864 
131 98 97 97 116 131 353 354 355 
353 355 356 673 650 609 609 651 674 
674 673 609 865 866 867 865 867 885 
885 884 865 132 99 98 98 131 132 
390 355 354 354 388 389 354 389 390 
675 651 610 610 671 675 133 100 99 
99 132 133 357 356 355 391 357 355 
355 390 391 653 612 611 611 652 653 
117 101 100 134 117 100 100 133 134 
612 653 678 678 654 612 868 873 892 
887 886 868 892 887 868 101 117 118 
393 358 357 357 391 393 681 614 613 
613 656 681 888 874 869 869 875 888 
102 103 122 141 105 102 102 122 140 
102 140 141 358 359 360 393 359 358 
682 615 614 614 681 682 895 889 870 
870 890 895 103 119 120 103 120 122 
395 360 359 359 393 427 428 395 359 
359 427 428 615 682 683 871 883 901 
901 890 871 121 119 104 396 361 360 
360 395 396 902 883 872 872 884 902 
141 106 105 364 362 361 397 364 361 
361 396 397 621 618 617 622 621 617 
873 874 893 893 892 873 142 123 106 
106 141 142 364 363 362 620 619 618 
621 620 618 874 888 904 904 893 874 
124 108 107 107 123 124 363 364 365 
875 876 894 894 888 875 108 124 144 
144 125 108 399 365 364 364 397 399 
876 889 905 905 894 876 126 110 109 
109 125 126 400 366 365 365 399 400 
877 879 896 896 885 877 127 111 110 
110 126 127 401 367 366 366 400 401 
878 897 914 914 898 878 146 112 111 
111 127 146 402 368 367 367 401 403 
403 402 367 913 896 879 879 899 913 
147 128 112 112 146 147 402 370 368 
917 881 880 880 900 917 148 114 113 
113 129 148 369 370 404 404 373 369 
625 626 627 920 882 881 881 917 919 
881 919 920 149 130 114 114 148 149 
370 402 405 405 404 370 628 627 626 
150 116 115 115 130 150 371 374 406 
406 375 371 627 628 630 630 629 627 
906 901 883 883 902 906 151 131 116 
116 150 151 372 373 407 407 374 372 
631 630 628 884 885 896 884 896 902 
135 118 117 117 134 135 373 404 408 
408 407 373 629 630 657 657 632 629 
118 135 136 409 406 374 374 407 409 
630 631 658 658 657 630 886 887 903 
903 891 886 121 120 119 440 376 375 
375 406 440 631 633 658 887 892 908 
908 903 887 120 121 139 137 122 120 
138 137 120 139 138 120 444 377 376 
376 440 444 657 634 632 888 894 910 
910 904 888 443 410 377 444 443 377 
633 636 660 660 658 633 889 895 911 
911 905 889 122 137 156 156 140 122 
413 379 378 378 412 413 661 635 634 
634 657 659 634 659 661 912 895 890 
890 901 912 143 124 123 123 142 143 
414 380 379 379 413 414 661 637 635 
907 897 891 891 903 907 124 143 158 
158 144 124 415 381 380 380 414 446 
446 415 380 636 639 687 687 660 636 
892 893 909 909 908 892 159 126 125 
125 144 145 125 145 159 662 638 637 
637 661 662 893 904 909 160 127 126 
126 159 160 382 383 447 449 384 382 
382 447 449 663 640 638 638 662 663 
894 905 921 921 910 894 177 146 127 
127 160 177 448 447 383 690 687 639 
922 911 895 895 912 922 161 129 128 
128 147 161 416 385 384 449 416 384 
664 641 640 640 663 664 913 902 896 
162 148 129 129 161 162 417 386 385 
385 416 417 666 643 641 641 664 694 
694 666 641 897 907 914 130 149 163 
163 150 130 386 417 418 642 665 692 
692 690 642 932 900 898 898 914 932 
152 132 131 131 151 165 165 152 131 
421 388 387 387 420 421 643 666 667 
915 913 899 916 915 899 153 133 132 
132 152 153 421 389 388 668 645 644 
644 667 668 933 917 900 900 932 933 
166 134 133 133 153 166 423 390 389 
389 421 422 389 422 423 669 647 645 
645 668 669 901 906 923 923 912 901 
167 135 134 134 166 167 392 391 390 
423 392 390 646 648 670 670 649 646 
913 906 902 154 136 135 168 154 135 
135 167 168 391 392 394 394 393 391 
698 648 647 647 669 699 699 698 647 
939 907 903 903 908 939 136 154 169 
425 394 392 392 423 424 392 424 425 
700 670 648 648 698 700 925 909 904 
904 910 925 137 138 171 171 156 137 
393 394 427 649 670 672 672 671 649 
905 911 927 927 921 905 138 139 155 
138 155 170 138 170 171 394 425 426 
394 426 427 673 652 650 906 913 915 
906 915 923 430 396 395 395 428 430 
677 674 651 651 675 677 940 914 907 
907 939 940 157 141 140 140 156 172 
172 157 140 398 397 396 432 398 396 
396 430 432 676 653 652 652 673 676 
908 909 924 908 924 941 941 939 908 
157 142 141 397 398 399 653 676 705 
705 678 653 942 924 909 909 925 942 
173 143 142 142 157 173 433 399 398 
398 432 470 470 433 398 679 655 654 
654 678 679 910 921 926 926 925 910 
174 158 143 143 173 174 434 400 399 
399 433 434 680 656 655 655 679 680 
911 922 929 929 927 911 175 145 144 
144 158 175 435 401 400 400 434 435 
656 680 732 732 681 656 928 922 912 
912 923 928 176 159 145 145 175 176 
475 403 401 401 435 475 657 658 684 
684 659 657 178 147 146 146 177 178 
402 403 436 436 405 402 658 660 684 
944 932 914 914 940 944 179 161 147 
147 178 179 437 436 403 475 437 403 
685 661 659 659 684 685 915 916 930 
930 923 915 180 149 148 148 162 180 
404 405 438 439 408 404 404 438 439 
686 684 660 687 686 660 916 918 930 
181 163 149 149 180 181 405 436 479 
479 438 405 688 662 661 661 685 688 
949 919 917 917 933 949 164 151 150 
150 163 164 406 409 442 442 440 406 
691 663 662 662 688 691 931 930 918 
934 931 918 151 164 182 182 165 151 
407 408 441 441 409 407 711 664 663 
663 691 711 951 920 919 919 949 951 
183 153 152 152 165 183 408 439 480 
480 441 408 715 694 664 664 711 715 
951 938 920 184 166 153 153 183 184 
409 441 481 481 442 409 693 692 665 
943 926 921 921 927 943 154 168 187 
187 169 154 445 411 410 410 443 445 
718 667 666 666 694 719 719 718 666 
922 928 945 945 929 922 189 170 155 
485 412 411 411 445 485 696 668 667 
718 696 667 930 928 923 156 171 192 
193 172 156 156 192 193 486 413 412 
412 485 486 697 669 668 668 696 697 
955 941 924 924 942 956 956 955 924 
157 172 194 194 173 157 488 414 413 
413 486 487 413 487 488 669 697 723 
723 699 669 925 926 954 954 942 925 
158 174 195 195 175 158 489 446 414 
414 488 489 701 672 670 670 700 701 
926 943 957 957 954 926 197 160 159 
159 176 197 415 446 491 671 672 702 
702 675 671 927 929 946 946 943 927 
198 177 160 160 197 198 450 417 416 
416 449 492 492 450 416 672 701 728 
728 702 672 928 930 931 928 931 948 
948 945 928 200 162 161 161 179 200 
499 418 417 417 450 499 673 674 703 
703 676 673 929 945 947 947 946 929 
201 180 162 162 200 201 452 419 418 
500 452 418 418 499 500 674 677 727 
727 703 674 202 164 163 163 181 202 
454 420 419 419 452 454 704 677 675 
675 702 706 706 704 675 931 934 948 
203 182 164 164 202 203 456 421 420 
420 454 456 676 703 729 729 705 676 
963 933 932 932 944 963 165 182 204 
204 183 165 456 422 421 677 704 727 
965 949 933 933 963 965 185 167 166 
166 184 185 461 423 422 422 456 459 
422 459 461 730 679 678 678 705 730 
934 937 948 186 168 167 167 185 186 
462 424 423 423 461 462 731 680 679 
679 730 731 962 936 935 935 952 964 
964 962 935 168 186 206 206 187 168 
464 425 424 424 462 464 680 731 732 
950 937 936 962 950 936 169 187 207 
466 426 425 425 464 466 734 682 681 
681 732 733 681 733 734 950 948 937 
188 171 170 189 188 170 429 427 426 
467 429 426 426 466 467 707 683 682 
734 707 682 938 951 968 938 968 969 
171 188 191 171 191 192 429 428 427 
683 707 736 953 940 939 939 941 953 
172 193 210 210 194 172 428 429 431 
431 430 428 686 685 684 970 944 940 
940 953 970 212 174 173 173 194 212 
468 431 429 429 467 468 685 686 689 
689 688 685 955 953 941 213 195 174 
174 212 213 430 431 469 469 432 430 
686 687 708 708 689 686 942 954 958 
958 956 942 196 176 175 175 195 196 
431 468 514 514 469 431 687 690 708 
943 946 960 960 957 943 176 196 214 
214 197 176 432 469 471 471 470 432 
688 689 709 709 691 688 973 963 944 
944 970 973 199 178 177 177 198 199 
472 434 433 433 470 472 689 708 710 
710 709 689 950 947 945 945 948 950 
215 179 178 178 199 215 474 435 434 
434 472 474 690 692 708 946 947 962 
962 960 946 216 200 179 179 215 216 
435 474 476 476 475 435 691 709 712 
712 711 691 947 950 962 217 181 180 
180 201 217 436 437 478 436 478 479 
692 693 714 710 708 692 714 710 692 
218 202 181 181 217 218 437 475 477 
437 477 520 520 478 437 693 695 717 
717 714 693 966 951 949 949 965 966 
182 203 220 220 204 182 521 439 438 
438 479 521 694 715 740 740 719 694 
205 184 183 183 204 205 439 521 522 
522 480 439 720 717 695 951 966 968 
221 185 184 184 205 221 440 442 482 
482 444 440 744 697 696 696 718 721 
696 721 744 980 964 952 952 967 980 
222 186 185 185 221 222 441 480 483 
483 481 441 744 723 697 953 955 971 
971 970 953 223 206 186 186 222 223 
442 481 482 698 699 725 725 700 698 
954 957 959 959 958 954 187 206 208 
208 207 187 443 444 484 484 445 443 
699 723 726 726 725 699 955 956 972 
972 971 955 188 189 190 188 190 191 
444 482 524 524 484 444 724 701 700 
725 724 700 956 958 975 975 972 956 
209 190 189 445 484 526 526 485 445 
701 724 749 749 728 701 961 959 957 
957 960 961 227 191 190 190 209 225 
190 225 227 446 489 490 446 490 491 
753 706 702 702 728 753 958 959 976 
976 975 958 228 192 191 191 227 229 
229 228 191 447 448 494 493 449 447 
494 493 447 703 727 750 750 729 703 
959 961 979 979 976 959 228 193 192 
495 494 448 704 706 752 751 727 704 
752 751 704 964 961 960 960 962 964 
230 210 193 193 228 230 493 492 449 
705 729 754 754 730 705 961 964 980 
980 979 961 194 210 211 194 211 212 
450 492 529 529 499 450 753 752 706 
232 196 195 195 213 232 531 530 451 
451 453 531 530 498 451 707 734 735 
707 735 737 737 736 707 977 965 963 
963 973 977 233 214 196 196 232 233 
502 454 452 452 500 501 452 501 502 
234 198 197 197 214 234 533 531 453 
453 455 533 709 710 713 713 712 709 
990 966 965 965 977 990 235 199 198 
198 234 235 457 456 454 502 457 454 
714 713 710 990 968 966 236 215 199 
199 235 236 534 533 455 455 458 534 
711 712 716 716 715 711 981 980 967 
982 981 967 237 201 200 200 216 237 
456 457 459 712 713 738 738 716 712 
999 969 968 968 990 999 253 217 201 
201 237 253 503 459 457 457 502 532 
532 503 457 713 714 739 739 738 713 
999 997 969 219 203 202 202 218 219 
537 534 458 458 460 537 714 717 739 
970 971 974 974 973 970 203 219 238 
238 220 203 504 461 459 459 503 504 
715 716 741 741 740 715 971 972 978 
978 974 971 240 205 204 204 220 240 
539 537 460 460 463 539 716 738 741 
972 975 985 985 978 972 241 221 205 
205 240 241 505 462 461 461 504 505 
717 720 761 761 739 717 973 974 987 
987 977 973 243 208 206 206 223 243 
506 464 462 462 505 506 718 719 721 
974 978 988 991 987 974 974 988 991 
207 208 224 463 465 507 463 507 539 
743 721 719 719 740 742 719 742 743 
975 976 986 986 985 975 244 224 208 
208 243 244 508 466 464 464 506 508 
720 722 761 976 979 989 989 986 976 
226 225 209 542 507 465 465 509 542 
721 743 746 746 744 721 977 987 990 
231 211 210 210 230 231 510 467 466 
466 508 510 722 745 763 763 761 722 
978 985 988 248 212 211 211 231 247 
211 247 248 512 468 467 467 510 512 
747 726 723 723 744 747 979 980 981 
979 981 989 248 213 212 468 512 515 
515 514 468 724 725 748 724 748 768 
768 749 724 249 232 213 213 248 249 
469 514 517 517 471 469 725 726 748 
981 982 989 214 233 250 250 234 214 
470 471 473 473 472 470 726 747 767 
767 748 726 982 983 989 251 216 215 
215 236 251 471 517 518 518 473 471 
751 750 727 983 984 993 993 989 983 
252 237 216 216 251 252 472 473 519 
519 474 472 728 749 769 769 753 728 
994 993 984 254 218 217 217 253 254 
473 518 550 550 519 473 729 750 770 
770 754 729 985 986 992 992 988 985 
256 219 218 218 254 256 474 519 553 
553 476 474 755 731 730 730 754 755 
986 989 993 993 992 986 219 256 270 
270 238 219 475 476 477 756 732 731 
731 755 775 775 756 731 998 990 987 
987 991 998 220 238 239 220 239 240 
476 553 554 554 477 476 756 733 732 
996 991 988 988 992 996 242 222 221 
221 241 242 556 520 477 477 554 556 
777 734 733 733 756 777 257 223 222 
222 242 257 478 520 557 478 557 559 
559 479 478 734 777 778 778 735 734 
990 998 999 223 257 258 258 243 223 
558 521 479 559 558 479 735 778 779 
779 737 735 996 995 991 991 995 998 
224 244 259 480 522 523 523 483 480 
736 737 757 992 993 994 992 994 996 
225 226 260 245 227 225 260 245 225 
525 482 481 481 483 525 737 779 780 
780 757 737 261 260 226 563 524 482 
482 525 563 738 739 758 760 741 738 
738 758 760 282 262 227 262 229 227 
227 245 282 483 523 565 565 525 483 
761 758 739 995 997 998 228 263 264 
228 229 263 264 230 228 484 524 562 
562 526 484 740 741 759 759 742 740 
229 262 263 485 526 527 527 486 485 
760 759 741 999 998 997 246 231 230 
264 246 230 486 527 566 566 487 486 
762 743 742 742 759 762 231 246 265 
265 247 231 487 566 567 567 488 487 
764 746 743 743 762 764 266 233 232 
232 249 266 488 567 568 568 489 488 
744 746 765 765 747 744 233 266 288 
288 250 233 489 568 569 569 490 489 
766 763 745 267 235 234 234 250 267 
490 569 570 570 491 490 746 764 787 
787 765 746 267 236 235 747 765 790 
790 767 747 236 267 291 291 251 236 
616 529 492 492 493 616 793 768 748 
748 767 793 237 268 269 237 252 268 
269 253 237 493 571 616 493 494 571 
749 768 795 795 769 749 238 270 272 
272 239 238 572 571 494 494 495 572 
771 770 750 750 751 771 239 272 273 
273 240 239 495 528 572 495 496 528 
797 771 751 751 772 797 751 752 772 
240 273 274 274 241 240 573 528 496 
496 497 573 773 772 752 752 753 773 
241 274 275 275 242 241 575 573 497 
497 498 575 753 769 798 798 773 753 
276 257 242 242 275 276 498 530 575 
754 770 774 774 755 754 243 258 278 
278 244 243 499 529 574 574 500 499 
755 774 800 800 775 755 279 259 244 
244 278 279 574 501 500 756 775 776 
756 776 777 245 260 281 245 281 282 
501 574 620 620 577 501 577 502 501 
757 780 805 246 264 311 284 265 246 
311 284 246 577 532 502 781 760 758 
758 761 781 247 265 285 247 285 286 
286 248 247 503 532 580 580 535 503 
535 504 503 759 760 782 782 762 759 
286 249 248 504 535 536 536 505 504 
760 781 783 783 782 760 287 266 249 
249 286 287 505 536 538 538 506 505 
761 763 781 290 267 250 250 288 290 
506 538 540 540 508 506 762 782 785 
785 764 762 251 291 292 292 252 251 
588 539 507 507 542 588 784 781 763 
763 766 784 293 268 252 252 292 293 
508 540 541 541 510 508 764 785 788 
788 787 764 255 254 253 269 255 253 
543 542 509 509 511 543 765 787 791 
791 790 765 271 256 254 254 255 271 
544 512 510 510 541 590 590 544 510 
789 784 766 792 789 766 255 269 299 
302 271 255 255 299 300 255 300 302 
511 513 593 593 543 511 767 790 794 
794 793 767 
