# vtk DataFile Version 5.1
vtk output
ASCII
DATASET POLYDATA
POINTS 1000 double
-4.8152782974 -3.875735253 -2.4793702937 -4.5016480629 -4.265790253 -2.4749932285 -4.9876921411 -4.2783612926 -2.2768421374 
-5.3821728472 -3.7517631841 -2.2442187385 -5.3273410765 -4.14208331 -1.9504047337 -4.2034257628 -4.6278050109 -2.437509776 
-4.6661843684 -4.7415608505 -2.1829715602 -3.8212398459 -4.8737930988 -2.4071970251 -5.005682159 -4.546908797 -1.8103750779 
-3.7326596738 -5.3400172993 -2.2144719295 -4.2699193611 -5.1219580682 -2.1541009776 -4.6816725529 -4.9578310365 -1.6705943557 
-3.9313816129 -5.5504263775 -1.849492351 -3.4795546784 -5.715429797 -1.9161945632 -5.3858974765 -3.1582828902 -2.3887750875 
-5.644075263 -2.7566435442 -2.3424735821 -5.7854518875 -3.2887262899 -2.0759243452 -5.0649415911 -3.4889530775 -2.4503947694 
-5.6384327339 -3.7330906827 -1.7736654871 -5.8332458625 -3.3734465572 -1.4448643388 -5.2812924656 -4.1335451189 -1.4702698675 
-3.3572761513 -5.0194649356 -2.3345383731 -3.1458275992 -5.4438397546 -2.124122252 -4.3150656047 -5.3070924551 -1.6913485854 
-2.9326527029 -5.7644205977 -1.743505636 -3.8615644426 -5.5826221206 -1.3590705933 -3.435362871 -5.9172249326 -1.5181338234 
-6.4215804046 -1.0761045705 -2.698457781 -6.5681807134 -0.65699649302 -2.7196191686 -6.9342498323 -0.90171584478 -2.3880670704 
-6.2366619977 -1.512853651 -2.6077203448 -6.6874726558 -1.4218793988 -2.3829871538 -6.9254110602 -1.3057228577 -1.9950174301 
-6.0402695064 -1.9383215232 -2.47951505 -6.4698495427 -1.9051701922 -2.2722447276 -6.7603766578 -1.7949789235 -1.8675329794 
-5.9281486787 -2.3419247293 -2.3389256474 -6.4260896051 -2.3123903452 -1.9792902711 -6.0819988246 -2.7453047134 -2.048690187 
-6.3309838034 -2.6440376622 -1.547168633 -6.0635733254 -3.0490781152 -1.6701133938 -5.4949229626 -3.7364212514 -1.2512066757 
-4.9264639058 -4.4921897275 -1.30658718 -2.8711333627 -4.9976021173 -2.2750450514 -2.3856775326 -4.8695008463 -2.2482674114 
-2.6251799699 -5.3526622348 -2.0373836081 -4.6007853831 -4.820200021 -1.1582811708 -4.2660366163 -5.2178305051 -1.2317757194 
-3.0575009179 -5.9238118452 -1.2679540708 -6.624766967 -0.1967991253 -2.6885927762 -7.0155120685 -0.36177530036 -2.4820283772 
-6.8223598883 0.20691126284 -2.5805432782 -7.2086456672 0.063877041299 -2.2325308194 -7.1542290397 -0.44739475979 -2.0224305315 
-7.016008224 -0.86676761229 -1.7871894075 -6.8555513846 -1.2742802593 -1.4895894368 -6.6012804391 -2.1724651183 -1.4851905065 
-5.9929772023 -2.9039134067 -1.118186782 -1.8947973408 -4.6983262776 -2.2346578399 -5.0319174906 -4.0689286111 -0.98678967295 
-2.0832902089 -5.1745117129 -1.9365003794 -2.405840153 -5.4882443968 -1.6487262347 -3.8471523656 -5.2943946078 -0.88063567555 
-2.6232476321 -5.6762568013 -1.248361267 -3.4695193829 -5.7021387028 -1.0139128989 -7.2115367248 0.57024611377 -2.250883826 
-6.8497013927 0.64876218075 -2.4966287543 -6.717017959 -1.6802261299 -1.33905481 -6.2939810509 -2.4147218448 -1.093239092 
-5.6208395889 -3.28643554 -0.9562394264 -5.2350439677 -3.6495394882 -0.81994624034 -1.3742080444 -4.5153543272 -2.1605701381 
-1.5686963552 -4.9494097027 -1.9250061349 -4.6440502294 -4.3714721049 -0.78950924629 -1.7627839624 -5.1372874512 -1.5235815694 
-4.2333174427 -4.8975765499 -0.81687994371 -2.1540819945 -5.3138896383 -1.2388636857 -3.4096996354 -5.3740872551 -0.59470328602 
-2.9773126102 -5.6973411793 -0.80664981447 -6.9768960756 1.0773352106 -2.345339666 -7.3230607507 1.0412745612 -1.9856360643 
-7.228379554 0.55118011867 -1.7784509108 -7.1223572733 0.034422896562 -1.7012796967 -6.9603141002 -0.4353774627 -1.482914023 
-6.7870454819 -0.85844338492 -1.2074675238 -6.5812825431 -1.3107614599 -0.92752159316 -6.4734046379 -1.8728869239 -0.97918143769 
-5.9028634001 -2.5350128219 -0.70812306546 -5.2166731279 -3.3107315089 -0.5005694955 -4.8156734492 -3.8122771048 -0.50871627449 
-1.0819130254 -4.8065250002 -1.8346903799 -4.22511004 -4.5477413902 -0.50696675312 -1.2156544287 -4.9851209133 -1.4151962317 
-3.7791823878 -4.9184500012 -0.45630922647 -2.4903988132 -5.4262531709 -0.8128983479 -7.0466497758 1.5101859876 -2.174521337 
-6.8696949391 0.042870055406 -1.2214578212 -6.1471060508 -2.1061336888 -0.70400939661 -5.5854879015 -2.9167455122 -0.61374616154 
-0.8396219018 -4.40635478 -1.9734524663 -4.4039580101 -4.0993731902 -0.32211001325 -0.63304887368 -4.8203579235 -1.5938672953 
-3.919530594 -4.4133722892 -0.14184545072 -1.6908613642 -4.9987712574 -1.0505550756 -2.0676548548 -5.0649957116 -0.73948162058 
-2.4134413505 -5.1327679756 -0.36646054799 -3.2672538899 -5.0481441947 -0.22480774696 -2.892030647 -5.3912017387 -0.42922640062 
-7.1137392921 1.9597132456 -1.9609688208 -7.3621523594 1.5166280186 -1.7968667601 -7.1784594572 1.0374902851 -1.4287508899 
-6.9926327602 0.51277220617 -1.3161058599 -6.7124618993 -0.33784493595 -0.97761972656 -6.5555785496 -0.75468168852 -0.73979353977 
-6.323348296 -1.1343040256 -0.47715583052 -6.2165207563 -1.6075265707 -0.53487466709 -5.8527273103 -1.9992000277 -0.3369807303 
-5.570439428 -2.4490733215 -0.28862025128 -5.2359390614 -2.8749680042 -0.18436996864 -4.8680148153 -3.3285383894 -0.14006356659 
-0.38522593182 -4.3076021444 -1.799250163 -4.4794653367 -3.6598141565 -0.021348418037 -4.0511942167 -3.9882032287 0.12020991461 
-0.31460342435 -4.9544769441 -1.1943212436 -0.76427500441 -4.9465900439 -1.0653787277 -1.234987269 -4.8593916114 -0.90273536435 
-3.4885771239 -4.6518659301 -0.024827896345 -2.7706236067 -5.0455076442 -0.055737342072 -7.1638372745 2.4286347861 -1.7274015885 
-7.3835706457 2.0047126059 -1.5693235153 -7.2505240399 1.5469239086 -1.3160648436 -6.860137584 0.87883466052 -0.96819093783 
-6.6904393821 0.32817923475 -0.8078571163 -5.8663723029 -1.5007173068 -0.093775949961 0.09712732482 -4.2051881108 -1.6678861309 
-0.10034054866 -4.6602953373 -1.5161596562 0.39903061034 -4.6043400629 -1.3858684146 0.14708574208 -4.8645662342 -1.0260670192 
-3.5610967703 -4.2561674833 0.30378686703 -0.90838631621 -4.6991172182 -0.55822932186 -1.5905797388 -4.7569173799 -0.54239127327 
-2.0083136417 -4.8253130494 -0.25430522488 -3.0109261529 -4.7343429542 0.20809289245 -7.2252303596 2.0054268382 -1.057465942 
-6.9787754699 1.456580085 -0.91892582341 -6.5148298551 -0.15606797677 -0.5410844296 -6.3178204633 -0.61210396302 -0.29123554024 
-6.0470741669 -1.0431915365 -0.079567445778 -5.5299277882 -1.9337838897 0.046946913886 -5.2425143961 -2.3805051533 0.12772844198 
-4.9151634404 -2.8289390522 0.21686922208 -4.5707581957 -3.2082084658 0.2994806318 0.5750121437 -4.1061989839 -1.5900871501 
-4.1630639363 -3.5578617956 0.441394982 -3.7687350001 -3.8369097464 0.58550022108 -1.3077219518 -4.5316835672 -0.20276001281 
-3.0792475425 -4.4135022438 0.53645691145 -0.3054730419 -4.8289035436 -0.69135191553 -2.3535525535 -4.8455478441 0.15091584145 
-7.2104809774 2.9074335396 -1.4987875689 -7.3329429928 2.4891560903 -1.2609831636 -6.5817430296 0.7597366839 -0.44901222248 
-6.4427175272 0.31718788632 -0.27333487787 -6.261147204 -0.13911283652 -0.047630454803 -6.0160521969 -0.57718168813 0.17554594104 
-5.7325432555 -1.0002108951 0.32169298108 -5.5155986698 -1.4452522022 0.32721621238 -5.2012227468 -1.8989515945 0.44844362314 
-4.9144339017 -2.3751149008 0.52978430512 -4.5752547726 -2.7751470002 0.67100108685 1.0747055214 -4.0143269046 -1.5529128379 
-4.2570619504 -3.1638804001 0.72986110186 0.87208161553 -4.4706509873 -1.3738386478 1.4205869402 -4.3842235713 -1.3440843659 
-3.280461209 -4.0807547219 0.77941167921 1.1470468634 -4.6700827245 -1.0661694001 0.66780102169 -4.7853756656 -0.9098618543 
-0.50020076652 -4.5703085184 -0.31072136698 -0.85894705409 -4.3772087242 -0.018439094638 -1.7575379667 -4.575718649 0.0815121758 
0.26916762917 -4.7461217838 -0.52683228223 -2.0785272923 -4.6310154466 0.52202203631 -2.6011989975 -4.6382246646 0.59041107941 
-7.3709121301 3.8695002156 -1.4181583533 -7.3120660336 3.3775838596 -1.4194718463 -7.5432571094 3.6537978036 -1.0160659521 
-7.3792703165 3.0642030979 -0.96376656128 -7.224271324 2.5468915407 -0.79752705299 -6.9815274505 1.9973469651 -0.6408408083 
-6.7170370519 1.1993433935 -0.57094772801 -6.7275601851 1.6443274114 -0.37231568649 1.5665780617 -3.924080831 -1.5455584812 
-3.8744131338 -3.3706064596 0.99366556581 1.9074150462 -4.3189543931 -1.3020755141 -3.5080539791 -3.7234910386 1.0018150639 
1.6577274145 -4.6130727754 -0.86953612782 -1.6366871219 -4.4032813278 0.57399723664 -2.774072824 -4.2890951428 1.0033958849 
1.2023416098 -4.7392050509 -0.64333034898 0.80497329501 -4.6750876612 -0.370775115 -0.025888313988 -4.5273788107 -0.1863583114 
-2.224202313 -4.5477058289 0.99467576464 -7.3606139347 4.2566163634 -1.1482952017 -7.1692946083 2.9853988376 -0.40978935916 
-6.994964559 2.4749511611 -0.37918444774 -6.4946559659 1.2468262204 -0.06682590614 -6.3493555972 0.80765574598 0.074204959669 
-6.1969385533 0.33844147682 0.21302038098 -5.9761356928 -0.12219334385 0.42079003694 -5.6843415644 -0.53108832909 0.63558999287 
-5.4100160414 -0.95723217755 0.72888383467 -5.1836654065 -1.431918869 0.72834031272 -4.8702625823 -1.9352097008 0.84617334361 
-4.5835466305 -2.356482231 0.95809990828 2.0445457375 -3.8320329027 -1.5743326018 2.5225290338 -3.7349437833 -1.6187729166 
-4.1593037605 -2.8404290174 1.118301251 2.3936382079 -4.1865467818 -1.3262241459 2.1654412772 -4.4374502738 -0.85370814909 
-0.37682114002 -4.2716592765 0.15112075973 -1.2575595567 -4.3088362575 0.29495941016 -3.0629826147 -3.8740943165 1.2401007935 
1.4131462885 -4.6044605389 -0.28642213163 -1.7215394099 -4.4118133223 1.0355108232 -7.4642687448 4.080043024 -0.67793923717 
-7.4005157782 3.5031859589 -0.57320674994 -6.7467541789 2.119729101 -0.1302149001 -6.5074047668 1.7338193981 0.14000756472 
-6.0795444647 0.81072934859 0.53969168079 -5.9210533447 0.34731095837 0.64871344087 -5.6655230138 -0.063581528234 0.86854840465 
-4.857255273 -1.5135117714 1.0722170969 -4.5127706513 -1.8623456324 1.2827155597 -4.2602811185 -2.3547032425 1.2941691174 
2.997381668 -3.6441159167 -1.6345304075 3.4686972758 -3.9129224572 -1.3492250817 2.9113244906 -4.0611534606 -1.3396863859 
-3.6983587633 -2.9981492709 1.4123109252 -3.4079660088 -3.4205789022 1.3718600257 2.6757599505 -4.2726288248 -0.87116602657 
1.9059095484 -4.4751775723 -0.37417963404 0.1438426801 -4.2357194226 0.27645054824 -0.22186159833 -4.015586557 0.60853322344 
-0.77506658666 -4.1211195669 0.49648613221 -1.1997763668 -4.1596490722 0.83776854318 -2.6475958383 -3.9623333805 1.5300934402 
1.0446201195 -4.4541710035 0.082446021656 0.49024227032 -4.4791829524 -0.029606956219 -2.3814993069 -4.3308122125 1.373998218 
-1.9019369604 -4.408592131 1.5205796084 -7.2168408317 4.62078223 -0.82378208037 -7.242096541 3.9474049093 -0.2174160961 
-7.1354064667 3.4590054736 -0.13284097341 -6.9203420471 3.1400467023 0.13963775431 -6.8343826418 2.6803142079 0.052562979708 
-6.5781861404 2.3119864415 0.32431691052 -6.2406093418 1.3171038218 0.44805294211 -5.3052733494 -0.50320941111 1.0843689826 
-5.0584273637 -1.0017251502 1.0982758736 -4.6393638213 -1.2609767712 1.357646814 3.4493177561 -3.5035055018 -1.6342905864 
-3.834491581 -2.4994821433 1.4935329164 3.9120639071 -3.4614237419 -1.5429001127 -3.1614196245 -3.0359001737 1.6636859903 
3.1846868619 -4.1384307139 -0.88700279087 -2.9431730148 -3.5061842229 1.6319817433 2.421135952 -4.2768965915 -0.3804992276 
1.6023548823 -4.3686147626 0.12255403245 0.6882133268 -4.2282994575 0.42916908801 -1.3873748809 -4.222366705 1.3683491634 
-2.1791898064 -4.1019084554 1.8300440763 -6.3167114896 1.9001945135 0.57109513017 -5.8355006052 1.0726548291 0.87062324359 
-5.6421648463 0.52757681907 1.005292741 -5.3320111411 0.033087828955 1.2111876136 -4.7809845 -0.71927546895 1.4030285816 
-4.0223768759 -1.967200076 1.5090523153 4.4205278101 -3.4056803021 -1.451951287 -3.3334557637 -2.5687909283 1.6230016973 
4.0432929677 -3.786231908 -1.2213541678 3.683729056 -4.0018317758 -0.86819970541 3.4195701671 -4.0044995964 -0.39357541516 
2.9270171473 -4.1166567776 -0.37527654041 2.1296210828 -4.2188391289 0.074970079683 0.30754373868 -3.9865852496 0.73773186886 
-0.59006060957 -3.9229717358 0.96490416024 -0.94099739219 -3.9859493326 1.2673379394 -2.4973896439 -3.592959347 1.8739200001 
1.2392039788 -4.2144440953 0.5267408922 -1.5352312799 -4.2166564098 1.8562980441 -7.014810082 4.9954257459 -0.49884073217 
-7.228563861 4.4755433419 -0.34680511206 -6.9426258816 3.7818410893 0.25810686508 -6.7558620458 3.3845570432 0.53836632233 
-6.61421363 2.8717372951 0.56805262248 -6.3654691813 2.464340716 0.75782364231 -5.9833590167 1.6058435455 0.85088106485 
-4.8766737826 -0.28337675623 1.4197983743 -4.2024716619 -1.4762774095 1.50278876 -4.3372440294 -0.93890699834 1.5059663285 
-3.6909908251 -1.524967167 1.4998745573 -3.5117513104 -2.0489995489 1.551835648 -2.9959034709 -2.1315600701 1.5560610538 
4.9589607076 -3.3756541967 -1.4142911077 -2.767722133 -2.608540733 1.7179398153 4.6322980818 -3.675632452 -1.0840074559 
-2.6283360632 -3.0755725169 1.8520559309 4.1590402553 -3.8469735286 -0.75035296111 2.6612003282 -4.0240919641 0.084711865948 
0.46420803933 -3.7605828578 1.1884793626 -0.082307166736 -3.7783853696 1.1109900711 -0.50830955192 -3.7355731266 1.5131514626 
1.790158738 -4.1275701988 0.53422378885 0.86875566555 -3.9990881974 0.88564141165 -1.0446677573 -3.9687917273 1.7488450003 
-2.0975375518 -3.663098551 2.0981251236 -1.7551639828 -3.9906615747 2.1359340776 -6.7697830821 5.3396945241 -0.18674378967 
-6.9779518997 4.8522122415 -0.0072334317366 -7.0109464886 4.3219007395 0.10919254488 -6.0703076488 2.1600684014 0.95831103208 
-5.5263850903 1.4741265003 1.0783704255 -5.3736425928 0.99228872879 1.1455396352 -5.1816686175 0.54291291267 1.270184658 
-4.8773580343 0.18693735722 1.4062550585 -4.2434245699 -0.46260450138 1.5026801554 -4.384492885 0.016471101181 1.4696040766 
-3.3824154559 -1.0860933273 1.3777263606 -3.8869024111 -1.0086748523 1.4817014062 -3.647113795 -0.58220511011 1.3944980837 
-2.8590491076 -1.1840140744 1.2944619948 -3.1912215489 -1.6087904751 1.4291811368 -2.6808837584 -1.7001324249 1.407112259 
-2.459200363 -2.1901813257 1.6042231018 5.5594388121 -3.4107023284 -1.4713870246 6.1055937881 -3.4229266947 -1.4798534187 
-2.1855713966 -2.655786231 1.8512945234 5.2801610459 -3.6372442398 -1.1306991094 5.0600731972 -3.6710139772 -0.71236100769 
-2.144731095 -3.1566769258 2.0423850103 4.5547242576 -3.716460008 -0.57289605227 3.8608077095 -3.8648316228 -0.32282706777 
3.2365444882 -3.8744817453 0.080523960086 2.3124471613 -3.9639954293 0.5308031571 1.4359256165 -3.9780665056 0.96252623883 
-1.2877498972 -3.8173006239 2.1822570539 -6.7417981292 4.6822402298 0.4591807744 -6.7481285062 4.1907568314 0.53644466593 
-6.6153606508 3.8162314361 0.78592298233 -6.4580664727 3.3156655818 0.95070443067 -6.2302777064 2.8471291615 1.0602093622 
-5.6343400417 1.9866077643 1.1116746458 -5.1301366779 1.8539249987 1.1481122169 -4.9870760817 1.3883957755 1.1670373502 
-4.8221836753 0.91775921961 1.2674347942 -4.5392052979 0.52174658027 1.3741144702 -3.8309410276 -0.099867894549 1.3958971273 
-3.9982539494 0.38548964852 1.3482632336 -3.281775666 -0.19380868017 1.261293822 -3.0779069583 -0.67135029697 1.2646120064 
-2.5286048202 -0.75725767052 1.2062240379 -2.7207823606 -0.26454996676 1.162009937 -2.329888885 -1.2662226819 1.2908521578 
-2.1625008705 -1.7458206736 1.4418782468 -1.7692093148 -1.349937567 1.3141688127 -1.9385680813 -2.2103226676 1.6590647082 
-1.6512661874 -1.8180303505 1.4721975598 6.6693908715 -3.449159211 -1.402436553 -1.566518027 -2.4946504256 1.8235665341 
5.8576039191 -3.6532727869 -1.1039167241 -1.6823290761 -2.9319672071 2.0533305298 6.355055198 -3.6555871313 -1.1094786336 
5.6403792128 -3.6480026065 -0.70798211332 4.8528941649 -3.5695520796 -0.23278036285 4.2826573479 -3.6613769774 -0.12304953298 
3.7801657414 -3.7023692271 0.17335622137 -1.6825188947 -3.4572787158 2.2218915633 2.8455735713 -3.7926315563 0.53155366675 
2.4968424407 -3.7206892688 0.99147231334 0.68300155192 -3.511523533 1.5683587392 0.059170946003 -3.5086896484 1.5579842962 
-0.36204370369 -3.3880852822 1.8873732166 1.9716471671 -3.8851540598 0.97271863342 1.0692042152 -3.7695739123 1.3061261601 
-0.80943279525 -3.6361541623 2.0247696911 -6.4802449036 5.6551522967 0.11323100278 -6.7255013485 5.2032420638 0.32573061131 
-6.4041455427 4.4159132332 0.8680550317 -5.7969004453 2.5065373788 1.2001739364 -5.2519094338 2.3565876102 1.2304844877 
-4.5856011863 1.7987908367 1.1292774442 -4.7688349019 2.2408753518 1.1860235375 -4.4524630937 1.2904150359 1.1775903748 
-3.8613454432 1.2224444484 1.1222210749 -4.1065067004 1.6731787162 1.0904828312 -4.2003212142 0.86272621092 1.2589706272 
-3.6374889613 0.76216541893 1.182550584 -3.4538388606 0.29038971743 1.2366887654 -3.0817290172 0.67749034791 1.0715289825 
-2.9004858245 0.20409482553 1.1214739605 -2.3114655193 0.1268533881 1.0590732737 -2.5267156998 0.60698468132 0.98674882037 
-2.1587462249 -0.34539814713 1.1335274013 -1.9874294224 -0.86957553183 1.2141850159 -1.6505372944 -0.47855092747 1.134026189 
-1.4168898106 -0.97426646508 1.2025724451 -1.2105777884 -1.5534813611 1.3273501569 -0.82711101433 -1.9853485563 1.4667224388 
-0.6430192693 -1.5362556475 1.2381361407 -1.3039072909 -2.1126956926 1.5899805722 -0.92071001656 -2.42557732 1.7461085749 
7.1882681749 -3.461701865 -1.2800455919 -1.1563827617 -2.7957034933 1.9971485186 6.8166254018 -3.6553360779 -0.88136738799 
6.2884555939 -3.6140733467 -0.62137836663 5.3783590268 -3.5288529587 -0.2792935286 4.2551189889 -3.46786963 0.39835513453 
-1.2314886603 -3.2937453154 2.2098610639 -0.77399439863 -3.1550981561 2.1003773064 3.3642418706 -3.6529217043 0.5525272621 
0.38018981686 -3.1404708916 1.765613488 1.6602954403 -3.7147516841 1.3965895897 -6.4520085941 4.9995810218 0.75805970706 
-6.2608793546 3.8767159782 1.1105833694 -6.060862349 3.3755425581 1.277310158 -5.7922656841 2.9758231359 1.333390938 
-5.3108650537 2.791197194 1.3495405982 -4.240180576 2.2786837911 1.1269224522 -4.6609551613 2.6833067403 1.2777957353 
-3.8070212208 2.0255268921 1.0235024516 -3.5285669034 1.6092924289 0.99510175966 -3.0048839103 1.5742945117 0.89195956904 
-2.7496527784 1.092777999 0.92620601408 -3.2973268064 1.1444153232 1.0250190627 -2.2059127224 1.0393715734 0.87084349188 
-1.9625470728 0.52470736072 0.95365773425 -1.6853118224 0.028043206406 1.040694543 -1.1594605024 -0.46725003984 1.0817587102 
-1.1055773322 0.073274057483 0.97320141548 -0.68627721226 -0.71572846367 1.0486730194 -0.33202506641 -1.1379387014 1.0741339835 
-0.9355657244 -1.1055274551 1.1623687571 -0.052009405878 -1.5750100628 1.1778503282 0.24231379017 -1.1378236312 1.0163791316 
0.12611777585 -2.10881244 1.426675487 0.43857749335 -1.7397259876 1.2275035552 -0.3379671842 -1.9471014804 1.3858254309 
0.15737483797 -2.5599942129 1.6767796292 -0.35850841102 -2.3939019148 1.6540951079 7.7269418329 -3.4174297725 -1.159181831 
-0.55297349192 -2.7848817915 1.9104982851 7.3384922318 -3.5812576183 -0.78162131364 -0.084964122289 -2.9791374486 1.8461877105 
5.8940104737 -3.5070094877 -0.29983503317 5.1701153889 -3.3702779092 0.14061481602 4.6790731557 -3.4284445531 0.20464361114 
3.8607118699 -3.4692184549 0.69076493294 3.0044766668 -3.5556585422 1.0100926057 2.7339997952 -3.4496889009 1.4429463065 
2.1887544856 -3.6168079693 1.4307633078 1.2908415698 -3.4725686873 1.6710202827 -1.3547264834 6.4753182291 -2.0060278999 
-0.90217714164 6.3574903796 -2.0847075919 -1.7818179806 6.579522822 -1.7860903282 -2.1850098479 6.6178527458 -1.5366254145 
-2.6329423427 6.5790106136 -1.4334502573 -0.063456188639 6.1037238549 -2.3460954287 0.28134477524 5.9303282066 -2.5348288878 
-0.51847439254 6.1959798021 -2.3069454017 -3.0386022341 6.5611349423 -1.1510317582 -3.911994411 6.5570579817 -0.67489939184 
-4.3327935642 6.4743924397 -0.42752301727 0.71766147227 5.7907902259 -2.6040601558 1.1287258202 5.6342552921 -2.7138610466 
-4.7565802411 6.3425768401 -0.1896881963 1.5557510461 5.467470943 -2.8071125073 1.9818646614 5.2688535718 -2.9029535689 
-5.1865412078 6.2276455085 0.018517133965 -5.6557245294 6.1249151442 0.17861810941 2.3936794655 5.0594824735 -2.9335786079 
-6.1214921445 5.9405056705 0.29429750949 2.7872001901 4.8378129104 -2.9464286876 -6.4689105517 5.5407354785 0.62455037439 
3.1824611121 4.587256278 -2.9873040191 3.5917463802 4.409770687 -2.8787947203 -6.0414344405 4.8573252327 1.0231990576 
-5.9673438278 4.3294266377 1.1646721667 -5.8019044758 3.8103585499 1.3572461495 -5.4697479757 3.3367239935 1.4525461573 
-4.9626532911 3.0781525966 1.4104073733 -4.0960167585 2.7928778577 1.1646465337 -2.7867235841 2.0272901418 0.79134417876 
-2.5664569761 2.4377245351 0.69766095001 -3.2848897641 2.0819521894 0.89349225665 -3.1182228649 2.5893722762 0.80587789097 
-3.6624477561 2.4739981083 0.98940080888 -2.2215192357 1.98505049 0.73071696457 -2.461243876 1.5357007904 0.81542061842 
-1.899988296 1.5148460598 0.78095173581 -1.6889983203 1.014942714 0.8452508503 -1.1937996415 1.0361290142 0.79613058843 
-1.4215987515 0.51839990638 0.91718917381 -0.88973879641 0.59750121879 0.83195229893 -0.51788538964 0.25356228653 0.83725780114 
-0.65347401285 -0.22891732629 0.95968430111 -0.13044464078 -0.15199786836 0.85271690342 0.30870429898 -0.57305039487 0.88013678714 
-0.17871643184 -0.6655089185 0.95870140789 0.760470039 -0.89268391831 0.9500105714 0.74913140072 -1.3601311163 1.0964643621 
0.97330573287 -1.7728721155 1.3193348144 0.65631363553 -2.2225535404 1.5030863129 1.1886225962 -2.1737869859 1.5907654296 
8.2764804394 -3.3748079757 -1.0389650983 0.62527734501 -2.6998570743 1.7283273746 1.1044019293 -2.6295706467 1.7836635713 
0.93739633651 -3.1271332349 1.8144025962 7.9271702465 -3.5811418586 -0.68125504749 6.8343082644 -3.4975315542 -0.38733544808 
6.3324535768 -3.3949178859 -0.10831839839 5.7441493215 -3.3087991693 0.14877106949 4.3326263241 -3.2484127235 0.90640490186 
3.4724317799 -3.427783108 1.0194747996 1.466431578 -3.0363086567 1.9323014254 1.8464035335 -3.3735676792 1.8062653373 
-0.30781410982 6.2899333614 -1.8807490165 -3.4664313977 6.5647645587 -0.89794362657 0.52587440248 5.9924583871 -2.1102282862 
-5.7920701127 6.1376324773 0.71476587164 -6.1902748679 5.8728808468 0.85636028489 -6.1506778519 5.3992938038 1.0150220564 
3.9932372984 4.179863567 -3.0095868855 4.4546918589 4.0136715088 -2.9797309349 5.3140122157 3.498486913 -3.0586592502 
4.8805033464 3.7706665128 -3.1199086699 -5.4668563297 4.2415617852 1.328203657 -5.567841805 4.7377372304 1.1901475496 
5.6577039747 3.1208632325 -2.8901442218 -5.3003445503 3.7920504724 1.451721559 6.0033696831 2.7127066236 -2.7379340034 
-2.7269289566 2.962668389 0.63500344363 -2.2672983645 2.8075597447 0.58165319701 -2.2508778188 3.2839563657 0.46153010965 
-2.7209208492 3.4841184744 0.51187960496 -3.1675279587 3.1544517099 0.75301318611 -3.5763143623 3.44883619 0.92528037377 
-4.8690602802 3.5341277401 1.4519642502 -3.5999463995 2.9511700006 0.97063064083 -3.9953878393 3.3642430764 1.1631628598 
-4.4465967627 3.1756924776 1.3317543497 -1.9602568963 2.4281159774 0.6324880747 -1.6617030085 2.0069586693 0.68752001697 
-1.3393175601 1.5192503102 0.73490355061 -0.78847922125 1.624822472 0.59290594871 -0.34687326926 0.75636670088 0.68501051251 
-0.3003333392 1.3388077684 0.52099934797 0.11192012772 0.96563991956 0.51753084514 -0.72804767221 1.1197452384 0.69171199087 
0.021180372272 0.37235634509 0.70316727043 0.48486364207 0.58438921539 0.55955442782 0.83779589246 0.19668609134 0.64064498218 
0.37692065374 -0.022292389579 0.74647548829 0.79703131573 -0.37403809121 0.81071210288 1.2549765253 -0.71947036681 0.95807868816 
1.2750070264 -1.2387790975 1.1582033 1.4769412911 -1.6726044499 1.4214125287 8.7715711798 -3.2260383776 -0.85552206358 
1.6019824678 -2.5378466921 1.8880041612 8.4593270084 -3.489027973 -0.50622860095 7.4972101758 -3.4439580016 -0.33413097552 
5.319966037 -3.1803056929 0.51161051417 4.7998454104 -3.2125627662 0.66137994281 3.8889024539 -3.2451863419 1.2079502223 
3.3070132352 -3.2398329743 1.4709535795 2.9040200791 -3.1164409012 1.8276325033 2.3739816251 -3.2995181113 1.8387837413 
-1.2309048767 6.5579876507 -1.5744255885 -1.6735774917 6.6093128976 -1.2521705513 0.18118017806 6.1034978957 -1.7956436544 
-0.72750930863 6.3870361527 -1.5562048684 -2.0641351743 6.5689898947 -0.92480900992 -2.529012198 6.624038795 -0.97922313796 
-2.9757219095 6.6030027047 -0.64985619407 1.0069357936 5.8122048928 -2.1400319181 -4.3694570401 6.4700220226 0.13229862203 
1.9104681841 5.4303081507 -2.3635912761 1.4478925069 5.6296000387 -2.258512669 -4.8172673723 6.3379318281 0.40493968268 
-5.2689305081 6.2513065184 0.57545157 2.3466225752 5.2033242164 -2.3923237344 2.7724235694 4.9413826775 -2.4010307183 
3.1888964801 4.6904592549 -2.5011995253 -5.8254172953 5.8200163018 1.1516140227 3.603341654 4.4711135711 -2.2910006485 
-5.6582396969 5.2808857323 1.1535087983 4.0638572741 4.2940468398 -2.5455409384 -5.1473080974 5.0539091847 1.1891373387 
4.9774258691 3.8560725784 -2.6605761851 -2.5113535665 4.5363631464 0.18768894744 -2.9513490965 4.5397618473 0.34204342808 
-5.0453621766 4.5269629243 1.2847458735 -2.728183837 4.0381760163 0.36361016445 -2.145860208 4.2925648065 0.17994660008 
-3.2353678568 4.1695460154 0.56929640463 -3.3756575823 4.6577284535 0.59427309573 -2.2838406234 3.7801156441 0.32858266173 
-3.7093057496 4.3671591971 0.8684811759 -3.5786318067 3.8982270974 0.85740573321 -4.8849330664 4.048419679 1.3962825522 
-1.7744597 3.4896198032 0.34954953988 -1.8074352688 3.9521318999 0.23454501903 -3.1419894764 3.6812336162 0.63653231827 
-4.0044650384 3.9599679752 1.124512487 -4.4007799396 3.721791568 1.3301789492 6.4314160595 2.3506668727 -2.6543436464 
-1.8023197684 2.9542664746 0.49178378321 -1.3822517936 3.1921215049 0.36309153775 6.9368690839 1.9958397236 -2.6515957352 
-1.4400969038 2.5714434748 0.52941279675 -0.97319657893 2.9382487118 0.30892557566 7.3676178538 1.6709289848 -2.4649839872 
-0.1562257357 2.3558625256 0.17664863659 -0.53630155693 2.6956975001 0.2145299394 -0.9673107484 2.4620728209 0.43223967916 
0.25965642778 2.0161823278 0.15375317845 0.32285718878 2.5642339428 -0.032125555868 -0.62978627721 2.1189347175 0.41247592304 
0.69091855514 1.6441856249 0.17515934803 0.75495763102 2.1727616623 0.0019988586238 -0.23235947716 1.8353488493 0.3569530504 
-1.1684445563 2.0204293393 0.60073133214 0.19175827617 1.4867030399 0.33444538419 1.1870508825 1.3103474224 0.22893285854 
1.1640084483 1.8240380693 0.059716647776 0.62756123361 1.1405337045 0.35112387098 0.96846027007 0.77635940229 0.43439869484 
1.4790126749 0.8889705888 0.36941298178 1.294667082 0.38061377667 0.56509380564 1.70284567 0.059397766683 0.71185020532 
1.2421976572 -0.16611766461 0.76362581812 1.6938862981 -0.42827746242 0.91914734378 1.7573821236 -0.91168044237 1.1404745811 
1.879927689 -1.3371269108 1.3692748008 1.669631261 -2.0767712925 1.6963490668 2.0312682481 -1.7712481311 1.6327010514 
2.0919105467 -2.3334805247 1.9289948471 1.9942154003 -2.9013895823 2.0459006476 8.0138850195 -3.3919048279 -0.15966928682 
7.6051765116 -3.1871916967 0.14943050494 7.1123706241 -3.2931018499 -0.034986719926 6.6792822686 -3.2106767632 0.18714346454 
6.2008752283 -3.1491704079 0.39034675981 5.7705696773 -3.0515811599 0.66922768256 5.2612523843 -2.9898108672 0.95755514046 
4.339759058 -3.0346841784 1.4434605966 4.7867931382 -3.014716469 1.1796538863 3.8353181131 -3.0174926861 1.647912194 
-1.1716465161 6.3878965979 -1.1143460958 -3.4363086078 6.5972373307 -0.38002646687 -3.8961896694 6.5687088228 -0.12540949183 
-0.24625475854 6.1314750013 -1.4019129631 -2.4959016364 6.4373381792 -0.50446618065 -2.9564211705 6.3733930823 -0.19563470942 
0.71414019539 5.7884651537 -1.660033046 1.678775313 5.379427988 -1.86662577 1.2103712087 5.5338099174 -1.7076222056 
-5.3932020696 6.0418985823 1.0070640616 2.1035137775 5.1257373486 -1.8706341065 2.5556107413 4.8571863014 -1.9290623249 
3.063595019 4.5629535956 -1.9834088702 -2.5287834851 5.0117680126 0.13507369892 -1.9715461533 4.8094347644 0.046748842587 
-2.1600037366 5.2985589047 -0.026152638933 -2.6518525316 5.5412039499 0.097896159078 -2.9892286107 5.0466790515 0.33014599765 
-4.761838746 5.3949141339 1.0889305243 -5.2418715405 5.600670669 1.1420109754 4.5588317619 4.0869273301 -2.4092821559 
-3.4398515577 5.1316243656 0.60034370462 -3.8127136386 4.887063916 0.86603316965 -4.6505936816 4.8066528567 1.1877628766 
-4.2980433623 5.0989207175 1.0359528547 -1.5940868219 4.366999857 0.10928586843 -1.4225486979 4.7982068059 -0.057136867832 
-4.1431767902 4.557650867 1.0901876138 5.405292779 3.5300165445 -2.5382947782 -4.4777167861 4.2685592486 1.2708372926 
0.25034673435 3.7220859851 -0.37143057008 0.74133561574 3.5810642626 -0.46665001885 0.61507064989 4.0889659961 -0.60655955251 
-0.29038231145 3.8068214547 -0.18130485643 0.0026733561696 4.2159935335 -0.41477190641 -0.76486891648 3.8540529507 0.017533378613 
-0.52436753785 4.303155105 -0.20327670081 -1.3152492669 3.8272018381 0.19803010758 -1.0753643488 4.3074332413 0.012544824306 
5.7463669918 3.1065397845 -2.3414633783 -0.063167635843 3.363483538 -0.16017015251 0.87667232597 3.1220588065 -0.33128305326 
0.39015924976 3.1240655698 -0.22900922861 -0.52607586636 3.2687118625 0.052412199072 -0.97775883917 3.4402779434 0.18860570653 
6.0775628957 2.7289335181 -2.2059127486 1.3108448094 2.8195417192 -0.30404400323 -0.089217323837 2.8834082188 -0.0069782688954 
0.81705382961 2.6550422581 -0.16038705848 6.7699377567 2.1938136055 -2.235078163 1.3139701226 2.3017954058 -0.11494603144 
7.6947045294 1.2757840851 -2.2151248317 1.6432751815 1.7179944088 0.047057169101 1.8359112277 2.1220345856 -0.1444905821 
1.8021976225 1.2992523911 0.19162998492 2.0534579157 0.86499399208 0.35685870714 1.7944892435 0.49732142764 0.5269669358 
2.2830074268 0.33179995135 0.60096299543 2.1459400909 -0.10670355111 0.81543346297 2.1996115592 -0.56347784402 1.0393302265 
2.3337779595 -1.0049055071 1.2674781046 2.4468807953 -1.4335167015 1.5060587764 2.4921016374 -1.909312895 1.7802864247 
9.1797673196 -2.9515487216 -0.60289770645 2.5673168151 -2.3576162132 1.9992122276 2.488067685 -2.8481921766 2.0653953535 
8.9379155651 -3.2461343868 -0.27828109206 7.1662432958 -3.0436977885 0.43016454579 6.6991534583 -2.9676283265 0.65818910092 
6.2398584954 -2.8967225421 0.89012817975 8.4924096504 -3.2904599248 0.033699623801 3.3948182023 -2.8668045734 1.8810994801 
-1.6193658314 6.3210662864 -0.76978220144 -0.70672933501 6.1156054741 -1.0732257774 -2.0499299846 6.2043955367 -0.47323897832 
-3.42399713 6.3530844036 0.062889603841 -3.9263672338 6.306975579 0.32640487699 0.2187140699 5.8340397763 -1.3529929922 
-0.25853162505 5.7749171762 -1.0189661763 -1.1688368276 6.0181253729 -0.74066166498 -2.5229373291 6.0347261939 -0.14873938576 
-4.4076651148 6.1711846234 0.61387922005 0.62739825223 5.4765781765 -1.2754566654 -0.71797614973 5.67429654 -0.72534615102 
-1.6291268659 5.8484940034 -0.42707689082 -2.1049902351 5.7439465803 -0.19000145889 -2.9968194856 5.969891133 0.11857397718 
-3.4857922008 5.98661133 0.36194477874 -3.9773952489 5.8963238892 0.63835978856 -4.861834409 5.987539225 0.89650903553 
1.5936083347 5.0300950864 -1.46999298 1.0668419004 5.2313126997 -1.3358606225 0.16838754901 5.4318318057 -1.0053485188 
-0.29158765552 5.3155972958 -0.71823193375 -1.1817736658 5.5731883755 -0.4653882647 -3.1409389831 5.530718582 0.34973595241 
-4.3987069739 5.6795307406 0.89778828534 2.0929179283 4.7205560001 -1.5227495437 0.60189998461 5.0261759187 -0.98577118906 
0.10748738381 4.9919855212 -0.74338059355 -0.69171159938 5.1723054409 -0.46879342894 -1.658359938 5.3218643202 -0.18121621157 
-3.590734078 5.5815012259 0.58364110017 2.5959274217 4.4437238803 -1.6059660285 1.1556423606 4.796615834 -1.1154391828 
-0.28771763936 4.7446208964 -0.46069415991 -1.1574978103 5.1382666823 -0.27025297977 -3.9543254351 5.3833287558 0.82275863654 
4.1076703453 4.2228332507 -2.0459747912 3.5916235232 4.260544132 -1.8090481161 1.6345413053 4.5424363464 -1.1949314996 
0.7539423801 4.5557332843 -0.83505087863 0.28192648725 4.5537753829 -0.64280977882 -0.83834362538 4.7250079286 -0.21600254768 
3.0978810359 4.168080024 -1.5979333143 2.1251197569 4.2575661981 -1.2686279403 1.1801241368 4.2952266022 -0.88620652332 
5.0295777236 3.7816381437 -2.1429500651 3.1135010849 3.7112343591 -1.2945452532 2.6200870199 3.9852644298 -1.3293673733 
1.6623376928 4.0598914702 -0.96539159419 5.4370852978 3.4003445814 -2.014258719 2.6169594431 3.5117495932 -1.0716552216 
2.15368774 3.7926918552 -1.0391315383 1.1741830405 3.8395125975 -0.68738036565 3.0623274205 3.2634898369 -1.0502413157 
2.1948130001 3.2960120038 -0.80674697939 1.7090422773 3.5869696879 -0.75770695319 2.6758222944 2.9961715215 -0.82959242559 
1.7632634111 3.0861163431 -0.54281696525 1.2893992556 3.3485594843 -0.51358151617 3.2533393422 2.8323913316 -0.85121827818 
2.2404435025 2.7895477846 -0.57569416604 6.4211980741 2.4278601423 -2.0645519449 2.7574819361 2.5291352539 -0.61807271051 
7.1321942529 1.9388866549 -2.0461069043 3.2237187266 2.2977472387 -0.5708471659 2.2810291492 2.3047196051 -0.3557366409 
1.7827964517 2.5930224166 -0.32926440534 2.7082416919 2.0313453257 -0.34483476034 7.4711875506 1.5836244562 -1.8624212454 
3.1953440883 1.8348227982 -0.30773817995 2.7690444648 1.5531483849 -0.095007712012 2.2276298226 1.7516270342 -0.077826098423 
7.9752908623 0.83225323087 -1.964267877 3.2848234887 1.3095812701 0.0066152403973 2.8844972674 1.0776678215 0.15822119917 
2.3540302151 1.2587612534 0.13428689441 8.2722959663 0.39286147651 -1.7091092281 3.0476883591 0.64925184371 0.39507337781 
2.5419825128 0.73878127813 0.37701954003 8.5518472907 0.040193175955 -1.4928650039 2.8062204664 0.23799466633 0.63265247502 
3.1774188356 -0.20618302306 0.86811771201 2.6347797188 -0.18988816582 0.86132571931 2.7254137213 -0.64725781864 1.0934503684 
3.1992666502 -0.70003578359 1.1261762474 2.9140055253 -1.1218131365 1.3487896905 2.9372973605 -1.6124880291 1.6429239696 
3.0110902316 -2.0608491629 1.8982959179 9.4764799724 -2.5991192589 -0.38543567749 2.9701389115 -2.625877394 2.0324607924 
8.0938941082 -3.0937291548 0.34751894735 7.6586301987 -2.9184503908 0.635866484 5.7584634428 -2.8201090669 1.1461444356 
5.2883434309 -2.7650417035 1.4171400898 4.8316265226 -2.7801714686 1.6671028274 3.3996068206 -2.3585920014 2.0136402453 
4.3580210117 -2.7545823907 1.8822681968 3.8748080511 -2.6416286923 1.994364496 4.5872482428 3.9596257664 -1.8693000116 
4.097279887 3.9921409877 -1.5760485152 3.58889747 3.8658982075 -1.4201511015 5.0068658619 3.5833417368 -1.6428990616 
4.0108193621 3.5840671789 -1.2181498173 3.5570604064 3.3277672035 -1.0970941013 5.7845184962 2.9458699805 -1.7407698355 
3.9508456917 3.0322771439 -0.89672559664 6.1827392214 2.5587016998 -1.650120304 3.667643243 2.6018913951 -0.70432644577 
4.1675008674 2.5873000095 -0.59760520046 6.7112730049 2.1691896203 -1.6558298095 3.7561888984 2.1343597104 -0.42294831963 
3.6243573152 1.6686538734 -0.17759963714 7.7602672214 1.1744460094 -1.6526339822 3.8101898683 1.2411156182 0.092994893608 
8.047959206 0.75464771578 -1.4544839491 3.5056804574 0.82089240443 0.30424330878 4.0679610423 0.84204462152 0.35132130959 
3.8666541677 0.41124226022 0.57547080146 8.8185781318 -0.36302718011 -1.3013269926 3.350128997 0.28103449376 0.60930628029 
3.7309991393 -0.058955141129 0.82550791798 9.0175549812 -0.76906041907 -0.98918200418 3.6628079098 -0.51766184503 1.0619791522 
3.5476174168 -1.0028736027 1.3191784938 4.0498771896 -0.87354312963 1.2979139116 3.9130781474 -1.3604233493 1.5828436886 
3.3718774426 -1.3883261652 1.5373811316 3.5041509263 -1.801521936 1.8050611103 3.8311861553 -2.1712512024 2.009194654 
9.303029793 -2.8563942586 0.048562415056 8.9059352774 -3.086385486 0.2505705215 8.5234063752 -2.9324721352 0.58575069623 
7.2066827421 -2.7995626499 0.90957969231 6.7296818923 -2.7313032888 1.1355825045 6.2506372185 -2.6543363823 1.3636758122 
5.7834690765 -2.5497424693 1.6090161874 4.5519994026 3.6736382793 -1.4099240125 5.3819450268 3.2259470393 -1.5350046273 
4.9596593193 3.2468999032 -1.1540411976 4.4133083642 3.3191269769 -1.0617633418 5.4732268502 2.9119142742 -1.1690425753 
4.5546368549 2.9448157694 -0.78874247854 5.8983351875 2.6127981539 -1.2156064241 7.1362682762 1.8005122713 -1.5015060738 
6.3560775036 2.2748120704 -1.234990944 4.31067021 2.1523153219 -0.31816527516 6.7989322085 1.9014486466 -1.1425425583 
4.098013561 1.7131562573 -0.11651095697 4.6172696273 1.7418963552 -0.046050221325 7.4615851615 1.4018208777 -1.2912280661 
4.347905993 1.3011705392 0.14320358234 7.777693453 0.95851589484 -1.1069813322 4.611813627 0.92396791678 0.37582000032 
8.219849846 0.44607852096 -1.0832702106 4.4399309211 0.47837513565 0.60188792101 8.5423117258 0.038906971638 -0.93133427002 
4.2719848969 0.054454891804 0.81846196645 8.8141054934 -0.3684425402 -0.7610362137 4.1736541781 -0.39829891604 1.048946371 
9.1752536496 -1.1416285076 -0.67683433085 4.5845552615 -0.71439665247 1.2536511586 9.355706572 -1.5776832645 -0.47393311092 
4.467877143 -1.1357681679 1.5066594678 9.5236135433 -2.0789686688 -0.37054192588 4.4136546945 -1.5240091884 1.7554807452 
4.0734544346 -1.8028375884 1.8763228865 9.5696754202 -2.3397190789 0.08778451278 4.3254840672 -2.2853899198 2.0697354439 
8.1204781678 -2.7704033269 0.85804863232 7.6898497645 -2.62967453 1.1295284351 5.3132471127 -2.4392839802 1.8416629487 
4.8341502643 -2.3926806362 2.0109851331 5.0880011778 2.8073638162 -0.80051792479 5.5678857883 2.5289979802 -0.76739121463 
4.7069704531 2.5207362435 -0.50802729399 5.9956350018 2.2473582259 -0.77351984566 5.2270670458 2.349972214 -0.42933591179 
6.4264399212 1.963500688 -0.8160503712 4.8604992565 2.1008635359 -0.22820676029 7.0999874874 1.5054867485 -0.92108426126 
6.1340510673 1.8123503365 -0.43887185267 5.2629993287 1.790197214 -0.069001496884 6.6783267398 1.5622024834 -0.60780279362 
7.4052172965 1.0882510947 -0.76015865194 4.9156394796 1.4044704828 0.15114647464 5.1161569333 1.0000143726 0.35227572213 
7.8265593781 0.64118309715 -0.67985299882 8.1898710794 0.22785112812 -0.54058539431 5.007697521 0.57768466887 0.5699194609 
4.8534817928 0.15998239979 0.78893432522 5.4333360765 0.31327850401 0.66685767408 5.2737674462 -0.13902627391 0.93309607971 
8.9265952984 -0.69456374889 -0.3721928894 4.714440415 -0.26988966904 1.0123056532 5.1239038923 -0.59728792695 1.2091792705 
5.0032063775 -1.0403644749 1.5033618881 9.1610596201 -1.1890754676 -0.098127383498 9.4403920277 -1.7683097186 0.040422735023 
4.9203631745 -1.4749086177 1.7885799061 4.6822281263 -1.9073859086 1.9857218757 9.3906192553 -2.4846653861 0.52035853859 
5.2497879086 -1.9141701328 2.0130508781 9.0070082657 -2.7363889566 0.63785583337 8.6333989774 -2.5508602361 1.0048632161 
7.2221736558 -2.5397681785 1.3822851005 6.7455106375 -2.468820631 1.6006931545 6.2595818962 -2.3518641806 1.8024154368 
5.7583121253 -2.1579848746 1.9905623555 5.650327774 2.0604802193 -0.36196400843 5.8095429648 1.5677126223 -0.097757280213 
6.9459219116 1.1271252455 -0.42564101912 6.3243885031 1.3792110006 -0.2361664809 5.4774811031 1.299857895 0.15260084269 
6.5239817491 0.98525474786 -0.078024832233 5.9935693612 1.0314246312 0.13108273914 7.364737357 0.72082227365 -0.34494360391 
6.9089381144 0.67358578688 -0.031166128762 7.7376756152 0.33491847485 -0.20140735207 6.373638584 0.60717882736 0.25091660106 
5.5655085625 0.79321604625 0.38979794663 7.2669373975 0.33269628255 0.11175425593 6.7711751998 0.28436517592 0.37960591548 
5.9301243988 0.4693740697 0.47895720343 8.5307125412 -0.20347754234 -0.37321510856 8.1044118779 -0.046879842153 -0.044921291574 
6.3026162066 0.14323353665 0.6312249076 5.8182022699 -0.018782111204 0.81905210304 8.4639350511 -0.45510059635 0.082442886073 
6.2034887041 -0.31029456998 1.0270119826 8.7890499294 -0.82534750713 0.11456371037 5.6589195009 -0.46063353022 1.1400562988 
6.055146977 -0.71824981433 1.3892821708 5.5210886758 -0.90426374151 1.4719892639 9.1662060261 -1.4869602673 0.36659170399 
5.4130958098 -1.3674703917 1.799727367 5.9137541401 -1.1371051423 1.7345074079 5.7897960945 -1.6422198788 2.0224470924 
8.1940533094 -2.3994878907 1.2656649345 7.7188408698 -2.2779306242 1.5308224772 7.2419558002 -2.1983207845 1.7885520042 
7.6455888999 -0.00073723607579 0.26546848269 7.1506890402 -0.031033721523 0.55988865416 6.679024079 -0.14046863429 0.81674063587 
8.0167679505 -0.36900916668 0.41936297599 7.5267881053 -0.33092052977 0.71495095702 7.0336765506 -0.41626943492 1.0250866082 
6.5990595925 -0.57931629032 1.2762688333 8.3660597419 -0.78740036586 0.55873059796 8.8238430693 -1.1596172771 0.4685827463 
6.4610362848 -0.95871636558 1.6437014883 8.5272427892 -1.2290088197 0.84025871866 9.3220397839 -1.962144889 0.54214792731 
8.9028924622 -1.6650470509 0.8577230703 6.2900957603 -1.3801719913 1.9676858748 9.0700654285 -2.231092364 0.93070227958 
6.2394874958 -1.9101772763 2.0886741892 6.7484630756 -2.1120316787 1.9737864319 7.9028080892 -0.6902430025 0.85944146525 
7.4301995688 -0.66592595597 1.130670466 8.0919004967 -1.0884178602 1.0958467045 7.6289869117 -1.0100281036 1.3750840773 
7.0481967326 -0.86097521832 1.4857403295 7.3862530404 -1.2920447548 1.7454873879 6.8631291141 -1.2209798816 1.8606692543 
8.3855731317 -1.5563678638 1.1983352538 7.9024497113 -1.4338137119 1.5076278244 8.6332171597 -2.0416159038 1.2075621728 
8.1242694838 -1.9262372506 1.4743976332 6.6887352747 -1.6405471289 2.1022306986 7.6473998449 -1.8038947542 1.7815382843 
7.1687452944 -1.7139846299 1.9950324685 
POLYGONS 1903 5706
OFFSETS vtktypeint64
0 3 6 9 12 15 18 21 24 
27 30 33 36 39 42 45 48 51 
54 57 60 63 66 69 72 75 78 
81 84 87 90 93 96 99 102 105 
108 111 114 117 120 123 126 129 132 
135 138 141 144 147 150 153 156 159 
162 165 168 171 174 177 180 183 186 
189 192 195 198 201 204 207 210 213 
216 219 222 225 228 231 234 237 240 
243 246 249 252 255 258 261 264 267 
270 273 276 279 282 285 288 291 294 
297 300 303 306 309 312 315 318 321 
324 327 330 333 336 339 342 345 348 
351 354 357 360 363 366 369 372 375 
378 381 384 387 390 393 396 399 402 
405 408 411 414 417 420 423 426 429 
432 435 438 441 444 447 450 453 456 
459 462 465 468 471 474 477 480 483 
486 489 492 495 498 501 504 507 510 
513 516 519 522 525 528 531 534 537 
540 543 546 549 552 555 558 561 564 
567 570 573 576 579 582 585 588 591 
594 597 600 603 606 609 612 615 618 
621 624 627 630 633 636 639 642 645 
648 651 654 657 660 663 666 669 672 
675 678 681 684 687 690 693 696 699 
702 705 708 711 714 717 720 723 726 
729 732 735 738 741 744 747 750 753 
756 759 762 765 768 771 774 777 780 
783 786 789 792 795 798 801 804 807 
810 813 816 819 822 825 828 831 834 
837 840 843 846 849 852 855 858 861 
864 867 870 873 876 879 882 885 888 
891 894 897 900 903 906 909 912 915 
918 921 924 927 930 933 936 939 942 
945 948 951 954 957 960 963 966 969 
972 975 978 981 984 987 990 993 996 
999 1002 1005 1008 1011 1014 1017 1020 1023 
1026 1029 1032 1035 1038 1041 1044 1047 1050 
1053 1056 1059 1062 1065 1068 1071 1074 1077 
1080 1083 1086 1089 1092 1095 1098 1101 1104 
1107 1110 1113 1116 1119 1122 1125 1128 1131 
1134 1137 1140 1143 1146 1149 1152 1155 1158 
1161 1164 1167 1170 1173 1176 1179 1182 1185 
1188 1191 1194 1197 1200 1203 1206 1209 1212 
1215 1218 1221 1224 1227 1230 1233 1236 1239 
1242 1245 1248 1251 1254 1257 1260 1263 1266 
1269 1272 1275 1278 1281 1284 1287 1290 1293 
1296 1299 1302 1305 1308 1311 1314 1317 1320 
1323 1326 1329 1332 1335 1338 1341 1344 1347 
1350 1353 1356 1359 1362 1365 1368 1371 1374 
1377 1380 1383 1386 1389 1392 1395 1398 1401 
1404 1407 1410 1413 1416 1419 1422 1425 1428 
1431 1434 1437 1440 1443 1446 1449 1452 1455 
1458 1461 1464 1467 1470 1473 1476 1479 1482 
1485 1488 1491 1494 1497 1500 1503 1506 1509 
1512 1515 1518 1521 1524 1527 1530 1533 1536 
1539 1542 1545 1548 1551 1554 1557 1560 1563 
1566 1569 1572 1575 1578 1581 1584 1587 1590 
1593 1596 1599 1602 1605 1608 1611 1614 1617 
1620 1623 1626 1629 1632 1635 1638 1641 1644 
1647 1650 1653 1656 1659 1662 1665 1668 1671 
1674 1677 1680 1683 1686 1689 1692 1695 1698 
1701 1704 1707 1710 1713 1716 1719 1722 1725 
1728 1731 1734 1737 1740 1743 1746 1749 1752 
1755 1758 1761 1764 1767 1770 1773 1776 1779 
1782 1785 1788 1791 1794 1797 1800 1803 1806 
1809 1812 1815 1818 1821 1824 1827 1830 1833 
1836 1839 1842 1845 1848 1851 1854 1857 1860 
1863 1866 1869 1872 1875 1878 1881 1884 1887 
1890 1893 1896 1899 1902 1905 1908 1911 1914 
1917 1920 1923 1926 1929 1932 1935 1938 1941 
1944 1947 1950 1953 1956 1959 1962 1965 1968 
1971 1974 1977 1980 1983 1986 1989 1992 1995 
1998 2001 2004 2007 2010 2013 2016 2019 2022 
2025 2028 2031 2034 2037 2040 2043 2046 2049 
2052 2055 2058 2061 2064 2067 2070 2073 2076 
2079 2082 2085 2088 2091 2094 2097 2100 2103 
2106 2109 2112 2115 2118 2121 2124 2127 2130 
2133 2136 2139 2142 2145 2148 2151 2154 2157 
2160 2163 2166 2169 2172 2175 2178 2181 2184 
2187 2190 2193 2196 2199 2202 2205 2208 2211 
2214 2217 2220 2223 2226 2229 2232 2235 2238 
2241 2244 2247 2250 2253 2256 2259 2262 2265 
2268 2271 2274 2277 2280 2283 2286 2289 2292 
2295 2298 2301 2304 2307 2310 2313 2316 2319 
2322 2325 2328 2331 2334 2337 2340 2343 2346 
2349 2352 2355 2358 2361 2364 2367 2370 2373 
2376 2379 2382 2385 2388 2391 2394 2397 2400 
2403 2406 2409 2412 2415 2418 2421 2424 2427 
2430 2433 2436 2439 2442 2445 2448 2451 2454 
2457 2460 2463 2466 2469 2472 2475 2478 2481 
2484 2487 2490 2493 2496 2499 2502 2505 2508 
2511 2514 2517 2520 2523 2526 2529 2532 2535 
2538 2541 2544 2547 2550 2553 2556 2559 2562 
2565 2568 2571 2574 2577 2580 2583 2586 2589 
2592 2595 2598 2601 2604 2607 2610 2613 2616 
2619 2622 2625 2628 2631 2634 2637 2640 2643 
2646 2649 2652 2655 2658 2661 2664 2667 2670 
2673 2676 2679 2682 2685 2688 2691 2694 2697 
2700 2703 2706 2709 2712 2715 2718 2721 2724 
2727 2730 2733 2736 2739 2742 2745 2748 2751 
2754 2757 2760 2763 2766 2769 2772 2775 2778 
2781 2784 2787 2790 2793 2796 2799 2802 2805 
2808 2811 2814 2817 2820 2823 2826 2829 2832 
2835 2838 2841 2844 2847 2850 2853 2856 2859 
2862 2865 2868 2871 2874 2877 2880 2883 2886 
2889 2892 2895 2898 2901 2904 2907 2910 2913 
2916 2919 2922 2925 2928 2931 2934 2937 2940 
2943 2946 2949 2952 2955 2958 2961 2964 2967 
2970 2973 2976 2979 2982 2985 2988 2991 2994 
2997 3000 3003 3006 3009 3012 3015 3018 3021 
3024 3027 3030 3033 3036 3039 3042 3045 3048 
3051 3054 3057 3060 3063 3066 3069 3072 3075 
3078 3081 3084 3087 3090 3093 3096 3099 3102 
3105 3108 3111 3114 3117 3120 3123 3126 3129 
3132 3135 3138 3141 3144 3147 3150 3153 3156 
3159 3162 3165 3168 3171 3174 3177 3180 3183 
3186 3189 3192 3195 3198 3201 3204 3207 3210 
3213 3216 3219 3222 3225 3228 3231 3234 3237 
3240 3243 3246 3249 3252 3255 3258 3261 3264 
3267 3270 3273 3276 3279 3282 3285 3288 3291 
3294 3297 3300 3303 3306 3309 3312 3315 3318 
3321 3324 3327 3330 3333 3336 3339 3342 3345 
3348 3351 3354 3357 3360 3363 3366 3369 3372 
3375 3378 3381 3384 3387 3390 3393 3396 3399 
3402 3405 3408 3411 3414 3417 3420 3423 3426 
3429 3432 3435 3438 3441 3444 3447 3450 3453 
3456 3459 3462 3465 3468 3471 3474 3477 3480 
3483 3486 3489 3492 3495 3498 3501 3504 3507 
3510 3513 3516 3519 3522 3525 3528 3531 3534 
3537 3540 3543 3546 3549 3552 3555 3558 3561 
3564 3567 3570 3573 3576 3579 3582 3585 3588 
3591 3594 3597 3600 3603 3606 3609 3612 3615 
3618 3621 3624 3627 3630 3633 3636 3639 3642 
3645 3648 3651 3654 3657 3660 3663 3666 3669 
3672 3675 3678 3681 3684 3687 3690 3693 3696 
3699 3702 3705 3708 3711 3714 3717 3720 3723 
3726 3729 3732 3735 3738 3741 3744 3747 3750 
3753 3756 3759 3762 3765 3768 3771 3774 3777 
3780 3783 3786 3789 3792 3795 3798 3801 3804 
3807 3810 3813 3816 3819 3822 3825 3828 3831 
3834 3837 3840 3843 3846 3849 3852 3855 3858 
3861 3864 3867 3870 3873 3876 3879 3882 3885 
3888 3891 3894 3897 3900 3903 3906 3909 3912 
3915 3918 3921 3924 3927 3930 3933 3936 3939 
3942 3945 3948 3951 3954 3957 3960 3963 3966 
3969 3972 3975 3978 3981 3984 3987 3990 3993 
3996 3999 4002 4005 4008 4011 4014 4017 4020 
4023 4026 4029 4032 4035 4038 4041 4044 4047 
4050 4053 4056 4059 4062 4065 4068 4071 4074 
4077 4080 4083 4086 4089 4092 4095 4098 4101 
4104 4107 4110 4113 4116 4119 4122 4125 4128 
4131 4134 4137 4140 4143 4146 4149 4152 4155 
4158 4161 4164 4167 4170 4173 4176 4179 4182 
4185 4188 4191 4194 4197 4200 4203 4206 4209 
4212 4215 4218 4221 4224 4227 4230 4233 4236 
4239 4242 4245 4248 4251 4254 4257 4260 4263 
4266 4269 4272 4275 4278 4281 4284 4287 4290 
4293 4296 4299 4302 4305 4308 4311 4314 4317 
4320 4323 4326 4329 4332 4335 4338 4341 4344 
4347 4350 4353 4356 4359 4362 4365 4368 4371 
4374 4377 4380 4383 4386 4389 4392 4395 4398 
4401 4404 4407 4410 4413 4416 4419 4422 4425 
4428 4431 4434 4437 4440 4443 4446 4449 4452 
4455 4458 4461 4464 4467 4470 4473 4476 4479 
4482 4485 4488 4491 4494 4497 4500 4503 4506 
4509 4512 4515 4518 4521 4524 4527 4530 4533 
4536 4539 4542 4545 4548 4551 4554 4557 4560 
4563 4566 4569 4572 4575 4578 4581 4584 4587 
4590 4593 4596 4599 4602 4605 4608 4611 4614 
4617 4620 4623 4626 4629 4632 4635 4638 4641 
4644 4647 4650 4653 4656 4659 4662 4665 4668 
4671 4674 4677 4680 4683 4686 4689 4692 4695 
4698 4701 4704 4707 4710 4713 4716 4719 4722 
4725 4728 4731 4734 4737 4740 4743 4746 4749 
4752 4755 4758 4761 4764 4767 4770 4773 4776 
4779 4782 4785 4788 4791 4794 4797 4800 4803 
4806 4809 4812 4815 4818 4821 4824 4827 4830 
4833 4836 4839 4842 4845 4848 4851 4854 4857 
4860 4863 4866 4869 4872 4875 4878 4881 4884 
4887 4890 4893 4896 4899 4902 4905 4908 4911 
4914 4917 4920 4923 4926 4929 4932 4935 4938 
4941 4944 4947 4950 4953 4956 4959 4962 4965 
4968 4971 4974 4977 4980 4983 4986 4989 4992 
4995 4998 5001 5004 5007 5010 5013 5016 5019 
5022 5025 5028 5031 5034 5037 5040 5043 5046 
5049 5052 5055 5058 5061 5064 5067 5070 5073 
5076 5079 5082 5085 5088 5091 5094 5097 5100 
5103 5106 5109 5112 5115 5118 5121 5124 5127 
5130 5133 5136 5139 5142 5145 5148 5151 5154 
5157 5160 5163 5166 5169 5172 5175 5178 5181 
5184 5187 5190 5193 5196 5199 5202 5205 5208 
5211 5214 5217 5220 5223 5226 5229 5232 5235 
5238 5241 5244 5247 5250 5253 5256 5259 5262 
5265 5268 5271 5274 5277 5280 5283 5286 5289 
5292 5295 5298 5301 5304 5307 5310 5313 5316 
5319 5322 5325 5328 5331 5334 5337 5340 5343 
5346 5349 5352 5355 5358 5361 5364 5367 5370 
5373 5376 5379 5382 5385 5388 5391 5394 5397 
5400 5403 5406 5409 5412 5415 5418 5421 5424 
5427 5430 5433 5436 5439 5442 5445 5448 5451 
5454 5457 5460 5463 5466 5469 5472 5475 5478 
5481 5484 5487 5490 5493 5496 5499 5502 5505 
5508 5511 5514 5517 5520 5523 5526 5529 5532 
5535 5538 5541 5544 5547 5550 5553 5556 5559 
5562 5565 5568 5571 5574 5577 5580 5583 5586 
5589 5592 5595 5598 5601 5604 5607 5610 5613 
5616 5619 5622 5625 5628 5631 5634 5637 5640 
5643 5646 5649 5652 5655 5658 5661 5664 5667 
5670 5673 5676 5679 5682 5685 5688 5691 5694 
5697 5700 5703 5706 
CONNECTIVITY vtktypeint64
0 1 2 0 2 3 0 3 17 
296 271 256 256 272 296 512 515 567 
643 565 512 512 567 643 6 2 1 
1 5 6 257 258 275 297 274 257 
257 275 297 568 517 513 513 566 568 
4 3 2 8 4 2 2 6 8 
258 259 275 516 515 514 3 4 18 
16 14 3 3 14 17 18 16 3 
299 275 259 259 298 299 515 516 523 
515 523 567 776 775 771 771 775 829 
4 8 20 20 18 4 780 776 772 
772 777 780 10 6 5 5 7 10 
301 276 261 261 278 301 517 568 647 
647 569 517 781 777 773 11 8 6 
6 10 11 262 277 279 650 519 518 
518 569 649 518 649 650 830 778 774 
774 827 830 7 9 10 21 9 7 
263 265 306 304 278 263 306 304 263 
651 520 519 519 650 651 775 776 779 
775 779 782 775 782 832 832 829 775 
8 11 42 42 20 8 264 280 281 
264 281 282 652 570 520 520 651 652 
780 779 776 12 10 9 13 12 9 
22 13 9 9 21 22 265 287 306 
521 571 655 654 572 521 655 654 521 
784 780 777 777 781 784 23 11 10 
10 12 23 266 282 308 308 283 266 
522 572 573 778 830 866 866 833 778 
11 23 47 46 42 11 47 46 11 
267 283 312 312 288 267 523 524 646 
646 567 523 779 780 783 785 782 779 
779 783 785 12 13 26 25 23 12 
26 25 12 313 284 268 268 288 313 
524 575 646 784 783 780 13 22 24 
13 24 26 269 286 314 314 289 269 
660 578 525 525 579 660 787 784 781 
16 15 14 315 287 270 270 289 316 
316 315 270 658 582 526 782 785 788 
782 788 832 15 16 38 38 36 15 
320 295 271 271 296 320 527 578 663 
663 583 527 783 784 786 789 785 783 
783 786 789 16 18 19 16 19 40 
40 38 16 272 273 322 321 296 272 
322 321 272 528 529 592 666 588 528 
528 592 666 787 786 784 273 274 323 
323 322 273 529 530 592 791 788 785 
785 789 791 41 19 18 18 20 41 
274 297 324 324 323 274 594 592 530 
795 789 786 57 40 19 19 41 69 
69 57 19 325 297 275 275 299 325 
595 532 531 59 41 20 20 42 59 
300 298 276 301 300 276 597 534 532 
532 595 677 677 597 532 788 791 793 
788 793 836 834 832 788 836 834 788 
43 22 21 305 279 277 277 303 305 
533 534 597 685 537 533 533 597 685 
794 791 789 795 794 789 45 24 22 
22 43 45 302 301 278 304 302 278 
790 835 838 23 25 47 307 280 279 
279 305 307 600 536 535 535 538 608 
608 600 535 796 793 791 791 794 796 
48 26 24 24 45 61 63 48 24 
24 61 63 341 281 280 280 307 341 
596 594 536 600 596 536 872 797 792 
792 838 872 25 26 64 62 47 25 
64 62 25 342 282 281 281 341 342 
696 539 537 537 685 696 793 796 798 
793 798 839 839 836 793 26 48 64 
342 308 282 538 546 608 800 796 794 
29 28 27 31 29 27 27 30 31 
283 308 343 343 312 283 702 614 539 
539 696 702 28 29 50 50 49 28 
284 309 310 313 309 284 540 541 542 
540 542 543 540 543 544 799 798 796 
800 799 796 29 31 32 29 32 54 
53 50 29 54 53 29 311 286 285 
285 310 311 615 542 541 541 550 615 
878 841 797 797 872 878 34 31 30 
30 33 34 286 311 314 605 543 542 
609 605 542 615 609 542 798 799 802 
798 802 840 840 839 798 35 32 31 
31 34 35 339 306 287 287 315 339 
611 544 543 605 601 543 543 601 611 
799 800 804 803 802 799 804 803 799 
32 35 55 55 54 32 288 312 344 
344 313 288 544 545 547 611 545 544 
36 34 33 289 314 345 345 316 289 
548 547 545 612 548 545 611 607 545 
545 607 612 843 805 801 801 841 843 
37 35 34 34 36 37 290 291 318 
318 317 290 546 549 613 613 608 546 
802 803 844 842 840 802 844 842 802 
35 37 56 67 55 35 35 56 67 
319 318 291 803 804 807 807 806 803 
803 806 844 38 37 36 292 293 348 
347 319 292 348 347 292 613 549 548 
548 612 613 37 38 39 37 39 56 
293 294 349 349 348 293 882 808 805 
805 843 882 40 39 38 294 295 350 
350 349 294 550 551 618 618 615 550 
806 807 809 806 809 848 848 844 806 
39 40 57 68 56 39 39 57 68 
295 320 350 551 552 630 630 618 551 
351 320 296 296 321 351 557 553 552 
552 553 630 884 847 808 808 882 884 
41 59 70 70 69 41 326 324 297 
297 325 326 557 555 553 553 555 629 
629 626 553 553 626 630 811 810 809 
809 810 848 42 46 73 73 59 42 
328 299 298 298 300 328 556 555 554 
554 555 557 558 556 554 810 811 812 
810 812 813 810 813 851 849 848 810 
851 849 810 43 44 45 328 325 299 
555 556 631 631 629 555 60 45 44 
44 58 60 300 301 331 300 327 328 
331 327 300 556 558 559 556 559 634 
634 631 556 814 813 812 45 60 61 
301 302 331 813 814 852 852 851 813 
46 47 75 75 73 46 302 304 333 
332 331 302 333 332 302 561 559 558 
814 815 855 855 852 814 47 62 75 
337 305 303 303 334 337 561 560 559 
559 560 635 635 634 559 815 816 856 
856 855 815 48 63 78 78 64 48 
304 306 336 336 333 304 560 561 562 
560 562 639 637 635 560 639 637 560 
816 818 824 816 824 856 49 50 51 
340 307 305 305 337 338 305 338 340 
895 858 817 817 892 895 52 51 50 
53 52 50 339 336 306 562 563 639 
51 52 65 51 65 66 307 340 374 
374 341 307 563 564 641 640 639 563 
641 640 563 897 820 819 819 860 897 
52 53 82 81 65 52 82 81 52 
308 342 377 377 343 308 564 565 642 
642 641 564 898 861 820 820 897 898 
53 54 83 83 82 53 380 310 309 
309 313 383 309 379 380 383 379 309 
644 642 565 565 643 644 864 822 821 
821 863 864 54 55 84 84 83 54 
380 311 310 723 568 566 566 720 723 
899 823 822 822 864 899 55 67 85 
85 84 55 384 314 311 311 380 381 
311 381 384 645 643 567 646 645 567 
900 825 823 823 899 900 86 67 56 
56 68 86 312 343 382 382 344 312 
727 647 568 568 723 727 824 826 857 
857 856 824 87 68 57 57 69 98 
98 87 57 313 344 383 569 647 648 
569 648 649 896 826 825 900 896 825 
72 60 58 58 71 72 384 345 314 
653 571 570 570 652 653 896 857 826 
89 70 59 59 73 89 315 316 376 
376 339 315 571 653 655 827 828 865 
865 830 827 76 61 60 60 72 74 
60 74 76 316 345 376 656 573 572 
572 654 656 828 829 831 828 831 865 
76 63 61 317 318 386 386 385 317 
728 574 573 573 656 728 832 831 829 
62 64 77 93 75 62 62 77 93 
318 319 346 318 346 386 722 575 574 
818 722 574 574 728 818 830 865 867 
867 866 830 63 76 94 94 78 63 
347 346 319 722 646 575 831 832 834 
831 834 868 868 865 831 78 77 64 
388 350 320 320 351 388 576 577 657 
657 579 576 79 66 65 80 79 65 
81 80 65 321 322 353 352 351 321 
353 352 321 577 580 729 729 657 577 
871 835 833 833 866 869 833 869 871 
322 323 354 354 353 322 578 660 734 
734 663 578 834 836 837 834 837 870 
870 868 834 86 85 67 323 324 355 
355 354 323 579 657 730 730 660 579 
873 838 835 835 871 873 97 86 68 
68 87 97 324 326 355 580 581 661 
580 661 731 731 729 580 839 837 836 
69 70 88 69 88 98 356 326 325 
325 328 329 325 329 356 581 582 661 
837 839 874 903 870 837 837 874 903 
89 88 70 357 355 326 326 356 357 
582 658 662 662 661 582 875 872 838 
838 873 875 90 72 71 99 90 71 
329 328 327 359 329 327 331 330 327 
327 330 359 665 586 583 583 663 665 
839 840 876 876 874 839 92 74 72 
72 90 92 584 587 738 733 659 584 
738 733 584 840 842 876 73 75 91 
100 89 73 73 91 100 358 356 329 
359 358 329 585 586 664 667 589 585 
585 664 667 880 843 841 841 878 880 
103 76 74 74 92 103 330 331 332 
330 332 362 360 359 330 362 360 330 
665 664 586 842 844 845 842 845 879 
879 876 842 93 91 75 587 588 746 
746 738 587 843 880 882 104 94 76 
76 103 104 332 333 363 363 362 332 
588 666 746 846 845 844 848 846 844 
77 78 107 106 93 77 107 106 77 
333 336 365 365 363 333 668 590 589 
589 667 668 845 846 883 881 879 845 
883 881 845 78 94 107 334 335 369 
369 337 334 669 591 590 590 668 669 
846 848 849 846 849 885 885 883 846 
79 80 95 335 367 371 371 369 335 
669 593 591 886 850 847 847 884 886 
80 81 110 109 95 80 110 109 80 
336 339 370 368 365 336 370 368 336 
592 594 676 676 666 592 81 82 111 
111 110 81 372 338 337 337 369 372 
765 595 593 593 669 766 766 765 593 
849 851 887 887 885 849 82 83 96 
82 96 111 373 340 338 338 372 415 
415 373 338 594 596 676 850 886 921 
921 888 850 83 84 112 112 96 83 
376 370 339 765 677 595 851 852 853 
851 853 887 84 85 113 113 112 84 
340 373 374 596 600 680 596 675 676 
680 675 596 854 853 852 855 854 852 
85 86 115 114 113 85 115 114 85 
375 342 341 341 374 375 597 677 774 
774 685 597 853 854 891 889 887 853 
891 889 853 86 97 115 342 375 419 
419 377 342 598 599 601 670 599 598 
598 601 602 598 602 671 671 670 598 
854 855 856 854 856 894 893 891 854 
894 893 854 116 97 87 87 98 117 
117 116 87 343 377 378 343 378 382 
603 601 599 604 603 599 674 604 599 
599 670 674 88 89 119 118 98 88 
119 118 88 344 382 421 421 383 344 
600 608 686 686 680 600 856 857 894 
89 100 121 121 119 89 417 376 345 
345 384 417 605 602 601 601 603 611 
896 894 857 101 92 90 90 99 101 
346 347 387 422 386 346 346 387 422 
602 605 610 602 610 682 682 671 602 
931 859 858 858 895 929 858 929 931 
91 93 102 102 100 91 347 348 387 
603 604 606 603 606 607 603 607 611 
931 860 859 92 101 124 125 103 92 
92 124 125 348 349 423 423 387 348 
679 606 604 604 674 678 604 678 679 
932 897 860 860 931 932 126 102 93 
93 106 126 349 350 424 424 423 349 
605 609 610 933 862 861 861 898 933 
94 104 105 94 105 107 350 388 425 
425 424 350 612 607 606 684 612 606 
606 679 684 934 863 862 862 933 934 
109 108 95 351 352 389 389 388 351 
935 864 863 863 934 935 132 111 96 
96 112 132 352 353 390 391 389 352 
352 390 391 608 613 686 936 899 864 
864 935 936 116 115 97 353 354 392 
392 390 353 694 610 609 609 615 616 
609 616 694 868 867 865 118 117 98 
354 355 395 395 392 354 694 682 610 
866 867 869 120 101 99 355 357 395 
867 868 870 901 869 867 867 870 901 
100 102 122 122 121 100 397 357 356 
356 358 397 686 613 612 612 684 686 
101 120 135 101 123 124 135 123 101 
396 395 357 397 396 357 902 871 869 
869 901 902 138 122 102 102 126 138 
358 359 361 358 361 399 399 397 358 
706 617 614 614 702 790 790 706 614 
903 901 870 140 104 103 103 125 140 
359 360 361 618 616 615 904 873 871 
871 902 904 141 105 104 104 140 141 
402 361 360 360 362 403 403 402 360 
616 618 619 616 619 701 701 694 616 
872 875 908 908 878 872 127 107 105 
158 127 105 105 141 158 400 399 361 
402 400 361 792 620 617 617 706 792 
906 875 873 873 904 906 106 107 127 
142 126 106 106 127 142 362 363 364 
362 364 403 623 619 618 630 623 618 
874 876 877 874 877 907 907 903 874 
366 364 363 363 365 366 623 622 619 
619 622 700 619 700 701 875 906 911 
911 908 875 108 109 129 129 128 108 
364 366 406 405 403 364 406 405 364 
620 792 797 797 708 620 879 877 876 
109 110 130 130 129 109 409 366 365 
365 368 409 621 622 626 704 622 621 
621 624 625 629 624 621 621 625 704 
621 626 629 877 879 913 910 907 877 
913 910 877 110 111 131 144 130 110 
110 131 144 409 406 366 622 623 626 
704 700 622 912 880 878 878 908 912 
132 131 111 413 371 367 367 411 413 
630 626 623 879 881 913 112 113 145 
145 132 112 368 370 412 410 409 368 
412 410 368 628 625 624 624 627 628 
631 627 624 624 629 631 915 882 880 
880 912 915 113 114 146 146 145 113 
369 371 414 414 372 369 625 628 705 
625 699 704 705 699 625 881 883 917 
914 913 881 917 914 881 114 115 133 
114 133 147 147 146 114 370 376 417 
417 412 370 916 884 882 882 915 916 
115 116 133 371 413 414 633 628 627 
627 631 634 627 632 633 634 632 627 
883 885 918 918 917 883 116 117 148 
148 133 116 372 414 453 453 415 372 
628 633 707 707 705 628 952 886 884 
884 916 952 117 118 149 149 148 117 
455 374 373 373 415 454 373 454 455 
885 887 922 922 918 885 118 119 150 
150 149 118 416 375 374 455 416 374 
952 921 886 119 121 151 151 150 119 
375 416 456 456 419 375 887 889 922 
120 134 135 709 633 632 632 634 635 
632 635 636 632 636 711 711 709 632 
925 890 888 888 921 925 121 122 153 
153 151 121 457 378 377 377 419 457 
709 707 633 889 891 924 923 922 889 
924 923 889 122 138 154 154 153 122 
459 382 378 378 457 458 378 458 459 
926 892 890 890 925 926 157 124 123 
123 135 137 123 137 157 420 380 379 
379 383 460 516 420 379 379 460 516 
637 636 635 891 893 927 927 924 891 
139 125 124 157 139 124 452 381 380 
380 420 452 636 637 713 712 711 636 
713 712 636 926 895 892 125 139 140 
418 384 381 450 418 381 452 450 381 
639 638 637 637 638 713 893 894 928 
928 927 893 142 138 126 459 421 382 
638 639 640 638 640 715 714 713 638 
715 714 638 894 896 928 158 142 127 
383 421 460 895 926 980 980 929 895 
128 129 160 160 159 128 418 417 384 
640 641 716 716 715 640 896 900 928 
129 130 143 129 143 160 385 386 482 
482 480 385 641 642 717 717 716 641 
966 898 897 897 932 966 144 143 130 
386 422 482 642 644 718 718 717 642 
967 933 898 898 966 967 131 132 161 
189 144 131 131 161 189 485 422 387 
387 423 486 486 485 387 645 644 643 
930 900 899 936 930 899 132 145 162 
162 161 132 388 389 426 426 425 388 
644 645 719 719 718 644 930 928 900 
165 147 133 133 148 166 166 165 133 
389 391 428 428 426 389 645 646 722 
721 719 645 722 721 645 905 902 901 
901 903 905 136 135 134 152 136 134 
427 391 390 390 392 394 390 394 427 
937 904 902 902 905 937 135 136 137 
391 427 428 819 648 647 647 727 819 
907 905 903 176 137 136 136 152 172 
136 172 176 392 393 394 395 393 392 
648 819 820 724 649 648 820 724 648 
909 906 904 937 909 904 180 157 137 
137 176 180 430 394 393 393 395 396 
393 396 433 433 430 393 724 650 649 
905 907 910 905 910 937 138 142 156 
174 154 138 138 156 174 429 427 394 
430 429 394 725 651 650 650 724 725 
906 909 911 155 140 139 178 155 139 
139 157 177 139 177 178 726 652 651 
651 725 726 179 141 140 140 155 179 
396 397 398 396 398 433 821 653 652 
652 726 821 908 911 939 939 912 908 
179 158 141 399 398 397 653 821 822 
822 655 653 940 911 909 909 937 938 
909 938 940 182 156 142 142 158 182 
398 399 401 398 401 432 398 432 433 
654 823 825 654 655 823 825 656 654 
910 913 941 938 937 910 941 938 910 
143 144 188 187 160 143 188 187 143 
399 400 401 655 822 823 940 939 911 
190 188 144 144 189 190 435 401 400 
400 402 436 436 435 400 656 825 826 
826 728 656 944 915 912 912 939 944 
145 146 163 163 162 145 434 432 401 
435 434 401 657 729 736 736 730 657 
913 914 941 146 147 164 164 163 146 
402 403 404 402 404 436 658 659 732 
732 662 658 914 917 948 948 941 914 
165 164 147 405 404 403 733 732 659 
946 916 915 915 944 946 148 149 167 
167 166 148 404 405 437 437 436 404 
660 730 735 735 734 660 916 946 953 
953 952 916 149 150 168 168 167 149 
405 406 441 441 437 405 661 662 737 
737 731 661 917 918 919 917 919 948 
150 151 169 169 168 150 406 407 408 
409 407 406 406 408 441 662 732 743 
743 737 662 920 919 918 922 920 918 
151 153 171 171 169 151 446 408 407 
407 409 410 407 410 448 448 446 407 
739 665 663 663 734 739 919 920 955 
951 948 919 955 951 919 152 170 172 
408 440 441 442 440 408 446 442 408 
664 665 747 747 667 664 920 922 923 
920 923 959 959 955 920 153 154 192 
192 171 153 665 739 748 748 747 665 
958 925 921 921 952 956 921 956 958 
154 174 194 194 192 154 410 412 450 
450 448 410 666 676 746 155 178 220 
220 179 155 451 413 411 411 449 451 
754 668 667 667 747 754 923 924 961 
961 959 923 197 174 156 156 182 197 
412 417 418 412 418 450 760 669 668 
668 754 760 924 927 963 963 961 924 
200 177 157 157 180 200 518 414 413 
413 451 518 669 760 771 771 766 669 
962 926 925 925 958 977 977 962 925 
158 179 181 158 181 182 414 518 519 
519 453 414 670 671 672 670 672 673 
670 673 674 926 962 980 159 160 186 
186 184 159 415 453 520 520 454 415 
758 672 671 671 682 683 671 683 758 
927 928 930 927 930 963 187 186 160 
571 521 416 416 455 571 521 456 416 
742 673 672 758 742 672 161 162 206 
205 189 161 206 205 161 752 674 673 
742 737 673 673 737 743 673 743 752 
983 931 929 929 980 983 162 163 207 
207 206 162 752 678 674 930 936 965 
965 963 930 163 164 208 208 207 163 
419 456 522 522 457 419 746 676 675 
675 680 681 675 681 753 753 746 675 
983 932 931 164 165 209 209 208 164 
516 514 420 514 447 420 420 447 452 
995 966 932 932 983 995 165 166 210 
210 209 165 421 459 524 524 460 421 
827 774 677 677 765 827 968 934 933 
933 967 968 166 167 211 211 210 166 
530 482 422 422 485 530 764 679 678 
678 752 759 678 759 764 985 935 934 
934 968 985 167 168 212 212 211 167 
423 424 487 487 486 423 679 681 684 
764 681 679 984 936 935 985 984 935 
168 169 213 213 212 168 424 425 488 
488 487 424 684 681 680 686 684 680 
984 965 936 169 171 216 216 213 169 
425 426 488 764 753 681 173 172 170 
191 173 170 426 428 489 489 488 426 
695 683 682 682 694 695 943 940 938 
938 941 943 171 192 216 490 428 427 
427 429 495 495 490 427 683 695 770 
763 758 683 770 763 683 939 940 942 
939 942 945 945 944 939 172 173 175 
172 175 176 549 489 428 428 490 549 
943 942 940 195 175 173 173 191 193 
173 193 195 429 430 493 429 493 495 
685 774 778 778 696 685 948 943 941 
221 194 174 174 197 221 433 431 430 
430 431 493 942 943 947 947 945 942 
198 176 175 175 195 198 433 432 431 
431 432 497 431 491 493 497 491 431 
687 688 689 699 688 687 687 689 691 
691 690 687 687 690 697 687 697 699 
951 947 943 943 948 951 199 180 176 
176 198 199 432 434 497 787 781 688 
781 689 688 688 698 787 699 698 688 
944 945 949 949 946 944 219 178 177 
177 200 219 689 768 769 773 768 689 
781 773 689 769 691 689 945 947 950 
950 949 945 178 219 243 243 220 178 
434 435 499 498 497 434 499 498 434 
690 691 693 693 692 690 690 692 700 
700 697 690 946 949 969 969 953 946 
196 181 179 220 196 179 435 436 501 
501 499 435 762 693 691 769 762 691 
954 950 947 947 951 954 180 199 247 
247 200 180 436 437 438 436 438 501 
692 693 695 695 694 692 692 694 701 
701 700 692 201 182 181 181 196 223 
223 201 181 504 438 437 441 439 437 
437 439 504 770 695 693 693 762 770 
949 950 970 970 969 949 201 197 182 
502 501 438 503 502 438 504 503 438 
950 954 971 971 970 950 183 184 185 
183 185 202 441 440 439 439 440 507 
507 504 439 955 954 951 186 185 184 
440 442 443 440 443 507 696 778 833 
833 702 696 952 953 956 185 186 225 
224 202 185 225 224 185 704 699 697 
697 700 704 972 956 953 953 969 972 
186 187 203 186 203 225 445 443 442 
442 444 445 446 444 442 698 699 705 
698 703 787 705 703 698 954 955 957 
954 957 971 187 188 204 204 203 187 
443 445 509 443 506 507 508 506 443 
509 508 443 959 957 955 188 190 226 
226 204 188 511 445 444 444 446 448 
448 447 444 444 447 511 976 958 956 
956 972 976 205 190 189 510 509 445 
511 510 445 957 959 960 957 960 975 
975 971 957 190 205 227 227 226 190 
835 790 702 702 833 835 958 976 977 
214 193 191 447 448 452 514 511 447 
703 786 787 795 786 703 703 705 707 
703 707 795 961 960 959 192 194 238 
237 216 192 238 237 192 448 450 452 
960 961 964 960 964 978 978 975 960 
218 195 193 193 214 217 193 217 218 
449 513 517 517 451 449 961 963 964 
194 221 238 706 790 838 838 792 706 
962 977 981 981 980 962 222 198 195 
195 218 240 240 222 195 451 517 569 
569 518 451 707 709 710 707 710 795 
965 964 963 196 220 244 244 223 196 
708 797 841 841 801 708 964 965 982 
982 978 964 197 201 248 245 221 197 
248 245 197 453 519 520 800 710 709 
709 711 800 984 982 965 222 199 198 
454 520 570 454 570 571 571 455 454 
710 794 795 800 794 710 996 967 966 
966 995 996 199 222 246 199 246 247 
804 800 711 711 712 804 998 968 967 
967 996 998 241 219 200 247 241 200 
456 521 572 572 522 456 807 804 712 
712 713 714 712 714 807 999 985 968 
968 998 999 201 223 249 249 248 201 
457 522 573 573 458 457 969 970 973 
973 972 969 202 224 250 458 573 574 
458 574 575 575 459 458 809 807 714 
811 809 714 714 715 811 970 971 974 
974 973 970 203 204 254 252 225 203 
253 252 203 254 253 203 575 524 459 
715 716 811 975 974 971 204 226 254 
523 516 460 524 523 460 812 811 716 
716 717 812 972 973 986 986 976 972 
205 206 256 256 227 205 576 462 461 
461 463 576 814 812 717 717 718 814 
973 974 987 987 986 973 206 207 228 
206 228 256 579 525 462 462 576 579 
525 468 462 815 814 718 718 719 815 
974 975 990 990 987 974 207 208 229 
229 228 207 577 576 463 463 464 577 
816 815 719 719 721 816 975 978 990 
208 209 230 230 229 208 580 577 464 
581 580 464 464 465 581 720 817 858 
858 723 720 979 977 976 988 979 976 
976 986 988 209 210 257 257 230 209 
465 469 581 818 816 721 721 722 818 
977 979 981 258 257 210 210 211 258 
466 525 578 578 527 466 527 467 466 
466 468 525 978 982 992 992 990 978 
211 212 231 211 231 258 527 472 467 
723 858 859 859 727 723 993 981 979 
979 988 993 212 213 232 232 231 212 
724 820 861 861 725 724 980 981 983 
213 216 233 233 232 213 469 526 582 
582 581 469 725 861 862 862 726 725 
995 983 981 981 993 995 214 215 217 
658 526 470 659 658 470 470 471 659 
863 821 726 726 862 863 982 984 997 
997 992 982 236 217 215 215 234 236 
471 584 659 471 474 584 860 819 727 
727 859 860 261 233 216 216 237 261 
472 527 583 583 473 472 824 818 728 
826 824 728 984 985 997 239 218 217 
217 236 239 473 583 586 586 475 473 
729 731 741 741 736 729 999 997 985 
218 239 266 266 240 218 587 584 474 
474 477 587 740 735 730 730 736 740 
986 987 989 989 988 986 219 241 242 
219 242 243 586 585 475 585 476 475 
731 737 742 742 741 731 990 989 987 
220 243 244 476 585 589 589 479 476 
732 733 744 744 743 732 988 989 994 
994 993 988 265 238 221 221 245 265 
588 587 477 477 478 588 733 738 745 
745 744 733 989 990 991 989 991 994 
222 240 267 267 246 222 478 528 588 
478 480 528 734 735 749 749 739 734 
992 991 990 223 244 269 269 249 223 
479 589 590 590 481 479 735 740 750 
750 749 735 991 992 999 998 994 991 
999 998 991 224 225 251 291 250 224 
224 251 291 529 528 480 480 482 529 
751 740 736 736 741 751 992 997 999 
252 251 225 481 590 591 591 483 481 
993 994 996 996 995 993 226 227 255 
255 254 226 530 529 482 753 745 738 
738 746 753 998 996 994 227 256 271 
271 255 227 591 484 483 755 748 739 
739 749 755 272 256 228 273 272 228 
228 229 273 595 531 484 484 591 593 
484 593 595 757 750 740 740 751 757 
229 230 273 594 530 485 485 536 594 
485 486 536 741 742 758 758 751 741 
230 257 274 274 273 230 486 535 536 
486 487 535 259 258 231 231 232 259 
538 535 487 487 488 538 743 744 752 
298 259 232 232 276 298 232 233 276 
546 538 488 488 489 546 744 745 759 
759 752 744 233 261 276 549 546 489 
745 753 764 764 759 745 260 235 234 
234 235 236 490 547 548 490 548 549 
490 495 547 235 260 262 235 262 279 
280 264 235 235 279 280 264 236 235 
491 492 494 496 492 491 494 493 491 
497 496 491 747 748 761 767 754 747 
747 761 767 264 239 236 541 540 492 
550 541 492 540 494 492 492 496 550 
748 755 761 278 261 237 237 263 278 
237 238 263 493 494 495 749 750 756 
756 755 749 265 263 238 494 540 544 
494 544 547 547 495 494 762 756 750 
750 757 762 239 264 282 282 266 239 
763 757 751 751 758 763 240 266 283 
283 267 240 551 550 496 496 497 498 
496 498 551 241 268 284 284 242 241 
241 247 268 242 284 310 310 285 242 
285 243 242 552 551 498 498 499 552 
772 760 754 754 767 772 285 244 243 
499 500 552 501 500 499 769 768 755 
755 756 769 768 761 755 286 269 244 
244 285 286 557 552 500 500 501 502 
500 502 557 756 762 769 287 265 245 
245 270 287 245 248 270 770 762 757 
757 763 770 246 267 288 288 268 246 
268 247 246 502 554 557 502 503 554 
558 554 503 503 504 505 503 505 558 
248 249 270 507 505 504 776 771 760 
760 772 776 249 269 289 289 270 249 
561 558 505 505 506 561 507 506 505 
761 768 773 773 767 761 291 290 250 
562 561 506 506 508 562 319 291 251 
251 292 319 251 252 292 252 253 292 
563 562 508 564 563 508 508 509 564 
293 292 253 294 293 253 253 254 294 
509 510 564 828 827 765 765 766 828 
254 255 294 510 512 565 565 564 510 
510 511 512 766 771 829 829 828 766 
255 271 295 295 294 255 515 512 511 
511 514 515 777 772 767 767 773 777 

