# vtk DataFile Version 5.1
vtk output
ASCII
DATASET POLYDATA
POINTS 1000 double
-4.449265329 3.6636337778 -0.88355093541 -4.1852796158 3.8299208914 -0.84748337886 -4.3290931105 3.6589437833 -0.58385743747 
-4.5501183577 3.4583613309 -0.62786418542 -4.6454814043 3.4409770067 -0.93623707265 -3.8844029521 3.963677172 -0.77984611244 
-4.0802330784 3.8194540628 -0.58239441286 -4.0718875118 3.6550306037 -0.33635457983 -4.3117429825 3.4401096889 -0.36254341739 
-4.5287529046 3.1963329423 -0.43933290909 -4.7203318183 3.1930984137 -0.7050268258 -4.7698623841 3.1755749083 -0.97756291568 
-4.7595537634 2.948124786 -0.57891462754 -4.8796277193 2.9172673431 -0.97547897374 -4.9101914247 2.7113387482 -0.71523168814 
-4.9884198711 2.6336021067 -1.0352675098 -3.371061728 4.1676593704 -0.38010319182 -3.1156673156 4.3106709388 -0.64021530714 
-3.0374386423 4.3110308638 -0.3434860916 -3.3717524035 4.194075094 -0.67396680305 -3.6106829342 3.9816780083 -0.28130594641 
-3.3814803362 3.9808580185 -0.06794998572 -3.5763889213 3.7468137854 -0.012383308027 -3.6329956372 4.0648685436 -0.65430727381 
-3.8420081601 3.8966651242 -0.42390491074 -3.8128690232 3.6933675478 -0.15058434305 -4.2481710337 3.1634399341 -0.24005830317 
-4.4867056165 2.9199505992 -0.33166958741 -4.6897605468 2.6864139257 -0.42867915876 -4.8693643982 2.454161953 -0.51284417967 
-5.045281623 2.4058772648 -0.79002970356 -5.0186468148 2.17985297 -0.57517160712 -5.0982173945 2.3376894288 -1.0707898634 
-5.2190821923 2.072631536 -1.0847434649 -5.1953695549 2.0613890933 -0.80195793925 -5.3358970963 1.7984579952 -1.0490739956 
-2.5106990153 4.4893219135 -0.5573695831 -2.7300639659 4.4057576309 -0.32003474042 -2.3933057286 4.4602543528 -0.29958310536 
-2.8750989857 4.2299838696 -0.042001180901 -2.5941928598 4.3440536259 -0.0776362989 -3.1772099657 4.1683347902 -0.13144672778 
-3.0706045669 3.9987297312 0.098480002529 -2.8268240021 4.4095390216 -0.60578870635 -3.2591675573 3.7563166505 0.12544093444 
-3.7294432486 3.3802351628 -0.0075740363283 -4.0101676201 3.4020350895 -0.15952808276 -3.9632301077 3.091544999 -0.093594509134 
-4.1839659494 2.8442235203 -0.18490345889 -4.3994100196 2.6193461637 -0.26545848657 -4.5907813129 2.3953243588 -0.313563519 
-4.782382215 2.1598134807 -0.35865028393 -4.966065844 1.9393448434 -0.38646503179 -5.1868101649 1.8573132619 -0.56270940793 
-5.054140491 1.672213364 -0.30358310365 -5.3486034243 1.7018920539 -0.76968469996 -5.2928534778 1.5660698295 -0.48076714276 
-5.4469949634 1.4938090769 -1.0132382794 -5.4378821285 1.368062247 -0.70569868624 -5.5094703058 1.1880846343 -0.93918834057 
-2.1558373173 4.5112310378 -0.47066458173 -1.8474252619 4.4626817792 -0.34693573044 -2.0788312255 4.4300211893 -0.16489032881 
-2.3138205658 4.3534188156 -0.014593506774 -2.5698334553 4.1520840243 0.14819911512 -2.7802450418 3.9765240722 0.19584474827 
-2.9645653841 3.706149707 0.23695408958 -3.4389820178 3.5097097451 0.11137103926 -3.4524304665 3.2284713878 0.11445143705 
-3.6775449318 3.0291387724 0.019862407685 -3.8714740772 2.7645805302 -0.075164391205 -4.0719311103 2.536311931 -0.15579453023 
-4.2745812413 2.3273943559 -0.20994733101 -4.5083413638 2.0864823054 -0.23638693234 -4.7307834636 1.8121856549 -0.22906952508 
-5.3450275624 1.2552130974 -0.44561234637 -5.1378726575 1.3570263704 -0.26290499661 -5.4158074939 1.0093923543 -0.602584161 
-5.1989008854 1.0077284561 -0.3262236239 -5.4933123275 0.90288106142 -0.86218684428 -2.0197101314 4.29212659 0.12529691942 
-1.7742501545 4.3558742827 -0.024475658231 -2.2865150089 4.1647592545 0.19937638036 -2.4003118547 3.9089045383 0.30955957781 
-2.6469930685 3.699717154 0.31214976417 -2.8180209444 3.415147584 0.29764991861 -3.1380000935 3.4277040255 0.21798252341 
-3.2055584583 3.1144762452 0.18273037352 -3.3965130522 2.8854183552 0.092212770225 -3.5749501725 2.6672493738 -0.0011151569335 
-3.7427685165 2.4300073181 -0.08751708293 -3.9396219303 2.2078571247 -0.14970777629 -4.1859913772 2.0422771134 -0.18004135912 
-4.4154030285 1.7986235647 -0.17074033201 -4.844447516 1.48699452 -0.17449159942 -4.5441853092 1.514625814 -0.12994141755 
-4.9297446345 1.1580177551 -0.16276809483 -5.2862919318 0.71757017907 -0.52044526446 -5.4064744818 0.63319323178 -0.7755890484 
-5.2657782265 0.38378987203 -0.68203411787 -1.5066587435 4.2059087301 0.069546507576 -1.7622997507 4.1445179651 0.24259849341 
-2.0545404046 4.0215367963 0.31808919302 -1.5687642151 4.3628070879 -0.24970519658 -2.08172217 3.7269456457 0.4073717065 
-2.5099078847 3.3718808058 0.36046167822 -2.3485727688 3.6157299852 0.3809633552 -2.6516062808 3.0871671844 0.30646782361 
-2.9332913057 3.120215702 0.25312441454 -3.0689469004 2.8244086195 0.16693421121 -3.2399733029 2.5855909203 0.064763343601 
-3.4174307309 2.3536707578 -0.035627040796 -3.6168058181 2.1135339933 -0.1179529424 -3.8218112132 1.8867906932 -0.15589325761 
-4.0994086598 1.7717267606 -0.15581775197 -4.2428834732 1.5124128651 -0.12249965539 -4.6374723366 1.2147006657 -0.094372023802 
-4.9458624229 0.85963400451 -0.19368305283 -5.092827305 0.68153803255 -0.32545704462 -5.0852182505 0.40906298698 -0.42829875152 
-1.3290461422 4.2429752587 -0.17826100821 -1.2301568235 4.0449221375 0.11941284185 -1.4865773159 3.9692508726 0.30902694479 
-1.7795300486 3.8593918836 0.39759327306 -1.8496365396 3.5302365854 0.46403323913 -2.1598200749 3.3601488516 0.42164101807 
-2.3589815604 3.0765185209 0.36232641334 -2.7676647876 2.79554909 0.22676885303 -2.4657535345 2.7742593173 0.27972279344 
-2.9136244114 2.5216843642 0.11949688936 -3.0857188463 2.2813758493 0.0098881572786 -3.2876805568 2.0518509982 -0.087262985292 
-3.4701044164 1.8152687789 -0.14945818598 -3.6466438377 1.6080928873 -0.16481053858 -3.9268769535 1.5368602185 -0.14394439407 
-4.0101080176 1.2369809279 -0.1067707889 -4.3175726861 1.224021031 -0.081405347819 -4.433608931 0.93965279179 -0.055815840214 
-4.7020746868 0.87929370024 -0.10385744997 -4.8415770987 0.5325156317 -0.19484324871 -5.1011550267 0.13229321479 -0.5875045163 
-0.88745199194 3.9879733731 -0.081452917611 -1.0976328774 4.1157605129 -0.15207663057 -0.97961172002 3.8803462222 0.20874689619 
-1.2279898995 3.7858703189 0.37812950279 -1.5289615194 3.6681312443 0.46053387993 -1.854343157 3.2107616344 0.46618295861 
-2.0646621617 3.0339294522 0.40659916846 -2.1481994482 2.7690500752 0.33594196396 -2.5930996147 2.470454371 0.1698945753 
-2.763618916 2.2086905688 0.054332399871 -2.9840139886 1.9664562681 -0.061594977832 -3.1819103159 1.7041050829 -0.14543551556 
-3.372884295 1.4298305336 -0.17723084345 -3.7001083112 1.3054938289 -0.15058060283 -3.8090905587 0.98723498154 -0.10238252496 
-4.109107235 0.93008927065 -0.057789329325 -4.2794283154 0.65550848772 -0.018496432712 -4.5612831914 0.59205925748 -0.064207286722 
-4.6083440598 0.28013889657 -0.099925168912 -4.8743600274 0.20994312358 -0.29983940611 -4.9439857404 -0.094797777414 -0.49295648787 
-0.65938572868 3.8794618133 -0.06887651796 -0.70756007827 3.7718607805 0.22728090335 -0.95405809354 3.6105531854 0.4598067427 
-1.2508577772 3.4774448962 0.52470971381 -1.5644639086 3.3621227676 0.51238340177 -1.6033816164 3.0471699906 0.49411547632 
-1.8202064734 2.8149442855 0.40667420982 -1.9296584651 2.5138846673 0.30265384672 -2.2609422921 2.5126093926 0.24544934998 
-2.3349707569 2.2581059447 0.15482982326 -2.4805134127 2.0689058864 0.068848254716 -2.6941484391 1.8681555203 -0.032387954488 
-2.874481756 1.6300128899 -0.12576751877 -3.0440854444 1.3788970592 -0.18303009194 -3.4922389852 1.1040210481 -0.16246882995 
-3.6790665948 0.7473025594 -0.08496479811 -3.9967203392 0.60534529973 -0.014501555527 -3.7379623448 0.47527537114 -0.019187567936 
-3.9798458996 0.25219968928 0.055805725257 -4.296847132 0.31888176273 0.012547325039 -4.461524243 -0.013170136606 -0.019228072256 
-4.7220042352 -0.046894972447 -0.21768180465 -4.5712062009 -0.33404651591 -0.14861942652 -4.7943862991 -0.34688016024 -0.40815890371 
-4.6427225533 -0.6182824409 -0.34178002417 -0.61610214596 3.5873578939 0.46118478871 -0.7671814983 3.3766075875 0.59831408065 
-0.41993200819 3.7682896211 -0.046357706197 -0.40390347079 3.6741381084 0.2358967554 -1.0233895095 3.2433427379 0.60298148587 
-1.310346558 3.1452809111 0.56267017195 -1.4930137355 2.7840213105 0.46530351227 -1.2135483011 2.85118375 0.55110796118 
-1.6105826227 2.5255265592 0.36286627693 -2.0242663005 2.2300717076 0.19955590009 -2.1517590369 1.9438047601 0.092589450768 
-2.3935621022 1.7936549359 0.0059976545749 -2.5703705761 1.5462779546 -0.091818676982 -2.742683295 1.2921875641 -0.171467949 
-3.1931361146 1.1103872871 -0.1937744446 -3.4091881488 0.81886225808 -0.14687649849 -3.141408202 0.7661349225 -0.18916910816 
-3.4086576304 0.49176770846 -0.093553971652 -4.1625251665 -0.0238703337 0.088063018974 -4.3069947071 -0.32067477447 0.042895505378 
-4.4010807769 -0.63217641461 -0.09384599089 -0.30554312071 3.4945415956 0.47534558589 -0.46621845108 3.3114551364 0.63748033319 
-0.15752488515 3.6618418228 -0.018995742371 -0.94146147357 2.9298797252 0.62840588049 -0.68941511633 3.0722001835 0.67679290705 
-1.2620589232 2.5481051697 0.44256539501 -1.3779240325 2.2814241887 0.3094487217 -1.7054319691 2.2414839448 0.24838160006 
-1.8416441613 1.9527594771 0.13760710301 -1.9842792294 1.6555489279 0.038274054594 -2.2484246625 1.5541901419 -0.030086113521 
-2.417006148 1.2593320846 -0.12860126343 -2.5811399516 0.98667178578 -0.2014207239 -2.8992095554 1.0223562336 -0.21070107927 
-2.8507698212 0.70568108545 -0.22769203794 -3.0986479006 0.44295136747 -0.16307179807 -3.6278157439 0.23400388044 0.022351728386 
-3.2925544212 0.15383111183 -0.046655372522 -3.5433491193 -0.029431898184 0.072608635363 -3.846270137 -0.048339003278 0.1154249922 
-3.9895505064 -0.33623479268 0.14166381985 -4.1286110728 -0.61229764859 0.084005866974 -4.4782963727 -0.90432364619 -0.27004411683 
-0.084376336629 3.567494171 0.25018922751 -0.0031399492167 3.4141096053 0.48230621219 -0.13662590756 3.2330463498 0.66537208704 
-0.40157567261 3.005014961 0.72539164377 0.13184367464 3.5647703457 0.0041161568448 -0.62715996945 2.7314222745 0.66173160399 
-0.94524841428 2.6195450059 0.55082701832 -1.025948469 2.3232848564 0.3940851044 -1.2440237552 2.0281364129 0.21578841788 
-1.5297506064 1.9776024494 0.17428467049 -1.6736713273 1.6834246205 0.075792090459 -1.8084448585 1.3903988913 -0.0035586210184 
-2.1198859449 1.2918377207 -0.069017635266 -1.928815947 1.0801609407 -0.08434693751 -2.2560113062 0.95364611182 -0.16495385233 
-2.5381403272 0.68213026447 -0.24085485723 -2.7656604397 0.40183199765 -0.23307547778 -2.9655499566 0.14708564802 -0.15252894916 
-3.3490122376 -0.23756427396 0.064915211398 -3.6499989837 -0.32561851573 0.14699015197 -3.7699796815 -0.604447912 0.17806092857 
-4.2182731118 -0.9357970251 -0.03682378948 -4.3264493197 -1.2052364415 -0.20838308028 0.72149473644 3.433431519 0.028760549225 
0.42642325932 3.4873859205 0.01904215514 0.53174978703 3.4093031113 0.31781705284 0.23782263984 3.462672979 0.2924200411 
0.24872473077 3.3072116831 0.58770263823 -0.11407311964 2.9324695681 0.76634118221 -0.69307994498 2.4277078606 0.52613868776 
-0.71952632954 2.1598419089 0.36439344439 -0.96786576251 2.0461572808 0.2522362782 -1.3545168178 1.7118378245 0.092519864267 
-1.0697504264 1.7660862373 0.11247048969 -1.4584231706 1.4300573857 0.022875779974 -1.6003260649 1.1492596376 -0.034169152311 
-1.7107747393 0.8564113284 -0.10006597547 -1.9888695168 0.77947721825 -0.15895236789 -2.2514623921 0.59976509544 -0.23187772853 
-2.4628929033 0.33251461171 -0.2718871132 -2.6608877278 0.070495869869 -0.23346337101 -2.8247647921 -0.18027113979 -0.14977195955 
-3.0962944474 -0.13123953228 -0.05095562945 -3.1336707585 -0.45194120791 0.022753726072 -3.4265359947 -0.58758539853 0.15020814052 
-3.6182591043 -0.90886725872 0.17390682233 -3.9423581962 -0.84641799578 0.12031573554 -3.9065257661 -1.1260381152 0.095343861869 
-4.1046397396 -1.2612301174 -0.022579924327 -4.1612627585 -1.5242302568 -0.12206245479 0.58313142629 3.3051842674 0.58941187629 
0.8509138156 3.3596322372 0.33855714339 0.4047136724 3.1129761082 0.76987230271 1.021920776 3.3715954254 0.050828429103 
0.14162546127 3.040881442 0.76526251531 0.1017776616 2.7090959742 0.81016435711 -0.28290799895 2.7061396048 0.7381777856 
-0.36547605848 2.4671846731 0.63612780436 -0.41114838659 2.236052613 0.48986891923 -0.4670101841 1.9998601416 0.31359648736 
-0.74176796549 1.8414109236 0.1680708439 -0.85331392256 1.5699047578 0.039997430721 -1.1171595774 1.4237491065 0.0094112779389 
-1.2700074493 1.1536841688 -0.028988492077 -1.4234826276 0.86064099625 -0.069353044702 -1.6201506012 0.55915433318 -0.15124036978 
-1.9399974585 0.50752766291 -0.21132659412 -2.1684516386 0.26177775307 -0.28129064557 -2.3732117476 -0.024534248704 -0.29279069601 
-2.555128408 -0.30590277349 -0.23734550494 -2.8464896837 -0.49266797313 -0.097460350172 -3.303633976 -0.88571797022 0.13304863669 
-3.0714916202 -0.74149151594 0.037225825085 -3.6541797332 -1.2413954663 0.1484143051 -3.8712235932 -1.490824591 0.064271793988 
-3.9783845837 -1.7878637386 -0.056314796891 0.88814434577 3.2543497368 0.62044127816 0.67400620305 3.0691337409 0.80247433648 
0.96866964918 3.0246324655 0.81090502076 1.1758451317 3.269207468 0.33962896142 1.1665489201 3.1461978498 0.61587994349 
0.4174032771 2.791423267 0.8623323158 1.3292561253 3.2939250949 0.034673573329 -0.021951451097 2.4631574226 0.72338140885 
-0.070255289018 2.2316241696 0.58407264778 -0.16426343873 2.0372002358 0.41823306309 -0.14416555171 1.8188535547 0.25781781179 
-0.44145995938 1.7701155505 0.16366510616 -0.2256614861 1.5727999458 0.07609184981 -0.54161981943 1.5428561406 0.030508190607 
-0.70842230525 1.3180839461 -0.038736237633 -0.91882971346 1.1224639539 -0.056103164263 -1.1058221219 0.88390682087 -0.064993307155 
-0.93725353917 0.65790632008 -0.095000000938 -1.2773262852 0.59783084541 -0.10044950114 -1.5268441956 0.26077863432 -0.21299410339 
-1.8394332691 0.25165997347 -0.25713021108 -2.0565632846 -0.03816801611 -0.32275685933 -1.7688191075 -0.02700242729 -0.31345911538 
-2.206951347 -0.31428938944 -0.33262041378 -2.3733821374 -0.55514642381 -0.28755800317 -2.6151198839 -0.66765371548 -0.18493980875 
-2.8248900471 -0.87398470719 -0.068009150477 -3.0480801679 -1.1107113642 0.048646510933 -3.3635247111 -1.1818396449 0.14780266987 
-3.5300383247 -1.5120879149 0.13096001624 -3.6852442581 -1.7812208523 0.085004303316 -3.7901333251 -2.0582668562 -0.014570050143 
1.4918438063 3.1514996956 0.25351153991 1.6562055316 3.1829522708 0.0078499789876 1.4225678598 3.0303160594 0.50247183709 
0.73523937591 2.7683247811 0.87993181601 0.6289620993 2.4761069465 0.86328401679 0.31718450115 2.4606070205 0.81149442009 
0.24332822833 2.1859578574 0.64859678027 0.1542402028 1.9462710467 0.44190170863 0.10758507221 1.685292676 0.21901907518 
0.036934771614 1.4408940665 0.03272781158 -0.32657215912 1.3039998449 -0.054006138481 -0.52961455527 1.0680258835 -0.099755338318 
-0.71861575015 0.85099004558 -0.10216871783 -0.939822028 0.39212450363 -0.1335096128 -1.2387409811 0.33574237896 -0.15647601748 
-1.4820961865 -0.040915506864 -0.287206042 -1.2292551778 0.044710367818 -0.23384609439 -1.8874912744 -0.36572598051 -0.3755120155 
-2.0631975184 -0.61619162715 -0.37991555989 -2.2742591132 -0.83886212299 -0.3201358889 -2.5249413908 -0.9677786717 -0.20176517325 
-2.7357921242 -1.1899324854 -0.081217147204 -2.9097436362 -1.4208029362 0.014992357736 -3.2112061831 -1.4439343381 0.10624208657 
-3.0607514673 -1.725175038 0.08965960497 -3.3541783852 -1.7638316229 0.1269239749 -3.4818371063 -2.0414663595 0.109196464 
1.8018724703 3.014703815 0.21897029028 1.9777809799 3.0768350696 -0.021126708086 1.7006622557 2.8930410248 0.43787836643 
1.2626041609 2.8792591635 0.73754825862 1.0400227481 2.7395722853 0.85981412674 0.96336204116 2.4760650442 0.87410893945 
0.86291161638 2.2116153341 0.7884470682 0.54968026282 2.1886589324 0.73017717472 0.48185940403 1.9373417716 0.53450343154 
0.400399705 1.7140097107 0.32742585331 0.35158978979 1.4728500518 0.12705366279 0.26471242788 1.2135718046 -0.046455836046 
-0.040010387979 1.1872501332 -0.088207300168 -0.22659275504 0.96468354877 -0.13677711499 -0.40709831705 0.71655897764 -0.14968282255 
-0.6271355074 0.52179757714 -0.13931570533 -0.94191209632 0.11063328447 -0.19476306365 -1.0346672115 -0.19867762732 -0.28033983601 
-1.2896035467 -0.30983556421 -0.33718014277 -1.6175628738 -0.28408417597 -0.35852421697 -1.5018201384 -0.53601623836 -0.41017697426 
-1.7521730258 -0.69999198514 -0.43801919937 -1.9683811195 -0.94309576291 -0.42110429072 -2.1969390031 -1.1320426458 -0.32860494492 
-2.4423692564 -1.2645869789 -0.20950677841 -2.1964058037 -1.4427972725 -0.28991296197 -2.5600687149 -1.5006113287 -0.11826451636 
-2.7616411359 -1.6984969653 0.00013593185308 -2.8636642459 -1.9687068734 0.080814359948 -3.1496571847 -2.0432061566 0.1353257619 
-3.2851240359 -2.3050140043 0.1372313893 -3.6073333104 -2.322821851 0.026642134241 2.2839619526 2.9747881175 -0.018799826037 
2.085173647 2.9019673946 0.2046898904 2.0203773035 2.7327937159 0.41335312719 1.5163559478 2.7485122484 0.65691454049 
1.2975544026 2.5516403391 0.82214998702 1.2079470108 2.2554193536 0.8154279488 0.78608031661 1.9376019742 0.61449486853 
0.70489384603 1.6872493092 0.40043419626 0.65792568837 1.4525402014 0.20107058646 0.57106654192 1.2088818276 0.010107067496 
0.41955648246 0.9435565283 -0.13699571551 0.10422658852 0.91332837476 -0.15740986629 -0.096295855051 0.64212745603 -0.1950902829 
-0.3028045386 0.36681437613 -0.20375222321 -0.64240202318 0.22581290201 -0.18374590166 -0.42453006701 0.045661400848 -0.23813227104 
-0.7329348415 -0.11203154341 -0.24522293889 -0.85244212685 -0.43144444224 -0.32723808759 -1.1422431148 -0.59607500355 -0.39672928843 
-1.4107131865 -0.81447281253 -0.46767408847 -1.666080809 -1.0256848365 -0.47745979002 -1.8887401757 -1.2906131393 -0.41883252994 
-1.9513059093 -1.6326680043 -0.34522840687 -2.246137098 -1.7312245184 -0.20298559962 -2.491613867 -1.8175859615 -0.076858501338 
-2.6068729529 -2.0743687081 0.03481827256 -2.8968183864 -2.2732155495 0.15036436459 -3.4412210012 -2.5856359703 0.084109526933 
-3.2926266305 -2.8325096982 0.16017360131 2.5585609354 2.9061901503 -0.018026354274 2.3455584934 2.7611227745 0.27113917766 
1.7939577509 2.6457004541 0.57498872074 1.5925412456 2.4479438457 0.73650250708 1.5175997336 2.187152236 0.76367189664 
1.3754550586 1.9591129727 0.70913930368 1.0767061549 1.9722878604 0.6921524851 1.2714109916 1.7245292487 0.57388634293 
0.99158171967 1.6884782585 0.4852223796 0.96592601012 1.4250054726 0.27622559958 1.248186191 1.4490255586 0.37662099227 
0.88073332311 1.1865369288 0.080096786452 0.25311521187 0.6404995104 -0.22582106643 0.070368706895 0.36712508563 -0.25742788119 
-0.066060173822 0.10890512076 -0.2766036203 -0.2031732764 -0.14201517444 -0.29437871612 -0.50414858158 -0.28871279308 -0.29223273245 
-0.57135046059 -0.58844709049 -0.35150410785 -0.84448299989 -0.76449118921 -0.40452888444 -1.1006259518 -0.92881033207 -0.46950552273 
-1.3497357149 -1.119591142 -0.50619204224 -1.5391635176 -1.3349702844 -0.48986401301 -1.6678125571 -1.5784357524 -0.44280307299 
-2.2902320881 -2.0906685 -0.075413871189 -2.0217303891 -1.9656350963 -0.22708644963 -2.5341235774 -2.3412399135 0.09735175701 
-2.7762587324 -2.5466956227 0.20350381154 -3.1016354316 -2.541180865 0.18432031274 -2.9855389752 -2.8176986029 0.25232380088 
2.852886312 2.8527715696 -0.037517400381 2.6757893648 2.7264843554 0.22887907245 2.9787002112 2.6352215254 0.22201024068 
2.486597205 2.5521303283 0.43244090188 2.1891322545 2.4895271242 0.52874469518 1.9050466472 2.4071560918 0.64381548505 
1.8138617576 2.1107968729 0.71047769855 2.1269236657 2.202793045 0.65126569664 1.6593987755 1.8377883533 0.67079812266 
1.5195302301 1.5769774148 0.52710672789 1.2048120294 1.1602771335 0.15581859533 0.73094239738 0.92847308837 -0.10003378025 
1.029466613 0.91625011851 -0.045140643999 0.89411412306 0.63625546328 -0.21123837846 0.56748875673 0.66647921457 -0.22349565835 
0.39383565007 0.34711720203 -0.30453666855 0.26354356736 0.050744343367 -0.33934923632 0.084844515839 -0.24750508849 -0.34996231153 
-0.24276849063 -0.43453220834 -0.33567716319 -0.3159068103 -0.7522890772 -0.37737768651 -0.57210963081 -0.93554908159 -0.41662248595 
-0.80811080956 -1.1179367183 -0.46999539744 -1.0672249211 -1.2486120224 -0.51325923859 -1.2311161574 -1.4840786449 -0.52291299419 
-1.3981215658 -1.7244160544 -0.48415819304 -1.7490535356 -1.8723920949 -0.35574115162 -1.7325759676 -2.1804543609 -0.26535007347 
-1.9847326683 -2.2795077815 -0.12646157642 -2.2324895404 -2.4139482778 0.026112244656 -2.4601568046 -2.633130719 0.18271001935 
-2.6763361277 -2.8353544273 0.28049887134 -2.8626518062 -3.1093971445 0.32659230138 -3.1435719234 -3.1110285865 0.23470411239 
3.137281486 2.7757481632 -0.055440209472 3.421215177 2.6833088333 -0.074183068312 3.2699454413 2.5584915845 0.17214307874 
2.8049937139 2.4648706694 0.42540091845 2.5015515719 2.2886821471 0.56561442596 2.3383036892 2.03131101 0.64693367596 
2.0407032803 1.8643058971 0.66831828239 1.8625034356 1.6108888218 0.58755773419 1.7149169702 1.3718807738 0.43043846414 
1.4843981492 1.2574883022 0.30164546952 1.3474356709 0.89771979772 0.012709993982 1.2267125268 0.68157369196 -0.14760660823 
1.155129509 0.44777965573 -0.28307436015 0.68248285239 0.39509398288 -0.31283961036 0.92349193184 0.27199587339 -0.35923618493 
0.61084598022 0.061764930296 -0.39232332192 0.41406762896 -0.25282092276 -0.40517357108 -0.030729268595 -0.58797332135 -0.3727263216 
0.21868571789 -0.57262572595 -0.40047698034 -0.051432946118 -0.89823558441 -0.40331133158 -0.32375314681 -1.0991239855 -0.42997553749 
-0.57923491597 -1.3176740003 -0.4794571371 -0.87224443851 -1.5076416829 -0.5240825761 -1.0771403985 -1.7950880461 -0.52402655827 
-1.4991259994 -1.9992016371 -0.40120699843 -1.2268291245 -2.0753843742 -0.45102208126 -1.4174493063 -2.3102471011 -0.32254775702 
-1.6477598733 -2.4595261026 -0.17564589221 -1.9247070576 -2.5758134518 -0.014896911863 -2.1749259618 -2.7380036172 0.15213350401 
-2.36227458 -2.9485983864 0.29133648801 -2.5883647833 -3.118672716 0.36740357364 -2.9698684151 -3.3979132598 0.31634319707 
3.6931642329 2.6050802386 -0.084283686267 3.1387080455 2.3641172512 0.39558941639 2.8423623815 2.1912886853 0.55330015661 
2.6368028213 1.9673370956 0.62821633642 2.3885971781 1.7376179601 0.63207657401 2.1757626612 1.5431433603 0.57978760571 
2.0003379172 1.3262286339 0.44979538626 1.8456723318 1.1089056049 0.27708934488 1.5861128546 1.0195894003 0.15511880204 
1.6561913327 0.78312372283 0.0028337903801 1.5241941351 0.57798189077 -0.16145415903 1.4414267627 0.33795547611 -0.3155802885 
1.2248582241 0.16202428638 -0.40807037174 0.95784503513 -0.017129523764 -0.44549417489 0.76146800083 -0.23441754677 -0.45880989407 
0.67018304083 -0.49076285119 -0.46172554476 0.45423872871 -0.63387757889 -0.43602756017 0.23667991247 -0.94957768288 -0.42445836755 
-0.008049344152 -1.2153057249 -0.43577976111 -0.26026269542 -1.4230468161 -0.46798171944 -0.53371924245 -1.6386772847 -0.51094463221 
-0.76032085729 -1.8334502501 -0.53250933316 -0.94191070463 -2.1202707772 -0.49136142388 -1.1192218501 -2.3926030181 -0.37775565336 
-1.2989709074 -2.6332892488 -0.20806925475 -1.5991642591 -2.7096712201 -0.061450728528 -1.8988556254 -2.8567052977 0.12639177344 
-2.0879817412 -3.0844926387 0.30686089097 -2.3422908982 -3.2761021857 0.42773852388 -2.658354367 -3.3991928173 0.42725759434 
-2.8068482301 -3.6708922541 0.40987731404 3.9925967283 2.5383377368 -0.093100126066 3.808657053 2.3826270635 0.10822889706 
3.517741714 2.4202235572 0.19010093329 3.1474241048 2.0620266347 0.53741608336 2.9305444159 1.8472367493 0.61302411943 
2.6967711493 1.628950917 0.60911587748 2.4865404494 1.4059547077 0.53321086573 2.2750040328 1.2420506929 0.43169698405 
2.1494933031 1.0229754728 0.27207071108 2.3067969397 0.80928486141 0.14524538677 1.9539892476 0.8294711287 0.098255231207 
1.8669481563 0.56524433998 -0.10451060409 1.7532245777 0.32061373827 -0.27796480203 1.5892733538 0.061189075898 -0.42241001589 
1.3087583013 -0.096190676967 -0.48425220484 1.1113882556 -0.29848115952 -0.50447339971 0.98121749878 -0.54341923323 -0.50464922704 
0.54207818907 -0.88524071917 -0.45043541385 0.80928591086 -0.78890889677 -0.48141372 0.55678279358 -1.1349896888 -0.45187854596 
0.31492936278 -1.3013533607 -0.44423723542 0.092463478872 -1.5361041585 -0.46132975588 -0.1918155846 -1.7255141848 -0.49122681182 
-0.3871255276 -1.9567887241 -0.51434916693 -0.64367272804 -2.1166043838 -0.5154566655 -0.78742431948 -2.4017291242 -0.4391156562 
-0.9545971119 -2.6503683712 -0.30093593927 -1.3164617217 -2.9228084316 -0.023917013624 -1.6037344574 -2.9432265988 0.083382073886 
-1.7653950389 -3.1240964764 0.25122816453 -1.9082020969 -3.3354971983 0.41919897279 -2.1657696847 -3.4664801049 0.51310571278 
-2.4738653817 -3.6277882647 0.53076664346 -2.6794398963 -3.9318237286 0.50904896523 4.2761382524 2.5317014662 -0.10683985129 
3.755992258 2.1473555024 0.29619179702 3.433314309 2.1915348692 0.39022402849 3.4372857579 1.9112941192 0.50424736247 
3.2369828125 1.7102554032 0.57391165518 2.9996627947 1.5106171642 0.57304222645 2.7545462299 1.2928736526 0.49634879119 
2.8188887069 1.0267177162 0.34954805745 2.4996618535 1.0575333526 0.34140681812 2.1824545064 0.58137686011 -0.035031933387 
2.4919790142 0.57515407109 0.011340496284 2.0943984866 0.34402381583 -0.20628556971 1.9748578257 0.1003400178 -0.36241935255 
1.8403827745 -0.13561271425 -0.46793762098 1.5303249652 -0.30046299292 -0.51703538424 1.3288988568 -0.5513098996 -0.53341676513 
1.1359575273 -0.822037491 -0.51009430344 0.89252405943 -1.0862832552 -0.47487837493 0.69578986243 -1.386812787 -0.4524540451 
0.45059213067 -1.6108808175 -0.45292063998 0.10502057677 -1.8501226314 -0.47871373367 -0.10344962505 -2.1250278909 -0.49143849707 
-0.42458262604 -2.3063905899 -0.48616237487 -0.57775739234 -2.615098601 -0.39136535801 -0.76665859489 -2.8851856967 -0.21506660992 
-1.0476821266 -2.9069552374 -0.12025531357 -1.4109684769 -3.1543809036 0.17140647518 -1.5479388857 -3.3374547266 0.34638303519 
-1.672784123 -3.5368228299 0.52056892836 -1.927914816 -3.6385364357 0.60536331481 -2.1952731355 -3.7553193643 0.64115391547 
-2.4116730313 -3.9573111257 0.64251600991 -2.5514840488 -4.2208029598 0.61689562802 4.5917832426 2.481188895 -0.083945501796 
4.3506072694 2.3025478713 0.04139338019 4.0675601967 2.239005786 0.13368948717 3.7277891435 1.8760312229 0.42892332397 
3.5734420285 1.6089511961 0.50705349227 3.3307579236 1.3932263314 0.5112582813 3.0782509153 1.2097496213 0.45401807616 
3.1423160985 0.91970594689 0.30084363883 2.6131507361 0.79666297735 0.18010647254 2.9061542545 0.75947426452 0.18882133493 
2.7892906394 0.50623087406 0.015798834602 2.7572373523 0.2146883745 -0.15296245416 2.4577253645 0.33995464124 -0.14447005307 
2.3193344737 0.1287102122 -0.28455769259 2.2207029682 -0.11636377923 -0.40796554955 2.129032818 -0.37394274695 -0.49039860414 
1.8370342423 -0.41166308735 -0.519617671 1.6725908397 -0.64185873443 -0.53457148352 1.4779584928 -0.85299368567 -0.52136912629 
1.2414094086 -1.1048493847 -0.48745023909 1.0350361497 -1.3704467581 -0.45471973488 0.84028401906 -1.6509444644 -0.43685584727 
0.69219881061 -1.9122808303 -0.43194653436 0.39506783531 -1.9082838634 -0.45741854811 0.22859738243 -2.1758475961 -0.46726197479 
0.10555903599 -2.4463550644 -0.44422782152 -0.20880490406 -2.4860602509 -0.44597116995 -0.27742236475 -2.7645202436 -0.35809482016 
-0.49143829971 -2.9070173145 -0.26489317381 -0.81516324024 -3.1669935193 -0.0042506164352 -0.54564313475 -3.1495621721 -0.098443047649 
-1.0953754023 -3.1722600023 0.090345484072 -1.209603016 -3.3754983455 0.289376829 -1.3474377061 -3.5604795805 0.48160687436 
-1.4867545849 -3.7412735146 0.65686296098 -1.7015916954 -3.8308722387 0.72834828405 -1.9433558796 -3.9363127786 0.7680414076 
-2.1610817383 -4.0603707361 0.77100257983 -2.2707254983 -4.2962312595 0.78720534546 -2.4550577255 -4.5113882112 0.66340232964 
5.172718053 2.3777246771 -0.055542336113 4.887550714 2.3929830452 -0.043844705842 4.6480983321 2.1926235315 0.075669216161 
4.3383710271 2.0497322035 0.1816921898 4.028474504 1.9339313746 0.30885354783 3.9177010224 1.6081160824 0.42171933051 
3.6649578025 1.3040381053 0.43833059246 3.402568143 1.0882024745 0.38217593327 3.3797743471 0.72071522616 0.20234163235 
3.6156059665 0.90552724147 0.28956348055 3.129308712 0.57597095714 0.10461435352 3.0481740492 0.31143459995 -0.046285838032 
2.5918440041 -0.020670572762 -0.29863390579 2.8117720943 -0.25287666804 -0.32173405462 2.4831140085 -0.33392388008 -0.41668105422 
2.008653584 -0.69691448726 -0.51974710395 1.848203322 -0.96718254914 -0.50479618241 1.5743149316 -1.1288036221 -0.48544086476 
1.7053321856 -1.3678893001 -0.43580974655 1.3705666521 -1.396438257 -0.44391386519 1.1818827581 -1.6610907794 -0.41320324376 
1.0112751702 -1.9343407533 -0.39853987448 0.5486400706 -2.2030725687 -0.4291139271 0.46790483734 -2.4698275851 -0.41057486336 
0.29220839797 -2.7139933383 -0.37537374178 0.004553173803 -2.7611789275 -0.36657854881 -0.20706379798 -3.0536940214 -0.22777392554 
-0.31904227899 -3.321873345 -0.039581756497 -0.89067483416 -3.4127862324 0.21887148783 -0.5896413613 -3.423593356 0.12076676245 
-1.0467236521 -3.6128679079 0.44368079104 -1.2201596624 -3.8146720402 0.67596310136 -1.4115776571 -4.0080452487 0.86002479238 
-1.7158796854 -4.0955929107 0.88736926953 -1.9518633667 -4.2945957293 0.92186788002 -2.2046363484 -4.5810561868 0.82525092019 
-2.3727504132 -4.8107011456 0.67600989025 -2.2807795862 -5.0893274724 0.69433227095 5.4582252822 2.2649680576 -0.010323396004 
5.1634616015 2.1333808212 0.1001749009 4.8859232139 2.0299306118 0.14766867059 4.6006776898 1.8806597787 0.2202195291 
4.2855989555 1.7641069884 0.30449995631 4.2280166581 1.4922848581 0.3608903425 4.0027541014 1.3118906489 0.38760200245 
3.8654912599 1.0665621964 0.3386970662 3.9226298124 0.79149412445 0.23942870722 3.674219329 0.58983704205 0.15941834486 
3.4079935702 0.39174723022 0.055009223297 3.2676609408 0.11525372227 -0.083167272795 2.9934775762 -0.017223324215 -0.19894358948 
2.7298764073 -0.54670184181 -0.39841910285 2.3136715934 -0.61207445956 -0.4820527931 2.528848652 -0.77922623481 -0.44401410279 
2.2271420098 -0.9589945335 -0.4778295525 2.0057920499 -1.24930724 -0.44819793737 1.8145666603 -1.6129822741 -0.3712993763 
1.5085607503 -1.6811243447 -0.38252325317 1.3339221681 -1.963988262 -0.35343974627 1.1438143649 -2.2378072458 -0.34582823063 
0.84333619259 -2.2153087815 -0.39065783357 0.61993756776 -2.7531546917 -0.34598575136 0.82971497712 -2.5098925187 -0.36036386877 
0.40300074478 -2.9781816747 -0.29691907252 0.11648187072 -3.0398403582 -0.26495427077 0.00038327857903 -3.2872905064 -0.13048623355 
-0.39958578055 -3.6530908709 0.22714477967 -0.72951852426 -3.6514519599 0.35829506101 -0.92431132643 -3.8355259955 0.58900737133 
-1.0617502823 -4.0535326027 0.81986847282 -1.2797138098 -4.2591329425 1.0170628554 -1.5879131696 -4.3114560017 1.0120663979 
-1.7160727751 -4.5745103529 1.0537818463 -1.9737892577 -4.6069544611 0.9553137442 -1.8308415741 -4.8808822623 1.0281646292 
-2.1104286384 -4.8940909211 0.8641211777 5.7480827286 2.1706705562 0.029591886997 5.4558914312 1.9817680464 0.20528929869 
5.1456574146 1.8510876091 0.24536608586 4.8723711339 1.6922942815 0.28106183551 4.5796230432 1.570121661 0.31214495142 
4.7475667269 1.2618814865 0.34740982622 4.4296286672 1.283321785 0.34061597785 4.1844009012 1.0581502428 0.31642431358 
4.489712684 0.97675119031 0.30694488767 4.247878232 0.74020492375 0.23734065837 4.0259134457 0.50443169027 0.15768020794 
3.7700007632 0.30895397254 0.074997458113 3.5587502035 0.081854367595 -0.02823810523 3.3470815838 -0.1752893086 -0.15511035152 
3.1291718788 -0.34257891861 -0.25523376721 3.0286718154 -0.60721387904 -0.3279196164 2.8282133495 -0.87410490811 -0.38602406016 
2.5938278786 -1.0852420753 -0.41062847662 2.3412111499 -1.2738728515 -0.41437137929 2.1295745769 -1.5405729801 -0.36632160585 
1.9806212623 -1.8207941255 -0.3052230558 1.6619877799 -1.9601679649 -0.31045854809 1.44723292 -2.2718598037 -0.2940986525 
1.1551199689 -2.5484265677 -0.31089867981 0.91205541956 -2.8362505973 -0.30637356955 0.66109744206 -3.0893983747 -0.26616009613 
0.35758996021 -3.2729041374 -0.18576541329 0.15902356801 -3.5141172271 -0.034444667794 -0.14626070556 -3.535230046 0.05607641812 
-0.076008519674 -3.7913313364 0.19557172074 -0.56641005676 -3.8658775762 0.45552963159 -0.75838090032 -4.0307941338 0.66158737112 
-0.98086110783 -4.316027318 0.93690070214 -1.40433821 -4.5678317082 1.1079532895 -1.9452043211 -5.1397516008 0.93025361959 
-1.542918841 -4.879556117 1.1123345954 -1.6567566336 -5.1715963076 1.0123302722 -2.1022673424 -5.2966221249 0.75791508491 
5.7983773488 1.9505144191 0.24002904075 5.6305896851 1.7317257 0.37876796638 5.3070542413 1.6304866088 0.36075478558 
5.0210570994 1.4401287583 0.36033187168 5.0385529105 1.0931397469 0.39800913506 4.7841915928 0.89363765462 0.33267839506 
4.5630260672 0.63976206995 0.25225272583 4.355429733 0.39961099829 0.17424111762 4.1212755267 0.20414907217 0.10122234439 
3.8760405572 0.015921970726 0.017850085161 3.6676365699 -0.22049951555 -0.07994229814 3.503654477 -0.4649303758 -0.17202561595 
3.3415435275 -0.66912195805 -0.2461348109 3.1279060087 -0.9133040254 -0.31782184937 2.9447954225 -1.2108747872 -0.34328383851 
2.6789661776 -1.3851252138 -0.35466590254 2.4195616587 -1.5967481431 -0.33036352138 2.2649844265 -1.8917082769 -0.26668458103 
1.9417954962 -2.1005037987 -0.24896385593 1.7251202843 -2.3209303922 -0.24431609886 1.4719375906 -2.5967535549 -0.26187491756 
1.2265106331 -2.8664753124 -0.27488459165 0.95790805837 -3.1455713148 -0.25865784759 0.70770113456 -3.3879004648 -0.19042422538 
0.47749867657 -3.5533677368 -0.091748788461 0.23972850766 -3.765971925 0.073135358842 -0.28296276301 -3.953659598 0.37987294464 
-0.49116488209 -4.1517996429 0.59651235366 -0.72759503773 -4.2860612056 0.7867954236 -1.1130375582 -4.555848787 1.0633903419 
-1.2605166851 -4.8854389083 1.078775247 -1.548171387 -5.4033107869 0.74998239278 -1.8211442135 -5.3886646978 0.8066426504 
6.0701714364 2.0840631307 0.072026635305 6.3797351486 1.9082301707 0.14663899407 6.1175099259 1.8987185709 0.28652162941 
5.558576448 1.4304075063 0.48792543999 5.2953923824 1.2796766314 0.45009000542 5.3257755574 0.9282214026 0.47255004367 
5.0861134628 0.74517479335 0.38385046428 4.8690933869 0.5361118802 0.29430758351 4.6655148443 0.29098167344 0.20628342255 
4.2151670536 -0.093844194395 0.060823838264 3.9852736438 -0.25697806805 -0.013929630619 3.8369178594 -0.49959427007 -0.089485438039 
3.7224387879 -0.75496991269 -0.15451574459 3.47663254 -0.95477779185 -0.23577717034 3.2619340595 -1.1714815775 -0.28936021901 
3.2782944635 -1.4677400904 -0.27982197325 3.0010510444 -1.5422341401 -0.2995566136 2.7146085599 -1.6638090954 -0.29710307375 
2.569721197 -1.9083169033 -0.25203851063 2.4897388522 -2.2027696532 -0.20092241535 2.2091079279 -2.2034576796 -0.20907410627 
2.011700666 -2.4343935863 -0.19946726725 1.782420598 -2.6587954489 -0.21977676373 1.5514609951 -2.924761477 -0.25612411157 
1.2458197936 -3.1829350569 -0.26437045043 1.0254583448 -3.4566770679 -0.23254200368 0.79817045018 -3.7109821094 -0.14551316905 
0.51786637918 -3.8333701383 -0.0037167915372 0.42361065092 -4.1184064995 0.094023173587 0.14361785076 -4.0040963868 0.2131349634 
-0.064589027541 -4.1658827922 0.3754116278 -0.26741004502 -4.3123494816 0.53336226743 -0.5094005575 -4.4937929664 0.72610926345 
-0.79448130631 -4.5841543467 0.90472559871 -0.59883213087 -4.7845300766 0.76996589005 -0.98102497166 -4.8141919031 0.97750315603 
-0.79995448698 -4.9753720458 0.80572848171 -1.1042738247 -5.0999806342 0.8718950269 -0.94028844896 -5.1974146909 0.65527078815 
-1.3762373845 -5.1801893812 0.9402906371 -1.2828726687 -5.3591967444 0.66316921712 -1.081231581 -5.3659736173 0.48872020209 
6.6078443307 1.666194069 0.20907721185 6.3315109356 1.6884878285 0.41319531179 5.9876096267 1.7137371962 0.45061689296 
6.1869216398 1.4328468315 0.5990611401 5.8564445629 1.4936607876 0.53600108171 5.8536654112 1.205621824 0.60728985385 
5.581948125 1.1055285406 0.55354670213 5.4124532654 0.59211007987 0.44918331053 5.1940874738 0.41539701231 0.35168212064 
4.9986597449 0.20273269491 0.25731388775 4.8139910589 -0.023945072087 0.17113174854 4.4686643267 0.048363245614 0.12783584354 
4.6535850914 -0.24492190861 0.10252929522 4.4069410268 -0.34743005362 0.051858754896 4.1621776244 -0.48427815723 -0.015314063903 
4.0708945633 -0.75667444203 -0.076479859884 4.0631926593 -1.035371447 -0.12085010031 3.7679709323 -1.0769908729 -0.18340818991 
3.5559226717 -1.3038940726 -0.24427063348 2.9213373318 -1.8643555288 -0.25933122742 2.7872952315 -2.1427738808 -0.22395926712 
2.3448584259 -2.5064854036 -0.19379131861 2.1218417539 -2.7281564531 -0.21245822559 1.8878921611 -2.9548705574 -0.25770914602 
1.8009442083 -3.2354131341 -0.346765278 1.5151313732 -3.2265430087 -0.29528043777 1.3319044006 -3.5159112934 -0.32391554705 
1.0951886835 -3.7618920928 -0.2918459761 0.69022516408 -4.0403112551 -0.080222346044 0.90449496911 -4.0169315636 -0.24923639874 
0.20423655041 -4.3029756887 0.25910132496 -0.014724446432 -4.5155411106 0.41058808301 -0.27672567993 -4.6056722899 0.56756332042 
-0.13277725883 -4.8110420948 0.37810979369 -0.41318046362 -4.8612500369 0.56207586749 -0.40175306953 -5.0517731594 0.33124080816 
-0.16974325865 -5.0092544364 0.13621193447 -0.65179795841 -5.0897971902 0.53571206574 -0.60340396126 -5.239644262 0.19337498305 
-0.33980201082 -5.1699900679 0.0072689030166 -0.83449664263 -5.2965646611 0.35864741431 6.1265330647 1.0976452042 0.65040956022 
5.921247849 0.83676856285 0.61552838737 5.621756176 0.80103844203 0.54903415286 5.3457282567 0.10347467181 0.2969654134 
4.9597885674 -0.3586171371 0.10707740217 4.7197986947 -0.55353371807 0.044548528693 4.4194123424 -0.67505676336 -0.0023745833 
4.3799715841 -0.97516210888 -0.065898297483 3.9803431943 -1.3328017508 -0.19594162412 3.7569174708 -1.5214584232 -0.25763978331 
3.5131798523 -1.6772834005 -0.27892534325 3.2382573386 -1.8014242305 -0.27623149724 3.1331882307 -2.0832994137 -0.26870706106 
2.9650345872 -2.3643491901 -0.26391103335 2.6604852415 -2.4760812834 -0.21282959624 2.4952085609 -2.7771818344 -0.28722653643 
2.2520971149 -2.9743577899 -0.32112492697 2.0896400559 -3.1936261272 -0.40368303786 1.9717401431 -3.4519085988 -0.56598111575 
1.651705867 -3.4712419411 -0.42068998657 1.7672750425 -3.6599104327 -0.63601604861 1.5208057496 -3.8747870225 -0.66521112941 
1.7179823667 -3.8569634703 -0.85873532756 1.5155963515 -3.6854927555 -0.49263557978 1.2984802713 -3.8682885298 -0.48294104157 
1.4543179355 -4.0418985548 -0.8282564073 1.0927703418 -4.0810292574 -0.47671613713 1.2358762479 -4.1577556839 -0.73995404926 
0.85416814115 -4.290211688 -0.40366168075 0.63462160503 -4.312621466 -0.13847769424 0.41134783212 -4.4440709643 0.041950978559 
0.19483541291 -4.6024573017 0.20347078753 1.0013293107 -4.3377849175 -0.69624619534 0.64528978813 -4.5094176837 -0.36981398043 
0.44494499799 -4.6328533296 -0.20274641824 0.23449726437 -4.7771842698 -0.063760712431 0.044754635008 -4.8456224727 0.12944962325 
0.75437567645 -4.5374172474 -0.63017467636 0.48254162653 -4.7394699448 -0.50518482787 0.23214453943 -4.8969565608 -0.34598266142 
-0.029582938207 -5.0349097824 -0.16117439582 6.7327044065 1.3647898491 0.198817682 6.5090211504 1.4319593874 0.46775887926 
6.4065189989 1.13534354 0.60498443133 6.2684791525 0.79774489214 0.57798065084 5.7726401084 0.53004285335 0.5136116327 
5.5657059456 0.29882636804 0.39353787961 5.1382227983 -0.11735954813 0.19872278991 5.2746978299 -0.43803280617 0.084028852209 
5.042849119 -0.6822933895 -0.0043389296628 4.6971748638 -0.85018580591 -0.026254806168 4.2962193745 -1.2587077217 -0.14889110716 
4.267642603 -1.5442508005 -0.27804699602 4.0178511847 -1.6446914007 -0.30463027001 3.791220913 -1.8356707021 -0.35901673768 
3.512289462 -2.0024017856 -0.34906637582 3.3233890755 -2.2677544686 -0.36168733593 3.1449201122 -2.5217781894 -0.37691422267 
2.8493915801 -2.6957299561 -0.3446426336 3.1501642932 -2.7229176906 -0.55098037007 2.9181986742 -2.9115328536 -0.58579096603 
2.6675604293 -2.9569782775 -0.47723241512 2.6997457575 -3.1529906259 -0.7938768462 2.9476460724 -3.017755939 -0.84254165913 
2.4477792792 -3.1287135686 -0.52552572522 2.4662533541 -3.3230851183 -0.84339289181 2.2535834835 -3.3261244966 -0.61907176268 
2.2022663378 -3.502334136 -0.8532607341 1.9647299999 -3.6647239458 -0.84811139436 6.6229123854 1.1418986227 0.39077592523 
6.7190307331 1.0019585636 0.14184698639 6.633942166 0.68600488751 0.098239515586 6.5370756598 0.84232259436 0.40771488557 
6.0961450258 0.51900250586 0.49995369158 5.9163047727 0.25857108187 0.37219002902 5.6984338737 0.014449580501 0.24685034437 
5.4774928828 -0.1979311372 0.16795737869 4.9372908864 -0.97717680092 -0.13092095087 4.6532139233 -1.1562235071 -0.13885518517 
4.5475944713 -1.4074042191 -0.25618363727 4.1563040281 -1.8513766215 -0.4743648782 4.4647959474 -1.6775855814 -0.45811489793 
4.1401180465 -2.0653031974 -0.73163053057 3.8744536815 -2.2571565532 -0.7650315942 3.878094321 -2.0558272823 -0.52678012758 
3.6166387776 -2.2459245198 -0.5153375338 3.642351968 -2.4487386576 -0.77709638889 3.405430393 -2.4928101341 -0.55259068438 
3.4109845036 -2.6517216219 -0.8007964126 3.1830027131 -2.8384442079 -0.81563976684 6.4034849685 0.55439971595 0.34707305903 
6.4937674006 0.40432626174 0.02495033695 6.3213168197 0.14765170519 -0.068083351292 6.2319090822 0.28604736231 0.23617591658 
6.1451655052 -0.072738295606 -0.15214979612 6.0163494172 0.031929522851 0.12974181355 5.9822448008 -0.27419409471 -0.24459371626 
5.804242343 -0.22383822424 0.015144275015 5.8002179494 -0.48114184864 -0.31150905355 5.5835677688 -0.46066662217 -0.048678315716 
5.598640443 -0.68904136057 -0.36047166314 5.3697630264 -0.69562422304 -0.11814099773 5.3977558278 -0.90901173969 -0.44723639047 
5.1931494045 -0.93162135465 -0.23702783637 5.1757865413 -1.1425040613 -0.52106129843 4.9316980941 -1.2162560692 -0.31958375384 
4.9566483512 -1.3815969015 -0.60703476502 4.7428314689 -1.4593788862 -0.43244459546 4.6917488367 -1.6460780008 -0.66621397212 
4.4139644298 -1.8755254939 -0.70015135849 
POLYGONS 1887 5658
OFFSETS vtktypeint64
0 3 6 9 12 15 18 21 24 
27 30 33 36 39 42 45 48 51 
54 57 60 63 66 69 72 75 78 
81 84 87 90 93 96 99 102 105 
108 111 114 117 120 123 126 129 132 
135 138 141 144 147 150 153 156 159 
162 165 168 171 174 177 180 183 186 
189 192 195 198 201 204 207 210 213 
216 219 222 225 228 231 234 237 240 
243 246 249 252 255 258 261 264 267 
270 273 276 279 282 285 288 291 294 
297 300 303 306 309 312 315 318 321 
324 327 330 333 336 339 342 345 348 
351 354 357 360 363 366 369 372 375 
378 381 384 387 390 393 396 399 402 
405 408 411 414 417 420 423 426 429 
432 435 438 441 444 447 450 453 456 
459 462 465 468 471 474 477 480 483 
486 489 492 495 498 501 504 507 510 
513 516 519 522 525 528 531 534 537 
540 543 546 549 552 555 558 561 564 
567 570 573 576 579 582 585 588 591 
594 597 600 603 606 609 612 615 618 
621 624 627 630 633 636 639 642 645 
648 651 654 657 660 663 666 669 672 
675 678 681 684 687 690 693 696 699 
702 705 708 711 714 717 720 723 726 
729 732 735 738 741 744 747 750 753 
756 759 762 765 768 771 774 777 780 
783 786 789 792 795 798 801 804 807 
810 813 816 819 822 825 828 831 834 
837 840 843 846 849 852 855 858 861 
864 867 870 873 876 879 882 885 888 
891 894 897 900 903 906 909 912 915 
918 921 924 927 930 933 936 939 942 
945 948 951 954 957 960 963 966 969 
972 975 978 981 984 987 990 993 996 
999 1002 1005 1008 1011 1014 1017 1020 1023 
1026 1029 1032 1035 1038 1041 1044 1047 1050 
1053 1056 1059 1062 1065 1068 1071 1074 1077 
1080 1083 1086 1089 1092 1095 1098 1101 1104 
1107 1110 1113 1116 1119 1122 1125 1128 1131 
1134 1137 1140 1143 1146 1149 1152 1155 1158 
1161 1164 1167 1170 1173 1176 1179 1182 1185 
1188 1191 1194 1197 1200 1203 1206 1209 1212 
1215 1218 1221 1224 1227 1230 1233 1236 1239 
1242 1245 1248 1251 1254 1257 1260 1263 1266 
1269 1272 1275 1278 1281 1284 1287 1290 1293 
1296 1299 1302 1305 1308 1311 1314 1317 1320 
1323 1326 1329 1332 1335 1338 1341 1344 1347 
1350 1353 1356 1359 1362 1365 1368 1371 1374 
1377 1380 1383 1386 1389 1392 1395 1398 1401 
1404 1407 1410 1413 1416 1419 1422 1425 1428 
1431 1434 1437 1440 1443 1446 1449 1452 1455 
1458 1461 1464 1467 1470 1473 1476 1479 1482 
1485 1488 1491 1494 1497 1500 1503 1506 1509 
1512 1515 1518 1521 1524 1527 1530 1533 1536 
1539 1542 1545 1548 1551 1554 1557 1560 1563 
1566 1569 1572 1575 1578 1581 1584 1587 1590 
1593 1596 1599 1602 1605 1608 1611 1614 1617 
1620 1623 1626 1629 1632 1635 1638 1641 1644 
1647 1650 1653 1656 1659 1662 1665 1668 1671 
1674 1677 1680 1683 1686 1689 1692 1695 1698 
1701 1704 1707 1710 1713 1716 1719 1722 1725 
1728 1731 1734 1737 1740 1743 1746 1749 1752 
1755 1758 1761 1764 1767 1770 1773 1776 1779 
1782 1785 1788 1791 1794 1797 1800 1803 1806 
1809 1812 1815 1818 1821 1824 1827 1830 1833 
1836 1839 1842 1845 1848 1851 1854 1857 1860 
1863 1866 1869 1872 1875 1878 1881 1884 1887 
1890 1893 1896 1899 1902 1905 1908 1911 1914 
1917 1920 1923 1926 1929 1932 1935 1938 1941 
1944 1947 1950 1953 1956 1959 1962 1965 1968 
1971 1974 1977 1980 1983 1986 1989 1992 1995 
1998 2001 2004 2007 2010 2013 2016 2019 2022 
2025 2028 2031 2034 2037 2040 2043 2046 2049 
2052 2055 2058 2061 2064 2067 2070 2073 2076 
2079 2082 2085 2088 2091 2094 2097 2100 2103 
2106 2109 2112 2115 2118 2121 2124 2127 2130 
2133 2136 2139 2142 2145 2148 2151 2154 2157 
2160 2163 2166 2169 2172 2175 2178 2181 2184 
2187 2190 2193 2196 2199 2202 2205 2208 2211 
2214 2217 2220 2223 2226 2229 2232 2235 2238 
2241 2244 2247 2250 2253 2256 2259 2262 2265 
2268 2271 2274 2277 2280 2283 2286 2289 2292 
2295 2298 2301 2304 2307 2310 2313 2316 2319 
2322 2325 2328 2331 2334 2337 2340 2343 2346 
2349 2352 2355 2358 2361 2364 2367 2370 2373 
2376 2379 2382 2385 2388 2391 2394 2397 2400 
2403 2406 2409 2412 2415 2418 2421 2424 2427 
2430 2433 2436 2439 2442 2445 2448 2451 2454 
2457 2460 2463 2466 2469 2472 2475 2478 2481 
2484 2487 2490 2493 2496 2499 2502 2505 2508 
2511 2514 2517 2520 2523 2526 2529 2532 2535 
2538 2541 2544 2547 2550 2553 2556 2559 2562 
2565 2568 2571 2574 2577 2580 2583 2586 2589 
2592 2595 2598 2601 2604 2607 2610 2613 2616 
2619 2622 2625 2628 2631 2634 2637 2640 2643 
2646 2649 2652 2655 2658 2661 2664 2667 2670 
2673 2676 2679 2682 2685 2688 2691 2694 2697 
2700 2703 2706 2709 2712 2715 2718 2721 2724 
2727 2730 2733 2736 2739 2742 2745 2748 2751 
2754 2757 2760 2763 2766 2769 2772 2775 2778 
2781 2784 2787 2790 2793 2796 2799 2802 2805 
2808 2811 2814 2817 2820 2823 2826 2829 2832 
2835 2838 2841 2844 2847 2850 2853 2856 2859 
2862 2865 2868 2871 2874 2877 2880 2883 2886 
2889 2892 2895 2898 2901 2904 2907 2910 2913 
2916 2919 2922 2925 2928 2931 2934 2937 2940 
2943 2946 2949 2952 2955 2958 2961 2964 2967 
2970 2973 2976 2979 2982 2985 2988 2991 2994 
2997 3000 3003 3006 3009 3012 3015 3018 3021 
3024 3027 3030 3033 3036 3039 3042 3045 3048 
3051 3054 3057 3060 3063 3066 3069 3072 3075 
3078 3081 3084 3087 3090 3093 3096 3099 3102 
3105 3108 3111 3114 3117 3120 3123 3126 3129 
3132 3135 3138 3141 3144 3147 3150 3153 3156 
3159 3162 3165 3168 3171 3174 3177 3180 3183 
3186 3189 3192 3195 3198 3201 3204 3207 3210 
3213 3216 3219 3222 3225 3228 3231 3234 3237 
3240 3243 3246 3249 3252 3255 3258 3261 3264 
3267 3270 3273 3276 3279 3282 3285 3288 3291 
3294 3297 3300 3303 3306 3309 3312 3315 3318 
3321 3324 3327 3330 3333 3336 3339 3342 3345 
3348 3351 3354 3357 3360 3363 3366 3369 3372 
3375 3378 3381 3384 3387 3390 3393 3396 3399 
3402 3405 3408 3411 3414 3417 3420 3423 3426 
3429 3432 3435 3438 3441 3444 3447 3450 3453 
3456 3459 3462 3465 3468 3471 3474 3477 3480 
3483 3486 3489 3492 3495 3498 3501 3504 3507 
3510 3513 3516 3519 3522 3525 3528 3531 3534 
3537 3540 3543 3546 3549 3552 3555 3558 3561 
3564 3567 3570 3573 3576 3579 3582 3585 3588 
3591 3594 3597 3600 3603 3606 3609 3612 3615 
3618 3621 3624 3627 3630 3633 3636 3639 3642 
3645 3648 3651 3654 3657 3660 3663 3666 3669 
3672 3675 3678 3681 3684 3687 3690 3693 3696 
3699 3702 3705 3708 3711 3714 3717 3720 3723 
3726 3729 3732 3735 3738 3741 3744 3747 3750 
3753 3756 3759 3762 3765 3768 3771 3774 3777 
3780 3783 3786 3789 3792 3795 3798 3801 3804 
3807 3810 3813 3816 3819 3822 3825 3828 3831 
3834 3837 3840 3843 3846 3849 3852 3855 3858 
3861 3864 3867 3870 3873 3876 3879 3882 3885 
3888 3891 3894 3897 3900 3903 3906 3909 3912 
3915 3918 3921 3924 3927 3930 3933 3936 3939 
3942 3945 3948 3951 3954 3957 3960 3963 3966 
3969 3972 3975 3978 3981 3984 3987 3990 3993 
3996 3999 4002 4005 4008 4011 4014 4017 4020 
4023 4026 4029 4032 4035 4038 4041 4044 4047 
4050 4053 4056 4059 4062 4065 4068 4071 4074 
4077 4080 4083 4086 4089 4092 4095 4098 4101 
4104 4107 4110 4113 4116 4119 4122 4125 4128 
4131 4134 4137 4140 4143 4146 4149 4152 4155 
4158 4161 4164 4167 4170 4173 4176 4179 4182 
4185 4188 4191 4194 4197 4200 4203 4206 4209 
4212 4215 4218 4221 4224 4227 4230 4233 4236 
4239 4242 4245 4248 4251 4254 4257 4260 4263 
4266 4269 4272 4275 4278 4281 4284 4287 4290 
4293 4296 4299 4302 4305 4308 4311 4314 4317 
4320 4323 4326 4329 4332 4335 4338 4341 4344 
4347 4350 4353 4356 4359 4362 4365 4368 4371 
4374 4377 4380 4383 4386 4389 4392 4395 4398 
4401 4404 4407 4410 4413 4416 4419 4422 4425 
4428 4431 4434 4437 4440 4443 4446 4449 4452 
4455 4458 4461 4464 4467 4470 4473 4476 4479 
4482 4485 4488 4491 4494 4497 4500 4503 4506 
4509 4512 4515 4518 4521 4524 4527 4530 4533 
4536 4539 4542 4545 4548 4551 4554 4557 4560 
4563 4566 4569 4572 4575 4578 4581 4584 4587 
4590 4593 4596 4599 4602 4605 4608 4611 4614 
4617 4620 4623 4626 4629 4632 4635 4638 4641 
4644 4647 4650 4653 4656 4659 4662 4665 4668 
4671 4674 4677 4680 4683 4686 4689 4692 4695 
4698 4701 4704 4707 4710 4713 4716 4719 4722 
4725 4728 4731 4734 4737 4740 4743 4746 4749 
4752 4755 4758 4761 4764 4767 4770 4773 4776 
4779 4782 4785 4788 4791 4794 4797 4800 4803 
4806 4809 4812 4815 4818 4821 4824 4827 4830 
4833 4836 4839 4842 4845 4848 4851 4854 4857 
4860 4863 4866 4869 4872 4875 4878 4881 4884 
4887 4890 4893 4896 4899 4902 4905 4908 4911 
4914 4917 4920 4923 4926 4929 4932 4935 4938 
4941 4944 4947 4950 4953 4956 4959 4962 4965 
4968 4971 4974 4977 4980 4983 4986 4989 4992 
4995 4998 5001 5004 5007 5010 5013 5016 5019 
5022 5025 5028 5031 5034 5037 5040 5043 5046 
5049 5052 5055 5058 5061 5064 5067 5070 5073 
5076 5079 5082 5085 5088 5091 5094 5097 5100 
5103 5106 5109 5112 5115 5118 5121 5124 5127 
5130 5133 5136 5139 5142 5145 5148 5151 5154 
5157 5160 5163 5166 5169 5172 5175 5178 5181 
5184 5187 5190 5193 5196 5199 5202 5205 5208 
5211 5214 5217 5220 5223 5226 5229 5232 5235 
5238 5241 5244 5247 5250 5253 5256 5259 5262 
5265 5268 5271 5274 5277 5280 5283 5286 5289 
5292 5295 5298 5301 5304 5307 5310 5313 5316 
5319 5322 5325 5328 5331 5334 5337 5340 5343 
5346 5349 5352 5355 5358 5361 5364 5367 5370 
5373 5376 5379 5382 5385 5388 5391 5394 5397 
5400 5403 5406 5409 5412 5415 5418 5421 5424 
5427 5430 5433 5436 5439 5442 5445 5448 5451 
5454 5457 5460 5463 5466 5469 5472 5475 5478 
5481 5484 5487 5490 5493 5496 5499 5502 5505 
5508 5511 5514 5517 5520 5523 5526 5529 5532 
5535 5538 5541 5544 5547 5550 5553 5556 5559 
5562 5565 5568 5571 5574 5577 5580 5583 5586 
5589 5592 5595 5598 5601 5604 5607 5610 5613 
5616 5619 5622 5625 5628 5631 5634 5637 5640 
5643 5646 5649 5652 5655 5658 
CONNECTIVITY vtktypeint64
2 1 0 3 2 0 4 3 0 
256 257 258 256 258 281 256 281 282 
512 514 544 544 543 512 840 802 768 
768 803 840 1 2 6 6 5 1 
515 514 513 769 771 804 804 803 769 
2 3 8 7 6 2 8 7 2 
283 281 258 285 283 258 514 515 545 
545 544 514 806 772 770 770 773 806 
3 4 10 9 8 3 10 9 3 
286 285 259 287 286 259 515 516 546 
546 545 515 771 772 846 846 804 771 
11 10 4 260 261 289 289 288 260 
516 517 547 547 546 516 806 805 772 
772 805 846 5 6 24 24 23 5 
261 262 291 290 289 261 291 290 261 
517 518 548 548 547 517 6 7 24 
262 264 291 518 519 549 549 548 518 
774 775 851 809 807 774 851 809 774 
7 8 46 25 24 7 46 25 7 
293 264 263 263 265 293 519 520 550 
550 549 519 775 776 810 775 810 853 
853 851 775 8 9 26 8 26 46 
292 291 264 293 292 264 551 550 520 
776 777 811 811 810 776 9 10 12 
9 12 27 27 26 9 265 266 294 
294 293 265 552 551 521 777 778 811 
10 11 13 13 12 10 266 267 295 
295 294 266 554 553 522 555 554 522 
778 779 813 812 811 778 813 812 778 
267 268 296 296 295 267 523 524 556 
589 555 523 523 556 589 779 780 814 
814 813 779 12 13 14 12 14 28 
28 27 12 268 269 297 297 296 268 
524 525 557 557 556 524 780 781 815 
815 814 780 15 14 13 269 270 298 
298 297 269 525 526 558 558 557 525 
781 782 860 860 815 781 14 15 30 
29 28 14 30 29 14 270 271 299 
299 298 270 526 527 559 559 558 526 
782 783 816 782 816 860 32 30 15 
271 272 300 300 299 271 527 528 560 
560 559 527 783 784 817 817 816 783 
18 17 16 16 17 19 41 18 16 
16 19 23 16 20 21 23 20 16 
16 21 41 272 273 301 301 300 272 
528 529 561 561 560 528 784 785 818 
818 817 784 17 18 43 273 274 301 
529 530 563 563 561 529 785 786 819 
819 818 785 39 37 18 18 37 43 
41 39 18 274 275 303 303 301 274 
530 531 563 786 787 820 820 819 786 
275 276 302 275 302 303 531 532 564 
564 563 531 787 788 821 821 820 787 
22 21 20 25 22 20 20 23 24 
20 24 25 276 277 278 276 278 304 
335 302 276 276 304 335 532 533 565 
565 564 532 788 789 823 822 821 788 
823 822 788 21 22 44 42 41 21 
44 42 21 533 534 566 566 565 533 
789 790 824 824 823 789 22 25 45 
67 44 22 22 45 67 278 279 305 
305 304 278 534 535 567 567 566 534 
790 791 825 825 824 790 279 280 305 
535 536 568 568 567 535 791 792 827 
826 825 791 827 826 791 306 305 280 
536 537 569 569 568 536 792 793 828 
828 827 792 46 45 25 307 282 281 
281 283 308 308 307 281 537 538 571 
571 569 537 793 794 829 829 828 793 
26 27 48 47 46 26 48 47 26 
310 284 282 282 307 310 538 539 570 
538 570 571 794 795 830 830 829 794 
27 28 49 49 48 27 283 285 312 
312 308 283 539 540 573 572 570 539 
573 572 539 795 796 831 831 830 795 
28 29 50 50 49 28 284 310 313 
540 541 574 574 573 540 796 797 832 
832 831 796 29 30 31 29 31 51 
51 50 29 285 286 312 541 542 575 
575 574 541 797 798 833 833 832 797 
34 31 30 30 32 34 286 287 314 
344 312 286 286 314 344 542 543 576 
576 575 542 798 799 834 834 833 798 
31 34 53 52 51 31 53 52 31 
287 288 314 543 544 577 577 576 543 
835 834 799 836 835 799 32 33 34 
288 289 315 315 314 288 544 545 578 
578 577 544 800 801 838 838 837 800 
35 34 33 289 290 316 316 315 289 
545 546 579 579 578 545 801 802 839 
839 838 801 34 35 55 55 53 34 
290 291 318 317 316 290 318 317 290 
546 547 580 612 579 546 546 580 612 
840 839 802 57 55 35 291 292 320 
320 318 291 547 548 581 581 580 547 
803 804 842 842 840 803 36 37 38 
43 37 36 36 38 60 292 293 321 
321 320 292 548 549 582 582 581 548 
844 842 804 846 844 804 40 38 37 
37 39 40 293 294 322 322 321 293 
549 550 584 583 582 549 584 583 549 
847 846 805 38 40 63 62 60 38 
63 62 38 294 295 323 323 322 294 
550 551 585 585 584 550 64 40 39 
39 41 42 39 42 65 65 64 39 
295 296 325 325 323 295 551 552 585 
809 808 807 64 63 40 296 297 327 
326 325 296 327 326 296 586 585 552 
808 809 850 850 849 808 297 298 327 
553 554 622 622 587 553 851 850 809 
42 44 66 66 65 42 298 299 328 
328 327 298 554 555 588 554 588 622 
810 811 855 854 853 810 855 854 810 
299 300 330 330 328 299 589 588 555 
811 812 855 86 66 44 44 67 86 
300 301 332 331 330 300 332 331 300 
556 557 591 590 589 556 591 590 556 
812 813 856 892 855 812 812 856 892 
45 46 47 45 47 69 68 67 45 
69 68 45 301 303 333 333 332 301 
557 558 592 592 591 557 813 814 857 
857 856 813 334 303 302 335 334 302 
558 559 593 593 592 558 814 815 858 
858 857 814 47 48 70 70 69 47 
334 333 303 559 560 595 595 593 559 
859 858 815 860 859 815 48 49 71 
71 70 48 304 305 336 336 335 304 
560 561 595 816 817 863 862 860 816 
863 862 816 49 50 72 72 71 49 
305 306 337 337 336 305 563 562 561 
561 562 595 817 818 863 50 51 73 
73 72 50 338 337 306 562 563 596 
628 595 562 562 596 597 562 597 628 
818 819 864 864 863 818 51 52 74 
74 73 51 307 308 309 307 309 311 
311 310 307 563 564 596 819 820 866 
865 864 819 866 865 819 52 53 54 
52 54 74 342 309 308 308 312 342 
564 565 598 598 596 564 820 821 867 
867 866 820 56 54 53 53 55 56 
369 311 309 309 342 370 370 369 309 
565 566 599 599 598 565 821 822 867 
54 56 76 94 74 54 54 76 94 
310 311 341 339 313 310 341 339 310 
566 567 601 600 599 566 601 600 566 
822 823 901 900 867 822 901 900 822 
58 56 55 55 57 58 369 341 311 
567 568 601 823 824 868 823 868 901 
56 58 75 56 75 76 343 342 312 
344 343 312 568 569 602 602 601 568 
824 825 868 59 58 57 313 339 340 
569 571 603 603 602 569 825 826 869 
869 868 825 58 59 77 77 75 58 
314 315 345 345 344 314 604 571 570 
570 572 604 826 827 870 904 869 826 
826 870 904 79 77 59 315 316 346 
346 345 315 604 603 571 827 828 870 
62 61 60 316 317 346 572 573 605 
605 604 572 828 829 871 871 870 828 
61 62 81 61 81 103 317 318 319 
317 319 347 347 346 317 573 574 606 
606 605 573 829 830 872 872 871 829 
62 63 80 62 80 81 320 319 318 
574 575 607 607 606 574 830 831 874 
873 872 830 874 873 830 63 64 82 
82 80 63 319 320 349 348 347 319 
349 348 319 575 576 608 608 607 575 
831 832 875 875 874 831 64 65 83 
83 82 64 320 321 349 576 577 609 
609 608 576 832 833 876 876 875 832 
65 66 84 84 83 65 321 322 350 
350 349 321 577 578 609 833 834 877 
878 876 833 833 877 878 85 84 66 
86 85 66 322 323 351 351 350 322 
578 579 610 610 609 578 834 835 877 
67 68 86 325 324 323 323 324 351 
611 610 579 612 611 579 835 836 879 
919 877 835 835 879 920 920 919 835 
68 69 88 87 86 68 88 87 68 
324 325 352 381 351 324 324 352 381 
580 581 613 651 612 580 580 613 651 
836 837 879 69 70 89 89 88 69 
325 326 353 353 352 325 581 582 613 
837 838 880 880 879 837 70 71 90 
90 89 70 326 327 329 326 329 354 
355 353 326 326 354 355 582 583 614 
614 613 582 838 839 881 881 880 838 
71 72 91 91 90 71 327 328 329 
583 584 616 615 614 583 616 615 583 
839 840 841 839 841 883 883 881 839 
72 73 92 92 91 72 356 329 328 
328 330 356 584 585 617 617 616 584 
843 841 840 840 842 843 73 74 93 
93 92 73 385 354 329 329 356 385 
585 586 618 618 617 585 841 843 886 
886 883 841 95 93 74 74 94 95 
330 331 357 357 356 330 619 618 586 
844 843 842 78 76 75 75 77 78 
331 332 358 358 357 331 621 620 587 
622 621 587 843 844 845 843 845 886 
76 78 96 96 94 76 332 333 359 
359 358 332 588 589 623 664 622 588 
588 623 664 847 845 844 844 846 847 
97 78 77 77 79 98 98 97 77 
333 334 360 360 359 333 589 590 623 
845 847 848 845 848 889 889 886 845 
117 96 78 78 97 118 118 117 78 
334 335 362 361 360 334 362 361 334 
590 591 624 624 623 590 335 336 362 
591 592 625 625 624 591 101 81 80 
80 82 102 102 101 80 336 337 364 
364 362 336 592 593 626 626 625 592 
101 100 81 81 100 103 337 338 365 
365 364 337 595 594 593 593 594 626 
849 850 932 932 931 849 82 83 102 
397 365 338 594 595 628 627 626 594 
629 627 594 594 628 629 850 851 852 
850 852 932 83 84 106 104 102 83 
106 104 83 366 340 339 339 341 368 
368 366 339 853 852 851 84 85 105 
84 105 106 340 366 367 632 597 596 
596 598 632 852 853 854 852 854 890 
852 890 933 933 932 852 85 86 108 
107 105 85 108 107 85 401 368 341 
341 369 401 630 628 597 632 630 597 
86 87 108 342 343 371 371 370 342 
598 599 633 633 632 598 854 855 891 
891 890 854 87 88 109 109 108 87 
343 344 373 372 371 343 373 372 343 
599 600 634 634 633 599 892 891 855 
88 89 110 110 109 88 344 345 373 
600 601 636 635 634 600 636 635 600 
856 857 936 935 892 856 936 935 856 
89 90 111 111 110 89 345 346 374 
374 373 345 601 602 637 637 636 601 
857 858 893 857 893 936 90 91 112 
112 111 90 346 347 375 375 374 346 
602 603 638 638 637 602 858 859 937 
937 893 858 91 92 113 113 112 91 
347 348 376 376 375 347 603 604 639 
639 638 603 859 860 861 859 861 894 
859 894 937 92 93 114 114 113 92 
348 349 378 377 376 348 378 377 348 
604 605 640 640 639 604 862 861 860 
93 95 115 115 114 93 349 350 379 
379 378 349 605 606 641 641 640 605 
861 862 895 895 894 861 116 95 94 
94 96 116 350 351 380 380 379 350 
606 607 643 642 641 606 643 642 606 
862 863 896 896 895 862 136 115 95 
95 116 136 381 380 351 607 608 644 
644 643 607 863 864 896 138 116 96 
96 117 138 352 353 382 412 381 352 
352 382 412 608 609 646 645 644 608 
646 645 608 864 865 897 897 896 864 
97 98 99 97 99 119 119 118 97 
353 355 382 609 610 646 865 866 898 
941 897 865 865 898 941 384 355 354 
385 384 354 610 611 648 647 646 610 
648 647 610 866 867 898 140 119 99 
383 382 355 384 383 355 611 612 649 
650 648 611 611 649 650 899 898 867 
900 899 867 100 101 122 120 103 100 
121 120 100 122 121 100 356 357 387 
386 385 356 387 386 356 651 649 612 
868 869 902 902 901 868 101 102 123 
123 122 101 357 358 388 388 387 357 
613 614 652 652 651 613 903 902 869 
904 903 869 102 104 123 358 359 389 
389 388 358 614 615 653 653 652 614 
870 871 905 905 904 870 359 360 390 
390 389 359 615 616 655 654 653 615 
655 654 615 871 872 906 906 905 871 
104 106 125 124 123 104 125 124 104 
360 361 392 392 390 360 616 617 656 
656 655 616 872 873 907 907 906 872 
125 106 105 105 107 126 126 125 105 
361 362 363 361 363 393 393 392 361 
617 618 657 657 656 617 873 874 909 
908 907 873 909 908 873 364 363 362 
618 619 658 658 657 618 874 875 909 
107 108 127 128 126 107 107 127 128 
363 364 395 394 393 363 395 394 363 
659 658 619 875 876 914 913 909 875 
914 913 875 108 109 127 364 365 395 
620 621 662 662 661 620 876 878 916 
916 914 876 109 110 129 129 127 109 
396 395 365 397 396 365 621 622 663 
663 662 621 919 878 877 110 111 130 
130 129 110 399 367 366 366 368 400 
400 399 366 664 663 622 918 916 878 
919 918 878 111 112 131 131 130 111 
399 398 367 623 624 665 665 664 623 
879 880 921 921 920 879 112 113 132 
132 131 112 429 400 368 368 401 429 
624 625 666 666 665 624 880 881 882 
880 882 921 113 114 134 133 132 113 
134 133 113 369 370 402 402 401 369 
625 626 667 667 666 625 883 882 881 
114 115 134 370 371 402 626 627 667 
882 883 884 882 884 885 882 885 926 
926 921 882 135 134 115 136 135 115 
371 372 403 403 402 371 627 629 670 
668 667 627 670 668 627 886 884 883 
137 136 116 138 137 116 372 373 404 
433 403 372 372 404 433 630 629 628 
888 885 884 884 886 887 884 887 888 
117 118 139 139 138 117 373 374 404 
629 630 670 885 888 930 930 926 885 
118 119 139 374 375 405 405 404 374 
632 631 630 630 631 671 671 670 630 
889 887 886 160 139 119 119 140 160 
375 376 406 406 405 375 631 632 672 
710 671 631 631 672 710 120 121 142 
376 377 407 407 406 376 632 633 672 
121 122 144 121 141 142 143 141 121 
144 143 121 377 378 409 408 407 377 
409 408 377 633 634 672 122 123 145 
145 144 122 378 379 409 634 635 674 
674 672 634 890 891 934 934 933 890 
123 124 145 379 380 410 410 409 379 
635 636 675 712 674 635 635 675 712 
891 892 935 963 934 891 891 935 963 
124 125 146 166 145 124 124 146 166 
380 381 411 411 410 380 636 637 675 
125 126 147 147 146 125 412 411 381 
637 638 676 676 675 637 965 936 893 
893 937 966 966 965 893 126 128 148 
148 147 126 382 383 414 414 412 382 
638 639 677 677 676 638 894 895 939 
938 937 894 939 938 894 149 128 127 
127 129 149 383 384 416 415 414 383 
416 415 383 639 640 679 679 677 639 
895 896 940 940 939 895 170 148 128 
128 149 170 384 385 386 384 386 416 
640 641 680 680 679 640 896 897 940 
129 130 150 150 149 129 641 642 681 
681 680 641 968 940 897 897 941 968 
130 131 151 151 150 130 386 387 417 
417 416 386 642 643 682 720 681 642 
642 682 720 898 899 943 942 941 898 
943 942 898 131 132 152 152 151 131 
387 388 418 418 417 387 643 644 682 
899 900 944 944 943 899 132 133 153 
153 152 132 388 389 419 419 418 388 
644 645 683 683 682 644 900 901 945 
945 944 900 133 134 154 154 153 133 
389 390 391 389 391 419 645 646 685 
684 683 645 685 684 645 901 902 945 
134 135 154 392 391 390 646 647 685 
902 903 946 946 945 902 135 136 156 
155 154 135 156 155 135 391 392 421 
420 419 391 421 420 391 647 648 686 
686 685 647 903 904 948 947 946 903 
948 947 903 136 137 156 392 393 422 
422 421 392 648 650 686 904 905 948 
137 138 158 157 156 137 158 157 137 
393 394 423 423 422 393 689 650 649 
649 651 688 649 688 689 905 906 954 
951 948 905 954 951 905 138 139 158 
394 395 424 424 423 394 687 686 650 
689 687 650 906 907 954 159 158 139 
160 159 139 395 396 424 651 652 688 
907 908 956 956 954 907 161 160 140 
396 397 425 454 424 396 396 425 454 
652 653 690 690 688 652 908 909 910 
908 910 958 957 956 908 958 957 908 
141 143 163 163 162 141 653 654 691 
691 690 653 913 910 909 398 399 428 
428 427 398 654 655 692 692 691 654 
910 911 912 913 911 910 910 912 958 
143 144 164 164 163 143 399 400 428 
655 656 693 693 692 655 915 912 911 
911 913 914 911 914 917 917 915 911 
144 145 165 165 164 144 460 428 400 
400 429 461 461 460 400 656 657 694 
694 693 656 166 165 145 401 402 430 
430 429 401 657 658 694 146 147 168 
167 166 146 168 167 146 402 403 431 
431 430 402 658 659 695 695 694 658 
914 916 917 147 148 168 432 431 403 
433 432 403 696 695 659 169 168 148 
170 169 148 404 405 435 435 433 404 
660 661 699 699 698 660 922 917 916 
916 918 922 149 150 172 171 170 149 
172 171 149 405 406 436 436 435 405 
661 662 700 700 699 661 150 151 173 
173 172 150 406 407 438 438 436 406 
662 663 701 701 700 662 918 919 923 
927 922 918 918 923 927 151 152 174 
174 173 151 407 408 467 467 438 407 
663 664 702 702 701 663 919 920 924 
924 923 919 152 153 175 175 174 152 
408 409 439 408 439 470 470 467 408 
664 665 702 920 921 925 925 924 920 
153 154 176 201 175 153 153 176 201 
409 410 439 665 666 704 703 702 665 
704 703 665 926 925 921 154 155 176 
410 411 440 440 439 410 666 667 669 
666 669 705 705 704 666 155 156 178 
177 176 155 178 177 155 411 412 413 
411 413 441 441 440 411 667 668 669 
923 924 928 928 927 923 156 157 178 
414 413 412 707 669 668 668 670 708 
708 707 668 924 925 929 929 928 924 
157 158 181 181 178 157 413 414 443 
442 441 413 443 442 413 706 705 669 
707 706 669 925 926 930 930 929 925 
158 159 181 414 415 443 670 671 708 
159 160 183 182 181 159 183 182 159 
415 416 445 444 443 415 445 444 415 
709 708 671 710 709 671 160 161 183 
416 417 446 446 445 416 674 673 672 
672 673 710 185 183 161 417 418 447 
447 446 417 673 674 711 750 710 673 
673 711 751 751 750 673 162 163 189 
418 419 448 448 447 418 713 711 674 
674 712 713 163 164 187 163 187 190 
190 189 163 419 420 449 449 448 419 
675 676 714 714 712 675 931 932 959 
931 959 960 164 165 191 188 187 164 
191 188 164 420 421 451 481 449 420 
420 451 481 676 677 678 676 678 715 
715 714 676 932 933 959 165 166 192 
192 191 165 421 422 450 421 450 451 
679 678 677 933 934 962 962 959 933 
166 167 192 422 423 450 678 679 717 
716 715 678 717 716 678 980 962 934 
934 963 980 167 168 193 193 192 167 
423 424 452 452 450 423 679 680 717 
935 936 964 964 963 935 168 169 195 
195 193 168 453 452 424 454 453 424 
680 681 718 718 717 680 965 964 936 
169 170 196 215 195 169 169 196 215 
425 426 454 719 718 681 720 719 681 
937 938 966 170 171 196 455 454 426 
488 455 426 682 683 722 722 720 682 
938 939 991 989 966 938 991 989 938 
171 172 197 197 196 171 427 428 457 
457 456 427 683 684 721 683 721 722 
939 940 967 939 967 993 993 991 939 
172 173 198 198 197 172 459 457 428 
460 459 428 684 685 724 723 721 684 
724 723 684 968 967 940 173 174 199 
199 198 173 429 430 461 685 686 724 
941 942 969 969 968 941 174 175 200 
200 199 174 430 431 462 462 461 430 
686 687 725 725 724 686 942 943 970 
971 969 942 942 970 971 221 200 175 
175 201 221 431 432 464 464 462 431 
687 689 726 764 725 687 687 726 764 
943 944 970 176 177 202 202 201 176 
432 433 434 432 434 464 727 689 688 
688 690 727 944 945 974 974 970 944 
177 178 179 177 179 204 204 202 177 
435 434 433 727 726 689 945 946 975 
975 974 945 180 179 178 181 180 178 
434 435 437 434 437 465 465 464 434 
690 691 728 728 727 690 946 947 977 
977 975 946 179 180 224 224 204 179 
435 436 437 691 692 729 729 728 691 
947 948 949 947 949 977 180 181 205 
180 205 227 227 224 180 466 437 436 
436 438 466 692 693 731 730 729 692 
731 730 692 950 949 948 951 950 948 
181 182 205 498 465 437 437 466 498 
693 694 731 949 950 979 978 977 949 
979 978 949 182 183 184 182 184 206 
206 205 182 468 466 438 438 467 468 
694 695 733 732 731 694 733 732 694 
950 951 952 950 952 953 950 953 979 
185 184 183 439 440 471 471 470 439 
695 696 735 735 733 695 954 952 951 
184 185 186 184 186 207 207 206 184 
440 441 472 472 471 440 696 697 735 
952 954 955 441 442 473 473 472 441 
773 770 697 770 735 697 230 207 186 
442 443 474 474 473 442 698 699 737 
737 736 698 956 955 954 187 188 209 
208 190 187 209 208 187 443 444 474 
699 700 738 738 737 699 955 956 957 
188 191 212 212 209 188 444 445 476 
475 474 444 476 475 444 700 701 739 
739 738 700 189 190 210 445 446 477 
477 476 445 701 702 740 740 739 701 
190 208 231 231 210 190 446 447 478 
478 477 446 702 703 740 191 192 211 
191 211 212 447 448 479 479 478 447 
703 704 742 742 740 703 962 960 959 
192 193 194 192 194 211 448 449 480 
480 479 448 704 705 743 743 742 704 
962 961 960 213 194 193 193 195 213 
481 480 449 705 706 743 961 962 980 
961 980 981 237 211 194 194 213 237 
483 451 450 450 452 484 484 483 450 
706 707 746 745 743 706 746 745 706 
214 213 195 215 214 195 482 481 451 
483 482 451 707 708 747 747 746 707 
963 964 983 983 980 963 196 197 216 
216 215 196 452 453 485 485 484 452 
708 709 748 748 747 708 964 965 985 
985 983 964 197 198 218 217 216 197 
218 217 197 453 454 455 453 455 486 
486 485 453 709 710 749 749 748 709 
965 966 987 987 985 965 198 199 218 
750 749 710 989 987 966 199 200 219 
219 218 199 487 486 455 488 487 455 
711 713 752 752 751 711 967 968 995 
995 993 967 220 219 200 221 220 200 
456 457 458 456 458 489 714 713 712 
968 969 995 201 202 203 201 203 221 
492 458 457 457 459 492 713 714 753 
753 752 713 969 971 997 997 995 969 
204 203 202 491 489 458 523 491 458 
458 492 523 714 715 754 754 753 714 
999 971 970 974 972 970 970 972 999 
203 204 223 222 221 203 223 222 203 
459 460 493 493 492 459 715 716 755 
755 754 715 998 997 971 999 998 971 
225 223 204 204 224 225 460 461 463 
460 463 493 716 717 757 756 755 716 
757 756 716 974 973 972 205 206 228 
228 227 205 461 462 463 717 718 757 
973 974 975 973 975 976 206 207 229 
229 228 206 495 463 462 462 464 495 
718 719 758 758 757 718 252 229 207 
207 230 252 494 493 463 495 494 463 
719 720 722 719 722 759 759 758 719 
977 976 975 208 209 233 232 231 208 
233 232 208 464 465 496 496 495 464 
976 977 978 209 212 234 234 233 209 
497 496 465 498 497 465 760 722 721 
721 723 761 761 760 721 210 231 235 
466 468 499 530 498 466 466 499 530 
760 759 722 236 212 211 237 236 211 
469 468 467 470 469 467 723 724 762 
762 761 723 236 234 212 468 469 500 
500 499 468 724 725 762 983 981 980 
213 214 238 238 237 213 469 470 502 
501 500 469 503 501 469 469 502 503 
763 762 725 764 763 725 983 982 981 
214 215 240 239 238 214 240 239 214 
470 471 502 726 727 766 765 764 726 
800 765 726 726 766 800 982 983 985 
985 984 982 215 216 240 471 472 504 
504 502 471 727 728 766 216 217 241 
241 240 216 472 473 505 505 504 472 
728 729 767 767 766 728 984 985 987 
987 986 984 217 218 243 242 241 217 
243 242 217 473 474 506 507 505 473 
473 506 507 729 768 802 729 730 768 
802 767 729 218 219 243 474 475 506 
803 768 730 730 769 803 730 731 769 
986 987 988 219 220 245 245 243 219 
475 476 509 508 506 475 509 508 475 
731 732 769 989 988 987 220 221 222 
220 222 246 246 245 220 476 477 510 
510 509 476 771 769 732 732 733 734 
732 734 771 988 989 990 477 478 511 
511 510 477 735 734 733 991 990 989 
222 223 247 247 246 222 478 479 511 
734 770 772 772 771 734 734 735 770 
990 991 992 223 225 248 248 247 223 
479 480 512 512 511 479 993 992 991 
226 225 224 227 226 224 514 512 480 
480 513 514 480 481 513 736 774 807 
736 737 774 992 993 994 225 226 249 
273 248 225 225 249 273 481 482 513 
775 774 737 776 775 737 737 738 776 
995 994 993 226 227 250 250 249 226 
515 513 482 516 515 482 482 483 516 
738 739 776 994 995 996 227 228 250 
517 516 483 483 484 517 777 776 739 
739 740 741 739 741 777 997 996 995 
228 229 251 251 250 228 518 517 484 
484 485 518 742 741 740 996 997 998 
277 251 229 229 252 277 519 518 485 
485 486 519 778 777 741 779 778 741 
741 742 744 741 744 779 253 252 230 
520 519 486 486 487 520 742 743 744 
231 232 257 257 235 231 551 520 487 
487 521 551 487 488 521 745 744 743 
258 257 232 232 233 258 780 779 744 
744 745 780 285 258 233 233 259 285 
233 234 259 491 490 489 781 780 745 
745 746 781 287 259 234 234 236 287 
555 522 490 490 491 555 782 781 746 
746 747 782 257 255 235 491 523 555 
783 782 747 747 748 783 236 260 288 
288 287 236 236 237 260 524 523 492 
492 493 524 784 783 748 748 749 784 
237 238 260 525 524 493 493 494 525 
785 784 749 749 750 785 261 260 238 
262 261 238 238 239 262 526 525 494 
494 495 526 786 785 750 750 751 786 
264 262 239 239 263 264 239 240 263 
527 526 495 495 496 527 787 786 751 
751 752 787 240 241 263 528 527 496 
496 497 528 788 787 752 752 753 788 
265 263 241 241 242 265 529 528 497 
497 498 529 789 788 753 753 754 789 
266 265 242 242 243 244 242 244 266 
530 529 498 790 789 754 754 755 790 
245 244 243 531 530 499 532 531 499 
499 500 532 791 790 755 755 756 791 
267 266 244 268 267 244 244 245 268 
500 501 532 792 791 756 756 757 792 
269 268 245 245 246 269 533 532 501 
534 533 501 501 503 534 793 792 757 
757 758 793 270 269 246 246 247 270 
504 503 502 794 793 758 758 759 794 
271 270 247 247 248 271 535 534 503 
503 504 535 795 794 759 759 760 795 
272 271 248 273 272 248 536 535 504 
504 505 536 796 795 760 760 761 796 
274 273 249 275 274 249 249 250 275 
537 536 505 538 537 505 505 507 538 
797 796 761 761 762 797 250 251 275 
508 507 506 798 797 762 762 763 798 
276 275 251 277 276 251 539 538 507 
507 508 539 799 798 763 763 764 765 
763 765 799 278 277 252 279 278 252 
252 253 279 540 539 508 508 509 540 
280 279 253 541 540 509 509 510 541 
836 799 765 765 800 837 837 836 765 
254 256 282 254 282 284 254 255 256 
542 541 510 510 511 542 801 800 766 
766 767 801 257 256 255 511 512 543 
543 542 511 802 801 767 
