# vtk DataFile Version 5.1
vtk output
ASCII
DATASET POLYDATA
POINTS 1000 double
-6.0572088136 5.0911981673 -1.0618956399 -5.7410992129 5.20957733 -0.76564814841 -6.1874578856 5.0453316818 -0.71270135457 
-5.6987770056 4.9855264359 -1.2482431447 -6.304113598 4.7732549462 -0.4777385239 -6.3499728584 4.6623424364 -0.95904405314 
-6.4686654621 4.4271627606 -0.58919879099 -6.0742835644 4.727342202 -1.2904949418 -5.2570236851 5.2473852115 -0.65432011261 
-5.5111500327 5.1441418004 -0.32499117707 -5.4067465591 5.1338427436 -1.023814623 -5.9022382705 5.0297452342 -0.3792736924 
-5.2200984846 4.8269622787 -1.3268539543 -5.6339690159 4.64566024 -1.4920022101 -6.2812263322 4.2594392849 -1.2207271924 
-6.4516229993 4.1183119138 -0.85842044123 -5.6984100368 4.2186456727 -1.6608566702 -5.9912462181 4.3528289165 -1.4680134501 
-6.0248010646 3.8827818787 -1.5099723132 -5.0322989449 5.2200550573 -0.26906351327 -4.7932609142 5.2189774408 -0.60159196486 
-4.9841594484 5.0721685302 -0.9773174125 -6.005083507 4.7090604387 -0.14273521971 -4.7600803128 4.7709505538 -1.1768251472 
-6.2864247086 4.4073275366 -0.19504221047 -6.4154366243 4.0374973857 -0.38973754346 -6.32004414 3.7900509495 -1.1480975002 
-5.5803161918 3.8574491231 -1.7716176803 -6.1012535427 3.4408546191 -1.3381120024 -4.5824842039 5.1985769028 -0.17070412098 
-4.3713254729 5.101748569 -0.51759521124 -4.8357933142 5.0494045801 0.13732986205 -5.2602102423 5.0161247242 0.008255797201 
-4.5466842752 4.9603416155 -0.85204325605 -5.6239779966 4.816052362 0.021544051567 -5.8807099058 4.3911017022 0.12818973194 
-6.156786833 4.0564498647 0.0027222349979 -6.3821489773 3.6880286839 -0.68838936761 -6.2435321946 3.3515294297 -0.90346028181 
-5.3720264662 3.531021545 -1.9000542843 -5.7781795606 3.4706910914 -1.6574303645 -5.8369599976 3.045574492 -1.4764211647 
-4.3903752995 5.0491787028 0.20546929549 -4.1244199565 5.0917990179 -0.15737628365 -5.1587733437 4.7593180736 0.30543921414 
-4.0348857557 4.8879803298 -0.59982430537 -5.5023261616 4.4876123949 0.31115706946 -4.3024982004 4.6643111491 -0.95218053153 
-6.263287366 3.6381439379 -0.2627098347 -6.1693326012 3.2281710735 -0.47474512339 -5.1305662774 3.2231853668 -2.0119302845 
-5.511254661 3.0810385773 -1.7943148178 -6.0401992994 3.0414793159 -1.0810890158 -3.7356068168 4.9459593105 -0.1908044058 
-3.9403856504 4.9219468214 0.23144401751 -4.7002076686 4.7919879092 0.46831211383 -5.0261122632 4.4567506004 0.57536858113 
-3.5936731862 4.7423366066 -0.55577973639 -5.3988980462 4.172236862 0.52632159292 -3.886622621 4.5329453305 -0.81854660343 
-5.773945167 4.0004508187 0.33911049893 -6.0379034085 3.695468713 0.11718794371 -6.0330824881 3.2916954045 -0.029729604542 
-5.9899850735 2.8543735603 -0.67115540275 -5.8269010825 2.6773752112 -1.1545014957 -4.9153094516 2.8969233823 -2.0827529048 
-5.253430945 2.6946315517 -1.8860725489 -5.5943859394 2.6574129466 -1.5698397941 -3.5271097068 4.7813488105 0.19203021158 
-4.2283304745 4.7640005416 0.53100958017 -4.5009649409 4.5018227616 0.73474684975 -3.3146708411 4.7729674156 -0.21937798778 
-3.4606849476 4.3684314594 -0.80200064416 -5.471068999 3.7490561403 0.61736545097 -5.7762453292 3.495798643 0.3830999722 
-5.9177712324 2.8856372079 -0.16812025743 -5.7465377855 2.4496525299 -0.76885568209 -4.734716248 2.5436444863 -2.0974879623 
-5.0250255343 2.2910856699 -1.9098095466 -5.3513199034 2.2674000236 -1.6021474488 -5.5787636228 2.3045902139 -1.2382798228 
-3.7879787869 4.6404277752 0.56170194706 -3.1464698158 4.5704382115 -0.60159373424 -2.8881216546 4.5940019268 -0.29165291167 
-4.7449926439 4.2207383443 0.83396956826 -2.6980975999 4.3831068114 -0.68140126125 -5.0923174622 4.0198854382 0.76321220295 
-3.0281540414 4.2059376253 -0.87235820738 -5.7853609465 3.0677887008 0.26544179036 -5.7614907796 2.5312732683 -0.34437746006 
-4.5130998422 2.1968214424 -2.0920037892 -4.7682046715 1.9201833631 -1.920109877 -5.118889391 1.9034815259 -1.6147455791 
-5.3186363237 1.8735809043 -1.2082350227 -3.355321599 4.5122393049 0.52469210888 -3.1094301016 4.6234362878 0.13778980152 
-4.0614372815 4.4054174418 0.84262616152 -4.3383931602 4.1192855336 1.0149577291 -4.7114008736 3.8419379526 1.0228734226 
-5.1105542923 3.6173777242 0.88826973561 -2.5904817477 4.0592091208 -0.96433282798 -5.455924161 3.3077712199 0.68858953114 
-5.5468868 2.9058076422 0.54814269055 -5.6561417688 2.6328183581 0.19241075704 -5.5561581811 2.3023726111 -0.046610799633 
-5.4943351766 2.0970596554 -0.42438725845 -5.5173957999 2.0966638333 -0.86961976071 -4.322583861 1.7928061926 -2.0536028967 
-4.8302412173 1.5704476937 -1.7012397677 -2.9316854941 4.362396304 0.46635973688 -3.1610330937 4.1914631011 0.82037136131 
-3.6269610783 4.3182688677 0.85229462873 -2.4602288088 4.4015600444 -0.34925269749 -2.7065109723 4.449132866 0.06048569265 
-4.7091811833 3.450883399 1.1630929054 -2.2130212425 4.2462892108 -0.67955960879 -2.1711269231 3.9393411165 -1.0022379155 
-5.0653073637 3.2299253558 1.0055494793 -5.2450698579 2.9116201465 0.88867420655 -5.3675560131 2.5561555051 0.6726366671 
-5.4010248684 2.2667970538 0.37994284902 -5.3007057506 1.7560609075 -0.70819146217 -5.0414079865 1.509362648 -1.3677553168 
-4.490984073 1.4565474507 -1.8795357353 -2.7544943954 4.036984724 0.79484984346 -3.4275311118 3.9995287399 1.0903668747 
-3.8953951446 4.0052201453 1.131585973 -1.9729405191 4.2135416995 -0.25366466784 -1.7591747262 4.1469149554 -0.66242427915 
-2.3073116679 4.2812167924 0.00017431756738 -2.5361750105 4.2049292833 0.40388071621 -4.2958388222 3.7186012176 1.226771009 
-4.3533478981 3.2865550503 1.3745147573 -1.7679739487 3.8593522349 -1.0535144835 -4.7611433214 3.0105078341 1.2463112868 
-5.3200478736 1.9513912775 0.039550705483 -5.2042924971 1.6810846028 -0.26960522361 -5.1141049557 1.4598588427 -0.96145401155 
-5.0433252439 1.3590094976 -0.5182283244 -4.1042354589 1.3535598306 -1.9850426744 -4.6825214603 1.1625142343 -1.5826293048 
-4.8670964733 1.1224270422 -1.2210140543 -4.3195409683 1.0113318695 -1.7707392268 -3.0064327762 3.8104827373 1.1465202427 
-3.9015840724 3.5753739912 1.3794620074 -1.5390426423 4.0767342307 -0.21277745179 -1.2337788154 4.1000965734 -0.48944705598 
-1.7613832845 3.985373038 0.14607061404 -2.1384489314 4.083268437 0.27698128284 -1.3766815702 4.0412804708 -0.86447846988 
-1.3550315102 3.7746479814 -1.1555965456 -5.0381163076 2.6024992377 1.0794525048 -4.7102577822 2.6319487091 1.3526584977 
-5.1569674172 2.2328342566 0.84280046551 -5.1715923243 1.903138102 0.50031030481 -5.0628855654 1.581955876 0.16900178442 
-4.8891539533 1.0581190065 -0.78207214197 -3.9180076524 0.915231192 -1.9218002065 -4.502044521 0.74340580186 -1.4366652802 
-2.3372784686 3.9170477401 0.6957696663 -2.5413920585 3.722686881 1.0612498873 -3.5175105426 3.6847713729 1.3341528095 
-0.44704994378 4.1411273977 -0.70249528059 -0.94210120412 4.0651479318 -0.82943410663 -0.76417345652 4.0561820102 -0.39981866305 
-1.0871641504 3.9250085867 -0.095494994135 -1.3772478473 3.7918439697 0.21467500918 -3.9584806254 3.1818336169 1.5408255123 
-0.61419479951 3.9980474888 -1.0589909351 -0.19983522934 4.0058587364 -1.0864964726 -4.3148533138 2.8618894458 1.5221843485 
-0.4918721475 3.6919428819 -1.3155073024 -0.9453138473 3.7566690313 -1.204848183 -4.8441389249 2.1917367126 1.2544189723 
-4.9784022487 1.8638184542 0.93485078143 -4.9347903773 1.5223213367 0.58077309101 -4.9160542734 1.2678944419 -0.091447982012 
-4.7759108581 0.94671056746 -0.34511521681 -4.7006937614 0.76508754223 -1.0610335688 -4.1401500623 0.58199150505 -1.6937358939 
-3.7287100139 0.49387381942 -1.8806030916 0.0047343573007 4.1603781939 -0.70102345932 -0.28693781883 4.0577150636 -0.29505709016 
-2.0566179614 3.609060401 0.91154334812 -1.9491717732 3.8253021097 0.53824716211 -2.7420245622 3.4427441548 1.4103088992 
-3.1713547878 3.4912438958 1.4404582255 -3.5068893618 3.2333569055 1.5958816885 0.22444504341 3.9671095144 -1.1205432295 
-1.6212224428 3.6452456626 0.55341529827 -3.7738788469 2.849551846 1.7146621399 -4.049724277 2.536108872 1.7336564451 
-0.040557736086 3.6631151176 -1.3644337198 -4.4753095515 2.4084693248 1.5513330821 -4.7865504897 1.4594446664 0.95843879793 
-4.7726130597 1.1833519825 0.33489864658 -4.6272274387 0.8656898596 0.079466893583 -4.6491658333 0.65108742037 -0.62443451447 
-4.2906285001 0.32797508739 -1.3537526864 -4.4893615636 0.41956809932 -0.98679903357 -3.9477282413 0.1669106676 -1.6416981569 
0.31748693627 4.060457344 -0.45546769081 0.51286942776 4.0608675791 -0.84094660012 0.074064763037 3.9397598378 -0.12890617176 
-1.9043321393 3.3051228627 1.1861420963 -2.3278512114 3.4215086408 1.2959296236 -3.0066602862 3.13642075 1.666664632 
-0.62796701558 3.8391872635 -0.01562849308 -0.95873893326 3.6309690961 0.26640161397 -1.2333743449 3.4360753665 0.58477376864 
-3.3151365331 2.8307994724 1.8059285983 0.72893582737 3.8787828352 -1.179076871 0.40222322847 3.634129808 -1.4020973932 
0.84395070643 3.5896940233 -1.4439575757 -4.2324096252 2.1504542724 1.7513768049 -4.5475405492 1.9609608403 1.5469665729 
-4.7309553627 1.7090799514 1.2760796333 -4.6373536791 1.1274577346 0.75020261302 -4.4712969681 0.80421113186 0.5169296812 
-4.4959243598 0.54094393622 -0.18250553972 -4.4089430933 0.28193865777 -0.51790123579 -4.2767884412 0.055888108327 -0.902221326 
-3.5402200705 0.080583870571 -1.859122786 -4.1065514706 -0.065078558925 -1.2758553228 -3.7895865723 -0.23230336281 -1.6031641217 
0.7877465699 3.9773294346 -0.5035516734 0.52732422372 3.8514349108 -0.13208293952 -0.23240227898 3.7318516251 0.12942600285 
-1.5836039072 3.3793940256 0.86260428009 -2.1414883292 3.1179916988 1.5243618847 -2.527068651 3.060962041 1.6819560091 
-2.8316317911 2.7608235605 1.8759107403 1.0326284688 3.9747862097 -0.89378403081 1.2846338282 3.8213986849 -1.2121004088 
-0.5510110456 3.4995905484 0.34961844726 -3.6024151245 2.4582793396 1.894126215 1.2512159312 3.5431936558 -1.4793052713 
-3.8697880376 2.0974677616 1.918429095 -4.1994478827 1.7421717508 1.8164384248 -4.4557276999 1.4959145415 1.5580064844 
-4.5512329323 1.2134824948 1.2055417829 -4.3327978408 0.4823926696 0.25055084696 -4.1752381799 -0.082054176551 -0.47111425987 
-3.4045540136 -0.3370505489 -1.8418399425 -3.9341605231 -0.43510036056 -1.2057331685 1.5344030195 3.9757517923 -0.86076323189 
1.2543302351 3.9289307647 -0.50377494033 0.97967778361 3.7721460144 -0.14241609418 0.22465818712 3.642888152 0.18357055793 
-0.083473140643 3.3975352049 0.42536925176 -1.7443023099 2.9444200405 1.482928533 -1.5098041785 3.0989124746 1.1452211087 
1.7993977835 3.8700682653 -1.1956658786 -0.84128238698 3.2676519054 0.61938142795 -1.1322525375 3.0670925434 0.93862091705 
-3.1593009744 2.4313850128 1.9766354923 1.6618732979 3.5615866335 -1.4905397326 -3.4552480587 2.0251826827 2.0296446331 
-4.2842766393 1.0921012378 1.5079667437 -4.3531424793 0.84291828893 0.98947409744 -4.1821794494 0.49107181512 0.73200833742 
-4.2116176166 0.14603315327 -0.046644843735 -4.047314986 -0.33842080321 -0.80560117806 -3.6978741606 -0.63947306419 -1.5063947821 
1.9972061759 4.0202905767 -0.7741372112 2.4518103307 4.0147433318 -0.69748950736 2.1714402921 3.888887263 -0.35397293868 
1.7141539164 3.9403342007 -0.43008723211 1.4307074075 3.7363728803 -0.11901586141 2.2412215931 3.973018777 -1.1375629319 
0.68170951147 3.5715275731 0.17424070307 -2.0456758866 2.7742953813 1.7728849559 -2.3834949312 2.6188056672 1.9244056144 
2.5190324587 3.8558565349 -1.4132080757 -0.4000586702 3.1640321694 0.63956298874 -0.68624014839 2.9180536152 0.90909430785 
-1.3277707067 2.7850108706 1.351082496 -2.7023117234 2.3315339447 2.0213240591 2.416585146 3.5299439344 -1.6595291657 
2.0647549623 3.6133101292 -1.5154163006 -3.7911466445 1.6551862604 1.9911840451 -4.0706851862 1.3256506754 1.82649255 
-4.1061654775 0.7634084458 1.3343952723 -3.97256527 0.4567899901 1.1362052653 -4.0591616647 0.15227348909 0.44667868952 
-3.907030068 -0.19652483032 0.25047845378 -3.9891103601 -0.26053282284 -0.15809899595 -3.8738770935 -0.5605949103 -0.45737548976 
-3.8212272985 -0.75863496371 -0.97800164322 -3.1953713533 -0.68240634582 -1.8418865393 -3.4392365453 -0.90815546802 -1.650272329 
-3.6263464964 -1.0664263561 -1.306770556 3.1859547082 4.0351860485 -0.96846691487 3.4033846877 4.0531346445 -1.3495889768 
2.7244628236 4.0499553516 -1.0379530081 2.8985530907 3.9321566 -0.61413874893 1.8809619739 3.6883717862 -0.061731506432 
2.9577365898 3.9597679534 -1.3989940267 1.1339448843 3.4891560739 0.17950026432 0.39225807876 3.3285587845 0.45061027272 
0.090299620039 3.0766629297 0.68063652666 -1.5955789376 2.5820323479 1.6972649426 3.2830727695 3.8261056501 -1.6601600121 
-0.2127388626 2.8256324279 0.90219044793 -0.93497089308 2.6800246596 1.216105245 -2.2520211449 2.1458176912 2.0028351825 
2.8109770677 3.5910880181 -1.7003559402 3.1621807434 3.4953159714 -1.8332880797 -3.0326366578 2.011553477 2.0573851859 
-3.3767804386 1.5772915477 2.0333133102 -3.6181523918 1.2196372011 1.9219778582 -3.8766035624 0.94878183678 1.6835892195 
-3.8732243104 0.13079839213 0.88550209481 -3.7347026416 -0.57641959179 0.028837378085 -3.707499382 -0.90981817966 -0.58527611562 
-3.623898633 -1.1786064483 -0.91274264834 -3.0377382709 -1.0921459325 -1.7916691976 -3.3276033742 -1.3450185568 -1.5951000817 
3.7903204703 4.0453489381 -1.2875042545 4.1233970236 4.0275568906 -1.5388823424 3.6384885974 3.9446063116 -0.89201054885 
3.3191455218 3.812291747 -0.56019101818 2.6025646077 3.7797015707 -0.29257621251 1.5709260651 3.4309721835 0.20288363176 
3.7454523831 3.8754538713 -1.7112603446 1.2953359827 3.155606515 0.47210498317 0.8477512606 3.2443722234 0.45979460799 
0.56744707401 2.9865309369 0.71684738139 0.25905851266 2.7307163713 0.93791690835 -1.906745101 2.3602480956 1.9161879661 
-1.5005404081 2.133036356 1.7671615198 4.2088548128 3.7998193573 -1.8831362694 -0.4946096882 2.564526922 1.1560047586 
-1.1893542184 2.4076682843 1.5429201631 -2.6072124033 1.8860934632 2.0260259266 3.9691068803 3.5035969886 -2.0207255632 
3.5687077996 3.520762404 -1.9107077241 -2.2253398895 1.6776856684 1.9027122736 -2.6209827061 1.4502631628 1.9079174128 
-2.9784935908 1.5959058834 2.0072074165 -3.1220758249 1.1795364399 1.8881557581 -3.3824690412 0.85348734343 1.7506699117 
-3.6980730314 0.59858231476 1.5187516441 -3.6245791383 0.2272025029 1.3050191031 -3.7531315791 -0.21600221886 0.68115234579 
-3.5671093984 -0.15599946255 1.1186478127 -3.610256813 -0.56536879515 0.46724443157 -3.5853698313 -0.92607396067 -0.16697538236 
-3.4675300836 -1.5363230468 -1.2526444277 -3.4727889653 -1.5258969137 -0.82426296184 -2.8863242915 -1.5050630238 -1.7368671805 
-3.1588941406 -1.779853672 -1.5429285919 4.5109122671 3.9578697555 -1.6235012038 4.5498351647 3.8926699079 -1.2144673896 
4.1554099653 3.9470612154 -1.1077459648 4.0445953094 3.7742576498 -0.7681279629 3.0108439214 3.6389256217 -0.24120158524 
2.3099654438 3.5766914948 0.0028190074576 1.9983864262 3.3374373927 0.25621994595 4.709633969 3.7650294137 -1.9196558681 
1.7228452889 3.0613777857 0.50285991422 1.0186190857 2.8880889489 0.73748546806 0.72564835087 2.6204875486 0.97886659534 
-0.025078583043 2.4591544765 1.1517746767 -0.77498663094 2.2778615532 1.4202729539 -1.1021734145 1.9675759242 1.5995387179 
-1.8422628661 1.8789520277 1.856867461 4.4249456746 3.482764187 -2.123298847 -1.8706481078 1.4313933226 1.6858014338 
-2.284078774 1.2433406646 1.7250020517 -2.7223479071 1.0698156546 1.7629633414 -2.9143554766 0.7062088212 1.6486586528 
-3.2817036231 0.4422569226 1.561233536 -3.466057135 -0.52580561118 0.92726131489 -3.4556639166 -0.93785673889 0.25128831527 
-3.4932171609 -1.2596502928 -0.44249319378 -3.3236595575 -1.3301842557 -0.0062466257221 -2.7536801233 -1.9355361509 -1.6463166884 
-3.3062274948 -1.9543265475 -1.2205328489 4.9121393195 3.8780877342 -1.5296225724 4.9189044216 3.7271318944 -1.0887010026 
4.4936855424 3.6707533129 -0.80765227554 3.7203026465 3.6555604862 -0.50136409846 3.4134698405 3.4829527561 -0.20060247777 
2.710106978 3.4331549252 0.060357879327 2.4170312353 3.2026997107 0.32322800753 2.1380347964 2.9417199055 0.55912972209 
5.1661520141 3.732754487 -1.8652349224 1.4371088896 2.7840243952 0.75522821939 5.3394394259 3.390213419 -2.122867522 
0.43297191575 2.3500240147 1.1719348433 -0.31144384383 2.1857647461 1.3476121874 4.8998546319 3.4576493881 -2.1391077611 
-0.604397755 1.8744106062 1.4724920742 -0.92854393727 1.5903154631 1.4985926219 -1.4559082578 1.6477526516 1.6440245215 
-1.2067071842 1.302170792 1.4575951888 -1.5785961625 1.1581702839 1.4792933662 -1.9850177432 0.9851287688 1.5203880637 
-2.4185282995 0.82508889561 1.5787764946 -2.0673701829 0.5644780282 1.4046795148 -2.5054809658 0.42601024948 1.4742311133 
-2.889440784 0.24377618621 1.5006612283 -2.8598856262 -0.24807256409 1.4305613927 -3.248640977 0.00011208628169 1.4151818907 
-3.2218052157 -0.43867626667 1.307836298 -3.3482235605 -0.87290122453 0.71596461589 -3.3199107822 -1.6391556948 -0.4065439591 
-3.3405048425 -1.885064968 -0.81520882414 -3.0365966524 -2.2698787755 -1.3920490036 5.3033899231 3.7313936557 -1.4159053998 
4.1627851503 3.4894324346 -0.46736649761 3.8284684063 3.3407508429 -0.19189451809 3.1075007521 3.288653511 0.094253132125 
2.830849936 3.0537716375 0.37960735627 5.5619895243 3.6031971886 -1.7740884037 1.8539682761 2.6652877196 0.78682567979 
1.1480171269 2.4979356115 1.0084231107 0.86417711027 2.1955104417 1.2049010721 0.14636374973 2.0467613172 1.3275879241 
-0.15819802155 1.7369122935 1.4088744134 -0.4925620113 1.4243842669 1.4035185625 -0.8121842026 1.1243975664 1.3508064206 
-1.1882714044 0.87244578749 1.3292743034 -1.6289945721 0.73312177375 1.3629283939 -1.7368875279 0.2906859566 1.2935899003 
-2.1456276022 0.11959744276 1.3456532995 -2.5240578477 -0.026017680631 1.4077674326 -3.1154625358 -0.80891570937 1.1569759137 
-3.0709160702 -1.180226635 0.95509677228 -3.2255136428 -1.2369448333 0.49117832378 -3.1014201005 -1.6077664161 0.28702968635 
-3.1351802385 -1.8236561053 -0.082664132038 -3.183074326 -2.0793386474 -0.47687950224 -3.2021436155 -2.2759574734 -0.93331476777 
-2.6078448224 -2.3360540442 -1.5906470083 -2.8588992842 -2.6914727615 -1.3806640141 -3.0595879787 -2.6518946687 -1.0036517099 
5.3078009943 3.5437830872 -1.0202105937 4.913578863 3.465940141 -0.71917326291 4.565644907 3.3372556512 -0.4428271908 
4.240200938 3.1597635266 -0.14554233453 3.507103612 3.1472083279 0.11079480445 3.2480737322 2.9142581098 0.40686171486 
2.5622272899 2.8045897688 0.62318076303 2.2854982692 2.5420439242 0.83019560795 5.9338744945 3.42215774 -1.7481736593 
5.7189538638 3.5222054617 -1.3257316952 1.5480378743 2.375337961 1.0158355901 1.2651240911 2.0420394869 1.1987241176 
5.7506639359 3.2372104821 -2.0625650672 0.58110083744 1.893211189 1.310558653 0.27803187116 1.5734280582 1.3374751641 
-0.066498355973 1.2698108888 1.3195271593 -0.40680720324 0.9563925865 1.2720569196 -0.78491090526 0.65579862221 1.241080096 
-1.2882210372 0.46426802763 1.2600397288 -1.4375038495 0.02567615364 1.2122943841 -1.858717455 -0.19404424899 1.2507035314 
-2.2963830996 -0.39295898937 1.3209686575 -2.7119383489 -0.64024418705 1.3495978273 -2.977533983 -1.5375424129 0.74922304407 
-3.0593423027 -2.5152741512 -0.55282929287 -2.4440687487 -2.7428890998 -1.5728466498 -2.68549309 -3.1065516643 -1.3931330426 
5.6151029393 3.3239829161 -0.87244491457 5.277877725 3.2569104592 -0.62370154188 4.928621825 3.1247768491 -0.34385376663 
3.9263967551 3.0231969283 0.096578699031 3.6915790752 2.8106308066 0.37665339089 2.9916519072 2.6562138485 0.67698787093 
2.712030182 2.3895304427 0.88440220246 6.1693757863 3.3338832081 -1.4656414139 6.1762994915 3.0757856817 -1.93775774 
1.9612725664 2.2686290822 1.0106517638 1.004693989 1.6911142476 1.2550100947 0.70714689127 1.3900349737 1.2398684362 
0.37605238982 1.1178289935 1.2150685728 0.037893396924 0.82172285044 1.1836427946 -0.30004143999 0.5303955386 1.1660144482 
-0.98551678834 0.21498797347 1.1902038112 -0.60449083667 0.23202740376 1.1539740329 -1.0775722063 -0.186877368 1.1389431384 
-1.4741190952 -0.42827017194 1.1497932732 -1.8788043988 -0.63576722484 1.2019409389 -2.2795529255 -0.86199941283 1.2598989772 
-2.7182269005 -1.0754120619 1.2395515071 -2.8761897222 -1.8852255073 0.55568904724 -2.9292291552 -2.0912595425 0.20191360937 
-2.9874265273 -2.3173838843 -0.15304352305 -2.9248205513 -2.9334319995 -0.57970786193 -2.9054227019 -3.0519227324 -1.011120914 
-2.2794798731 -3.149353755 -1.5728032103 5.9655867016 3.2869013229 -1.0411825705 5.7312576041 3.054211772 -0.57244209292 
4.576598893 2.9661181829 -0.061793120683 4.2078428768 2.7610669414 0.2588202796 3.430756087 2.5502156435 0.67509205722 
6.5106686344 3.1121403362 -1.6050885712 2.3928625194 2.1298934067 1.0178220269 2.0646443003 1.8464899586 1.1031946396 
1.666025703 1.9216671063 1.1514556226 6.5293916249 2.7929984012 -1.8270687614 1.4502277129 1.5418346004 1.161319871 
1.1454986801 1.2199033765 1.1147447573 0.82485908898 0.92843694032 1.072051581 0.46052054167 0.67666071684 1.0703130565 
0.11304123345 0.36076449269 1.0725367136 -0.23691903323 0.05814952967 1.0848832425 -0.64572291948 -0.21837578969 1.0946795604 
-1.4280047793 -0.87278317802 1.0954664805 -1.8454496251 -1.0628080799 1.1585695376 -2.3114455847 -1.3069656426 1.2075296474 
-2.7094748247 -1.5023997789 1.109542807 -2.644182225 -1.9014459381 0.92334207938 -2.6925345825 -2.2710849878 0.60170568781 
-2.7661913705 -2.5310615407 0.23375545931 -2.8517984752 -2.7595560167 -0.1637838482 -2.776970807 -3.3649524857 -0.6726272079 
-2.4408942075 -3.5400545883 -1.4226872741 -2.7112508158 -3.4430072803 -1.1082252822 -2.1033205497 -3.564589813 -1.6386137332 
6.1097643475 3.016165647 -0.71993853154 6.341493098 3.1467050709 -1.1277772496 5.3437704953 2.9617941624 -0.31661421248 
4.988272996 2.7837313642 -0.016673960565 4.6390203651 2.6346728369 0.23765938787 3.8887616756 2.5026499983 0.58720638277 
3.1499085443 2.241230799 0.91825739076 6.6648141018 2.9558140066 -1.2061899321 2.8203669817 1.9434340499 1.0181286876 
2.4326381739 1.6754047026 1.0441797556 6.8416155848 2.7359470957 -1.4501070454 1.9141429208 1.4475179972 1.0617789851 
1.5908703705 1.092356657 0.98682729749 1.2819060572 0.76705910747 0.92944172502 0.91959431084 0.48176044028 0.93462044404 
0.54238783552 0.24759321403 0.97501083101 0.16005708127 -0.08128315367 1.0090299715 -0.21705108411 -0.38442842077 1.0272328758 
-0.60248087037 -0.6765697778 1.0253516827 -1.0337719279 -0.58990524057 1.0774964152 -0.99473918849 -1.0338564629 1.0259805395 
-1.4293530451 -1.3286896854 1.0776268191 -1.9051457709 -1.4596710683 1.1498203736 -2.2721629006 -1.7818923769 1.1372988349 
-2.4944599879 -2.6310358608 0.74786105254 -2.5846309771 -2.8695570157 0.41803046591 -2.662567016 -3.0774676624 0.065198202276 
-2.7297208113 -3.2664700071 -0.29866443225 -2.6165357731 -3.7186268866 -0.78606893357 -2.2112108144 -4.0404852666 -1.4710749984 
-2.4753103813 -3.8552557627 -1.1568141324 -1.9135295249 -3.9346267081 -1.6983824346 6.5030559343 2.8659650532 -0.79146845476 
6.2140035915 2.7134444883 -0.40768604481 5.7677850968 2.7765409627 -0.27437496478 5.4076157304 2.6549611123 -0.027838511194 
5.1059306605 2.4184123109 0.26903398668 4.3274969329 2.3946911211 0.53741371865 3.5885481398 2.1715080569 0.87097272006 
4.048259828 2.1319925252 0.78418191269 3.2549480558 1.7685831104 0.9720746678 2.8323852042 1.4941866785 0.9545691656 
6.7406240875 2.4389326167 -1.6765262528 2.3653827391 1.2872857787 0.93173575412 2.0057707326 1.0208097562 0.87699940941 
2.1858297513 0.70542200788 0.71431215933 1.7102461338 0.59441082738 0.7868638029 1.3185795288 0.27510973691 0.81764973128 
0.94677470306 -0.013688092884 0.8714789888 0.55966467494 -0.1837743359 0.9325530352 0.24065900557 -0.51427296547 0.95084184074 
-0.13479779922 -0.80451662218 0.959779155 -0.53397065988 -1.0974425426 0.96884881795 -0.93512976311 -1.4615947813 1.0043791061 
-1.7493376034 -1.8028107898 1.1391330731 -2.0360282021 -2.1762874341 1.1608702874 -2.4005011799 -2.2762828789 0.99397690072 
-2.535526429 -3.7762006752 -0.37464534539 -1.8044192486 -4.3287527945 -1.6109374809 6.6376781105 2.5494805416 -0.51995889621 
5.9274245593 2.4742037596 -0.063020659871 5.5448317288 2.3563785959 0.17329969489 4.7467726435 2.2949690067 0.47914057796 
6.8568486541 2.6449405871 -0.94215117624 7.0230038375 2.3729631874 -1.2242299404 3.7360377078 1.7637192251 0.91358256764 
3.4642202256 1.3921842718 0.84893256876 3.0179916081 1.1977794747 0.79991109976 6.8335148534 2.0934656865 -1.5315325134 
2.5811187266 0.98153400199 0.75429425661 2.945641102 0.75844852182 0.59913263115 2.5500947868 0.52410054205 0.58849637204 
2.0808438806 0.29277994304 0.64161394234 1.6697250681 0.05777219493 0.71822272748 1.262057393 -0.29478407088 0.79266820363 
0.73882962196 -0.54626855532 0.87147337716 0.35060765102 -0.91292582283 0.88701369641 -0.056923269693 -1.2196793538 0.90299383404 
-0.47522022619 -1.5037021441 0.93899507539 -1.30022494 -1.7445160548 1.0742738467 -0.81701154248 -1.9098679973 1.0026989565 
-1.5643156989 -2.1826319939 1.164303367 -2.1736755456 -2.7023502628 1.0921190541 -2.3582460901 -3.0516012243 0.78737040499 
-2.4542792411 -3.3115241827 0.39900523788 -2.5254811856 -3.5382010171 -0.0049005108321 -2.4247063609 -4.0882306973 -0.71724489155 
-2.2854959004 -4.2883881163 -0.3721498023 -2.2993496496 -4.2384891785 -1.1102651312 -2.0365146576 -4.5285197184 -1.2856286085 
6.329398962 2.3149519319 -0.1576965397 5.4174103403 2.0401413287 0.39297927893 5.0166412041 1.9798676062 0.55446708536 
4.5600671298 1.9632903443 0.70658951228 4.2052790146 1.767247703 0.82938553078 6.9588497126 2.2467954861 -0.77813981109 
4.0008869494 1.4121544589 0.8045318579 3.8081548437 1.0868628651 0.67023698052 3.3525710658 0.97880513739 0.65114599198 
6.7734891592 1.7196979678 -1.4652675265 3.3062096946 0.51747622317 0.46246086385 3.6645010551 0.72448246227 0.50346182051 
6.6574604993 1.3434070509 -1.4651885735 2.9148909069 0.27308528276 0.46438674498 2.508440086 0.093787869779 0.52401234726 
2.0958893512 -0.14454771015 0.60335649415 1.7269691538 -0.40399869882 0.67405271515 1.0538003451 -0.77218002608 0.78606478497 
0.74094286453 -1.0873421325 0.80132027122 0.38948794796 -1.3686802234 0.82718253982 0.0054135650334 -1.63699249 0.86599108533 
-0.36607726451 -1.8889820096 0.92100042213 -1.1672604067 -2.1616875961 1.0971490401 -1.7918438114 -2.5336754442 1.2149688891 
-2.0858806053 -3.1737405612 1.1239857489 -2.2405834267 -3.492377772 0.76188869924 -2.3164949432 -3.7538383525 0.34627940697 
-2.3375073132 -4.0076887761 -0.033302675205 -2.1957298303 -4.5048116722 -0.80318124106 -1.6221927809 -4.7099562747 -1.5358493411 
6.7219723945 2.1853294606 -0.40841956295 5.8831966937 2.1188762582 0.16336872676 5.3244205633 1.6125071799 0.49057844355 
4.8933607373 1.5661198193 0.6376574099 4.4933031442 1.4653956854 0.73401339571 6.9605846328 1.9512698966 -1.0921787889 
4.2866979647 1.0746671617 0.6143275823 4.0822273355 0.71302992285 0.45971581063 3.7787327395 0.34390410416 0.34940002236 
6.5646130897 0.95355117863 -1.5074070866 3.3113741791 0.09179482543 0.35746536454 2.9295215456 -0.21289561829 0.38551182017 
2.5008696496 -0.31299775134 0.48270592415 2.1731217532 -0.57858400548 0.53260299124 1.8636172337 -0.86032646861 0.56756897667 
1.439495455 -0.74789669799 0.70196449155 1.5393792262 -1.1785595354 0.59600427773 1.1493440603 -1.2340815492 0.6924484217 
0.82024485601 -1.5583248498 0.72714014614 0.44002123042 -1.8203849734 0.78516241174 0.015442501499 -2.0722211699 0.85485664225 
-0.47996083721 -2.2695096805 0.96108499581 -0.87199672114 -2.4366774291 1.074034309 -1.3186853767 -2.6201420665 1.2056364969 
-1.7291653841 -2.9251811541 1.2865335363 -1.9965716409 -3.637133536 1.1004038776 -2.1089054088 -3.9387947789 0.71227207619 
-2.132771958 -4.2133224469 0.32819309406 -2.1017147206 -4.4860975748 -0.016215958443 -2.0610027406 -4.7085635444 -0.42461715822 
-1.9672505661 -4.87116898 -0.85824135003 -1.8227078839 -4.9125680973 -1.2250164417 -1.4782974731 -5.1301764022 -1.3765932939 
6.5199863042 1.9024175626 -0.22185769495 6.1658332253 1.8794728048 0.059859257916 5.7530087224 1.7110745792 0.30810109632 
6.79219026 1.7993951277 -0.66036592701 6.279012522 1.5266873043 -0.11534183081 6.5452687262 1.5231572322 -0.41866269138 
5.5725824257 1.2764574036 0.26925414533 5.1563532655 1.194229823 0.43330295669 4.7391030717 1.1238511851 0.53910306546 
6.7703301227 1.5406783297 -1.0352137819 4.541093056 0.73432271428 0.38636487403 6.5731097293 1.2718819917 -0.69458537769 
6.6153581707 1.1010447905 -1.0784442154 4.2848108719 0.37342415259 0.26882113924 4.0868048004 0.0097554970429 0.1736020232 
6.4727843827 0.58365826258 -1.575286238 3.6773898152 -0.051658932433 0.25140513722 3.3446778517 -0.36776974939 0.25059512692 
3.0959819486 -0.71761591159 0.22445318643 2.6903939899 -0.64842093566 0.36362330111 2.356102464 -0.94773100858 0.38812205543 
2.0077817486 -1.2518825498 0.42460193463 1.6627717911 -1.5459805407 0.48582559628 1.2512761987 -1.7094014568 0.6009062632 
0.86554591651 -2.0143596995 0.68452690291 0.38590500591 -2.2583819712 0.78088649417 -0.097219088789 -2.4884148428 0.88794742796 
-0.50037880376 -2.712814292 1.018425353 -0.91101684907 -2.884170782 1.1729581038 -1.2944316907 -3.096672175 1.3142528081 
-1.7045284271 -3.3529102397 1.3454010797 -1.880390975 -4.0881400419 1.0620784377 -1.8783740624 -4.9045561092 -0.063627474551 
-1.8205386974 -5.1100962585 -0.51688842304 -1.6710553881 -5.2800439682 -0.96064013835 5.9603856756 1.3904910675 0.076586751634 
6.2268755176 1.135680951 -0.32183434283 5.8143341771 1.0008080741 -0.0693666577 5.3795761787 0.88687584886 0.13093192704 
4.9654380935 0.79243240197 0.2774193579 6.3709230609 0.86549380927 -0.69623084704 6.0217332917 0.72430112401 -0.41052289043 
5.6001267357 0.60998145437 -0.18012666334 5.179962969 0.48646010381 -0.018052640844 4.7461282225 0.40031092376 0.13407063797 
6.4815512416 0.67191404626 -1.0986620516 4.9721791985 0.079738704623 -0.13368355198 4.5269878355 0.027778469447 0.035189412085 
4.2599199474 -0.34078228751 -0.016090426233 6.3917837959 0.25892296168 -1.2117318986 3.7993104389 -0.40577438157 0.11780594515 
6.3776182951 0.21937600178 -1.6528517322 3.5332629814 -0.79242069065 0.07275473466 6.2608549238 -0.11630649264 -1.7535113763 
2.8039074958 -1.0674824684 0.20718239873 6.1111531157 -0.45137914989 -1.8061782567 2.8419572352 -1.4830723406 0.079428226305 
2.4247090974 -1.3609031794 0.24784164051 2.0548362076 -1.6991325097 0.31334532143 1.6437589989 -1.9555775808 0.44465380902 
1.2502903273 -2.2278878502 0.5705994113 0.74249145094 -2.4438848432 0.69952895016 0.27492826037 -2.6927714716 0.80770405589 
-0.11079822286 -2.9451083476 0.93753573284 -0.50535948295 -3.1464393539 1.1102276802 -0.88858716842 -3.3383067239 1.2855718177 
-1.2823562372 -3.5525612544 1.4146054995 -1.6591998419 -3.7914090408 1.3603550368 -1.9144845549 -4.3922658859 0.71016276215 
-1.897907954 -4.6690087502 0.35479343689 -1.6743007123 -5.0690712739 0.32067413049 -1.3312632925 -5.5098510904 -1.3017631338 
-1.4646679709 -5.7050479506 -0.91380514754 6.2090722044 0.42005840398 -0.76225426887 5.8079015326 0.32644547949 -0.45939241662 
5.3972598341 0.17013707959 -0.29523691595 6.1881451129 -0.033963974671 -0.9775385051 5.9411545524 0.0123154381 -0.68878855428 
5.6042888897 -0.16295359853 -0.54384292026 5.1789493209 -0.27414195911 -0.38195888003 4.7356611454 -0.30050283581 -0.19687760676 
4.4869914981 -0.64568207094 -0.22967918581 3.9968628844 -0.71356133153 -0.057664951012 6.2514974026 -0.21370382818 -1.3308297662 
4.9292088251 -0.66503320677 -0.42859146724 4.2221248979 -0.98126319672 -0.24429018742 3.8072890433 -1.1303913484 -0.13455996643 
3.2526872554 -1.1629854952 0.039716039023 3.569201338 -1.4466311721 -0.14419339776 5.9503975644 -0.80427307265 -1.826033688 
3.2060522839 -1.6536417979 -0.073380074185 2.462561976 -1.7820146001 0.14836998888 2.8621750524 -1.955246608 -0.0056875064183 
2.5537676088 -2.1934461793 0.087852179664 2.1005502526 -2.1377443767 0.25871485582 5.7752792483 -1.1591003623 -1.9206985397 
1.7265782396 -2.3440268835 0.40171468283 1.0597550762 -2.6718180923 0.61690593327 5.6288637016 -1.5158703382 -1.95628725 
0.63993266295 -2.9062269605 0.72599931122 0.26492643329 -3.1706049447 0.85330124935 -0.10193381491 -3.3970464823 1.0219827611 
-0.47464773446 -3.5861643538 1.2139765702 -1.2281698455 -3.9954649598 1.4722284533 -1.5716976314 -4.2081011368 1.3378133795 
-1.6568959537 -4.5286035398 1.0819898145 -1.6505447903 -4.8307004968 0.74859267971 -1.639971395 -5.2907960434 -0.1085041086 
-1.5767620833 -5.4904243975 -0.52237617765 -1.2018080004 -5.9362328965 -1.2375869467 5.909978415 -0.44064225774 -0.9042287958 
5.4700667893 -0.55283047608 -0.63507121925 5.5742390913 -0.90351532454 -0.86872406285 6.0616266175 -0.60658309948 -1.3868990187 
5.8555822142 -0.84684084074 -1.1391527697 5.2034747849 -0.90410097348 -0.64771579688 4.6087470936 -1.0251214334 -0.42517710652 
4.9213292877 -1.2021937965 -0.62901945144 4.5792225849 -1.4753145898 -0.55216455114 4.2088622022 -1.3639397975 -0.36212346861 
5.8381799623 -1.1033110976 -1.4944866058 3.9363719897 -1.6490881367 -0.32080099076 3.5829103992 -1.8983992808 -0.23017256732 
3.2025416911 -2.1345362471 -0.12326256919 2.336746373 -2.4999269747 0.17393911855 1.9715613951 -2.6973193353 0.32018218048 
1.4928230122 -2.650545501 0.48821271599 5.48101933 -1.8859748119 -1.9934608063 1.2926661164 -3.0109046515 0.5534635407 
0.95356903021 -3.1851810437 0.65226155606 0.62073773118 -3.4245600283 0.77021724634 0.28665620961 -3.6537341718 0.92358092172 
-0.84773641615 -3.783671023 1.3858795614 -0.45438501595 -4.0442895297 1.2986897706 -1.4167106625 -5.2631942292 0.62012202322 
-1.4137253294 -5.4747476177 0.2372302011 -1.3857528342 -5.6940803092 -0.13727563346 -1.3678534219 -5.9144048378 -0.5011654953 
-1.3168443202 -6.1579853711 -0.87322763422 -1.0702514372 -6.387911453 -1.1414876816 5.5994661224 -1.2754793147 -1.1603741282 
5.2679269603 -1.3347388705 -0.88160328934 4.9240602993 -1.6325380322 -0.7755500843 4.3453977763 -1.8341802811 -0.51921706489 
5.6217753561 -1.547033034 -1.5454031272 5.3698732229 -1.7027278196 -1.1803485602 4.6904536635 -2.0315153814 -0.73170525804 
3.9895209016 -2.1001015553 -0.39559246161 3.6493530754 -2.3386247789 -0.27708813245 3.2638781726 -2.525238658 -0.14062417476 
2.8318437345 -2.5364502485 0.0051569693373 5.4321220118 -1.9906007911 -1.5939903144 2.4309505389 -2.8798363313 0.16459703374 
1.6933699524 -3.0624464644 0.43023106771 5.3401039836 -2.2789352927 -2.0446457817 2.0805185269 -3.1644471226 0.30177999074 
1.3780520336 -3.4135661532 0.53604292485 1.0189542022 -3.6432268462 0.65732939479 0.67175856907 -3.9183978152 0.80503534563 
-0.080984806552 -3.8470928294 1.1119699139 0.30484237667 -4.1143441207 0.98053707661 -0.83601654017 -4.2511639789 1.4319788506 
-1.2397671459 -4.4500468836 1.4116203398 -1.3142319336 -4.7869507275 1.2061977207 -1.3204640425 -5.0797797775 0.96518550442 
-1.12799042 -5.6363820538 0.54399751004 -1.1357874578 -5.884193912 0.19394310011 -1.1659011478 -6.1290856044 -0.13682804191 
-1.2361990783 -6.3432558583 -0.4828036969 -1.1882046562 -6.6198810847 -0.75084916759 5.0688402203 -1.9494308467 -0.98545246214 
5.2284815021 -2.1984847746 -1.2952867086 4.9281465745 -2.3692176884 -0.99874288222 4.3309624707 -2.3134673801 -0.5667304635 
4.0285857973 -2.6040687746 -0.44664777566 3.6272047201 -2.786178512 -0.2786380943 3.1983227188 -2.9223547673 -0.10961961364 
2.8059390153 -3.0260624951 0.035180368357 5.2669304261 -2.4662965304 -1.6723513418 2.4338161026 -3.3477682988 0.17424433219 
5.1926007899 -2.6970137341 -2.1031679488 1.7927571992 -3.5292107344 0.39994731415 1.4490797619 -3.8382759823 0.50933929126 
-0.085653700968 -4.2916474158 1.1665722084 -0.4858020686 -4.5201551075 1.3245109036 5.0247245339 -3.1179304985 -2.140485397 
-0.86471838862 -4.7219187476 1.375321666 -1.0332153185 -5.4005926489 0.89666176591 -1.0399975258 -6.599727636 -0.21145132714 
-0.90941647393 -6.8125678326 -0.94224750778 4.6048070506 -2.5153143582 -0.76878444969 4.3593292949 -2.8803098239 -0.68981865986 
5.065314073 -2.6583834724 -1.3252811312 4.7686632272 -2.8279258748 -1.0107925004 3.9518542453 -3.0602835786 -0.47548399041 
3.5370705156 -3.2252379446 -0.28034818445 3.1382749456 -3.3566896299 -0.11036734289 2.7720196798 -3.4852886898 0.031330205249 
5.1006162068 -2.9157823796 -1.7205975474 4.890371582 -3.0999340959 -1.3459357037 2.175059344 -3.697031031 0.2501370733 
1.8653708835 -4.0017944024 0.33064521583 1.4718715188 -4.2535179688 0.4541677236 1.0604221215 -4.0818755346 0.65004948085 
4.9047968428 -3.3583494667 -1.7330227771 0.6820524753 -4.4078237321 0.80738069269 0.27413501285 -4.564415344 0.99719578047 
-0.13755983025 -4.7189030856 1.1705375781 4.8478031032 -3.5186821204 -2.1437041216 0.10484252592 -5.0062129187 1.0044741786 
-0.44464589093 -5.0092035277 1.2154599703 -0.90716235816 -5.0916106301 1.1906279865 -0.59506508579 -5.4067804754 1.0405568503 
4.6488126307 -3.8741937375 -2.1375705698 -0.75260011922 -5.7396849928 0.76025749238 -0.82219733949 -6.0341252964 0.44682488671 
-0.90208371441 -6.3568503674 0.1313201653 -0.98467602371 -6.9321705035 -0.44269804595 4.555017815 -3.2197495326 -0.99060869525 
4.1857656169 -3.3478183373 -0.72795999194 3.7891895858 -3.5227889755 -0.51016744659 3.3722798414 -3.6791879502 -0.30076792172 
2.9708674747 -3.8201826476 -0.11854540869 2.5350196421 -3.8573346859 0.075776811444 4.6794861694 -3.5007064262 -1.3483529521 
4.3387811403 -3.6486496354 -1.023858848 2.247941856 -4.2103589618 0.11664211172 2.7037811348 -4.2217860856 -0.11030819256 
1.8127573648 -4.4475791697 0.24734558027 1.0993377489 -4.4773750438 0.58951927419 4.6660167041 -3.7938485745 -1.7303125897 
1.3992616521 -4.7028337953 0.37394756837 0.91215216318 -4.8290458173 0.60492071125 0.52659505343 -4.8893523304 0.80987405497 
0.32357122691 -5.3207451436 0.78287092329 -0.15371366835 -5.3431652764 1.0008382186 4.4172829909 -4.1786753616 -2.0497516678 
-0.33518790145 -5.7412912206 0.82856277836 4.162785653 -4.4814387494 -1.9619522348 3.9062362774 -4.7628272353 -1.8561871282 
-0.56756381845 -6.462607167 0.3491963744 -0.74294723677 -6.8467805643 0.047011412375 -0.73730462946 -7.1516296723 -0.66456331616 
3.9878445812 -3.8199191283 -0.7988780568 3.5767759597 -3.9588345184 -0.54474383117 3.1461566649 -4.1300032447 -0.32801135619 
4.4426443987 -3.8854218851 -1.3480353061 4.1214012626 -4.1382068779 -1.1397196981 3.7483083026 -4.2332927951 -0.82184424085 
4.3607173588 -4.1852513935 -1.6182727493 3.3378775045 -4.3963740725 -0.57664570457 2.9239685039 -4.5570041682 -0.37106777795 
2.5099818661 -4.6196597617 -0.16137666441 2.1526600547 -4.6352918186 0.014651483191 1.8125905456 -4.8690672592 0.093213865939 
4.0825934073 -4.4935142844 -1.4827327828 3.8311383348 -4.5462918892 -1.1077651568 3.4937116732 -4.6600170186 -0.83442160737 
2.1919685673 -5.0631885539 -0.17328384088 1.4610290467 -5.0729728175 0.19933217934 1.0960577204 -5.1392890198 0.38527411534 
0.70114152526 -5.2701782059 0.57505590477 1.7548412397 -5.2891414232 -0.041675769023 0.89744742245 -5.584729492 0.32732472757 
0.079055323036 -5.6602671188 0.74619750782 1.3101034958 -5.4694277071 0.13066101027 0.46787758197 -5.7302384359 0.51948723886 
0.015689769672 -6.0394803684 0.58770101604 -0.41222299891 -6.1153525753 0.57972765307 3.6561703889 -5.0760948352 -1.7933511385 
-0.084527751994 -6.4806045255 0.42983614351 3.4046107972 -5.3957729347 -1.7241585744 -0.35746022799 -6.8186287712 0.2919169484 
-0.35772187939 -7.2205263015 0.14259534195 -0.71149591328 -7.2369320776 -0.17510003475 -0.47610933782 -7.4429694041 -0.43178052177 
3.109497611 -4.8681876815 -0.63107500238 2.6510277456 -4.9674945696 -0.37912689548 3.7913901825 -4.8537899713 -1.404047015 
3.486935501 -4.9904968527 -1.0446348418 2.8082542344 -5.2818627925 -0.60858383893 2.384876148 -5.3894294442 -0.39826787024 
3.1726203859 -5.2323532004 -0.87444458607 1.9712263331 -5.5588064672 -0.2447874598 1.5700020791 -5.7480348987 -0.098932609406 
1.1497095191 -5.8953650098 0.08328294495 3.5228538776 -5.2045461302 -1.3771102727 3.2523332581 -5.4862666842 -1.2280566875 
1.8043818556 -6.0612706545 -0.3317326278 0.74200820724 -6.0136927431 0.26949560712 0.33599217726 -6.2072042161 0.40459717912 
1.3954641875 -6.1984686757 -0.12897913147 1.0049696127 -6.3488018282 0.051157569882 0.63714588247 -6.4599152687 0.20955594798 
3.1617564822 -5.6892573517 -1.6543548357 0.29750751259 -6.6905182453 0.29201645662 2.868072881 -5.9600417403 -1.6145981092 
2.5880618377 -6.16782825 -1.4299672508 2.2667972419 -6.4087451094 -1.3719087832 1.9976549954 -6.6009129136 -1.1283073068 
2.9202790483 -5.6079223637 -0.90056689112 2.5656301736 -5.69365727 -0.65743822459 2.1580385011 -5.842894366 -0.46087975078 
2.9667258581 -5.8205303616 -1.2572354634 2.6525270281 -5.990990153 -1.0180976568 2.3307527885 -6.0629519558 -0.72498487008 
2.0068064821 -6.3499361794 -0.64773867552 1.6040556983 -6.4796810373 -0.37258632414 1.1935376576 -6.6704934796 -0.14756863802 
2.3095653296 -6.3115508883 -1.0144033125 0.77926781963 -6.8539936688 0.055340947763 0.42074962753 -7.1159621158 0.16702843341 
0.018128000316 -7.0364993236 0.26397554562 1.6852963 -6.8131865466 -1.075796808 1.3800797847 -6.9649041805 -0.87922421771 
0.14751160898 -7.4928955678 0.065408484812 -0.33263725439 -7.5489511942 -0.050103007888 1.0567105832 -7.1365873912 -0.69273833084 
0.73213568959 -7.3561682478 -0.5295395524 0.36730170389 -7.5342045889 -0.37834748565 -0.036879066298 -7.5756166254 -0.33852719214 
1.7457752524 -6.6863830191 -0.71353097564 1.371312311 -6.8689285039 -0.4716952722 0.9959234865 -7.1029761427 -0.24652149566 
0.6308338527 -7.3652105168 -0.083631040922 
POLYGONS 1904 5709
OFFSETS vtktypeint64
0 3 6 9 12 15 18 21 24 
27 30 33 36 39 42 45 48 51 
54 57 60 63 66 69 72 75 78 
81 84 87 90 93 96 99 102 105 
108 111 114 117 120 123 126 129 132 
135 138 141 144 147 150 153 156 159 
162 165 168 171 174 177 180 183 186 
189 192 195 198 201 204 207 210 213 
216 219 222 225 228 231 234 237 240 
243 246 249 252 255 258 261 264 267 
270 273 276 279 282 285 288 291 294 
297 300 303 306 309 312 315 318 321 
324 327 330 333 336 339 342 345 348 
351 354 357 360 363 366 369 372 375 
378 381 384 387 390 393 396 399 402 
405 408 411 414 417 420 423 426 429 
432 435 438 441 444 447 450 453 456 
459 462 465 468 471 474 477 480 483 
486 489 492 495 498 501 504 507 510 
513 516 519 522 525 528 531 534 537 
540 543 546 549 552 555 558 561 564 
567 570 573 576 579 582 585 588 591 
594 597 600 603 606 609 612 615 618 
621 624 627 630 633 636 639 642 645 
648 651 654 657 660 663 666 669 672 
675 678 681 684 687 690 693 696 699 
702 705 708 711 714 717 720 723 726 
729 732 735 738 741 744 747 750 753 
756 759 762 765 768 771 774 777 780 
783 786 789 792 795 798 801 804 807 
810 813 816 819 822 825 828 831 834 
837 840 843 846 849 852 855 858 861 
864 867 870 873 876 879 882 885 888 
891 894 897 900 903 906 909 912 915 
918 921 924 927 930 933 936 939 942 
945 948 951 954 957 960 963 966 969 
972 975 978 981 984 987 990 993 996 
999 1002 1005 1008 1011 1014 1017 1020 1023 
1026 1029 1032 1035 1038 1041 1044 1047 1050 
1053 1056 1059 1062 1065 1068 1071 1074 1077 
1080 1083 1086 1089 1092 1095 1098 1101 1104 
1107 1110 1113 1116 1119 1122 1125 1128 1131 
1134 1137 1140 1143 1146 1149 1152 1155 1158 
1161 1164 1167 1170 1173 1176 1179 1182 1185 
1188 1191 1194 1197 1200 1203 1206 1209 1212 
1215 1218 1221 1224 1227 1230 1233 1236 1239 
1242 1245 1248 1251 1254 1257 1260 1263 1266 
1269 1272 1275 1278 1281 1284 1287 1290 1293 
1296 1299 1302 1305 1308 1311 1314 1317 1320 
1323 1326 1329 1332 1335 1338 1341 1344 1347 
1350 1353 1356 1359 1362 1365 1368 1371 1374 
1377 1380 1383 1386 1389 1392 1395 1398 1401 
1404 1407 1410 1413 1416 1419 1422 1425 1428 
1431 1434 1437 1440 1443 1446 1449 1452 1455 
1458 1461 1464 1467 1470 1473 1476 1479 1482 
1485 1488 1491 1494 1497 1500 1503 1506 1509 
1512 1515 1518 1521 1524 1527 1530 1533 1536 
1539 1542 1545 1548 1551 1554 1557 1560 1563 
1566 1569 1572 1575 1578 1581 1584 1587 1590 
1593 1596 1599 1602 1605 1608 1611 1614 1617 
1620 1623 1626 1629 1632 1635 1638 1641 1644 
1647 1650 1653 1656 1659 1662 1665 1668 1671 
1674 1677 1680 1683 1686 1689 1692 1695 1698 
1701 1704 1707 1710 1713 1716 1719 1722 1725 
1728 1731 1734 1737 1740 1743 1746 1749 1752 
1755 1758 1761 1764 1767 1770 1773 1776 1779 
1782 1785 1788 1791 1794 1797 1800 1803 1806 
1809 1812 1815 1818 1821 1824 1827 1830 1833 
1836 1839 1842 1845 1848 1851 1854 1857 1860 
1863 1866 1869 1872 1875 1878 1881 1884 1887 
1890 1893 1896 1899 1902 1905 1908 1911 1914 
1917 1920 1923 1926 1929 1932 1935 1938 1941 
1944 1947 1950 1953 1956 1959 1962 1965 1968 
1971 1974 1977 1980 1983 1986 1989 1992 1995 
1998 2001 2004 2007 2010 2013 2016 2019 2022 
2025 2028 2031 2034 2037 2040 2043 2046 2049 
2052 2055 2058 2061 2064 2067 2070 2073 2076 
2079 2082 2085 2088 2091 2094 2097 2100 2103 
2106 2109 2112 2115 2118 2121 2124 2127 2130 
2133 2136 2139 2142 2145 2148 2151 2154 2157 
2160 2163 2166 2169 2172 2175 2178 2181 2184 
2187 2190 2193 2196 2199 2202 2205 2208 2211 
2214 2217 2220 2223 2226 2229 2232 2235 2238 
2241 2244 2247 2250 2253 2256 2259 2262 2265 
2268 2271 2274 2277 2280 2283 2286 2289 2292 
2295 2298 2301 2304 2307 2310 2313 2316 2319 
2322 2325 2328 2331 2334 2337 2340 2343 2346 
2349 2352 2355 2358 2361 2364 2367 2370 2373 
2376 2379 2382 2385 2388 2391 2394 2397 2400 
2403 2406 2409 2412 2415 2418 2421 2424 2427 
2430 2433 2436 2439 2442 2445 2448 2451 2454 
2457 2460 2463 2466 2469 2472 2475 2478 2481 
2484 2487 2490 2493 2496 2499 2502 2505 2508 
2511 2514 2517 2520 2523 2526 2529 2532 2535 
2538 2541 2544 2547 2550 2553 2556 2559 2562 
2565 2568 2571 2574 2577 2580 2583 2586 2589 
2592 2595 2598 2601 2604 2607 2610 2613 2616 
2619 2622 2625 2628 2631 2634 2637 2640 2643 
2646 2649 2652 2655 2658 2661 2664 2667 2670 
2673 2676 2679 2682 2685 2688 2691 2694 2697 
2700 2703 2706 2709 2712 2715 2718 2721 2724 
2727 2730 2733 2736 2739 2742 2745 2748 2751 
2754 2757 2760 2763 2766 2769 2772 2775 2778 
2781 2784 2787 2790 2793 2796 2799 2802 2805 
2808 2811 2814 2817 2820 2823 2826 2829 2832 
2835 2838 2841 2844 2847 2850 2853 2856 2859 
2862 2865 2868 2871 2874 2877 2880 2883 2886 
2889 2892 2895 2898 2901 2904 2907 2910 2913 
2916 2919 2922 2925 2928 2931 2934 2937 2940 
2943 2946 2949 2952 2955 2958 2961 2964 2967 
2970 2973 2976 2979 2982 2985 2988 2991 2994 
2997 3000 3003 3006 3009 3012 3015 3018 3021 
3024 3027 3030 3033 3036 3039 3042 3045 3048 
3051 3054 3057 3060 3063 3066 3069 3072 3075 
3078 3081 3084 3087 3090 3093 3096 3099 3102 
3105 3108 3111 3114 3117 3120 3123 3126 3129 
3132 3135 3138 3141 3144 3147 3150 3153 3156 
3159 3162 3165 3168 3171 3174 3177 3180 3183 
3186 3189 3192 3195 3198 3201 3204 3207 3210 
3213 3216 3219 3222 3225 3228 3231 3234 3237 
3240 3243 3246 3249 3252 3255 3258 3261 3264 
3267 3270 3273 3276 3279 3282 3285 3288 3291 
3294 3297 3300 3303 3306 3309 3312 3315 3318 
3321 3324 3327 3330 3333 3336 3339 3342 3345 
3348 3351 3354 3357 3360 3363 3366 3369 3372 
3375 3378 3381 3384 3387 3390 3393 3396 3399 
3402 3405 3408 3411 3414 3417 3420 3423 3426 
3429 3432 3435 3438 3441 3444 3447 3450 3453 
3456 3459 3462 3465 3468 3471 3474 3477 3480 
3483 3486 3489 3492 3495 3498 3501 3504 3507 
3510 3513 3516 3519 3522 3525 3528 3531 3534 
3537 3540 3543 3546 3549 3552 3555 3558 3561 
3564 3567 3570 3573 3576 3579 3582 3585 3588 
3591 3594 3597 3600 3603 3606 3609 3612 3615 
3618 3621 3624 3627 3630 3633 3636 3639 3642 
3645 3648 3651 3654 3657 3660 3663 3666 3669 
3672 3675 3678 3681 3684 3687 3690 3693 3696 
3699 3702 3705 3708 3711 3714 3717 3720 3723 
3726 3729 3732 3735 3738 3741 3744 3747 3750 
3753 3756 3759 3762 3765 3768 3771 3774 3777 
3780 3783 3786 3789 3792 3795 3798 3801 3804 
3807 3810 3813 3816 3819 3822 3825 3828 3831 
3834 3837 3840 3843 3846 3849 3852 3855 3858 
3861 3864 3867 3870 3873 3876 3879 3882 3885 
3888 3891 3894 3897 3900 3903 3906 3909 3912 
3915 3918 3921 3924 3927 3930 3933 3936 3939 
3942 3945 3948 3951 3954 3957 3960 3963 3966 
3969 3972 3975 3978 3981 3984 3987 3990 3993 
3996 3999 4002 4005 4008 4011 4014 4017 4020 
4023 4026 4029 4032 4035 4038 4041 4044 4047 
4050 4053 4056 4059 4062 4065 4068 4071 4074 
4077 4080 4083 4086 4089 4092 4095 4098 4101 
4104 4107 4110 4113 4116 4119 4122 4125 4128 
4131 4134 4137 4140 4143 4146 4149 4152 4155 
4158 4161 4164 4167 4170 4173 4176 4179 4182 
4185 4188 4191 4194 4197 4200 4203 4206 4209 
4212 4215 4218 4221 4224 4227 4230 4233 4236 
4239 4242 4245 4248 4251 4254 4257 4260 4263 
4266 4269 4272 4275 4278 4281 4284 4287 4290 
4293 4296 4299 4302 4305 4308 4311 4314 4317 
4320 4323 4326 4329 4332 4335 4338 4341 4344 
4347 4350 4353 4356 4359 4362 4365 4368 4371 
4374 4377 4380 4383 4386 4389 4392 4395 4398 
4401 4404 4407 4410 4413 4416 4419 4422 4425 
4428 4431 4434 4437 4440 4443 4446 4449 4452 
4455 4458 4461 4464 4467 4470 4473 4476 4479 
4482 4485 4488 4491 4494 4497 4500 4503 4506 
4509 4512 4515 4518 4521 4524 4527 4530 4533 
4536 4539 4542 4545 4548 4551 4554 4557 4560 
4563 4566 4569 4572 4575 4578 4581 4584 4587 
4590 4593 4596 4599 4602 4605 4608 4611 4614 
4617 4620 4623 4626 4629 4632 4635 4638 4641 
4644 4647 4650 4653 4656 4659 4662 4665 4668 
4671 4674 4677 4680 4683 4686 4689 4692 4695 
4698 4701 4704 4707 4710 4713 4716 4719 4722 
4725 4728 4731 4734 4737 4740 4743 4746 4749 
4752 4755 4758 4761 4764 4767 4770 4773 4776 
4779 4782 4785 4788 4791 4794 4797 4800 4803 
4806 4809 4812 4815 4818 4821 4824 4827 4830 
4833 4836 4839 4842 4845 4848 4851 4854 4857 
4860 4863 4866 4869 4872 4875 4878 4881 4884 
4887 4890 4893 4896 4899 4902 4905 4908 4911 
4914 4917 4920 4923 4926 4929 4932 4935 4938 
4941 4944 4947 4950 4953 4956 4959 4962 4965 
4968 4971 4974 4977 4980 4983 4986 4989 4992 
4995 4998 5001 5004 5007 5010 5013 5016 5019 
5022 5025 5028 5031 5034 5037 5040 5043 5046 
5049 5052 5055 5058 5061 5064 5067 5070 5073 
5076 5079 5082 5085 5088 5091 5094 5097 5100 
5103 5106 5109 5112 5115 5118 5121 5124 5127 
5130 5133 5136 5139 5142 5145 5148 5151 5154 
5157 5160 5163 5166 5169 5172 5175 5178 5181 
5184 5187 5190 5193 5196 5199 5202 5205 5208 
5211 5214 5217 5220 5223 5226 5229 5232 5235 
5238 5241 5244 5247 5250 5253 5256 5259 5262 
5265 5268 5271 5274 5277 5280 5283 5286 5289 
5292 5295 5298 5301 5304 5307 5310 5313 5316 
5319 5322 5325 5328 5331 5334 5337 5340 5343 
5346 5349 5352 5355 5358 5361 5364 5367 5370 
5373 5376 5379 5382 5385 5388 5391 5394 5397 
5400 5403 5406 5409 5412 5415 5418 5421 5424 
5427 5430 5433 5436 5439 5442 5445 5448 5451 
5454 5457 5460 5463 5466 5469 5472 5475 5478 
5481 5484 5487 5490 5493 5496 5499 5502 5505 
5508 5511 5514 5517 5520 5523 5526 5529 5532 
5535 5538 5541 5544 5547 5550 5553 5556 5559 
5562 5565 5568 5571 5574 5577 5580 5583 5586 
5589 5592 5595 5598 5601 5604 5607 5610 5613 
5616 5619 5622 5625 5628 5631 5634 5637 5640 
5643 5646 5649 5652 5655 5658 5661 5664 5667 
5670 5673 5676 5679 5682 5685 5688 5691 5694 
5697 5700 5703 5706 5709 
CONNECTIVITY vtktypeint64
2 1 0 0 1 3 5 2 0 
0 3 7 7 5 0 512 513 545 
545 544 512 768 769 799 768 799 825 
1 2 11 10 3 1 9 8 1 
1 8 10 11 9 1 257 280 309 
309 308 257 513 514 545 769 771 800 
800 799 769 5 4 2 2 4 11 
258 259 282 311 281 258 258 282 311 
514 515 578 578 545 514 819 773 770 
770 795 819 13 7 3 3 10 12 
3 12 13 259 260 283 283 282 259 
515 516 546 515 546 578 801 800 771 
4 5 6 4 6 24 22 11 4 
24 22 4 312 283 260 260 284 312 
516 517 548 547 546 516 548 547 516 
772 774 804 803 801 772 804 803 772 
15 6 5 5 7 14 5 14 15 
285 284 261 286 285 261 549 548 517 
819 802 773 6 15 25 25 24 6 
288 287 262 518 520 550 579 549 518 
518 550 579 774 775 805 805 804 774 
7 13 17 17 14 7 291 288 263 
263 290 291 552 520 519 519 521 551 
519 551 552 775 776 806 806 805 775 
8 9 19 21 10 8 8 19 20 
8 20 21 266 265 264 264 265 269 
267 266 264 552 550 520 776 777 834 
834 806 776 9 11 34 32 19 9 
34 32 9 265 266 322 294 269 265 
295 294 265 322 295 265 553 551 521 
777 807 808 777 808 834 21 12 10 
266 267 296 266 296 357 357 322 266 
554 523 522 555 554 522 556 555 522 
778 779 837 836 807 778 837 836 778 
11 22 34 267 268 296 554 529 523 
779 780 837 12 21 23 323 296 268 
268 298 323 524 525 557 557 556 524 
780 781 838 838 837 780 13 16 17 
269 273 279 294 273 269 525 526 558 
558 557 525 781 809 839 839 838 781 
26 15 14 14 17 18 14 18 26 
326 298 270 270 299 326 584 558 526 
526 559 584 782 783 811 811 810 782 
37 25 15 15 26 37 271 272 329 
329 301 271 561 559 527 527 560 561 
812 811 783 18 17 16 27 18 16 
272 277 305 272 305 329 528 530 562 
562 560 528 814 813 784 273 278 279 
306 278 273 273 294 297 273 297 306 
585 532 529 529 554 585 785 786 787 
785 787 789 789 788 785 28 26 18 
18 27 40 40 28 18 274 275 303 
303 300 274 530 531 563 563 562 530 
790 787 786 29 20 19 31 29 19 
32 31 19 332 303 275 275 304 332 
531 533 565 565 563 531 815 789 787 
787 790 816 816 815 787 33 21 20 
20 29 30 20 30 33 276 301 333 
333 304 276 586 564 532 532 585 586 
788 789 795 33 23 21 334 305 277 
277 308 334 533 534 566 566 565 533 
815 795 789 22 24 35 35 34 22 
534 535 568 568 566 534 790 792 816 
23 33 47 535 536 569 569 568 535 
793 792 791 794 793 791 24 25 36 
36 35 24 280 281 310 310 309 280 
536 537 570 570 569 536 792 793 817 
817 816 792 48 36 25 25 37 48 
311 310 281 537 538 571 571 570 537 
793 794 818 821 817 793 793 818 821 
26 28 38 38 37 26 282 283 342 
342 311 282 538 539 572 572 571 538 
794 796 818 27 39 40 283 312 343 
343 342 283 539 540 573 573 572 539 
795 815 819 52 38 28 28 40 41 
28 41 52 284 285 344 344 312 284 
540 541 542 540 542 574 574 573 540 
796 797 822 822 818 796 43 30 29 
29 31 42 29 42 43 285 286 313 
285 313 346 346 344 285 797 798 823 
823 822 797 45 33 30 30 43 45 
286 287 313 542 543 575 575 574 542 
824 823 798 825 824 798 31 32 44 
55 42 31 31 44 55 287 288 314 
347 313 287 287 314 347 543 544 576 
601 575 543 543 576 601 799 800 827 
827 825 799 32 34 44 288 291 315 
315 314 288 544 545 576 800 801 828 
830 827 800 800 828 830 33 45 47 
316 290 289 577 576 545 578 577 545 
801 803 828 34 35 46 46 44 34 
317 291 290 290 316 317 546 547 605 
604 578 546 605 604 546 802 819 826 
802 826 829 35 36 60 60 46 35 
348 315 291 291 317 348 547 548 606 
606 605 547 803 804 831 831 828 803 
36 48 61 61 60 36 292 293 297 
320 293 292 292 294 295 297 294 292 
292 295 321 321 320 292 548 549 607 
607 606 548 804 805 832 832 831 804 
37 38 49 49 48 37 302 297 293 
324 302 293 320 318 293 293 318 324 
549 579 607 805 806 833 833 832 805 
63 49 38 38 52 63 550 552 608 
608 579 550 835 833 806 806 834 835 
51 40 39 39 50 51 356 321 295 
295 322 356 610 552 551 551 553 580 
551 580 611 611 610 551 836 808 807 
51 41 40 296 323 358 358 357 296 
610 608 552 858 834 808 808 836 859 
859 858 808 41 51 67 64 52 41 
67 64 41 297 302 306 809 810 840 
862 839 809 809 840 862 54 43 42 
69 54 42 42 55 69 325 323 298 
326 325 298 554 555 581 554 581 585 
810 811 841 841 840 810 53 45 43 
54 53 43 299 300 327 327 326 299 
555 556 582 612 581 555 555 582 612 
811 812 842 842 841 811 44 46 56 
56 55 44 300 303 328 328 327 300 
556 557 582 812 813 843 843 842 812 
59 47 45 45 53 57 45 57 59 
301 329 330 301 330 333 557 558 583 
583 582 557 813 814 844 844 843 813 
58 56 46 60 58 46 307 306 302 
336 307 302 302 324 336 613 583 558 
558 584 614 614 613 558 864 844 814 
363 328 303 303 332 363 559 561 615 
615 584 559 815 816 820 820 819 815 
48 49 62 62 61 48 364 332 304 
304 333 364 587 561 560 560 562 587 
816 817 820 75 62 49 49 63 75 
366 329 305 305 334 337 305 337 366 
561 587 616 616 615 561 845 820 817 
817 821 845 66 51 50 50 65 66 
562 563 588 588 587 562 848 821 818 
818 822 848 51 66 67 563 565 591 
589 588 563 591 589 563 819 820 826 
64 63 52 308 309 339 339 334 308 
564 586 590 846 826 820 820 845 846 
53 54 68 71 57 53 53 68 71 
309 310 340 340 339 309 565 566 591 
847 845 821 865 847 821 821 848 865 
81 68 54 54 69 81 310 311 341 
341 340 310 568 567 566 566 567 591 
822 823 849 849 848 822 55 56 70 
70 69 55 342 341 311 567 568 594 
593 591 567 594 593 567 823 824 850 
850 849 823 56 58 86 84 70 56 
86 84 56 345 343 312 312 344 345 
568 569 595 595 594 568 824 825 851 
851 850 824 72 59 57 57 71 82 
82 72 57 374 346 313 313 347 374 
569 570 596 596 595 569 825 827 852 
852 851 825 58 60 73 58 73 86 
314 315 375 375 347 314 570 571 597 
597 596 570 853 829 826 826 846 853 
315 348 349 315 349 375 571 572 597 
827 830 854 854 852 827 60 61 74 
74 73 60 350 317 316 572 573 598 
598 597 572 856 830 828 828 831 856 
61 62 74 351 348 317 317 350 351 
573 574 599 599 598 573 829 853 855 
88 74 62 62 75 88 318 319 324 
354 319 318 318 320 354 574 575 600 
600 599 574 875 854 830 830 856 875 
63 64 76 89 75 63 63 76 89 
331 324 319 352 331 319 353 352 319 
354 353 319 602 600 575 575 601 602 
831 832 857 857 856 831 64 67 80 
80 76 64 320 321 382 355 354 320 
382 355 320 576 577 603 603 601 576 
832 833 878 878 857 832 77 66 65 
321 356 383 383 382 321 577 578 604 
635 603 577 577 604 635 833 835 880 
880 878 833 79 67 66 66 77 78 
66 78 79 384 356 322 322 357 384 
858 835 834 67 79 80 323 325 360 
360 358 323 639 607 579 579 608 609 
579 609 639 835 858 881 881 880 835 
95 71 68 68 81 94 68 94 95 
324 331 335 324 335 336 641 611 580 
836 837 861 861 859 836 69 70 96 
96 81 69 325 326 361 388 360 325 
325 361 388 617 585 581 581 612 642 
642 617 581 837 838 861 70 84 97 
97 96 70 326 327 361 582 583 643 
643 612 582 838 839 886 886 861 838 
83 82 71 95 83 71 327 328 362 
362 361 327 583 613 643 839 862 886 
72 82 87 390 362 328 328 363 390 
615 614 584 840 841 890 889 862 840 
890 889 840 73 74 101 99 86 73 
101 99 73 366 330 329 617 586 585 
841 842 891 891 890 841 74 88 101 
365 333 330 395 365 330 330 366 395 
647 590 586 586 617 647 842 843 863 
842 863 891 103 88 75 75 89 103 
367 335 331 331 352 359 331 359 367 
587 588 618 618 616 587 843 844 863 
76 80 106 105 89 76 106 105 76 
391 363 332 332 364 391 588 589 620 
619 618 588 620 619 588 892 863 844 
844 864 892 90 78 77 365 364 333 
589 591 592 589 592 620 847 846 845 
92 79 78 78 90 91 78 91 92 
338 337 334 339 338 334 647 621 590 
846 847 867 867 853 846 93 80 79 
79 92 93 593 592 591 847 865 868 
868 867 847 80 93 106 592 593 625 
622 620 592 625 622 592 848 849 866 
866 865 848 111 94 81 81 96 111 
337 338 369 368 366 337 369 368 337 
593 594 626 626 625 593 849 850 869 
869 866 849 82 83 85 82 85 87 
338 339 340 338 340 370 370 369 338 
594 595 627 627 626 594 850 851 870 
870 869 850 112 85 83 83 95 113 
113 112 83 595 596 628 628 627 595 
851 852 871 871 870 851 84 86 98 
98 97 84 340 341 371 371 370 340 
596 597 629 657 628 596 596 629 657 
852 854 872 872 871 852 100 87 85 
115 100 85 85 112 115 341 342 372 
372 371 341 597 598 630 630 629 597 
873 855 853 853 867 873 99 98 86 
342 343 372 598 599 631 631 630 598 
898 872 854 854 875 898 343 345 404 
404 372 343 599 600 632 632 631 599 
873 860 855 102 101 88 103 102 88 
373 345 344 344 346 373 600 602 633 
633 632 600 856 857 876 876 875 856 
104 103 89 105 104 89 345 373 405 
405 404 345 634 602 601 601 603 634 
877 876 857 878 877 857 107 91 90 
406 373 346 346 374 406 663 633 602 
602 634 664 664 663 602 858 859 882 
882 881 858 108 92 91 91 107 123 
123 108 91 376 374 347 347 375 376 
665 634 603 603 635 665 859 861 885 
885 882 859 122 93 92 92 108 122 
408 349 348 348 351 378 348 378 408 
604 605 636 666 635 604 604 636 666 
860 873 879 860 879 883 121 106 93 
137 121 93 93 122 137 407 375 349 
408 407 349 605 606 637 637 636 605 
886 885 861 109 95 94 110 109 94 
111 110 94 377 351 350 606 607 638 
638 637 606 887 886 862 889 887 862 
95 109 113 351 377 409 409 378 351 
639 638 607 916 891 863 863 892 916 
96 97 126 126 111 96 352 353 379 
379 359 352 640 609 608 608 610 640 
917 892 864 97 98 131 131 126 97 
353 354 381 380 379 353 381 380 353 
670 639 609 609 640 671 671 670 609 
865 866 868 98 99 114 98 114 131 
354 355 381 610 611 640 893 868 866 
866 869 894 894 893 866 99 101 117 
117 114 99 411 381 355 355 382 411 
672 640 611 611 641 673 673 672 611 
867 868 874 874 873 867 100 115 116 
413 383 356 356 384 413 675 642 612 
612 643 676 676 675 612 893 874 868 
101 102 118 118 117 101 357 358 385 
385 384 357 613 614 644 677 643 613 
613 644 677 869 870 895 895 894 869 
102 103 119 119 118 102 358 360 386 
386 385 358 614 615 645 645 644 614 
870 871 896 896 895 870 103 104 120 
120 119 103 392 367 359 359 379 387 
359 387 392 615 616 646 646 645 615 
871 872 897 897 896 871 104 105 135 
135 120 104 416 386 360 360 388 416 
616 618 646 898 897 872 105 106 121 
105 121 136 136 135 105 361 362 417 
417 388 361 617 642 678 678 647 617 
873 874 879 362 390 418 418 417 362 
618 619 648 648 646 618 899 879 874 
874 893 899 139 123 107 419 390 363 
363 391 419 619 620 623 619 623 649 
649 648 619 875 876 901 901 898 875 
140 122 108 108 123 140 364 365 393 
393 391 364 620 622 623 876 877 903 
903 901 876 109 110 124 130 113 109 
109 124 130 394 393 365 395 394 365 
684 624 621 621 647 684 877 878 904 
906 903 877 877 904 906 110 111 125 
143 124 110 110 125 143 366 368 395 
650 623 622 622 625 652 652 650 622 
878 880 904 126 125 111 650 649 623 
905 883 879 879 899 905 112 113 129 
127 115 112 129 127 112 368 369 398 
397 395 368 398 397 368 687 651 624 
624 684 687 880 881 908 907 904 880 
908 907 880 130 129 113 369 370 399 
399 398 369 625 626 653 653 652 625 
881 882 884 881 884 908 114 117 134 
132 131 114 134 132 114 370 371 399 
626 627 654 654 653 626 885 884 882 
128 116 115 115 127 128 371 372 402 
401 399 371 402 401 371 627 628 655 
655 654 627 905 888 883 116 128 133 
404 402 372 656 655 628 657 656 628 
884 885 910 909 908 884 910 909 884 
117 118 134 428 405 373 373 406 428 
629 630 659 659 657 629 885 886 887 
885 887 910 118 119 151 151 134 118 
374 376 430 430 406 374 630 631 660 
660 659 630 119 120 153 153 151 119 
407 376 375 631 632 661 661 660 631 
887 889 912 912 910 887 120 135 154 
154 153 120 376 407 432 431 430 376 
432 431 376 632 633 662 662 661 632 
888 905 911 138 136 121 121 137 138 
435 409 377 663 662 633 889 890 943 
943 912 889 141 137 122 122 140 141 
434 408 378 378 409 434 665 664 634 
890 891 915 890 915 943 123 139 142 
142 140 123 379 380 410 410 387 379 
666 665 635 916 915 891 159 130 124 
124 143 160 160 159 124 380 381 439 
438 410 380 439 438 380 636 637 667 
705 666 636 636 667 705 949 916 892 
892 917 949 125 126 161 161 143 125 
381 411 440 440 439 381 637 638 668 
668 667 637 893 894 900 900 899 893 
126 131 144 126 144 161 382 383 412 
412 411 382 638 639 669 669 668 638 
894 895 918 918 900 894 145 128 127 
127 129 148 147 145 127 148 147 127 
442 412 383 383 413 442 670 669 639 
895 896 919 919 918 895 149 133 128 
128 145 146 128 146 149 384 385 414 
414 413 384 672 671 640 896 897 920 
920 919 896 129 130 148 385 386 444 
444 414 385 674 673 641 897 898 902 
897 902 920 159 148 130 386 416 445 
445 444 386 642 675 678 898 901 902 
131 132 144 387 389 392 415 389 387 
387 410 415 677 676 643 899 900 921 
921 905 899 132 134 170 167 144 132 
170 167 132 448 416 388 388 417 448 
644 645 682 681 677 644 682 681 644 
900 918 922 922 921 900 133 149 150 
389 415 450 645 646 683 683 682 645 
927 902 901 901 903 928 928 927 901 
134 151 152 134 152 170 451 418 390 
390 419 451 646 648 683 926 920 902 
927 926 902 135 136 155 155 154 135 
391 393 420 420 419 391 647 678 684 
903 906 929 929 928 903 136 138 176 
176 155 136 648 649 685 685 683 648 
907 906 904 156 138 137 137 141 156 
393 394 421 421 420 393 649 650 688 
688 685 649 924 911 905 905 921 924 
138 156 177 177 176 138 394 395 396 
394 396 422 422 421 394 650 652 691 
689 688 650 691 689 650 906 907 935 
934 929 906 935 934 906 157 142 139 
397 396 395 651 687 720 720 690 651 
907 908 936 936 935 907 158 141 140 
140 142 158 396 397 423 423 422 396 
652 653 692 692 691 652 908 909 936 
178 156 141 141 158 178 397 398 424 
424 423 397 653 654 694 693 692 653 
694 693 653 909 910 939 941 936 909 
909 939 941 142 157 179 179 158 142 
398 399 400 398 400 424 654 655 694 
910 912 939 185 160 143 143 161 186 
186 185 143 401 400 399 655 656 695 
695 694 655 924 913 911 187 161 144 
144 167 187 400 401 426 425 424 400 
426 425 400 656 657 658 656 658 696 
696 695 656 942 939 912 943 942 912 
165 146 145 145 147 166 166 165 145 
401 402 427 427 426 401 659 658 657 
930 914 913 913 924 930 163 149 146 
164 163 146 165 164 146 404 403 402 
402 403 427 658 659 698 697 696 658 
698 697 658 914 930 953 953 944 914 
147 148 184 189 166 147 147 184 189 
403 404 405 403 405 460 459 427 403 
460 459 403 659 660 698 915 916 947 
945 943 915 947 945 915 148 159 184 
660 661 699 699 698 660 948 947 916 
949 948 916 163 150 149 405 428 460 
661 662 700 700 699 661 950 949 917 
150 163 172 429 428 406 430 429 406 
662 663 701 701 700 662 918 919 923 
923 922 918 173 152 151 151 153 173 
407 408 433 433 432 407 663 664 702 
702 701 663 919 920 925 925 923 919 
193 170 152 152 173 193 434 433 408 
664 665 703 703 702 664 926 925 920 
153 154 174 174 173 153 437 434 409 
409 435 436 409 436 437 665 666 704 
704 703 665 921 922 924 154 155 175 
175 174 154 447 415 410 410 438 447 
705 704 666 922 923 931 930 924 922 
931 930 922 195 175 155 155 176 195 
411 412 441 441 440 411 667 668 706 
742 705 667 667 706 742 923 925 932 
932 931 923 197 177 156 156 178 197 
468 441 412 412 442 468 668 669 743 
743 706 668 180 179 157 413 414 443 
443 442 413 669 670 744 744 743 669 
925 926 951 951 932 925 199 178 158 
158 179 198 158 198 199 470 443 414 
414 444 470 670 671 707 670 707 744 
926 927 952 952 951 926 159 160 183 
159 183 184 447 446 415 415 446 450 
671 672 708 708 707 671 927 928 933 
927 933 952 205 183 160 160 185 205 
474 445 416 416 448 474 672 673 709 
709 708 672 928 929 933 187 186 161 
417 418 449 449 448 417 673 674 709 
937 933 929 929 934 937 162 163 164 
168 163 162 162 164 182 169 168 162 
181 169 162 182 181 162 475 449 418 
418 451 475 746 709 674 930 931 953 
163 168 172 419 420 452 452 451 419 
675 676 679 680 678 675 675 679 680 
931 932 954 954 953 931 164 165 207 
207 182 164 420 421 453 453 452 420 
676 677 710 710 679 676 932 951 954 
165 166 208 208 207 165 421 422 454 
454 453 421 677 681 710 933 937 958 
956 952 933 958 956 933 166 189 209 
209 208 166 422 423 455 455 454 422 
678 680 686 686 684 678 934 935 940 
940 937 934 167 170 190 190 187 167 
423 424 456 456 455 423 711 680 679 
679 710 711 935 936 938 935 938 940 
168 169 171 168 171 172 424 425 456 
711 686 680 941 938 936 192 171 169 
169 181 188 169 188 192 425 426 458 
457 456 425 458 457 425 681 682 713 
712 710 681 713 712 681 937 940 959 
959 958 937 191 190 170 193 191 170 
426 427 459 459 458 426 682 683 714 
714 713 682 960 940 938 938 941 964 
964 960 938 683 685 714 942 941 939 
428 429 486 486 460 428 684 686 687 
960 959 940 173 174 216 215 193 173 
216 215 173 429 430 461 429 461 513 
513 486 429 685 688 719 719 714 685 
941 942 965 965 964 941 174 175 194 
174 194 216 430 431 461 715 687 686 
686 711 715 942 943 945 942 945 965 
217 194 175 175 195 217 431 432 488 
487 461 431 488 487 431 687 715 720 
176 177 196 196 195 176 432 433 489 
489 488 432 688 689 722 722 719 688 
961 946 944 944 953 961 219 196 177 
177 197 219 433 434 462 433 462 489 
689 691 725 723 722 689 725 723 689 
945 947 987 970 965 945 987 970 945 
199 197 178 434 437 462 690 720 724 
690 724 726 946 961 962 946 962 969 
179 180 200 200 198 179 463 436 435 
691 692 725 947 948 987 222 200 180 
491 437 436 436 463 464 436 464 491 
692 693 727 727 725 692 948 949 991 
990 987 948 991 990 948 181 182 201 
202 188 181 181 201 202 490 462 437 
491 490 437 693 694 729 762 727 693 
693 729 762 949 950 991 203 201 182 
227 203 182 182 207 227 438 439 466 
465 447 438 466 465 438 694 695 729 
995 991 950 189 184 183 228 189 183 
205 204 183 183 204 228 439 440 467 
467 466 439 695 696 732 732 729 695 
951 952 955 957 954 951 951 955 957 
440 441 495 495 467 440 696 697 733 
733 732 696 956 955 952 185 186 206 
230 205 185 185 206 230 441 468 496 
496 495 441 697 698 734 734 733 697 
953 954 961 186 187 206 442 443 469 
469 468 442 698 699 735 735 734 698 
954 957 962 962 961 954 187 190 210 
210 206 187 497 469 443 443 470 497 
699 700 736 736 735 699 955 956 976 
975 957 955 976 975 955 212 192 188 
188 202 211 188 211 212 444 445 471 
471 470 444 700 701 737 737 736 700 
956 958 977 977 976 956 228 209 189 
499 471 445 445 474 499 701 702 738 
738 737 701 975 962 957 190 191 235 
235 210 190 446 447 472 473 450 446 
446 472 473 702 703 739 739 738 702 
958 959 963 958 963 977 191 193 214 
191 214 237 237 235 191 447 465 493 
493 472 447 703 704 740 740 739 703 
959 960 966 966 963 959 448 449 501 
501 474 448 704 705 741 741 740 704 
960 964 967 967 966 960 215 214 193 
449 475 503 503 501 449 742 741 705 
240 216 194 194 217 240 780 779 706 
779 742 706 706 743 780 978 969 962 
962 975 978 195 196 218 218 217 195 
451 452 476 476 475 451 707 708 782 
745 744 707 782 745 707 963 966 982 
981 977 963 982 981 963 241 218 196 
196 219 241 452 453 477 477 476 452 
783 782 708 708 709 783 964 965 968 
968 967 964 197 199 220 220 219 197 
453 454 478 478 477 453 709 746 747 
709 747 783 970 968 965 221 199 198 
198 200 223 223 221 198 454 455 479 
479 478 454 712 711 710 966 967 983 
983 982 966 221 220 199 455 456 480 
481 479 455 455 480 481 711 712 716 
716 715 711 967 968 985 985 983 967 
200 222 224 224 223 200 456 457 480 
712 713 717 717 716 712 968 970 985 
225 202 201 201 203 226 226 225 201 
457 458 483 482 480 457 483 482 457 
713 714 718 718 717 713 978 971 969 
232 211 202 202 225 232 458 459 484 
484 483 458 719 718 714 986 985 970 
987 986 970 248 226 203 203 227 248 
459 460 485 485 484 459 715 716 748 
748 720 715 978 972 971 204 205 229 
251 228 204 204 229 250 204 250 251 
486 485 460 716 717 749 749 748 716 
984 973 972 972 978 979 972 979 984 
230 229 205 514 513 461 461 487 514 
717 718 750 750 749 717 984 974 973 
206 210 231 231 230 206 517 489 462 
462 490 517 718 719 721 718 721 750 
984 981 974 974 981 996 996 988 974 
207 208 234 234 227 207 492 464 463 
722 721 719 975 976 979 979 978 975 
208 209 253 253 234 208 464 519 520 
520 491 464 464 492 519 748 724 720 
976 977 980 980 979 976 209 228 254 
254 253 209 465 466 494 494 493 465 
721 722 755 754 750 721 755 754 721 
981 980 977 255 231 210 210 235 255 
466 467 524 524 494 466 722 723 755 
213 212 211 233 213 211 211 232 233 
525 524 467 467 495 525 723 725 757 
756 755 723 757 756 723 979 980 984 
468 469 496 758 726 724 724 748 751 
724 751 758 980 981 984 213 233 236 
527 496 469 469 497 527 725 727 757 
981 982 996 214 215 238 238 237 214 
470 471 528 528 497 470 758 728 726 
982 983 997 997 996 982 215 216 239 
239 238 215 530 528 471 471 499 530 
761 757 727 762 761 727 983 985 998 
998 997 983 240 239 216 498 473 472 
472 493 523 523 498 472 758 730 728 
217 218 259 259 240 217 473 498 502 
732 731 729 729 731 762 985 986 999 
999 998 985 260 259 218 218 241 260 
500 499 474 501 500 474 730 758 788 
788 764 730 986 987 990 986 990 999 
219 220 261 261 241 219 475 476 504 
504 503 475 731 732 766 765 762 731 
767 765 731 731 766 767 220 221 242 
220 242 261 476 477 505 505 504 476 
732 733 766 996 989 988 221 223 262 
262 242 221 477 478 506 506 505 477 
733 734 769 769 766 733 997 992 989 
989 996 997 243 224 222 478 479 507 
507 506 478 771 769 734 734 735 771 
990 991 995 995 994 990 990 994 999 
223 224 244 223 244 262 479 481 508 
508 507 479 801 771 735 735 772 801 
735 736 772 224 243 263 263 244 224 
509 481 480 480 482 509 774 772 736 
736 737 774 998 993 992 992 997 998 
225 226 247 246 232 225 247 246 225 
509 508 481 775 774 737 737 738 775 
999 994 993 993 998 999 270 247 226 
226 248 270 482 483 541 541 509 482 
776 775 738 738 739 776 227 234 249 
249 248 227 483 484 510 483 510 541 
777 776 739 739 740 777 228 251 254 
484 485 511 511 510 484 807 777 740 
740 741 807 229 230 271 271 250 229 
485 486 512 512 511 485 741 778 807 
741 742 778 272 271 230 230 231 272 
513 512 486 779 778 742 277 272 231 
231 255 277 515 514 487 487 488 515 
781 780 743 743 744 781 245 233 232 
246 245 232 516 515 488 488 489 516 
744 745 781 256 236 233 233 245 252 
233 252 256 517 516 489 809 781 745 
745 782 810 810 809 745 274 249 234 
234 253 274 549 517 490 490 518 549 
490 491 518 784 747 746 235 237 257 
257 255 235 520 518 491 812 783 747 
747 784 813 813 812 747 521 519 492 
748 749 752 752 751 748 280 257 237 
237 238 280 493 522 523 493 494 522 
749 750 753 753 752 749 281 280 238 
238 239 281 556 522 494 494 524 556 
754 753 750 239 258 281 239 240 258 
526 525 495 495 496 526 751 752 785 
785 758 751 259 258 240 559 526 496 
496 527 559 752 753 785 284 260 241 
241 261 284 560 527 497 497 528 560 
786 785 753 753 754 786 286 261 242 
242 262 287 287 286 242 498 523 529 
498 529 532 532 502 498 754 755 759 
754 759 786 290 263 243 243 289 290 
531 530 499 499 500 531 755 756 759 
288 262 244 244 263 288 533 531 500 
500 501 533 756 757 760 791 759 756 
756 760 791 267 264 245 245 246 267 
264 252 245 501 503 533 761 760 757 
268 267 246 246 247 268 502 532 564 
758 785 788 298 268 247 247 270 298 
534 533 503 503 504 534 790 786 759 
792 790 759 759 791 792 299 270 248 
248 249 299 535 534 504 504 505 535 
794 791 760 760 761 794 249 274 300 
300 299 249 536 535 505 505 506 536 
796 794 761 761 762 763 761 763 796 
250 271 301 301 276 250 276 251 250 
537 536 506 506 507 537 765 763 762 
276 254 251 538 537 507 507 508 538 
797 796 763 763 765 797 279 256 252 
252 264 269 252 269 279 539 538 508 
508 509 539 795 770 764 764 788 795 
275 274 253 253 254 275 540 539 509 
541 540 509 798 797 765 765 767 798 
304 275 254 254 276 304 542 541 510 
543 542 510 510 511 543 769 768 766 
768 767 766 255 257 308 308 277 255 
511 512 544 544 543 511 767 768 825 
825 798 767 
